# Blender 5.2.0 LTS
# www.blender.org
mtllib true table.mtl
o Cube
v 0.538377 1.170782 1.480438
v 0.538377 1.224484 1.480438
v 0.437114 1.164898 -0.000000
v 0.539699 1.230368 0.026131
v 0.556979 1.197633 1.474622
v 0.000000 1.164898 1.438561
v 0.000000 1.230368 1.438561
v 0.565519 1.197633 -0.000000
v 0.000000 1.197633 1.483879
v 0.000000 1.152550 -0.000000
v 0.000000 1.235336 -0.000000
v -0.538377 1.170782 1.480438
v -0.538377 1.224484 1.480438
v -0.437114 1.164898 -0.000000
v -0.550814 1.227057 -0.003245
v -0.556979 1.197633 1.474622
v -0.565519 1.197633 -0.000000
v 0.538377 1.170782 -1.480438
v 0.538377 1.224484 -1.480438
v 0.556979 1.197633 -1.474622
v 0.000000 1.164898 -1.438561
v 0.000000 1.230368 -1.438561
v 0.000000 1.197633 -1.483879
v -0.538377 1.170782 -1.480438
v -0.538377 1.224484 -1.480438
v -0.556979 1.197633 -1.474622
v -0.437587 0.000717 1.247328
v -0.437587 1.173177 1.217833
v -0.413854 0.000717 1.258758
v -0.390793 1.173177 1.240367
v -0.407992 0.000717 1.284439
v -0.379236 1.173177 1.291003
v -0.424416 0.000717 1.305034
v -0.411619 1.173177 1.331609
v -0.450758 0.000717 1.305034
v -0.463556 1.173177 1.331609
v -0.467182 0.000717 1.284439
v -0.495939 1.173177 1.291003
v -0.461321 0.000717 1.258758
v -0.484381 1.173177 1.240367
v 0.450693 0.000717 1.245616
v 0.450693 1.173177 1.216120
v 0.474427 0.000717 1.257045
v 0.497487 1.173177 1.238655
v 0.480288 0.000717 1.282727
v 0.509044 1.173177 1.289290
v 0.463864 0.000717 1.303322
v 0.476662 1.173177 1.329896
v 0.437522 0.000717 1.303322
v 0.424724 1.173177 1.329896
v 0.421098 0.000717 1.282727
v 0.392342 1.173177 1.289290
v 0.426960 0.000717 1.257045
v 0.403899 1.173177 1.238655
v 0.450693 0.000717 -1.286368
v 0.450693 1.173177 -1.315863
v 0.474427 0.000717 -1.274938
v 0.497487 1.173177 -1.293329
v 0.480288 0.000717 -1.249257
v 0.509044 1.173177 -1.242693
v 0.463864 0.000717 -1.228662
v 0.476662 1.173177 -1.202087
v 0.437522 0.000717 -1.228662
v 0.424724 1.173177 -1.202087
v 0.421098 0.000717 -1.249257
v 0.392342 1.173177 -1.242693
v 0.426960 0.000717 -1.274938
v 0.403899 1.173177 -1.293329
v -0.437587 0.000717 -1.284655
v -0.437587 1.173177 -1.314151
v -0.413854 0.000717 -1.273226
v -0.390793 1.173177 -1.291616
v -0.407992 0.000717 -1.247544
v -0.379236 1.173177 -1.240981
v -0.424416 0.000717 -1.226949
v -0.411619 1.173177 -1.200374
v -0.450758 0.000717 -1.226949
v -0.463556 1.173177 -1.200374
v -0.467182 0.000717 -1.247544
v -0.495939 1.173177 -1.240981
v -0.461321 0.000717 -1.273226
v -0.484381 1.173177 -1.291616
vn 0.8025 0.5967 0.0028
vn 0.8013 0.5982 -0.0027
vn 0.8027 0.5963 0.0039
vn 0.3753 -0.9269 -0.0099
vn -0.0220 -0.5476 0.8364
vn -0.0220 0.5476 0.8364
vn 0.0184 -0.9998 -0.0000
vn 0.0184 -0.9998 0.0056
vn 0.0099 1.0000 0.0001
vn 0.0093 1.0000 0.0036
vn 0.0098 0.9999 0.0038
vn -0.8612 0.5083 -0.0061
vn -0.8607 0.5091 0.0065
vn -0.8609 0.5087 0.0062
vn -0.3753 -0.9269 -0.0099
vn 0.0220 -0.5476 0.8364
vn 0.0220 0.5476 0.8364
vn -0.0184 -0.9998 -0.0000
vn -0.0184 -0.9998 0.0056
vn -0.0129 0.9999 -0.0000
vn -0.0129 0.9999 0.0026
vn 0.8011 0.5985 -0.0038
vn 0.3753 -0.9269 0.0099
vn -0.0220 -0.5476 -0.8364
vn -0.0220 0.5476 -0.8364
vn 0.0184 -0.9998 -0.0056
vn 0.0100 0.9999 -0.0037
vn -0.8610 0.5085 -0.0066
vn -0.3753 -0.9269 0.0099
vn 0.0220 -0.5476 -0.8364
vn 0.0220 0.5476 -0.8364
vn -0.0184 -0.9998 -0.0056
vn -0.0129 0.9999 -0.0026
vn 0.4338 -0.0227 -0.9007
vn 0.9747 -0.0227 -0.2225
vn 0.7816 -0.0227 0.6233
vn -0.0000 -0.0227 0.9997
vn -0.7816 -0.0227 0.6233
vn -0.0000 1.0000 -0.0000
vn -0.9747 -0.0227 -0.2225
vn -0.4338 -0.0227 -0.9007
vn -0.0000 -1.0000 -0.0000
vt 0.500000 0.625000
vt 0.625000 0.625000
vt 0.625000 0.750000
vt 0.500000 0.750000
vt 0.375000 0.625000
vt 0.375000 0.750000
vt 0.500000 0.875000
vt 0.375000 0.875000
vt 0.625000 0.875000
vt 0.250000 0.625000
vt 0.250000 0.750000
vt 0.750000 0.625000
vt 0.750000 0.750000
vt 1.000000 0.500000
vt 1.000000 1.000000
vt 0.857143 1.000000
vt 0.857143 0.500000
vt 0.714286 1.000000
vt 0.714286 0.500000
vt 0.571429 1.000000
vt 0.571429 0.500000
vt 0.428571 1.000000
vt 0.428571 0.500000
vt 0.285714 1.000000
vt 0.285714 0.500000
vt 0.437640 0.399638
vt 0.250000 0.490000
vt 0.062360 0.399638
vt 0.016017 0.196595
vt 0.145868 0.033767
vt 0.354132 0.033767
vt 0.483983 0.196595
vt 0.142857 1.000000
vt 0.142857 0.500000
vt 0.000000 1.000000
vt 0.000000 0.500000
vt 0.750000 0.490000
vt 0.937640 0.399638
vt 0.983983 0.196595
vt 0.854132 0.033767
vt 0.645868 0.033767
vt 0.516017 0.196595
vt 0.562360 0.399638
s 1
usemtl Material.006
f 8/1/1 4/2/2 2/3/3 5/4/3
f 3/5/4 8/1/4 5/4/4 1/6/4
f 1/6/5 5/4/5 9/7/5 6/8/5
f 5/4/6 2/3/6 7/9/6 9/7/6
f 10/10/7 3/5/7 1/6/8 6/11/8
f 4/2/9 11/12/10 7/13/11 2/3/11
f 17/1/12 16/4/13 13/3/13 15/2/14
f 14/5/15 12/6/15 16/4/15 17/1/15
f 12/6/16 6/8/16 9/7/16 16/4/16
f 16/4/17 9/7/17 7/9/17 13/3/17
f 10/10/18 6/11/19 12/6/19 14/5/18
f 15/2/20 13/3/21 7/13/21 11/12/20
f 8/1/1 20/4/22 19/3/22 4/2/2
f 3/5/23 18/6/23 20/4/23 8/1/23
f 18/6/24 21/8/24 23/7/24 20/4/24
f 20/4/25 23/7/25 22/9/25 19/3/25
f 10/10/7 21/11/26 18/6/26 3/5/7
f 4/2/9 19/3/27 22/13/27 11/12/10
f 17/1/12 15/2/14 25/3/28 26/4/28
f 14/5/29 17/1/29 26/4/29 24/6/29
f 24/6/30 26/4/30 23/7/30 21/8/30
f 26/4/31 25/3/31 22/9/31 23/7/31
f 10/10/18 14/5/18 24/6/32 21/11/32
f 15/2/20 11/12/20 22/13/33 25/3/33
usemtl Material.010
f 27/14/34 28/15/34 30/16/34 29/17/34
f 29/17/35 30/16/35 32/18/35 31/19/35
f 31/19/36 32/18/36 34/20/36 33/21/36
f 33/21/37 34/20/37 36/22/37 35/23/37
f 35/23/38 36/22/38 38/24/38 37/25/38
f 30/26/39 28/27/39 40/28/39 38/29/39 36/30/39 34/31/39 32/32/39
f 37/25/40 38/24/40 40/33/40 39/34/40
f 39/34/41 40/33/41 28/35/41 27/36/41
f 27/37/42 29/38/42 31/39/42 33/40/42 35/41/42 37/42/42 39/43/42
usemtl Material.007
f 41/14/34 42/15/34 44/16/34 43/17/34
f 43/17/35 44/16/35 46/18/35 45/19/35
f 45/19/36 46/18/36 48/20/36 47/21/36
f 47/21/37 48/20/37 50/22/37 49/23/37
f 49/23/38 50/22/38 52/24/38 51/25/38
f 44/26/39 42/27/39 54/28/39 52/29/39 50/30/39 48/31/39 46/32/39
f 51/25/40 52/24/40 54/33/40 53/34/40
f 53/34/41 54/33/41 42/35/41 41/36/41
f 41/37/42 43/38/42 45/39/42 47/40/42 49/41/42 51/42/42 53/43/42
usemtl Material.008
f 55/14/34 56/15/34 58/16/34 57/17/34
f 57/17/35 58/16/35 60/18/35 59/19/35
f 59/19/36 60/18/36 62/20/36 61/21/36
f 61/21/37 62/20/37 64/22/37 63/23/37
f 63/23/38 64/22/38 66/24/38 65/25/38
f 58/26/39 56/27/39 68/28/39 66/29/39 64/30/39 62/31/39 60/32/39
f 65/25/40 66/24/40 68/33/40 67/34/40
f 67/34/41 68/33/41 56/35/41 55/36/41
f 55/37/42 57/38/42 59/39/42 61/40/42 63/41/42 65/42/42 67/43/42
usemtl Material.009
f 69/14/34 70/15/34 72/16/34 71/17/34
f 71/17/35 72/16/35 74/18/35 73/19/35
f 73/19/36 74/18/36 76/20/36 75/21/36
f 75/21/37 76/20/37 78/22/37 77/23/37
f 77/23/38 78/22/38 80/24/38 79/25/38
f 72/26/39 70/27/39 82/28/39 80/29/39 78/30/39 76/31/39 74/32/39
f 79/25/40 80/24/40 82/33/40 81/34/40
f 81/34/41 82/33/41 70/35/41 69/36/41
f 69/37/42 71/38/42 73/39/42 75/40/42 77/41/42 79/42/42 81/43/42
