# Blender 5.1.1
# www.blender.org
mtllib Истиный стол.mtl
o Cube
v 0.538377 1.170782 1.480438
v 0.538377 1.224484 1.480438
v 0.437114 1.164898 0.000000
v 0.539699 1.230368 0.026131
v 0.556979 1.197633 1.474622
v 0.000000 1.164898 1.438561
v 0.000000 1.230368 1.438561
v 0.565519 1.197633 0.000000
v 0.000000 1.197633 1.483879
v 0.000000 1.152550 0.000000
v 0.000000 1.235336 0.000000
v -0.538377 1.170782 1.480438
v -0.538377 1.224484 1.480438
v -0.437114 1.164898 0.000000
v -0.550814 1.227057 -0.003245
v -0.556979 1.197633 1.474622
v -0.565519 1.197633 0.000000
v 0.538377 1.170782 -1.480438
v 0.538377 1.224484 -1.480438
v 0.556979 1.197633 -1.474622
v 0.000000 1.164898 -1.438561
v 0.000000 1.230368 -1.438561
v 0.000000 1.197633 -1.483879
v -0.538377 1.170782 -1.480438
v -0.538377 1.224484 -1.480438
v -0.556979 1.197633 -1.474622
vn 0.8027 0.5964 0.0039
vn 0.3753 -0.9269 -0.0099
vn -0.0220 -0.5476 0.8364
vn -0.0220 0.5477 0.8364
vn 0.0184 -0.9998 0.0056
vn 0.0098 0.9999 0.0038
vn -0.8607 0.5091 0.0065
vn -0.3753 -0.9269 -0.0099
vn 0.0220 -0.5476 0.8364
vn 0.0220 0.5477 0.8364
vn -0.0184 -0.9998 0.0056
vn -0.0129 0.9999 0.0026
vn 0.8011 0.5985 -0.0038
vn 0.3753 -0.9269 0.0099
vn -0.0220 -0.5476 -0.8364
vn -0.0220 0.5477 -0.8364
vn 0.0184 -0.9998 -0.0056
vn 0.0100 0.9999 -0.0037
vn -0.8610 0.5085 -0.0066
vn -0.3753 -0.9269 0.0099
vn 0.0220 -0.5476 -0.8364
vn 0.0220 0.5477 -0.8364
vn -0.0184 -0.9998 -0.0056
vn -0.0129 0.9999 -0.0026
vt 0.500000 0.625000
vt 0.625000 0.625000
vt 0.625000 0.750000
vt 0.500000 0.750000
vt 0.375000 0.625000
vt 0.375000 0.750000
vt 0.500000 0.875000
vt 0.375000 0.875000
vt 0.625000 0.875000
vt 0.250000 0.625000
vt 0.250000 0.750000
vt 0.750000 0.625000
vt 0.750000 0.750000
s 0
usemtl Material
f 8/1/1 4/2/1 2/3/1 5/4/1
f 3/5/2 8/1/2 5/4/2 1/6/2
f 1/6/3 5/4/3 9/7/3 6/8/3
f 5/4/4 2/3/4 7/9/4 9/7/4
f 10/10/5 3/5/5 1/6/5 6/11/5
f 4/2/6 11/12/6 7/13/6 2/3/6
f 17/1/7 16/4/7 13/3/7 15/2/7
f 14/5/8 12/6/8 16/4/8 17/1/8
f 12/6/9 6/8/9 9/7/9 16/4/9
f 16/4/10 9/7/10 7/9/10 13/3/10
f 10/10/11 6/11/11 12/6/11 14/5/11
f 15/2/12 13/3/12 7/13/12 11/12/12
f 8/1/13 20/4/13 19/3/13 4/2/13
f 3/5/14 18/6/14 20/4/14 8/1/14
f 18/6/15 21/8/15 23/7/15 20/4/15
f 20/4/16 23/7/16 22/9/16 19/3/16
f 10/10/17 21/11/17 18/6/17 3/5/17
f 4/2/18 19/3/18 22/13/18 11/12/18
f 17/1/19 15/2/19 25/3/19 26/4/19
f 14/5/20 17/1/20 26/4/20 24/6/20
f 24/6/21 26/4/21 23/7/21 21/8/21
f 26/4/22 25/3/22 22/9/22 23/7/22
f 10/10/23 14/5/23 24/6/23 21/11/23
f 15/2/24 11/12/24 22/13/24 25/3/24
o Cylinder.001
v -0.437587 0.000717 1.247328
v -0.437587 1.173177 1.217833
v -0.413854 0.000717 1.258758
v -0.390793 1.173177 1.240367
v -0.407992 0.000717 1.284439
v -0.379236 1.173177 1.291003
v -0.424416 0.000717 1.305034
v -0.411619 1.173177 1.331609
v -0.450758 0.000717 1.305034
v -0.463556 1.173177 1.331609
v -0.467182 0.000717 1.284439
v -0.495939 1.173177 1.291003
v -0.461321 0.000717 1.258758
v -0.484381 1.173177 1.240367
vn 0.4338 -0.0227 -0.9007
vn 0.9747 -0.0227 -0.2225
vn 0.7816 -0.0227 0.6233
vn -0.0000 -0.0227 0.9997
vn -0.7816 -0.0227 0.6233
vn -0.0000 1.0000 -0.0000
vn -0.9747 -0.0227 -0.2225
vn -0.4338 -0.0227 -0.9007
vn -0.0000 -1.0000 -0.0000
vt 1.000000 0.500000
vt 1.000000 1.000000
vt 0.857143 1.000000
vt 0.857143 0.500000
vt 0.714286 1.000000
vt 0.714286 0.500000
vt 0.571429 1.000000
vt 0.571429 0.500000
vt 0.428571 1.000000
vt 0.428571 0.500000
vt 0.285714 1.000000
vt 0.285714 0.500000
vt 0.437640 0.399638
vt 0.250000 0.490000
vt 0.062360 0.399638
vt 0.016017 0.196595
vt 0.145868 0.033767
vt 0.354132 0.033767
vt 0.483983 0.196595
vt 0.142857 1.000000
vt 0.142857 0.500000
vt 0.000000 1.000000
vt 0.000000 0.500000
vt 0.750000 0.490000
vt 0.937640 0.399638
vt 0.983983 0.196595
vt 0.854132 0.033767
vt 0.645868 0.033767
vt 0.516017 0.196595
vt 0.562360 0.399638
s 0
usemtl Material.010
f 27/14/25 28/15/25 30/16/25 29/17/25
f 29/17/26 30/16/26 32/18/26 31/19/26
f 31/19/27 32/18/27 34/20/27 33/21/27
f 33/21/28 34/20/28 36/22/28 35/23/28
f 35/23/29 36/22/29 38/24/29 37/25/29
f 30/26/30 28/27/30 40/28/30 38/29/30 36/30/30 34/31/30 32/32/30
f 37/25/31 38/24/31 40/33/31 39/34/31
f 39/34/32 40/33/32 28/35/32 27/36/32
f 27/37/33 29/38/33 31/39/33 33/40/33 35/41/33 37/42/33 39/43/33
o Cylinder.002
v 0.450693 0.000717 1.245616
v 0.450693 1.173177 1.216120
v 0.474427 0.000717 1.257045
v 0.497487 1.173177 1.238655
v 0.480288 0.000717 1.282727
v 0.509044 1.173177 1.289290
v 0.463864 0.000717 1.303322
v 0.476662 1.173177 1.329896
v 0.437522 0.000717 1.303322
v 0.424724 1.173177 1.329896
v 0.421098 0.000717 1.282727
v 0.392342 1.173177 1.289290
v 0.426960 0.000717 1.257045
v 0.403899 1.173177 1.238655
vn 0.4338 -0.0227 -0.9007
vn 0.9747 -0.0227 -0.2225
vn 0.7816 -0.0227 0.6233
vn -0.0000 -0.0227 0.9997
vn -0.7816 -0.0227 0.6233
vn -0.0000 1.0000 -0.0000
vn -0.9747 -0.0227 -0.2225
vn -0.4338 -0.0227 -0.9007
vn -0.0000 -1.0000 -0.0000
vt 1.000000 0.500000
vt 1.000000 1.000000
vt 0.857143 1.000000
vt 0.857143 0.500000
vt 0.714286 1.000000
vt 0.714286 0.500000
vt 0.571429 1.000000
vt 0.571429 0.500000
vt 0.428571 1.000000
vt 0.428571 0.500000
vt 0.285714 1.000000
vt 0.285714 0.500000
vt 0.437640 0.399638
vt 0.250000 0.490000
vt 0.062360 0.399638
vt 0.016017 0.196595
vt 0.145868 0.033767
vt 0.354132 0.033767
vt 0.483983 0.196595
vt 0.142857 1.000000
vt 0.142857 0.500000
vt 0.000000 1.000000
vt 0.000000 0.500000
vt 0.750000 0.490000
vt 0.937640 0.399638
vt 0.983983 0.196595
vt 0.854132 0.033767
vt 0.645868 0.033767
vt 0.516017 0.196595
vt 0.562360 0.399638
s 0
usemtl Material.007
f 41/44/34 42/45/34 44/46/34 43/47/34
f 43/47/35 44/46/35 46/48/35 45/49/35
f 45/49/36 46/48/36 48/50/36 47/51/36
f 47/51/37 48/50/37 50/52/37 49/53/37
f 49/53/38 50/52/38 52/54/38 51/55/38
f 44/56/39 42/57/39 54/58/39 52/59/39 50/60/39 48/61/39 46/62/39
f 51/55/40 52/54/40 54/63/40 53/64/40
f 53/64/41 54/63/41 42/65/41 41/66/41
f 41/67/42 43/68/42 45/69/42 47/70/42 49/71/42 51/72/42 53/73/42
o Cylinder.003
v 0.450693 0.000717 -1.286368
v 0.450693 1.173177 -1.315863
v 0.474427 0.000717 -1.274938
v 0.497487 1.173177 -1.293329
v 0.480288 0.000717 -1.249257
v 0.509044 1.173177 -1.242693
v 0.463864 0.000717 -1.228662
v 0.476662 1.173177 -1.202087
v 0.437522 0.000717 -1.228662
v 0.424724 1.173177 -1.202087
v 0.421098 0.000717 -1.249257
v 0.392342 1.173177 -1.242693
v 0.426960 0.000717 -1.274938
v 0.403899 1.173177 -1.293329
vn 0.4338 -0.0227 -0.9007
vn 0.9747 -0.0227 -0.2225
vn 0.7816 -0.0227 0.6233
vn -0.0000 -0.0227 0.9997
vn -0.7816 -0.0227 0.6233
vn -0.0000 1.0000 -0.0000
vn -0.9747 -0.0227 -0.2225
vn -0.4338 -0.0227 -0.9007
vn -0.0000 -1.0000 -0.0000
vt 1.000000 0.500000
vt 1.000000 1.000000
vt 0.857143 1.000000
vt 0.857143 0.500000
vt 0.714286 1.000000
vt 0.714286 0.500000
vt 0.571429 1.000000
vt 0.571429 0.500000
vt 0.428571 1.000000
vt 0.428571 0.500000
vt 0.285714 1.000000
vt 0.285714 0.500000
vt 0.437640 0.399638
vt 0.250000 0.490000
vt 0.062360 0.399638
vt 0.016017 0.196595
vt 0.145868 0.033767
vt 0.354132 0.033767
vt 0.483983 0.196595
vt 0.142857 1.000000
vt 0.142857 0.500000
vt 0.000000 1.000000
vt 0.000000 0.500000
vt 0.750000 0.490000
vt 0.937640 0.399638
vt 0.983983 0.196595
vt 0.854132 0.033767
vt 0.645868 0.033767
vt 0.516017 0.196595
vt 0.562360 0.399638
s 0
usemtl Material.008
f 55/74/43 56/75/43 58/76/43 57/77/43
f 57/77/44 58/76/44 60/78/44 59/79/44
f 59/79/45 60/78/45 62/80/45 61/81/45
f 61/81/46 62/80/46 64/82/46 63/83/46
f 63/83/47 64/82/47 66/84/47 65/85/47
f 58/86/48 56/87/48 68/88/48 66/89/48 64/90/48 62/91/48 60/92/48
f 65/85/49 66/84/49 68/93/49 67/94/49
f 67/94/50 68/93/50 56/95/50 55/96/50
f 55/97/51 57/98/51 59/99/51 61/100/51 63/101/51 65/102/51 67/103/51
o Cylinder.004
v -0.437587 0.000717 -1.284655
v -0.437587 1.173177 -1.314151
v -0.413854 0.000717 -1.273226
v -0.390793 1.173177 -1.291616
v -0.407992 0.000717 -1.247544
v -0.379236 1.173177 -1.240981
v -0.424416 0.000717 -1.226949
v -0.411619 1.173177 -1.200374
v -0.450758 0.000717 -1.226949
v -0.463556 1.173177 -1.200374
v -0.467182 0.000717 -1.247544
v -0.495939 1.173177 -1.240981
v -0.461321 0.000717 -1.273226
v -0.484381 1.173177 -1.291616
vn 0.4338 -0.0227 -0.9007
vn 0.9747 -0.0227 -0.2225
vn 0.7816 -0.0227 0.6233
vn -0.0000 -0.0227 0.9997
vn -0.7816 -0.0227 0.6233
vn -0.0000 1.0000 -0.0000
vn -0.9747 -0.0227 -0.2225
vn -0.4338 -0.0227 -0.9007
vn -0.0000 -1.0000 -0.0000
vt 1.000000 0.500000
vt 1.000000 1.000000
vt 0.857143 1.000000
vt 0.857143 0.500000
vt 0.714286 1.000000
vt 0.714286 0.500000
vt 0.571429 1.000000
vt 0.571429 0.500000
vt 0.428571 1.000000
vt 0.428571 0.500000
vt 0.285714 1.000000
vt 0.285714 0.500000
vt 0.437640 0.399638
vt 0.250000 0.490000
vt 0.062360 0.399638
vt 0.016017 0.196595
vt 0.145868 0.033767
vt 0.354132 0.033767
vt 0.483983 0.196595
vt 0.142857 1.000000
vt 0.142857 0.500000
vt 0.000000 1.000000
vt 0.000000 0.500000
vt 0.750000 0.490000
vt 0.937640 0.399638
vt 0.983983 0.196595
vt 0.854132 0.033767
vt 0.645868 0.033767
vt 0.516017 0.196595
vt 0.562360 0.399638
s 0
usemtl Material.009
f 69/104/52 70/105/52 72/106/52 71/107/52
f 71/107/53 72/106/53 74/108/53 73/109/53
f 73/109/54 74/108/54 76/110/54 75/111/54
f 75/111/55 76/110/55 78/112/55 77/113/55
f 77/113/56 78/112/56 80/114/56 79/115/56
f 72/116/57 70/117/57 82/118/57 80/119/57 78/120/57 76/121/57 74/122/57
f 79/115/58 80/114/58 82/123/58 81/124/58
f 81/124/59 82/123/59 70/125/59 69/126/59
f 69/127/60 71/128/60 73/129/60 75/130/60 77/131/60 79/132/60 81/133/60
