# Blender 5.2.0 LTS
# www.blender.org
mtllib map.mtl
o карта
v -0.500000 0.000000 -0.500000
v 0.000000 0.000000 -0.500000
v -0.500000 0.000000 0.000000
v -0.472368 0.030884 -0.472368
v -0.500000 0.030884 -0.472368
v -0.472368 0.030884 -0.500000
v -0.500000 0.030884 -0.500000
v 0.000000 0.030884 -0.472368
v 0.000000 0.030884 -0.500000
v -0.500000 0.030884 0.000000
v -0.472368 0.030884 0.000000
v 0.000000 0.013245 -0.472368
v -0.472368 0.013245 -0.472368
v -0.472368 0.013245 0.000000
v -0.236184 0.013245 -0.472368
v -0.472368 0.013245 -0.236184
v -0.354276 0.013245 -0.472368
v -0.118092 0.013245 -0.472368
v -0.413322 0.013245 -0.472368
v -0.295230 0.013245 -0.472368
v -0.177138 0.013245 -0.472368
v -0.059046 0.013245 -0.472368
v -0.472368 0.013245 -0.118092
v -0.472368 0.013245 -0.354276
v -0.472368 0.013245 -0.413322
v -0.472368 0.013245 -0.295230
v -0.472368 0.013245 -0.177138
v -0.472368 0.013245 -0.059046
v -0.442845 0.013245 -0.472368
v -0.383799 0.013245 -0.472368
v -0.324753 0.013245 -0.472368
v -0.265707 0.013245 -0.472368
v -0.206661 0.013245 -0.472368
v -0.147615 0.013245 -0.472368
v -0.088569 0.013245 -0.472368
v -0.029523 0.013245 -0.472368
v -0.472368 0.013245 -0.442845
v -0.472368 0.013245 -0.383799
v -0.472368 0.013245 -0.324753
v -0.472368 0.013245 -0.265707
v -0.472368 0.013245 -0.206661
v -0.472368 0.013245 -0.147615
v -0.472368 0.013245 -0.088569
v -0.472368 0.013245 -0.029523
v 0.500000 0.000000 -0.500000
v 0.500000 0.000000 0.000000
v 0.472368 0.030884 -0.472368
v 0.500000 0.030884 -0.472368
v 0.472368 0.030884 -0.500000
v 0.500000 0.030884 -0.500000
v 0.500000 0.030884 0.000000
v 0.472368 0.030884 0.000000
v 0.472368 0.013245 -0.472368
v 0.472368 0.013245 0.000000
v 0.236184 0.013245 -0.472368
v 0.472368 0.013245 -0.236184
v 0.354276 0.013245 -0.472368
v 0.118092 0.013245 -0.472368
v 0.413322 0.013245 -0.472368
v 0.295230 0.013245 -0.472368
v 0.177138 0.013245 -0.472368
v 0.059046 0.013245 -0.472368
v 0.472368 0.013245 -0.118092
v 0.472368 0.013245 -0.354276
v 0.472368 0.013245 -0.413322
v 0.472368 0.013245 -0.295230
v 0.472368 0.013245 -0.177138
v 0.472368 0.013245 -0.059046
v 0.442845 0.013245 -0.472368
v 0.383799 0.013245 -0.472368
v 0.324753 0.013245 -0.472368
v 0.265707 0.013245 -0.472368
v 0.206661 0.013245 -0.472368
v 0.147615 0.013245 -0.472368
v 0.088569 0.013245 -0.472368
v 0.029523 0.013245 -0.472368
v 0.472368 0.013245 -0.442845
v 0.472368 0.013245 -0.383799
v 0.472368 0.013245 -0.324753
v 0.472368 0.013245 -0.265707
v 0.472368 0.013245 -0.206661
v 0.472368 0.013245 -0.147615
v 0.472368 0.013245 -0.088569
v 0.472368 0.013245 -0.029523
v -0.500000 0.000000 0.500000
v 0.000000 0.000000 0.500000
v -0.472368 0.030884 0.472368
v -0.472368 0.030884 0.500000
v -0.500000 0.030884 0.500000
v 0.000000 0.030884 0.472368
v 0.000000 0.030884 0.500000
v 0.000000 0.013245 0.472368
v -0.472368 0.013245 0.472368
v -0.236184 0.013245 0.472368
v -0.472368 0.013245 0.236184
v -0.354276 0.013245 0.472368
v -0.118092 0.013245 0.472368
v -0.413322 0.013245 0.472368
v -0.295230 0.013245 0.472368
v -0.177138 0.013245 0.472368
v -0.059046 0.013245 0.472368
v -0.472368 0.013245 0.118092
v -0.472368 0.013245 0.354276
v -0.472368 0.013245 0.413322
v -0.472368 0.013245 0.295230
v -0.472368 0.013245 0.177138
v -0.472368 0.013245 0.059046
v -0.442845 0.013245 0.472368
v -0.383799 0.013245 0.472368
v -0.324753 0.013245 0.472368
v -0.265707 0.013245 0.472368
v -0.206661 0.013245 0.472368
v -0.147615 0.013245 0.472368
v -0.088569 0.013245 0.472368
v -0.029523 0.013245 0.472368
v -0.472368 0.013245 0.442845
v -0.472368 0.013245 0.383799
v -0.472368 0.013245 0.324753
v -0.472368 0.013245 0.265707
v -0.472368 0.013245 0.206661
v -0.472368 0.013245 0.147615
v -0.472368 0.013245 0.088569
v -0.472368 0.013245 0.029523
v 0.500000 0.000000 0.500000
v 0.472368 0.030884 0.472368
v 0.500000 0.030884 0.472368
v 0.472368 0.030884 0.500000
v 0.500000 0.030884 0.500000
v 0.472368 0.013245 0.472368
v 0.236184 0.013245 0.472368
v 0.472368 0.013245 0.236184
v 0.354276 0.013245 0.472368
v 0.118092 0.013245 0.472368
v 0.413322 0.013245 0.472368
v 0.295230 0.013245 0.472368
v 0.177138 0.013245 0.472368
v 0.059046 0.013245 0.472368
v 0.472368 0.013245 0.118092
v 0.472368 0.013245 0.354276
v 0.472368 0.013245 0.413322
v 0.472368 0.013245 0.295230
v 0.472368 0.013245 0.177138
v 0.472368 0.013245 0.059046
v 0.442845 0.013245 0.472368
v 0.383799 0.013245 0.472368
v 0.324753 0.013245 0.472368
v 0.265707 0.013245 0.472368
v 0.206661 0.013245 0.472368
v 0.147615 0.013245 0.472368
v 0.088569 0.013245 0.472368
v 0.029523 0.013245 0.472368
v 0.472368 0.013245 0.442845
v 0.472368 0.013245 0.383799
v 0.472368 0.013245 0.324753
v 0.472368 0.013245 0.265707
v 0.472368 0.013245 0.206661
v 0.472368 0.013245 0.147615
v 0.472368 0.013245 0.088569
v 0.472368 0.013245 0.029523
vn -0.0000 1.0000 -0.0000
vn -0.0000 -0.0000 -1.0000
vn -1.0000 -0.0000 -0.0000
vn -0.0000 -0.0000 1.0000
vn 1.0000 -0.0000 -0.0000
vn -0.0000 -1.0000 -0.0000
vt 0.486184 0.999163
vt 0.486184 0.985347
vt 0.500000 0.985347
vt 0.500000 0.999163
vt 0.486184 0.749163
vt 0.500000 0.749163
vt 0.557298 0.737870
vt 0.557297 0.987870
vt 0.541855 0.987870
vt 0.541855 0.974055
vt 0.541855 0.737870
vt 0.572740 0.487870
vt 0.572740 0.737870
vt 0.557298 0.737870
vt 0.557298 0.501686
vt 0.557298 0.487870
vt 0.250000 0.985347
vt 0.250000 0.999163
vt 0.486184 0.499163
vt 0.500000 0.499163
vt 0.500000 0.512979
vt 0.486184 0.512979
vt 0.541855 0.501686
vt 0.541855 0.487870
vt 0.557298 0.487870
vt 0.612444 0.930716
vt 0.612444 0.945477
vt 0.612444 0.960239
vt 0.603624 0.960239
vt 0.603624 0.724055
vt 0.603624 0.487870
vt 0.612444 0.487870
vt 0.612444 0.502632
vt 0.612444 0.517393
vt 0.612444 0.532155
vt 0.612444 0.546916
vt 0.612444 0.561678
vt 0.612444 0.576439
vt 0.612444 0.591201
vt 0.612444 0.605962
vt 0.612444 0.620724
vt 0.612444 0.635485
vt 0.612444 0.650247
vt 0.612444 0.665008
vt 0.612444 0.679770
vt 0.612444 0.694532
vt 0.612444 0.709293
vt 0.612444 0.724055
vt 0.612444 0.738816
vt 0.612444 0.753578
vt 0.612444 0.768339
vt 0.612444 0.783101
vt 0.612444 0.797862
vt 0.612444 0.812624
vt 0.612444 0.827385
vt 0.612444 0.842147
vt 0.612444 0.856908
vt 0.612444 0.871670
vt 0.612444 0.886431
vt 0.612444 0.901193
vt 0.612444 0.915954
vt 0.572740 0.974055
vt 0.588182 0.737870
vt 0.588182 0.987870
vt 0.572740 0.987870
vt 0.250000 0.512979
vt 0.250000 0.499163
vt 0.000000 0.749163
vt 0.013816 0.749163
vt 0.013816 0.985347
vt 0.000000 0.985347
vt 0.588182 0.501686
vt 0.588182 0.487870
vt 0.603624 0.487870
vt 0.603624 0.737870
vt 0.557298 0.987870
vt 0.621264 0.517393
vt 0.621264 0.532155
vt 0.621264 0.546916
vt 0.621264 0.561678
vt 0.621264 0.576439
vt 0.621264 0.591201
vt 0.621264 0.605962
vt 0.621264 0.620724
vt 0.621264 0.635485
vt 0.621264 0.650247
vt 0.621264 0.665008
vt 0.621264 0.679770
vt 0.621264 0.694532
vt 0.621264 0.709293
vt 0.621264 0.724055
vt 0.621264 0.738816
vt 0.621264 0.753578
vt 0.621264 0.768339
vt 0.621264 0.783101
vt 0.621264 0.797862
vt 0.621264 0.812624
vt 0.621264 0.827385
vt 0.621264 0.842147
vt 0.621264 0.856908
vt 0.621264 0.871670
vt 0.621264 0.886431
vt 0.621264 0.901193
vt 0.621264 0.915954
vt 0.621264 0.930716
vt 0.621264 0.945477
vt 0.621264 0.960239
vt 0.612444 0.960239
vt 0.612444 0.487870
vt 0.621264 0.487870
vt 0.621264 0.502632
vt 0.000000 0.999163
vt 0.013816 0.499163
vt 0.013816 0.512979
vt 0.000000 0.512979
vt 0.000000 0.499163
vt 0.603624 0.987870
vt 0.588182 0.987870
vt 0.588182 0.974055
vt 0.630084 0.487870
vt 0.630084 0.502632
vt 0.630084 0.517393
vt 0.630084 0.532155
vt 0.630084 0.546916
vt 0.630084 0.561678
vt 0.630084 0.576439
vt 0.630084 0.591201
vt 0.630084 0.605962
vt 0.630084 0.620724
vt 0.630084 0.635485
vt 0.630084 0.650247
vt 0.630084 0.665008
vt 0.630084 0.679770
vt 0.630084 0.694532
vt 0.630084 0.709293
vt 0.630084 0.724055
vt 0.630084 0.738816
vt 0.630084 0.753578
vt 0.630084 0.768339
vt 0.630084 0.783101
vt 0.630084 0.797862
vt 0.630084 0.812624
vt 0.630084 0.827385
vt 0.630084 0.842147
vt 0.630084 0.856908
vt 0.630084 0.871670
vt 0.630084 0.886431
vt 0.630084 0.901193
vt 0.630084 0.915954
vt 0.630084 0.930716
vt 0.630084 0.945477
vt 0.630084 0.960239
vt 0.621264 0.960239
vt 0.572740 0.501686
vt 0.572740 0.487870
vt 0.630084 0.724055
vt 0.630084 0.487870
vt 0.638904 0.487870
vt 0.638904 0.502632
vt 0.638904 0.517393
vt 0.638904 0.532155
vt 0.638904 0.546916
vt 0.638904 0.561678
vt 0.638904 0.576439
vt 0.638904 0.591201
vt 0.638904 0.605962
vt 0.638904 0.620724
vt 0.638904 0.635485
vt 0.638904 0.650247
vt 0.638904 0.665008
vt 0.638904 0.679770
vt 0.638904 0.694532
vt 0.638904 0.709293
vt 0.638904 0.724055
vt 0.638904 0.738816
vt 0.638904 0.753578
vt 0.638904 0.768339
vt 0.638904 0.783101
vt 0.638904 0.797862
vt 0.638904 0.812624
vt 0.638904 0.827385
vt 0.638904 0.842147
vt 0.638904 0.856908
vt 0.638904 0.871670
vt 0.638904 0.886431
vt 0.638904 0.901193
vt 0.638904 0.915954
vt 0.638904 0.930716
vt 0.638904 0.945477
vt 0.638904 0.960239
vt 0.630084 0.960239
vt 0.456992 0.750000
vt 0.456992 0.956992
vt 0.250000 0.956992
vt 0.043008 0.956992
vt 0.043008 0.750000
vt 0.043008 0.543008
vt 0.250000 0.543008
vt 0.456992 0.543008
vt 0.474661 0.245485
vt 0.474661 0.259369
vt 0.474661 0.273253
vt 0.474661 0.287136
vt 0.474661 0.301020
vt 0.474661 0.314903
vt 0.474661 0.328787
vt 0.474661 0.342671
vt 0.474661 0.356554
vt 0.474661 0.370438
vt 0.474661 0.384322
vt 0.474661 0.398205
vt 0.474661 0.412089
vt 0.474661 0.425972
vt 0.474661 0.439856
vt 0.474661 0.453740
vt 0.474661 0.467623
vt 0.460777 0.467623
vt 0.446894 0.467623
vt 0.433010 0.467623
vt 0.419126 0.467623
vt 0.405243 0.467623
vt 0.391359 0.467623
vt 0.377476 0.467623
vt 0.363592 0.467623
vt 0.349708 0.467623
vt 0.335825 0.467623
vt 0.321941 0.467623
vt 0.308057 0.467623
vt 0.294174 0.467623
vt 0.280290 0.467623
vt 0.266407 0.467623
vt 0.252523 0.467623
vt 0.238639 0.467623
vt 0.224756 0.467623
vt 0.210872 0.467623
vt 0.196989 0.467623
vt 0.183105 0.467623
vt 0.169221 0.467623
vt 0.155338 0.467623
vt 0.141454 0.467623
vt 0.127570 0.467623
vt 0.113687 0.467623
vt 0.099803 0.467623
vt 0.085920 0.467623
vt 0.072036 0.467623
vt 0.058152 0.467623
vt 0.044269 0.467623
vt 0.030385 0.467623
vt 0.030385 0.453740
vt 0.030385 0.439856
vt 0.030385 0.425972
vt 0.030385 0.412089
vt 0.030385 0.398205
vt 0.030385 0.384322
vt 0.030385 0.370438
vt 0.030385 0.356554
vt 0.030385 0.342671
vt 0.030385 0.328787
vt 0.030385 0.314903
vt 0.030385 0.301020
vt 0.030385 0.287136
vt 0.030385 0.273253
vt 0.030385 0.259369
vt 0.030385 0.245485
vt 0.030385 0.231602
vt 0.030385 0.217718
vt 0.030385 0.203834
vt 0.030385 0.189951
vt 0.030385 0.176067
vt 0.030385 0.162184
vt 0.030385 0.148300
vt 0.030385 0.134416
vt 0.030385 0.120533
vt 0.030385 0.106649
vt 0.030385 0.092766
vt 0.030385 0.078882
vt 0.030385 0.064998
vt 0.030385 0.051115
vt 0.030385 0.037231
vt 0.030385 0.023347
vt 0.044269 0.023347
vt 0.058152 0.023347
vt 0.072036 0.023347
vt 0.085920 0.023347
vt 0.099803 0.023347
vt 0.113687 0.023347
vt 0.127571 0.023347
vt 0.141454 0.023347
vt 0.155338 0.023347
vt 0.169221 0.023347
vt 0.183105 0.023347
vt 0.196989 0.023347
vt 0.210872 0.023347
vt 0.224756 0.023347
vt 0.238639 0.023347
vt 0.252523 0.023347
vt 0.266407 0.023347
vt 0.280290 0.023347
vt 0.294174 0.023347
vt 0.308057 0.023347
vt 0.321941 0.023347
vt 0.335825 0.023347
vt 0.349708 0.023347
vt 0.363592 0.023347
vt 0.377476 0.023347
vt 0.391359 0.023347
vt 0.405243 0.023348
vt 0.419126 0.023348
vt 0.433010 0.023348
vt 0.446894 0.023348
vt 0.460777 0.023348
vt 0.474661 0.023348
vt 0.474661 0.037231
vt 0.474661 0.051115
vt 0.474661 0.064998
vt 0.474661 0.078882
vt 0.474661 0.092766
vt 0.474661 0.106649
vt 0.474661 0.120533
vt 0.474661 0.134416
vt 0.474661 0.148300
vt 0.474661 0.162184
vt 0.474661 0.176067
vt 0.474661 0.189951
vt 0.474661 0.203835
vt 0.474661 0.217718
vt 0.474661 0.231602
s 0
usemtl Material.002
f 5/1/1 4/2/1 6/3/1 7/4/1
f 8/5/1 9/6/1 6/3/1 4/2/1
f 2/7/2 1/8/2 7/9/2 6/10/2 9/11/2
f 1/12/3 3/13/3 10/14/3 5/15/3 7/16/3
f 11/17/1 4/2/1 5/1/1 10/18/1
f 48/19/1 50/20/1 49/21/1 47/22/1
f 9/6/1 8/5/1 47/22/1 49/21/1
f 9/11/2 49/23/2 50/24/2 45/25/2 2/7/2
f 59/26/4 69/27/4 53/28/4 47/29/4 8/30/4 4/31/4 13/32/4 29/33/4 19/34/4 30/35/4 17/36/4 31/37/4 20/38/4 32/39/4 15/40/4 33/41/4 21/42/4 34/43/4 18/44/4 35/45/4 22/46/4 36/47/4 12/48/4 76/49/4 62/50/4 75/51/4 58/52/4 74/53/4 61/54/4 73/55/4 55/56/4 72/57/4 60/58/4 71/59/4 57/60/4 70/61/4
f 48/62/5 51/13/5 46/63/5 45/64/5 50/65/5
f 48/19/1 47/22/1 52/66/1 51/67/1
f 91/68/1 90/69/1 87/70/1 88/71/1
f 91/63/4 88/72/4 89/73/4 85/74/4 86/75/4
f 89/76/3 10/14/3 3/13/3 85/65/3
f 104/77/5 117/78/5 103/79/5 118/80/5 105/81/5 119/82/5 95/83/5 120/84/5 106/85/5 121/86/5 102/87/5 122/88/5 107/89/5 123/90/5 14/91/5 44/92/5 28/93/5 43/94/5 23/95/5 42/96/5 27/97/5 41/98/5 16/99/5 40/100/5 26/101/5 39/102/5 24/103/5 38/104/5 25/105/5 37/106/5 13/107/5 4/108/5 11/48/5 87/109/5 93/110/5 116/111/5
f 89/112/1 88/71/1 87/70/1 11/17/1 10/18/1
f 126/113/1 125/114/1 127/115/1 128/116/1
f 90/69/1 91/68/1 127/115/1 125/114/1
f 86/75/4 124/117/4 128/118/4 127/119/4 91/63/4
f 90/91/2 125/110/2 129/120/2 144/121/2 134/122/2 145/123/2 132/124/2 146/125/2 135/126/2 147/127/2 130/128/2 148/129/2 136/130/2 149/131/2 133/132/2 150/133/2 137/134/2 151/135/2 92/136/2 115/137/2 101/138/2 114/139/2 97/140/2 113/141/2 100/142/2 112/143/2 94/144/2 111/145/2 99/146/2 110/147/2 96/148/2 109/149/2 98/150/2 108/151/2 93/152/2 87/153/2
f 124/73/5 46/63/5 51/13/5 126/154/5 128/155/5
f 52/156/3 47/157/3 53/158/3 77/159/3 65/160/3 78/161/3 64/162/3 79/163/3 66/164/3 80/165/3 56/166/3 81/167/3 67/168/3 82/169/3 63/170/3 83/171/3 68/172/3 84/173/3 54/174/3 159/175/3 143/176/3 158/177/3 138/178/3 157/179/3 142/180/3 156/181/3 131/182/3 155/183/3 141/184/3 154/185/3 139/186/3 153/187/3 140/188/3 152/189/3 129/190/3 125/191/3
f 52/66/1 125/114/1 126/113/1 51/67/1
f 2/192/6 45/193/6 46/194/6 124/195/6 86/196/6 85/197/6 3/198/6 1/199/6
usemtl Material
f 12/200/1 36/201/1 22/202/1 35/203/1 18/204/1 34/205/1 21/206/1 33/207/1 15/208/1 32/209/1 20/210/1 31/211/1 17/212/1 30/213/1 19/214/1 29/215/1 13/216/1 37/217/1 25/218/1 38/219/1 24/220/1 39/221/1 26/222/1 40/223/1 16/224/1 41/225/1 27/226/1 42/227/1 23/228/1 43/229/1 28/230/1 44/231/1 14/232/1 123/233/1 107/234/1 122/235/1 102/236/1 121/237/1 106/238/1 120/239/1 95/240/1 119/241/1 105/242/1 118/243/1 103/244/1 117/245/1 104/246/1 116/247/1 93/248/1 108/249/1 98/250/1 109/251/1 96/252/1 110/253/1 99/254/1 111/255/1 94/256/1 112/257/1 100/258/1 113/259/1 97/260/1 114/261/1 101/262/1 115/263/1 92/264/1 151/265/1 137/266/1 150/267/1 133/268/1 149/269/1 136/270/1 148/271/1 130/272/1 147/273/1 135/274/1 146/275/1 132/276/1 145/277/1 134/278/1 144/279/1 129/280/1 152/281/1 140/282/1 153/283/1 139/284/1 154/285/1 141/286/1 155/287/1 131/288/1 156/289/1 142/290/1 157/291/1 138/292/1 158/293/1 143/294/1 159/295/1 54/296/1 84/297/1 68/298/1 83/299/1 63/300/1 82/301/1 67/302/1 81/303/1 56/304/1 80/305/1 66/306/1 79/307/1 64/308/1 78/309/1 65/310/1 77/311/1 53/312/1 69/313/1 59/314/1 70/315/1 57/316/1 71/317/1 60/318/1 72/319/1 55/320/1 73/321/1 61/322/1 74/323/1 58/324/1 75/325/1 62/326/1 76/327/1
