# Blender 5.2.0 LTS
# www.blender.org
mtllib NPC.mtl
o NPC
v -0.161443 -0.074016 -0.073100
v -0.115248 1.944989 -0.089611
v -0.165658 -0.067462 0.093313
v -0.137151 1.951544 0.056620
v -0.240524 1.542554 -0.107307
v -0.240524 1.518987 0.077298
v -0.142327 1.703809 -0.083824
v -0.143105 1.698254 0.060672
v -0.047332 1.579942 -0.031298
v -0.076694 1.601994 0.087572
v -0.043137 1.654203 -0.024347
v -0.055264 1.655965 0.095651
v -0.189805 0.878927 0.131115
v -0.198767 0.850631 -0.090976
v -0.023788 -0.068104 -0.075758
v 0.000955 1.897144 -0.165768
v -0.023964 -0.066773 0.093612
v -0.000530 2.039331 0.029338
v -0.000825 1.459594 0.163551
v -0.001023 1.538810 -0.112400
v 0.000955 1.685488 0.193125
v 0.000955 1.691256 -0.163225
v 0.001026 1.599083 0.105632
v -0.000000 1.571621 -0.055903
v 0.000955 1.655965 0.115889
v 0.000955 1.655965 -0.062694
v 0.001628 0.847340 -0.113491
v -0.002901 0.847466 0.171742
v -0.240524 1.392116 -0.107306
v -0.240524 1.392116 0.089745
v -0.000000 1.144247 -0.114376
v -0.001340 1.167043 0.174636
v -0.397952 1.426835 -0.094692
v -0.397952 1.426835 0.063571
v -0.297137 0.584574 0.115386
v -0.297137 0.584574 -0.061381
v -0.443282 0.584574 0.115386
v -0.443282 0.584574 -0.061381
v -0.167100 1.865162 0.122531
v 0.000955 1.852038 0.214407
v -0.189642 0.420393 0.123932
v -0.170193 0.420147 -0.072289
v -0.035092 0.428885 0.160791
v -0.012775 0.428409 -0.056659
v -0.141694 0.009112 0.079115
v -0.037589 0.019056 0.079398
v -0.066971 0.050846 -0.060687
v -0.138157 0.004195 -0.048888
v -0.166444 0.041980 0.302725
v -0.184320 -0.047489 0.290148
v -0.025532 -0.047490 0.290148
v -0.054857 0.033940 0.281825
v -0.305866 0.703405 -0.044915
v -0.416385 0.708346 -0.042427
v -0.341748 0.700050 0.100569
v -0.416212 0.708346 0.099034
v 0.230761 -0.038177 -0.055943
v 0.115248 1.944989 -0.089611
v 0.230096 -0.038913 0.111022
v 0.137150 1.951544 0.056620
v 0.240524 1.542554 -0.107306
v 0.240524 1.518987 0.077298
v 0.142326 1.703809 -0.083824
v 0.143105 1.698254 0.060672
v 0.047332 1.579942 -0.031298
v 0.076693 1.601994 0.087572
v 0.043136 1.654204 -0.024347
v 0.055263 1.655965 0.095651
v 0.189750 0.879091 0.131113
v 0.198174 0.854298 -0.091214
v 0.089020 -0.039792 -0.054897
v -0.000956 1.897144 -0.165768
v 0.087933 -0.038900 0.111021
v 0.000530 2.039331 0.029338
v 0.000824 1.459594 0.163551
v 0.001022 1.538810 -0.112400
v -0.000956 1.685488 0.193125
v -0.000956 1.691256 -0.163225
v -0.001027 1.599083 0.105632
v -0.000956 1.655965 0.115889
v -0.000956 1.655965 -0.062694
v -0.001225 0.846899 -0.114277
v 0.000921 0.847723 0.171298
v 0.240524 1.392116 -0.107306
v 0.240523 1.392116 0.089745
v -0.000808 1.167552 0.174752
v 0.397951 1.426835 -0.094691
v 0.397951 1.426835 0.063571
v 0.297136 0.584573 0.115386
v 0.297136 0.584573 -0.061380
v 0.443282 0.584573 0.115386
v 0.443281 0.584573 -0.061380
v 0.167099 1.865162 0.122531
v -0.000956 1.852038 0.214407
v 0.201195 0.426575 0.129962
v 0.200316 0.425891 -0.062657
v 0.046875 0.421273 0.151301
v 0.046081 0.420487 -0.061903
v 0.205942 0.037314 0.096668
v 0.101583 0.046951 0.097023
v 0.126323 0.071635 -0.047722
v 0.204122 0.035283 -0.033776
v 0.230421 0.069785 0.320154
v 0.248296 -0.019691 0.307578
v 0.089509 -0.019697 0.307580
v 0.118834 0.061744 0.299255
v 0.305865 0.703404 -0.044915
v 0.416384 0.708346 -0.042427
v 0.341747 0.700050 0.100569
v 0.416211 0.708345 0.099034
v -0.407168 1.067590 -0.068559
v -0.273194 1.047760 -0.076110
v -0.291135 1.046083 0.095158
v -0.407081 1.067591 0.081303
v 0.407167 1.067590 -0.068559
v 0.273194 1.047760 -0.076110
v 0.291135 1.046082 0.095158
v 0.407081 1.067590 0.081303
vn -0.3071 0.6604 0.6853
vn -0.5138 -0.1759 -0.8397
vn 0.0238 -0.9994 0.0238
vn -0.2999 0.8668 -0.3983
vn -0.3076 0.0537 0.9500
vn -0.0099 0.8895 -0.4568
vn -0.4102 -0.7799 0.4728
vn -0.9587 0.2136 -0.1878
vn -0.2755 -0.1050 0.9555
vn -0.4269 -0.9037 -0.0338
vn -0.3139 0.9491 -0.0256
vn -0.2221 -0.0120 0.9750
vn -0.9992 -0.0326 -0.0228
vn -0.0179 -0.0888 -0.9959
vn -0.2562 -0.9106 -0.3243
vn -0.5661 0.0192 -0.8241
vn -0.2261 0.3620 0.9043
vn -0.0235 0.0036 -0.9997
vn -0.0809 -0.0246 -0.9964
vn -0.2665 0.0288 0.9634
vn -0.9959 -0.0858 0.0271
vn 0.9972 -0.0526 0.0533
vn -0.0799 -0.0000 -0.9968
vn -0.1425 0.0966 0.9851
vn -0.0068 0.1450 -0.9894
vn -0.0000 -1.0000 -0.0000
vn 0.9693 0.2199 0.1102
vn -0.0020 0.1290 0.9916
vn -0.9771 0.2130 0.0005
vn -0.9883 0.0556 -0.1422
vn -0.5800 -0.2361 0.7797
vn 0.9973 -0.0690 -0.0258
vn 0.0228 -0.0250 -0.9994
vn -0.9932 -0.0942 -0.0689
vn -0.1293 -0.1576 0.9790
vn 0.9675 0.2517 0.0241
vn -0.9551 0.2939 -0.0366
vn -0.1137 0.1831 -0.9765
vn 0.9615 0.2670 -0.0645
vn 0.0765 -0.0197 0.9969
vn -0.0196 0.9934 -0.1133
vn 0.0022 -0.9950 0.0994
vn -0.9618 0.2411 -0.1296
vn -0.5502 0.8331 0.0573
vn -0.9997 0.0256 0.0009
vn -0.0744 0.0390 0.9965
vn 0.9802 -0.1095 0.1648
vn -0.0488 -0.0782 -0.9957
vn 0.3071 0.6604 0.6853
vn 0.5138 -0.1759 -0.8397
vn 0.0056 -1.0000 0.0005
vn 0.2999 0.8668 -0.3983
vn 0.3073 0.0524 0.9502
vn 0.0099 0.8895 -0.4568
vn 0.4102 -0.7799 0.4728
vn 0.9587 0.2136 -0.1878
vn 0.2755 -0.1050 0.9555
vn 0.4269 -0.9037 -0.0338
vn 0.3139 0.9491 -0.0256
vn 0.1777 -0.0121 0.9840
vn 0.9997 0.0160 0.0172
vn 0.0660 -0.0903 -0.9937
vn 0.2562 -0.9106 -0.3243
vn 0.5661 0.0192 -0.8241
vn 0.2261 0.3620 0.9043
vn 0.0235 0.0036 -0.9997
vn 0.0819 -0.0236 -0.9964
vn 0.2637 0.0284 0.9642
vn 0.9959 -0.0869 0.0251
vn -0.9941 -0.1085 0.0062
vn 0.0799 -0.0000 -0.9968
vn 0.1425 0.0966 0.9851
vn 0.0068 0.1450 -0.9894
vn -0.9693 0.2199 0.1102
vn 0.0021 0.1290 0.9916
vn 0.9771 0.2130 0.0005
vn 0.9883 0.0556 -0.1422
vn 0.5800 -0.2361 0.7797
vn -0.9808 -0.1787 -0.0775
vn 0.0497 -0.0524 -0.9974
vn 0.9999 0.0110 -0.0084
vn 0.0813 -0.1073 0.9909
vn -0.9675 0.2518 0.0242
vn 0.9469 0.3216 -0.0051
vn 0.0819 0.1516 -0.9850
vn -0.9669 0.2476 -0.0614
vn -0.0765 -0.0197 0.9969
vn 0.0180 0.9935 -0.1121
vn -0.0000 -0.9953 0.0973
vn 0.9617 0.2426 -0.1276
vn 0.5502 0.8331 0.0573
vn 0.9997 0.0256 0.0009
vn 0.0744 0.0390 0.9965
vn -0.9802 -0.1095 0.1648
vn 0.0488 -0.0782 -0.9957
vn -0.0830 -0.0760 -0.9936
vn 0.9920 -0.1171 0.0478
vn -0.1359 0.0440 0.9897
vn -0.9997 0.0255 0.0003
vn 0.0830 -0.0760 -0.9936
vn -0.9920 -0.1171 0.0478
vn 0.1359 0.0440 0.9897
vn 0.9997 0.0255 0.0003
vt 0.615367 0.625000
vt 0.625000 0.625000
vt 0.625000 0.750000
vt 0.615367 0.750000
vt 0.875000 0.750000
vt 0.875000 0.625000
vt 0.605735 0.125000
vt 0.605735 1.000000
vt 0.125000 0.625000
vt 0.375000 0.625000
vt 0.375000 0.750000
vt 0.125000 0.750000
vt 0.533602 0.625000
vt 0.586470 0.625000
vt 0.586470 0.750000
vt 0.533602 0.750000
vt 0.586470 0.125000
vt 0.586470 0.000000
vt 0.605735 0.625000
vt 0.605735 0.750000
vt 0.586470 1.000000
vt 0.427867 0.625000
vt 0.480735 0.625000
vt 0.480735 0.750000
vt 0.427867 0.750000
vt 0.480735 1.000000
vt 0.427867 1.000000
vt 0.427867 0.000000
vt 0.480735 0.000000
vt 0.480735 0.125000
vt 0.427867 0.125000
vt 0.605735 0.000000
vt 0.533602 0.000000
vt 0.533602 0.125000
vt 0.533602 1.000000
vt 0.302867 0.375000
vt 0.533602 1.000000
vt 0.387444 0.625000
vt 0.166868 0.566153
vt 0.387444 0.000000
vt 0.387444 0.125000
vt 0.387444 0.750000
vt 0.387444 1.000000
vt 0.375000 1.000000
vt 0.375000 0.000000
vt 0.375000 0.125000
vt 0.533602 0.750000
vt 0.533602 0.750000
s 0
usemtl Material.001
f 40/1/1 18/2/1 4/3/1 39/4/1
f 2/5/2 16/6/2 22/7/2 26/7/2 7/8/2
f 15/9/3 17/10/3 3/11/3 1/12/3
f 18/2/4 16/6/4 2/5/4 4/3/4
f 32/13/5 19/14/5 6/15/5 30/16/5
f 20/17/6 5/18/6 9/18/6 24/17/6
f 21/19/7 8/20/7 12/20/7 25/19/7
f 10/15/8 12/20/8 11/8/8 9/21/8
f 23/14/9 25/19/9 12/20/9 10/15/9
f 8/20/10 7/8/10 11/8/10 12/20/10
f 5/21/11 6/15/11 10/15/11 9/21/11
f 43/22/12 28/23/12 13/24/12 41/25/12
f 41/25/13 13/24/13 14/26/13 42/27/13
f 42/28/14 14/29/14 27/30/14 44/31/14
f 7/32/15 22/7/15 26/7/15 11/32/15
f 9/18/16 11/32/16 26/7/16 24/17/16
f 6/15/17 19/14/17 23/14/17 10/15/17
f 29/33/18 5/18/18 20/17/18 31/34/18
f 14/29/19 29/33/19 31/34/19 27/30/19
f 28/23/20 32/13/20 30/16/20 13/24/20
f 13/24/21 30/16/21 29/35/21 14/26/21
f 43/22/22 44/36/22 27/30/22 28/23/22
f 5/18/23 29/33/23 33/33/23
f 30/16/24 6/15/24 34/16/24
f 54/33/25 53/33/25 36/33/25 38/33/25
f 36/35/26 35/16/26 37/16/26 38/35/26
f 53/37/27 55/16/27 35/16/27 36/35/27
f 55/16/28 56/16/28 37/16/28 35/16/28
f 56/16/29 54/35/29 38/35/29 37/16/29
f 2/5/30 7/8/30 8/20/30 39/4/30 4/3/30
f 21/19/31 40/1/31 39/4/31 8/20/31
f 46/38/32 47/39/32 44/36/32 43/22/32
f 48/40/33 42/28/33 44/31/33 47/41/33
f 45/42/34 41/25/34 42/27/34 48/43/34
f 46/38/35 43/22/35 41/25/35 45/42/35
f 17/10/36 46/38/36 52/38/36 51/10/36
f 3/11/37 45/42/37 48/43/37 1/44/37
f 1/45/38 48/40/38 47/41/38 15/46/38
f 17/10/39 15/9/39 47/39/39 46/38/39
f 51/10/40 52/38/40 49/42/40 50/11/40
f 46/38/41 45/42/41 49/42/41 52/38/41
f 3/11/42 17/10/42 51/10/42 50/11/42
f 45/42/43 3/11/43 50/11/43 49/42/43
f 5/18/44 33/33/44 34/16/44 6/15/44
f 114/47/45 111/35/45 54/35/45 56/16/45
f 113/16/46 114/47/46 56/16/46 55/16/46
f 112/35/47 113/16/47 55/16/47 53/37/47
f 111/33/48 112/33/48 53/33/48 54/33/48
f 94/1/49 93/4/49 60/3/49 74/2/49
f 58/5/50 63/8/50 81/7/50 78/7/50 72/6/50
f 71/9/51 57/12/51 59/11/51 73/10/51
f 74/2/52 60/3/52 58/5/52 72/6/52
f 86/13/53 85/16/53 62/15/53 75/14/53
f 76/17/54 24/17/54 65/18/54 61/18/54
f 77/19/55 80/19/55 68/20/55 64/20/55
f 66/15/56 65/21/56 67/8/56 68/20/56
f 79/14/57 66/15/57 68/20/57 80/19/57
f 64/20/58 68/20/58 67/8/58 63/8/58
f 61/21/59 65/21/59 66/15/59 62/15/59
f 97/22/60 95/25/60 69/24/60 83/23/60
f 95/25/61 96/27/61 70/26/61 69/24/61
f 96/28/62 98/31/62 82/30/62 70/29/62
f 63/32/63 67/32/63 81/7/63 78/7/63
f 65/18/64 24/17/64 81/7/64 67/32/64
f 62/15/65 66/15/65 79/14/65 75/14/65
f 84/33/66 31/34/66 76/17/66 61/18/66
f 70/29/67 82/30/67 31/34/67 84/33/67
f 83/23/68 69/24/68 85/16/68 86/13/68
f 69/24/69 70/26/69 84/35/69 85/16/69
f 97/22/70 83/23/70 82/30/70 98/36/70
f 61/18/71 87/33/71 84/33/71
f 85/16/72 88/16/72 62/15/72
f 108/33/73 92/33/73 90/33/73 107/33/73
f 90/35/26 92/35/26 91/16/26 89/16/26
f 107/37/74 90/35/74 89/16/74 109/16/74
f 109/16/75 89/16/75 91/16/75 110/16/75
f 110/16/76 91/16/76 92/35/76 108/35/76
f 58/5/77 60/3/77 93/4/77 64/20/77 63/8/77
f 77/19/78 64/20/78 93/4/78 94/1/78
f 100/38/79 97/22/79 98/36/79 101/39/79
f 102/40/80 101/41/80 98/31/80 96/28/80
f 99/42/81 102/43/81 96/27/81 95/25/81
f 100/38/82 99/42/82 95/25/82 97/22/82
f 73/10/83 105/10/83 106/38/83 100/38/83
f 59/11/84 57/44/84 102/43/84 99/42/84
f 57/45/85 71/46/85 101/41/85 102/40/85
f 73/10/86 100/38/86 101/39/86 71/9/86
f 105/10/87 104/11/87 103/42/87 106/38/87
f 100/38/88 106/38/88 103/42/88 99/42/88
f 59/11/89 104/11/89 105/10/89 73/10/89
f 99/42/90 103/42/90 104/11/90 59/11/90
f 61/18/91 62/15/91 88/16/91 87/33/91
f 118/48/92 110/16/92 108/35/92 115/35/92
f 117/16/93 109/16/93 110/16/93 118/48/93
f 116/35/94 107/37/94 109/16/94 117/16/94
f 115/33/95 108/33/95 107/33/95 116/33/95
f 33/33/96 29/33/96 112/33/96 111/33/96
f 29/35/97 30/16/97 113/16/97 112/35/97
f 30/16/98 34/16/98 114/47/98 113/16/98
f 34/16/99 33/35/99 111/35/99 114/47/99
f 87/33/100 115/33/100 116/33/100 84/33/100
f 84/35/101 116/35/101 117/16/101 85/16/101
f 85/16/102 117/16/102 118/48/102 88/16/102
f 88/16/103 118/48/103 115/35/103 87/35/103
