# Blender 5.2.0 LTS
# www.blender.org
mtllib closet.mtl
o Cube
v -0.650000 -0.877260 -0.247202
v -0.650000 1.122740 -0.247202
v -0.635824 -0.735450 0.247345
v -0.650000 -0.877260 0.247345
v -0.635823 1.100930 0.247345
v -0.650000 1.122740 0.247345
v -0.635824 -0.735450 -0.226768
v -0.635823 1.100930 -0.226768
v -0.635072 -0.877260 -0.247202
v -0.636575 -0.877260 0.247345
v -0.636199 -0.756990 0.247345
v -0.635824 -0.877260 -0.226768
v -0.635823 0.717654 0.247345
v -0.635823 0.749654 0.247345
v -0.635823 0.749654 -0.226768
v -0.635823 0.717654 -0.226768
v -0.635823 -0.384174 0.247345
v -0.635823 -0.352174 0.247345
v -0.635823 -0.016898 0.247345
v -0.635823 0.015102 0.247345
v -0.635823 0.350378 0.247345
v -0.635823 0.382378 0.247345
v -0.635823 -0.352174 -0.226768
v -0.635823 -0.384174 -0.226768
v -0.635823 0.015102 -0.226768
v -0.635823 -0.016898 -0.226768
v -0.635823 0.382378 -0.226768
v -0.635823 0.350378 -0.226768
v 0.650000 -0.877260 -0.247202
v 0.650000 1.122740 -0.247202
v 0.635823 -0.735450 0.247345
v 0.650000 -0.877260 0.247345
v 0.635823 1.100930 0.247345
v 0.650000 1.122740 0.247345
v 0.635823 -0.735450 -0.226768
v 0.635823 1.100930 -0.226768
v 0.635072 -0.877260 -0.247202
v 0.636575 -0.877260 0.247345
v 0.636199 -0.756990 0.247345
v 0.635823 -0.877260 -0.226768
v 0.635823 0.717654 0.247345
v 0.635823 0.749654 0.247345
v 0.635823 0.749654 -0.226768
v 0.635823 0.717654 -0.226768
v 0.635823 -0.384174 0.247345
v 0.635823 -0.352174 0.247345
v 0.635823 -0.016898 0.247345
v 0.635823 0.015102 0.247345
v 0.635823 0.350378 0.247345
v 0.635823 0.382378 0.247345
v 0.635823 -0.352174 -0.226768
v 0.635823 -0.384174 -0.226768
v 0.635823 0.015102 -0.226768
v 0.635823 -0.016898 -0.226768
v 0.635823 0.382378 -0.226768
v 0.635823 0.350378 -0.226768
v -0.635824 -0.756990 -0.226768
v 0.635823 -0.756990 -0.226768
vn -0.0000 -1.0000 -0.0000
vn -0.0000 1.0000 -0.0000
vn -1.0000 -0.0000 -0.0000
vn -0.0000 -0.0000 1.0000
vn -1.0000 -0.0016 0.0012
vn 1.0000 -0.0000 -0.0000
vn -0.0000 -0.0000 -1.0000
vn 1.0000 -0.0016 0.0012
vt 0.823732 0.318889
vt 0.823733 -0.000000
vt 0.909599 0.000000
vt 0.909599 0.318889
vt 0.179136 0.688221
vt 0.179136 0.362222
vt 0.268704 0.362222
vt 0.268704 0.688221
vt 0.358271 0.362221
vt 0.358271 0.365965
vt 0.354571 0.365776
vt 0.268704 0.365588
vt 0.268704 0.362221
vt 0.000000 0.724443
vt 0.000000 0.362221
vt 0.089568 0.362221
vt 0.089568 0.724443
vt 0.959340 0.362221
vt 0.959340 0.681111
vt 0.873473 0.681111
vt 0.873473 0.362221
vt 0.737866 0.318889
vt 0.737866 -0.000000
vt 0.823732 -0.000000
vt 0.571378 0.681111
vt 0.571378 1.000000
vt 0.507758 1.000000
vt 0.507758 0.681111
vt 0.003461 0.340439
vt 0.003555 0.336538
vt 0.322444 0.336538
vt 0.322538 0.340439
vt 0.421891 0.767166
vt 0.421891 0.681299
vt 0.443674 0.681299
vt 0.443674 0.767166
vt 0.322444 0.003950
vt 0.003555 0.003950
vt 0.000000 0.000000
vt 0.325999 0.000000
vt 0.507758 0.681111
vt 0.507758 1.000000
vt 0.444138 1.000000
vt 0.444138 0.681111
vt 0.242756 0.688221
vt 0.306375 0.688221
vt 0.306375 0.774088
vt 0.242756 0.774088
vt 0.530006 0.681111
vt 0.530006 0.362221
vt 0.615872 0.362221
vt 0.615872 0.681111
vt 0.963241 0.362222
vt 0.985024 0.362222
vt 0.985024 0.681111
vt 0.963241 0.681111
vt 0.909599 0.318889
vt 0.909599 -0.000000
vt 0.995466 -0.000000
vt 0.995466 0.318889
vt 0.003555 0.134088
vt 0.322444 0.134088
vt 0.322444 0.139883
vt 0.003555 0.139883
vt 0.003555 0.200605
vt 0.322444 0.200605
vt 0.322444 0.206401
vt 0.003555 0.206401
vt 0.322444 0.272918
vt 0.322444 0.267123
vt 0.322444 0.073365
vt 0.322444 0.067570
vt 0.325999 0.362221
vt 0.322633 0.362221
vt 0.124342 0.810310
vt 0.063620 0.810310
vt 0.063620 0.724443
vt 0.124342 0.724443
vt 0.358272 0.681299
vt 0.421891 0.767166
vt 0.358272 0.767166
vt 0.753545 0.766978
vt 0.814267 0.766978
vt 0.814267 0.852845
vt 0.753545 0.852845
vt 0.239858 0.859955
vt 0.179136 0.859955
vt 0.179136 0.774088
vt 0.239858 0.774088
vt 0.701739 0.681111
vt 0.615872 0.681111
vt 0.615872 0.362221
vt 0.701739 0.362222
vt 0.632100 0.681111
vt 0.632100 1.000000
vt 0.571378 1.000000
vt 0.571378 0.681111
vt 0.692823 0.681111
vt 0.692823 1.000000
vt 0.632100 1.000000
vt 0.632100 0.681111
vt 0.787606 0.681111
vt 0.787606 0.362221
vt 0.873473 0.362221
vt 0.873473 0.681111
vt 0.753545 0.681111
vt 0.753545 1.000000
vt 0.692822 1.000000
vt 0.692823 0.681111
vt 0.003555 0.267123
vt 0.003555 0.272918
vt 0.003555 0.067570
vt 0.003555 0.073365
vt 0.737866 0.000000
vt 0.737866 0.318889
vt 0.651999 0.318889
vt 0.651999 -0.000000
vt 0.444138 0.362221
vt 0.530005 0.362221
vt 0.530005 0.681111
vt 0.444138 0.681111
vt 0.701739 0.362222
vt 0.787606 0.362222
vt 0.358271 0.688221
vt 0.268704 0.688221
vt 0.268704 0.684854
vt 0.354571 0.684666
vt 0.358271 0.684477
vt 0.179136 0.724443
vt 0.089568 0.724443
vt 0.089568 0.362221
vt 0.179136 0.362221
vt 0.358272 0.362221
vt 0.444138 0.362316
vt 0.444138 0.681205
vt 0.063620 0.724443
vt 0.063620 0.810310
vt -0.000000 0.810310
vt -0.000000 0.724443
vt 0.003367 0.362221
vt 0.000000 0.362221
vt 0.418994 0.767166
vt 0.418994 0.853033
vt 0.358272 0.853033
vt 0.358272 0.767166
vt 0.242756 0.688221
vt 0.179136 0.688221
vt 0.814267 0.681111
vt 0.814267 0.766978
vt 0.753545 0.766978
vt 0.753545 0.681111
vt 0.303478 0.774088
vt 0.303478 0.859955
vt 0.242756 0.859955
vt 0.242756 0.774088
vt 0.651999 0.362221
vt 0.648255 0.362221
vt 0.329743 0.362221
vt 0.325999 0.362221
vt 0.325999 0.000000
vt 0.651999 0.000000
vt 0.959340 0.362222
vt 0.959340 0.681111
vt 0.328158 0.774088
vt 0.306375 0.774088
vt 0.306375 0.688221
vt 0.328158 0.688221
s 0
usemtl wood
f 41/1/1 13/2/1 16/3/1 44/4/1
f 6/5/2 34/6/2 30/7/2 2/8/2
f 1/9/1 9/10/1 12/11/1 10/12/1 4/13/1
f 4/14/3 6/15/3 2/16/3 1/17/3
f 8/18/1 36/19/1 33/20/1 5/21/1
f 22/22/2 50/23/2 55/24/2 27/1/2
f 7/25/4 35/26/4 52/27/4 24/28/4
f 39/29/4 31/30/4 3/31/4 11/32/4
f 39/33/5 58/34/5 40/35/5 38/36/5
f 5/37/4 33/38/4 34/39/4 6/40/4
f 15/41/4 43/42/4 36/43/4 8/44/4
f 5/45/6 14/46/6 15/47/6 8/48/6
f 18/49/2 46/50/2 51/51/2 23/52/2
f 58/53/7 40/54/7 12/55/7 57/56/7
f 14/57/2 42/58/2 43/59/2 15/60/2
f 50/61/4 22/62/4 21/63/4 49/64/4
f 48/65/4 20/66/4 19/67/4 47/68/4
f 3/31/4 17/69/4 18/70/4 19/67/4 20/66/4 21/63/4 22/62/4 13/71/4 14/72/4 5/37/4 6/40/4 4/73/4 10/74/4 11/32/4
f 19/75/6 18/76/6 23/77/6 26/78/6
f 17/79/6 3/34/6 7/80/6 24/81/6
f 21/82/6 20/83/6 25/84/6 28/85/6
f 13/86/6 22/87/6 27/88/6 16/89/6
f 52/90/1 45/91/1 17/92/1 24/93/1
f 25/94/4 53/95/4 56/96/4 28/97/4
f 27/98/4 55/99/4 44/100/4 16/101/4
f 49/102/1 21/103/1 28/104/1 56/105/1
f 23/106/4 51/107/4 54/108/4 26/109/4
f 46/110/4 18/70/4 17/69/4 45/111/4
f 42/112/4 14/72/4 13/71/4 41/113/4
f 53/114/2 25/115/2 20/116/2 48/117/2
f 31/118/2 35/119/2 7/120/2 3/121/2
f 47/90/1 19/122/1 26/123/1 54/102/1
f 29/124/1 32/125/1 38/126/1 40/127/1 37/128/1
f 32/129/6 29/130/6 30/131/6 34/132/6
f 37/128/1 40/127/1 12/11/1 9/10/1
f 11/133/1 57/134/1 58/135/1 39/79/1
f 33/136/3 36/137/3 43/138/3 42/139/3
f 31/30/4 39/29/4 38/140/4 32/141/4 34/39/4 33/38/4 42/112/4 41/113/4 50/61/4 49/64/4 48/65/4 47/68/4 46/110/4 45/111/4
f 47/142/3 54/143/3 51/144/3 46/145/3
f 45/146/3 52/48/3 35/88/3 31/147/3
f 49/148/3 56/149/3 53/150/3 48/151/3
f 41/152/3 44/153/3 55/154/3 50/155/3
f 29/156/7 37/157/7 9/158/7 1/159/7 2/160/7 30/161/7
f 35/162/7 58/53/7 57/56/7 7/163/7
f 11/164/8 10/165/8 12/166/8 57/167/8
l 7 9
l 35 37
