# Blender 5.2.0 LTS
# www.blender.org
mtllib book.mtl
o Plane
v -0.049929 0.088429 0.056611
v -0.049929 0.088429 -0.056221
v 0.053494 0.088100 0.055600
v -0.054456 0.088429 0.060195
v 0.053494 0.088100 -0.055210
v -0.054456 0.088429 -0.059805
v 0.053494 0.088429 0.060195
v 0.053494 0.088429 -0.059805
v -0.049777 0.085427 0.056632
v -0.049777 0.085427 -0.056242
v 0.049991 0.085132 -0.055230
v 0.049991 0.085132 0.055620
v -0.049929 -0.088429 0.056611
v -0.049929 -0.088429 -0.056221
v 0.053494 -0.088100 0.055600
v -0.054456 -0.088429 0.060195
v 0.053494 -0.088100 -0.055210
v -0.054456 -0.088429 -0.059805
v 0.053494 -0.088429 0.060195
v 0.053494 -0.088429 -0.059805
v -0.049777 -0.085427 0.056632
v -0.049777 -0.085427 -0.056242
v 0.049991 -0.085132 -0.055230
v 0.049991 -0.085132 0.055620
v -0.054456 -0.088429 0.060195
v -0.054456 -0.088429 -0.059805
v 0.053494 -0.088429 0.060195
v 0.053494 -0.088429 -0.059805
v -0.049777 -0.085427 0.056632
v -0.049777 -0.085427 -0.056242
v 0.049991 -0.085132 -0.055230
v 0.049991 -0.085132 0.055620
vn -1.0000 -0.0000 -0.0000
vn 1.0000 -0.0000 -0.0000
vn -0.0000 -0.0000 -1.0000
vn 0.0014 0.9992 -0.0394
vn 0.0014 0.9992 0.0394
vn -0.0000 1.0000 -0.0000
vn -0.0057 -0.0000 1.0000
vn 0.9987 0.0508 -0.0000
vn 0.0030 1.0000 -0.0000
vn -0.0057 -0.0000 -1.0000
vn -0.0100 -0.0012 0.9999
vn -0.0100 -0.0012 -0.9999
vn 0.0014 -0.9992 -0.0394
vn 0.0014 -0.9992 0.0394
vn -0.0000 -1.0000 -0.0000
vn 0.9987 -0.0508 -0.0000
vn 0.0030 -1.0000 -0.0000
vn -0.0100 0.0012 0.9999
vn -0.0100 0.0012 -0.9999
vn -0.0000 -0.0000 1.0000
vt 0.912289 0.503754
vt 0.912289 0.815660
vt 0.699482 0.815660
vt 0.699482 0.503754
vt 0.986374 0.000877
vt 0.987444 -0.000000
vt 0.987444 0.471846
vt 0.986374 0.470968
vt 0.465549 0.000000
vt 0.465549 0.471846
vt 0.000000 0.471846
vt 0.000000 0.000000
vt 0.921060 0.471846
vt 0.920824 0.917875
vt 0.919990 0.937395
vt 0.919990 0.471846
vt 0.947089 0.917875
vt 0.946853 0.471846
vt 0.947923 0.471846
vt 0.947923 0.937395
vt 0.474092 0.915462
vt 0.474093 0.635245
vt 0.695349 0.635245
vt 0.695348 0.915462
vt 0.985305 0.471846
vt 0.985305 -0.000000
vt 0.986374 0.000877
vt 0.461140 0.480643
vt 0.461140 0.934894
vt 0.446028 0.942814
vt 0.446029 0.472723
vt 0.947923 0.952367
vt 0.947923 0.926102
vt 0.955931 0.926097
vt 0.955931 0.952371
vt 0.014569 0.684333
vt 0.236748 0.684333
vt 0.234756 0.919720
vt 0.016561 0.919720
vt 0.446028 0.942814
vt 0.430917 0.934894
vt 0.430917 0.480643
vt 0.446029 0.472723
vt 0.892057 0.471846
vt 0.891399 0.479854
vt 0.000000 0.471846
vt 0.000658 0.479854
vt 0.957961 0.000000
vt 0.959030 0.000001
vt 0.959030 0.465549
vt 0.958196 0.446029
vt 0.931932 0.446029
vt 0.931098 0.465549
vt 0.931098 0.000001
vt 0.932167 0.000000
vt 0.927998 0.963664
vt 0.919990 0.963669
vt 0.927998 0.937400
vt 0.010487 0.673494
vt 0.012616 0.483908
vt 0.245943 0.483908
vt 0.248074 0.673494
vt 0.891399 0.935683
vt 0.892057 0.943691
vt -0.000000 0.943691
vt 0.000658 0.935683
vt 0.931098 0.000000
vt 0.931097 0.471846
vt 0.465549 0.471846
vt 0.465549 0.000000
s 0
usemtl leather
f 6/1/1 18/2/1 16/3/1 4/4/1
f 17/5/2 20/6/2 8/7/2 5/8/2
f 8/9/3 20/10/3 18/11/3 6/12/3
f 3/13/4 1/14/4 4/15/4 7/16/4
f 2/17/5 5/18/5 8/19/5 6/20/5
f 1/14/6 2/17/6 6/20/6 4/15/6
f 7/25/2 19/26/2 15/27/2 3/8/2
f 11/28/7 23/29/7 17/30/7 5/31/7
f 2/32/8 1/33/8 9/34/8 10/35/8
f 15/40/10 24/41/10 12/42/10 3/43/10
f 5/31/11 2/44/11 10/45/11 11/28/11
f 1/46/12 3/43/12 12/42/12 9/47/12
f 15/48/13 19/49/13 16/50/13 13/51/13
f 14/52/14 18/53/14 20/54/14 17/55/14
f 13/51/15 16/50/15 18/53/15 14/52/15
f 14/56/16 22/57/16 21/15/16 13/58/16
f 17/30/18 23/29/18 22/63/18 14/64/18
f 13/65/19 21/66/19 24/41/19 15/40/19
f 4/67/20 16/68/20 19/69/20 7/70/20
usemtl paper
f 12/21/2 24/22/2 23/23/2 11/24/2
f 10/36/9 9/37/9 12/38/9 11/39/9
f 22/59/17 23/60/17 24/61/17 21/62/17
l 27 25
l 28 26
l 25 26
l 29 30
l 31 30
l 32 29
