# Blender 5.1.1
# www.blender.org
mtllib кружка.mtl
o Cylinder.001
v 0.000000 -0.004910 -0.105000
v 0.000000 0.245090 -0.090301
v 0.067493 -0.004910 -0.080435
v 0.058044 0.245090 -0.069174
v 0.103405 -0.004910 -0.018233
v 0.088929 0.245090 -0.015681
v 0.090933 -0.004910 0.052500
v 0.078203 0.245090 0.045150
v 0.035912 -0.004910 0.098668
v 0.030885 0.245090 0.084855
v -0.035912 -0.004910 0.098668
v -0.030885 0.245090 0.084855
v -0.090933 -0.004910 0.052500
v -0.078203 0.245090 0.045150
v -0.103405 -0.004910 -0.018233
v -0.088929 0.245090 -0.015681
v -0.067493 -0.004910 -0.080435
v -0.058044 0.245090 -0.069174
v 0.067493 0.245090 -0.080435
v 0.000000 0.245090 -0.105000
v 0.103405 0.245090 -0.018233
v 0.090933 0.245090 0.052500
v 0.035912 0.245090 0.098668
v -0.035912 0.245090 0.098668
v -0.090933 0.245090 0.052500
v -0.103405 0.245090 -0.018233
v -0.067493 0.245090 -0.080435
v 0.058044 0.012486 -0.069174
v 0.000000 0.012486 -0.090301
v 0.088929 0.012486 -0.015681
v 0.078203 0.012486 0.045150
v 0.030885 0.012486 0.084855
v -0.030885 0.012486 0.084855
v -0.078203 0.012486 0.045150
v -0.088929 0.012486 -0.015681
v -0.058044 0.012486 -0.069174
vn 0.3420 -0.0000 -0.9397
vn 0.8660 -0.0000 -0.5000
vn 0.9848 -0.0000 0.1736
vn 0.6428 -0.0000 0.7660
vn -0.0000 -0.0000 1.0000
vn -0.6428 -0.0000 0.7660
vn -0.9848 -0.0000 0.1736
vn 0.9848 -0.0000 -0.1736
vn -0.8660 -0.0000 -0.5000
vn -0.3420 -0.0000 -0.9397
vn -0.0000 -1.0000 -0.0000
vn -0.0000 1.0000 -0.0000
vn -0.6428 -0.0000 -0.7660
vn -0.3420 -0.0000 0.9397
vn 0.8660 -0.0000 0.5000
vn -0.0000 -0.0000 -1.0000
vn -0.8660 -0.0000 0.5000
vn 0.3420 -0.0000 0.9397
vn 0.6428 -0.0000 -0.7660
vn -0.9848 -0.0000 -0.1736
vt 1.000000 0.500000
vt 1.000000 1.000000
vt 0.888889 1.000000
vt 0.888889 0.500000
vt 0.777778 1.000000
vt 0.777778 0.500000
vt 0.666667 1.000000
vt 0.666667 0.500000
vt 0.555556 1.000000
vt 0.555556 0.500000
vt 0.444444 1.000000
vt 0.444444 0.500000
vt 0.333333 1.000000
vt 0.333333 0.500000
vt 0.222222 1.000000
vt 0.222222 0.500000
vt 0.046735 0.285841
vt 0.071251 0.146799
vt 0.111111 1.000000
vt 0.111111 0.500000
vt 0.000000 1.000000
vt 0.000000 0.500000
vt 0.750000 0.490000
vt 0.904269 0.433851
vt 0.986354 0.291676
vt 0.957846 0.130000
vt 0.832085 0.024474
vt 0.667915 0.024474
vt 0.542154 0.130000
vt 0.513646 0.291676
vt 0.595731 0.433851
vt 0.250000 0.456401
vt 0.382672 0.408113
vt 0.404269 0.433851
vt 0.250000 0.490000
vt 0.453265 0.285841
vt 0.486354 0.291676
vt 0.428749 0.146799
vt 0.457846 0.130000
vt 0.320593 0.056046
vt 0.332085 0.024474
vt 0.179407 0.056046
vt 0.167915 0.024474
vt 0.042154 0.130000
vt 0.013646 0.291676
vt 0.117328 0.408112
vt 0.095731 0.433851
s 0
usemtl Material.001
f 1/1/1 20/2/1 19/3/1 3/4/1
f 3/4/2 19/3/2 21/5/2 5/6/2
f 5/6/3 21/5/3 22/7/3 7/8/3
f 7/8/4 22/7/4 23/9/4 9/10/4
f 9/10/5 23/9/5 24/11/5 11/12/5
f 11/12/6 24/11/6 25/13/6 13/14/6
f 13/14/7 25/13/7 26/15/7 15/16/7
f 16/17/8 14/18/8 34/18/8 35/17/8
f 15/16/9 26/15/9 27/19/9 17/20/9
f 17/20/10 27/19/10 20/21/10 1/22/10
f 1/23/11 3/24/11 5/25/11 7/26/11 9/27/11 11/28/11 13/29/11 15/30/11 17/31/11
f 2/32/12 4/33/12 19/34/12 20/35/12
f 4/33/12 6/36/12 21/37/12 19/34/12
f 6/36/12 8/38/12 22/39/12 21/37/12
f 8/38/12 10/40/12 23/41/12 22/39/12
f 10/40/12 12/42/12 24/43/12 23/41/12
f 12/42/12 14/18/12 25/44/12 24/43/12
f 14/18/12 16/17/12 26/45/12 25/44/12
f 16/17/12 18/46/12 27/47/12 26/45/12
f 18/46/12 2/32/12 20/35/12 27/47/12
f 28/33/12 29/32/12 36/46/12 35/17/12 34/18/12 33/42/12 32/40/12 31/38/12 30/36/12
f 10/40/13 8/38/13 31/38/13 32/40/13
f 4/33/14 2/32/14 29/32/14 28/33/14
f 18/46/15 16/17/15 35/17/15 36/46/15
f 12/42/16 10/40/16 32/40/16 33/42/16
f 6/36/17 4/33/17 28/33/17 30/36/17
f 2/32/18 18/46/18 36/46/18 29/32/18
f 14/18/19 12/42/19 33/42/19 34/18/19
f 8/38/20 6/36/20 30/36/20 31/38/20
o Torus.001
v 0.000000 0.035159 -0.104299
v 0.020144 0.052159 -0.104299
v 0.000000 0.069159 -0.104299
v -0.020143 0.052159 -0.104299
v 0.000000 0.083741 -0.188304
v 0.020143 0.092241 -0.173581
v 0.000000 0.099554 -0.163192
v -0.020143 0.092241 -0.173581
v -0.000000 0.191015 -0.184423
v 0.020143 0.182515 -0.169700
v -0.000000 0.176294 -0.158678
v -0.020143 0.182515 -0.169700
v -0.000000 0.226397 -0.104299
v 0.020143 0.209397 -0.104299
v -0.000000 0.192397 -0.104299
v -0.020143 0.209397 -0.104299
vn 0.5901 -0.6989 -0.4042
vn 0.5468 0.7337 0.4034
vn -0.5468 0.7337 0.4034
vn -0.5901 -0.6989 -0.4042
vn 0.5898 0.0317 -0.8069
vn 0.4679 -0.0444 0.8827
vn -0.4679 -0.0444 0.8827
vn -0.5898 0.0317 -0.8069
vn 0.5873 0.7441 -0.3184
vn 0.5360 -0.7946 0.2851
vn -0.5360 -0.7946 0.2851
vn -0.5873 0.7441 -0.3184
vt 0.500000 0.500000
vt 0.666667 0.500000
vt 0.666667 0.750000
vt 0.500000 0.750000
vt 0.666667 1.000000
vt 0.500000 1.000000
vt 0.500000 0.000000
vt 0.666667 0.000000
vt 0.666667 0.250000
vt 0.500000 0.250000
vt 0.833333 0.500000
vt 0.833333 0.750000
vt 0.833333 1.000000
vt 0.833333 0.000000
vt 0.833333 0.250000
vt 1.000000 0.500000
vt 1.000000 0.750000
vt 1.000000 1.000000
vt 1.000000 0.000000
vt 1.000000 0.250000
s 0
usemtl Material.002
f 37/48/21 41/49/21 42/50/21 38/51/21
f 38/51/22 42/50/22 43/52/22 39/53/22
f 39/54/23 43/55/23 44/56/23 40/57/23
f 40/57/24 44/56/24 41/49/24 37/48/24
f 41/49/25 45/58/25 46/59/25 42/50/25
f 42/50/26 46/59/26 47/60/26 43/52/26
f 43/55/27 47/61/27 48/62/27 44/56/27
f 44/56/28 48/62/28 45/58/28 41/49/28
f 45/58/29 49/63/29 50/64/29 46/59/29
f 46/59/30 50/64/30 51/65/30 47/60/30
f 47/61/31 51/66/31 52/67/31 48/62/31
f 48/62/32 52/67/32 49/63/32 45/58/32
