# Blender 5.2.0 LTS
# www.blender.org
mtllib Противник.mtl
o Torus.001
v 0.000000 0.035159 -0.104299
v 0.018428 0.054564 -0.094724
v -0.000236 0.069273 -0.103776
v -0.023570 0.048985 -0.095076
v 0.000000 0.083741 -0.188304
v 0.020143 0.092241 -0.173581
v 0.000000 0.099554 -0.163192
v -0.020143 0.092241 -0.173581
v 0.000000 0.191015 -0.184423
v 0.020143 0.182515 -0.169700
v 0.000000 0.176294 -0.158678
v -0.020143 0.182515 -0.169700
v -0.000316 0.226513 -0.102493
v 0.019465 0.211472 -0.097295
v 0.000000 0.192397 -0.104299
v -0.017294 0.210456 -0.096211
v 0.000000 -0.004910 -0.105000
v 0.000000 0.245090 -0.090301
v 0.067493 -0.004910 -0.080435
v 0.058044 0.245090 -0.069174
v 0.103405 -0.004910 -0.018233
v 0.088929 0.245090 -0.015681
v 0.090933 -0.004910 0.052500
v 0.078203 0.245090 0.045150
v 0.035912 -0.004910 0.098668
v 0.030885 0.245090 0.084855
v -0.035912 -0.004910 0.098668
v -0.030885 0.245090 0.084855
v -0.090933 -0.004910 0.052500
v -0.078203 0.245090 0.045150
v -0.103405 -0.004910 -0.018233
v -0.088929 0.245090 -0.015681
v -0.067493 -0.004910 -0.080435
v -0.058044 0.245090 -0.069174
v 0.067493 0.245090 -0.080435
v 0.000000 0.245090 -0.105000
v 0.103405 0.245090 -0.018233
v 0.090933 0.245090 0.052500
v 0.035912 0.245090 0.098668
v -0.035912 0.245090 0.098668
v -0.090933 0.245090 0.052500
v -0.103405 0.245090 -0.018233
v -0.067493 0.245090 -0.080435
v 0.058044 0.012486 -0.069174
v 0.000000 0.012486 -0.090301
v 0.088929 0.012486 -0.015681
v 0.078203 0.012486 0.045150
v 0.030885 0.012486 0.084855
v -0.030885 0.012486 0.084855
v -0.078203 0.012486 0.045150
v -0.088929 0.012486 -0.015681
v -0.058044 0.012486 -0.069174
vn 0.6819 -0.6493 -0.3367
vn 0.4635 0.7927 0.3961
vn -0.5030 0.7681 0.3962
vn -0.5827 -0.7022 -0.4091
vn 0.5898 0.0317 -0.8069
vn 0.4679 -0.0444 0.8827
vn -0.4679 -0.0444 0.8827
vn -0.5898 0.0317 -0.8069
vn 0.5924 0.7448 -0.3072
vn 0.5363 -0.7944 0.2852
vn -0.5372 -0.7937 0.2854
vn -0.6354 0.7185 -0.2829
vn 0.3420 -0.0000 -0.9397
vn 0.8660 -0.0000 -0.5000
vn 0.9848 -0.0000 0.1736
vn 0.6428 -0.0000 0.7660
vn -0.0000 -0.0000 1.0000
vn -0.6428 -0.0000 0.7660
vn -0.9848 -0.0000 0.1736
vn 0.9848 -0.0000 -0.1736
vn -0.8660 -0.0000 -0.5000
vn -0.3420 -0.0000 -0.9397
vn -0.0000 -1.0000 -0.0000
vn -0.0000 1.0000 -0.0000
vn -0.6428 -0.0000 -0.7660
vn -0.3420 -0.0000 0.9397
vn 0.8660 -0.0000 0.5000
vn -0.0000 -0.0000 -1.0000
vn -0.8660 -0.0000 0.5000
vn 0.3420 -0.0000 0.9397
vn 0.6428 -0.0000 -0.7660
vn -0.9848 -0.0000 -0.1736
vt 0.500000 0.500000
vt 0.666667 0.500000
vt 0.666667 0.750000
vt 0.500000 0.750000
vt 0.666667 1.000000
vt 0.500000 1.000000
vt 0.500000 0.000000
vt 0.666667 0.000000
vt 0.666667 0.250000
vt 0.500000 0.250000
vt 0.833333 0.500000
vt 0.833333 0.750000
vt 0.833333 1.000000
vt 0.833333 0.000000
vt 0.833333 0.250000
vt 1.000000 0.500000
vt 1.000000 0.750000
vt 1.000000 1.000000
vt 1.000000 0.000000
vt 1.000000 0.250000
vt 0.888889 1.000000
vt 0.888889 0.500000
vt 0.777778 1.000000
vt 0.777778 0.500000
vt 0.555556 1.000000
vt 0.555556 0.500000
vt 0.444444 1.000000
vt 0.444444 0.500000
vt 0.333333 1.000000
vt 0.333333 0.500000
vt 0.222222 1.000000
vt 0.222222 0.500000
vt 0.046735 0.285841
vt 0.071251 0.146799
vt 0.111111 1.000000
vt 0.111111 0.500000
vt 0.000000 1.000000
vt 0.000000 0.500000
vt 0.750000 0.490000
vt 0.904269 0.433851
vt 0.986354 0.291676
vt 0.957846 0.130000
vt 0.832085 0.024474
vt 0.667915 0.024474
vt 0.542154 0.130000
vt 0.513646 0.291676
vt 0.595731 0.433851
vt 0.250000 0.456401
vt 0.382672 0.408113
vt 0.404269 0.433851
vt 0.250000 0.490000
vt 0.453265 0.285841
vt 0.486354 0.291676
vt 0.428749 0.146799
vt 0.457846 0.130000
vt 0.320593 0.056046
vt 0.332085 0.024474
vt 0.179407 0.056046
vt 0.167915 0.024474
vt 0.042154 0.130000
vt 0.013646 0.291676
vt 0.117328 0.408112
vt 0.095731 0.433851
s 1
usemtl Material.005
f 1/1/1 5/2/1 6/3/1 2/4/1
f 2/4/2 6/3/2 7/5/2 3/6/2
f 3/7/3 7/8/3 8/9/3 4/10/3
f 4/10/4 8/9/4 5/2/4 1/1/4
f 5/2/5 9/11/5 10/12/5 6/3/5
f 6/3/6 10/12/6 11/13/6 7/5/6
f 7/8/7 11/14/7 12/15/7 8/9/7
f 8/9/8 12/15/8 9/11/8 5/2/8
f 9/11/9 13/16/9 14/17/9 10/12/9
f 10/12/10 14/17/10 15/18/10 11/13/10
f 11/14/11 15/19/11 16/20/11 12/15/11
f 12/15/12 16/20/12 13/16/12 9/11/12
usemtl Material.004
f 17/16/13 36/18/13 35/21/13 19/22/13
f 19/22/14 35/21/14 37/23/14 21/24/14
f 21/24/15 37/23/15 38/5/15 23/2/15
f 23/2/16 38/5/16 39/25/16 25/26/16
f 25/26/17 39/25/17 40/27/17 27/28/17
f 27/28/18 40/27/18 41/29/18 29/30/18
f 29/30/19 41/29/19 42/31/19 31/32/19
f 32/33/20 30/34/20 50/34/20 51/33/20
f 31/32/21 42/31/21 43/35/21 33/36/21
f 33/36/22 43/35/22 36/37/22 17/38/22
f 17/39/23 19/40/23 21/41/23 23/42/23 25/43/23 27/44/23 29/45/23 31/46/23 33/47/23
f 18/48/24 20/49/24 35/50/24 36/51/24
f 20/49/24 22/52/24 37/53/24 35/50/24
f 22/52/24 24/54/24 38/55/24 37/53/24
f 24/54/24 26/56/24 39/57/24 38/55/24
f 26/56/24 28/58/24 40/59/24 39/57/24
f 28/58/24 30/34/24 41/60/24 40/59/24
f 30/34/24 32/33/24 42/61/24 41/60/24
f 32/33/24 34/62/24 43/63/24 42/61/24
f 34/62/24 18/48/24 36/51/24 43/63/24
f 44/49/24 45/48/24 52/62/24 51/33/24 50/34/24 49/58/24 48/56/24 47/54/24 46/52/24
f 26/56/25 24/54/25 47/54/25 48/56/25
f 20/49/26 18/48/26 45/48/26 44/49/26
f 34/62/27 32/33/27 51/33/27 52/62/27
f 28/58/28 26/56/28 48/56/28 49/58/28
f 22/52/29 20/49/29 44/49/29 46/52/29
f 18/48/30 34/62/30 52/62/30 45/48/30
f 30/34/31 28/58/31 49/58/31 50/34/31
f 24/54/32 22/52/32 46/52/32 47/54/32
