# Blender 5.2.0 LTS
# www.blender.org
mtllib table.mtl
o Cylinder.006
v 0.448915 -0.004096 -1.289956
v 0.448915 1.081452 -1.314171
v 0.464441 -0.004096 -1.286412
v 0.474948 1.081452 -1.308229
v 0.476892 -0.004096 -1.276482
v 0.495825 1.081452 -1.291580
v 0.483802 -0.004096 -1.262134
v 0.507410 1.081452 -1.267522
v 0.483802 -0.004096 -1.246208
v 0.507410 1.081452 -1.240820
v 0.476892 -0.004096 -1.231860
v 0.495825 1.081452 -1.216762
v 0.464441 -0.004096 -1.221930
v 0.474948 1.081452 -1.200113
v 0.448915 -0.004096 -1.218386
v 0.448915 1.081452 -1.194171
v 0.433388 -0.004096 -1.221930
v 0.422882 1.081452 -1.200113
v 0.420937 -0.004096 -1.231860
v 0.402005 1.081452 -1.216762
v 0.414027 -0.004096 -1.246208
v 0.390419 1.081452 -1.240820
v 0.414027 -0.004096 -1.262134
v 0.390419 1.081452 -1.267522
v 0.420937 -0.004096 -1.276482
v 0.402005 1.081452 -1.291580
v 0.433388 -0.004096 -1.286412
v 0.422882 1.081452 -1.308229
v -0.546949 1.075688 1.446394
v -0.546793 1.210736 1.446347
v -0.562824 1.069343 -1.447448
v -0.562824 1.204282 -1.447448
v 0.563590 1.077946 1.456612
v 0.563613 1.212921 1.456621
v 0.559867 1.083742 -1.461229
v 0.559851 1.218758 -1.461279
v -0.575075 1.063669 -0.000099
v -0.575077 1.213908 -0.000106
v 0.574680 1.071763 -0.000930
v 0.574676 1.222081 -0.000944
v -0.570252 1.064270 0.686970
v 0.575588 1.222916 0.688325
v -0.570153 1.214531 0.686956
v 0.575582 1.072618 0.688320
v -0.561469 1.068546 1.089157
v 0.576085 1.223215 1.096433
v -0.561280 1.218892 1.089111
v 0.576071 1.072936 1.096419
v -0.559257 1.068710 1.306217
v 0.576191 1.221971 1.315869
v -0.559047 1.219087 1.306158
v 0.576162 1.071669 1.315857
v -0.001136 1.068250 -1.470817
v -0.001146 1.218529 -1.470851
v 0.011133 1.062816 1.465603
v 0.011322 1.213112 1.465549
v -0.000482 1.234098 -0.001642
v -0.000471 1.053164 -0.001604
v 0.003018 1.229895 0.687282
v 0.002904 1.049015 0.687304
v 0.010088 1.230373 1.091621
v 0.009835 1.049470 1.091676
v 0.011811 1.229931 1.309461
v 0.011523 1.048998 1.309536
v -0.275402 1.063181 -1.465482
v -0.258797 1.214619 1.462093
v -0.275286 1.049929 -0.001037
v -0.269985 1.047948 0.686792
v -0.263091 1.051129 1.091300
v -0.260780 1.050917 1.308447
v -0.275405 1.213430 -1.465494
v -0.259036 1.064257 1.462166
v -0.275293 1.230795 -0.001063
v -0.269828 1.228811 0.686758
v -0.260580 1.231299 1.089041
v -0.258217 1.231161 1.306159
v 0.272884 1.223874 -1.475264
v 0.279788 1.065051 1.469839
v 0.274493 1.237074 -0.001617
v 0.275845 1.233914 0.688057
v 0.279294 1.233462 1.094895
v 0.280232 1.232275 1.313559
v 0.272899 1.073567 -1.475215
v 0.279903 1.215335 1.469817
v 0.274504 1.056110 -0.001581
v 0.275808 1.053030 0.688055
v 0.279143 1.052553 1.094914
v 0.280054 1.051351 1.313590
v 0.447446 1.225952 -1.476611
v 0.451903 1.068046 1.471727
v 0.449584 1.237677 -0.001269
v 0.450567 1.236991 0.688250
v 0.451704 1.236465 1.096206
v 0.452162 1.235197 1.315377
v 0.447466 1.075628 -1.476550
v 0.451965 1.218329 1.471727
v 0.449592 1.056723 -0.001242
v 0.450555 1.056091 0.688244
v 0.451629 1.055555 1.096200
v 0.452063 1.054257 1.315378
v -0.450289 1.061904 -1.463696
v -0.433348 1.216917 1.461525
v -0.450153 1.048866 -0.000445
v -0.444754 1.048576 0.686844
v -0.435467 1.052410 1.088784
v -0.433114 1.052156 1.305749
v -0.450289 1.212136 -1.463696
v -0.433579 1.066537 1.461594
v -0.450158 1.229704 -0.000462
v -0.444595 1.229437 0.686815
v -0.435157 1.233378 1.088713
v -0.432761 1.233198 1.305650
v -0.575606 1.210288 -0.676891
v 0.574564 1.065949 -0.688818
v -0.575606 1.060056 -0.676891
v 0.574556 1.216226 -0.688841
v -0.000395 1.048630 -0.684369
v -0.000403 1.229507 -0.684391
v -0.275539 1.046309 -0.679677
v -0.275543 1.227162 -0.679689
v 0.274574 1.231617 -0.688354
v 0.274586 1.050721 -0.688319
v 0.449531 1.231827 -0.688901
v 0.449543 1.050934 -0.688865
v -0.450591 1.045124 -0.677534
v -0.450593 1.225958 -0.677539
v -0.575654 1.210005 -1.082298
v 0.573147 1.072392 -1.099454
v -0.575654 1.059774 -1.082298
v 0.573132 1.222691 -1.099498
v -0.000902 1.050137 -1.091770
v -0.000913 1.231009 -1.091812
v -0.275552 1.045662 -1.085222
v -0.275555 1.226492 -1.085232
v 0.273494 1.235993 -1.097857
v 0.273512 1.055090 -1.097796
v 0.448198 1.237674 -1.099298
v 0.448218 1.056760 -1.099234
v -0.450617 1.044695 -1.082938
v -0.450617 1.225511 -1.082938
v -0.575472 1.211069 -1.304241
v 0.572514 1.075399 -1.320152
v -0.575472 1.060837 -1.304241
v 0.572495 1.225721 -1.320211
v -0.001138 1.052180 -1.313041
v -0.001152 1.233066 -1.313094
v -0.275508 1.046993 -1.306834
v -0.275513 1.227834 -1.306852
v 0.272989 1.238615 -1.318595
v 0.273012 1.057690 -1.318522
v 0.447581 1.240603 -1.319945
v 0.447608 1.059658 -1.319861
v -0.450444 1.045704 -1.304720
v -0.450444 1.226521 -1.304720
v -0.557157 1.069678 1.393716
v -0.555275 1.098679 1.456686
v -0.573239 1.210291 -1.393657
v -0.571032 1.092339 -1.457893
v -0.520560 1.063113 -1.460716
v 0.517621 1.225022 -1.474180
v 0.568074 1.106732 -1.471534
v 0.570252 1.077281 -1.408342
v 0.574002 1.219952 1.403809
v 0.571774 1.100943 1.466900
v 0.521542 1.070705 1.469448
v -0.504128 1.216618 1.459071
v -0.575362 1.062482 -0.362283
v -0.574240 1.212572 0.367305
v 0.574945 1.071966 0.366908
v 0.574697 1.217895 -0.368008
v 0.521510 1.235667 -0.001086
v -0.521980 1.050470 -0.000229
v 0.593442 1.102312 -0.000888
v -0.593816 1.094203 -0.000062
v -0.574260 1.062353 0.367305
v 0.574945 1.222296 0.366902
v -0.564695 1.217542 0.922934
v 0.575943 1.073152 0.927732
v -0.589065 1.094913 0.686983
v 0.522457 1.235910 0.688304
v -0.516867 1.050736 0.686916
v 0.594336 1.103340 0.688327
v -0.564851 1.067235 0.922967
v 0.575954 1.223421 0.927744
v -0.559647 1.219213 1.209123
v 0.576146 1.072319 1.217950
v -0.580353 1.099210 1.089218
v 0.523072 1.235721 1.096407
v -0.507812 1.054978 1.088954
v 0.594834 1.103862 1.096415
v -0.559851 1.068844 1.209176
v 0.576170 1.222618 1.217963
v -0.556955 1.217432 1.393657
v 0.573973 1.072287 1.403797
v -0.578161 1.099429 1.306295
v 0.523335 1.234515 1.315757
v -0.505532 1.054938 1.305963
v 0.594883 1.102606 1.315875
v 0.145220 1.071315 -1.473581
v -0.147564 1.215518 -1.467807
v -0.132705 1.063193 1.463499
v 0.154690 1.213850 1.467898
v -0.147267 1.232168 -0.001388
v 0.146363 1.054972 -0.001683
v -0.142526 1.228943 0.686911
v 0.148466 1.050874 0.687755
v -0.134047 1.230394 1.090006
v 0.153594 1.050704 1.093479
v -0.131937 1.230203 1.307430
v 0.154868 1.049824 1.311772
v 0.011083 1.049451 1.212193
v 0.011360 1.230374 1.212125
v 0.007187 1.049024 0.924686
v 0.007390 1.229905 0.924648
v 0.000126 1.050812 0.366466
v 0.000139 1.231680 0.366450
v -0.000520 1.051701 -0.367420
v -0.000530 1.232601 -0.367450
v 0.011718 1.227203 1.399158
v 0.011442 1.050103 1.399234
v 0.011060 1.093189 1.489018
v -0.001130 1.098911 -1.494442
v -0.147558 1.065255 -1.467783
v -0.132486 1.213521 1.463434
v -0.147258 1.051272 -0.001356
v -0.142668 1.048071 0.686941
v -0.136538 1.050250 1.092260
v -0.134471 1.050005 1.309709
v -0.372170 1.212442 -1.464250
v -0.355340 1.065401 1.461641
v -0.372092 1.230111 -0.000732
v -0.366428 1.229105 0.686760
v -0.356945 1.232408 1.088715
v -0.354508 1.232193 1.305676
v -0.275384 1.093885 -1.489260
v -0.260843 1.052188 1.398011
v -0.275490 1.049374 -0.364437
v -0.274387 1.047617 0.366848
v -0.264359 1.049453 0.922888
v -0.261416 1.051262 1.211368
v -0.258872 1.231475 1.209092
v -0.264106 1.230339 0.922837
v -0.274361 1.228447 0.366837
v -0.275497 1.230244 -0.364458
v -0.258290 1.228606 1.395720
v -0.259135 1.094696 1.485577
v 0.145207 1.221609 -1.473624
v 0.154538 1.063560 1.467936
v 0.146350 1.235938 -0.001724
v 0.148542 1.231761 0.687745
v 0.153796 1.231608 1.093442
v 0.155100 1.230745 1.311718
v 0.369498 1.074881 -1.476067
v 0.374945 1.216886 1.471012
v 0.371420 1.056593 -0.001415
v 0.372477 1.054856 0.688170
v 0.374425 1.054208 1.095754
v 0.375071 1.052890 1.314714
v 0.279744 1.095395 1.493265
v 0.280153 1.229478 1.403406
v 0.274518 1.234015 -0.368557
v 0.274855 1.235618 0.366450
v 0.277836 1.233469 0.926985
v 0.279996 1.232986 1.215923
v 0.279825 1.052061 1.215950
v 0.277725 1.052583 0.926992
v 0.274858 1.054689 0.366467
v 0.274528 1.053095 -0.368528
v 0.279982 1.052395 1.403437
v 0.272893 1.104180 -1.498671
v 0.369480 1.225198 -1.476122
v 0.374860 1.066606 1.471022
v 0.371411 1.237553 -0.001445
v 0.372495 1.235744 0.688177
v 0.374535 1.235121 1.095749
v 0.375205 1.233823 1.314700
v 0.517641 1.077314 -1.474118
v 0.521582 1.218365 1.469454
v 0.521516 1.058545 -0.001064
v 0.522448 1.058827 0.688298
v 0.523030 1.058648 1.096393
v 0.523272 1.057405 1.315746
v 0.452045 1.235958 1.217561
v 0.451118 1.236507 0.927736
v 0.449902 1.237266 0.366688
v 0.449603 1.233827 -0.368286
v 0.452106 1.232458 1.405306
v 0.451880 1.098387 1.495162
v 0.451952 1.055020 1.217560
v 0.451075 1.055636 0.927722
v 0.449903 1.056310 0.366700
v 0.449612 1.052907 -0.368261
v 0.452012 1.055370 1.405307
v 0.447458 1.106248 -1.500011
v -0.372169 1.062203 -1.464246
v -0.355097 1.215781 1.461568
v -0.372086 1.049266 -0.000711
v -0.366589 1.048247 0.686792
v -0.357260 1.051447 1.088788
v -0.354876 1.051152 1.305779
v -0.520560 1.210725 -1.460716
v -0.504335 1.068867 1.459133
v -0.521984 1.227477 -0.000242
v -0.516719 1.227772 0.686892
v -0.507529 1.232131 1.088887
v -0.505213 1.232142 1.305874
v -0.433763 1.052498 1.208742
v -0.439020 1.051343 0.922702
v -0.449239 1.046990 0.367148
v -0.450424 1.047945 -0.362870
v -0.433179 1.053569 1.395265
v -0.450266 1.092622 -1.487532
v -0.433426 1.233512 1.208655
v -0.438767 1.232261 0.922649
v -0.449210 1.227794 0.367143
v -0.450429 1.228799 -0.362884
v -0.432836 1.230786 1.395164
v -0.433685 1.097031 1.485006
v -0.575365 1.212731 -0.362290
v 0.574702 1.067599 -0.367994
v -0.575707 1.059466 -0.913402
v 0.573785 1.219592 -0.929522
v -0.000608 1.048521 -0.922403
v -0.000617 1.229386 -0.922434
v -0.275537 1.045171 -0.916393
v -0.275537 1.225988 -0.916394
v 0.274029 1.233408 -0.928083
v 0.274043 1.052518 -0.928035
v 0.448832 1.234667 -0.929377
v 0.448847 1.053774 -0.929329
v -0.450666 1.044412 -0.914118
v -0.450666 1.225228 -0.914119
v -0.372451 1.226424 -0.678348
v -0.522476 1.046766 -0.677066
v 0.371433 1.050964 -0.688809
v 0.521413 1.229773 -0.688888
v 0.146488 1.049914 -0.686806
v 0.371421 1.231860 -0.688846
v -0.147354 1.228254 -0.681811
v -0.372448 1.045581 -0.678339
v 0.146477 1.230806 -0.686837
v -0.147349 1.047391 -0.681797
v 0.593317 1.096498 -0.688811
v 0.521425 1.052710 -0.688854
v -0.522477 1.223767 -0.677068
v -0.594358 1.090627 -0.676854
v -0.575707 1.209697 -0.913402
v 0.573795 1.069311 -0.929489
v -0.575564 1.060298 -1.204966
v 0.572732 1.224595 -1.221825
v -0.001065 1.051361 -1.214244
v -0.001077 1.232242 -1.214294
v -0.275542 1.046365 -1.207745
v -0.275546 1.227203 -1.207761
v 0.273172 1.237650 -1.220187
v 0.273192 1.056733 -1.220118
v 0.447809 1.239521 -1.221588
v 0.447833 1.058589 -1.221513
v -0.450532 1.045190 -1.205520
v -0.450532 1.226006 -1.205520
v -0.522519 1.223446 -1.082475
v 0.520037 1.058937 -1.099406
v 0.591889 1.103014 -1.099478
v -0.147532 1.047430 -1.088018
v 0.145646 1.233868 -1.095426
v -0.372447 1.044959 -1.083732
v -0.147538 1.228280 -1.088044
v 0.370186 1.237127 -1.098933
v 0.145660 1.052977 -1.095371
v 0.520017 1.236027 -1.099469
v 0.370206 1.056216 -1.098871
v -0.522519 1.046452 -1.082475
v -0.372447 1.225775 -1.083732
v -0.594406 1.090346 -1.082258
v -0.575564 1.210530 -1.204966
v 0.572749 1.074283 -1.221773
v -0.573239 1.062679 -1.393656
v 0.570232 1.224988 -1.408403
v -0.001153 1.054625 -1.403830
v -0.001167 1.231687 -1.403881
v -0.275453 1.049448 -1.398072
v -0.275458 1.226466 -1.398091
v 0.272899 1.237181 -1.408809
v 0.272921 1.060081 -1.408739
v 0.447465 1.239243 -1.410146
v 0.447493 1.062118 -1.410061
v -0.450355 1.048136 -1.396125
v -0.450355 1.225129 -1.396125
v -0.372308 1.226832 -1.305397
v -0.522339 1.047500 -1.304373
v 0.369630 1.058961 -1.319410
v 0.519382 1.239041 -1.320172
v 0.145279 1.055345 -1.316377
v 0.369604 1.239898 -1.319488
v -0.147627 1.229970 -1.309536
v -0.372306 1.046007 -1.305391
v 0.145261 1.236253 -1.316443
v -0.147618 1.049108 -1.309501
v 0.591253 1.106033 -1.320184
v 0.519410 1.061919 -1.320088
v -0.522339 1.224493 -1.304373
v -0.594223 1.091412 -1.304212
v -0.591237 1.091952 -1.394663
v 0.518442 1.106631 -1.496642
v 0.591935 1.101898 1.404831
v -0.505251 1.098082 1.481608
v 0.522830 1.058519 1.405196
v -0.504888 1.229889 1.394890
v -0.522268 1.226409 -0.362483
v 0.521537 1.054509 -0.368110
v 0.593464 1.098099 -0.367959
v -0.593012 1.092959 0.367321
v -0.583708 1.097898 0.923009
v -0.521086 1.225897 0.367247
v 0.521802 1.058507 0.366819
v 0.593702 1.102598 0.366936
v -0.578749 1.099522 1.209250
v -0.511061 1.230758 0.922779
v 0.522812 1.058897 0.927754
v 0.594700 1.104022 0.927725
v -0.575306 1.099105 1.394804
v -0.505844 1.232366 1.208860
v 0.523209 1.058094 1.217866
v 0.594883 1.103245 1.217961
v -0.135025 1.050390 1.212518
v 0.154766 1.231294 1.214221
v -0.137505 1.048604 0.923533
v 0.151733 1.231482 0.925970
v -0.146471 1.048865 0.366641
v 0.146784 1.233874 0.366383
v -0.147391 1.050498 -0.365873
v 0.146365 1.233617 -0.368447
v 0.155011 1.227970 1.401496
v -0.134546 1.051190 1.399332
v 0.154480 1.093917 1.491356
v -0.147545 1.095942 -1.491498
v -0.372148 1.092916 -1.488061
v -0.354935 1.052498 1.395307
v -0.372332 1.048546 -0.363480
v -0.371156 1.047093 0.367016
v -0.360824 1.050549 0.922690
v -0.355538 1.051510 1.208758
v -0.132505 1.230569 1.210249
v -0.137268 1.229484 0.923486
v -0.146451 1.229713 0.366627
v -0.147400 1.231379 -0.365899
v -0.132024 1.227560 1.397052
v -0.132794 1.093598 1.486910
v 0.374826 1.096943 1.494452
v 0.375137 1.231036 1.404595
v 0.371432 1.234012 -0.368428
v 0.371752 1.236676 0.366567
v 0.373558 1.235133 0.927516
v 0.375037 1.234604 1.216961
v 0.154543 1.050377 1.214268
v 0.151575 1.050596 0.925993
v 0.146782 1.052973 0.366402
v 0.146376 1.052702 -0.368416
v 0.154788 1.050882 1.401550
v 0.145219 1.101946 -1.497103
v 0.523266 1.235199 1.217877
v 0.522830 1.235935 0.927773
v 0.521802 1.235640 0.366810
v 0.521529 1.231598 -0.368132
v 0.522889 1.231918 1.405205
v 0.522327 1.099769 1.491947
v 0.374909 1.053671 1.216972
v 0.373484 1.054251 0.927511
v 0.371753 1.055730 0.366582
v 0.371441 1.053091 -0.368401
v 0.375008 1.053953 1.404609
v 0.369491 1.105498 -1.499525
v -0.506150 1.055177 1.208940
v -0.511295 1.053659 0.922829
v -0.521115 1.048919 0.367249
v -0.522264 1.049386 -0.362472
v -0.505193 1.056372 1.394979
v -0.521348 1.096008 -1.483608
v -0.355192 1.232516 1.208669
v -0.360568 1.231449 0.922637
v -0.371128 1.227907 0.367009
v -0.372339 1.229407 -0.363498
v -0.354573 1.229720 1.395199
v -0.355444 1.095869 1.485052
v -0.372492 1.225515 -0.914980
v -0.522570 1.046152 -0.913605
v 0.370801 1.053387 -0.929035
v 0.520667 1.232939 -0.929500
v 0.146088 1.050829 -0.925770
v 0.370785 1.234280 -0.929083
v -0.147385 1.227220 -0.918935
v -0.372492 1.044698 -0.914980
v 0.146076 1.231711 -0.925813
v -0.147380 1.046379 -0.918919
v 0.592540 1.099923 -0.929507
v 0.520682 1.055875 -0.929454
v -0.522570 1.223145 -0.913605
v -0.594104 1.092986 -0.362235
v -0.522430 1.223961 -1.205119
v 0.519642 1.060814 -1.221716
v 0.591489 1.104912 -1.221802
v -0.147603 1.048385 -1.210531
v 0.145394 1.235346 -1.217842
v -0.372376 1.045463 -1.206242
v -0.147611 1.229243 -1.210563
v 0.369818 1.238883 -1.221174
v 0.145410 1.054445 -1.217779
v 0.519618 1.237922 -1.221791
v 0.369841 1.057957 -1.221103
v -0.522430 1.046968 -1.205119
v -0.372377 1.226285 -1.206246
v -0.594459 1.090035 -0.913355
v -0.372232 1.225450 -1.396741
v -0.521842 1.049875 -1.395314
v 0.369523 1.061382 -1.409584
v 0.518856 1.237776 -1.409882
v 0.145224 1.057765 -1.406871
v 0.369497 1.238496 -1.409662
v -0.147604 1.228604 -1.400585
v -0.372230 1.048447 -1.396734
v 0.145206 1.234849 -1.406934
v -0.147595 1.051566 -1.400551
v 0.588238 1.106613 -1.409391
v 0.518884 1.064330 -1.409795
v -0.521842 1.223187 -1.395314
v -0.594316 1.090872 -1.204932
v 0.448915 -0.004096 1.240939
v 0.448915 1.081452 1.216724
v 0.464441 -0.004096 1.244483
v 0.474948 1.081452 1.222666
v 0.476892 -0.004096 1.254412
v 0.495825 1.081452 1.239314
v 0.483802 -0.004096 1.268761
v 0.507410 1.081452 1.263372
v 0.483802 -0.004096 1.284687
v 0.507410 1.081452 1.290075
v 0.476892 -0.004096 1.299035
v 0.495825 1.081452 1.314133
v 0.464441 -0.004096 1.308965
v 0.474948 1.081452 1.330782
v 0.448915 -0.004096 1.312508
v 0.448915 1.081452 1.336724
v 0.433388 -0.004096 1.308965
v 0.422882 1.081452 1.330782
v 0.420937 -0.004096 1.299035
v 0.402005 1.081452 1.314133
v 0.414027 -0.004096 1.284687
v 0.390419 1.081452 1.290075
v 0.414027 -0.004096 1.268761
v 0.390419 1.081452 1.263372
v 0.420937 -0.004096 1.254412
v 0.402005 1.081452 1.239314
v 0.433388 -0.004096 1.244483
v 0.422882 1.081452 1.222666
v -0.438147 -0.004096 1.240939
v -0.438147 1.081452 1.216724
v -0.422621 -0.004096 1.244483
v -0.412114 1.081452 1.222666
v -0.410170 -0.004096 1.254412
v -0.391237 1.081452 1.239314
v -0.403260 -0.004096 1.268761
v -0.379652 1.081452 1.263372
v -0.403260 -0.004096 1.284687
v -0.379652 1.081452 1.290075
v -0.410170 -0.004096 1.299035
v -0.391237 1.081452 1.314133
v -0.422621 -0.004096 1.308965
v -0.412114 1.081452 1.330782
v -0.438147 -0.004096 1.312508
v -0.438147 1.081452 1.336724
v -0.453674 -0.004096 1.308965
v -0.464180 1.081452 1.330782
v -0.466125 -0.004096 1.299035
v -0.485057 1.081452 1.314133
v -0.473035 -0.004096 1.284687
v -0.496643 1.081452 1.290075
v -0.473035 -0.004096 1.268761
v -0.496643 1.081452 1.263372
v -0.466125 -0.004096 1.254412
v -0.485057 1.081452 1.239314
v -0.453674 -0.004096 1.244483
v -0.464180 1.081452 1.222666
v -0.438147 -0.004096 -1.289956
v -0.438147 1.081452 -1.314171
v -0.422621 -0.004096 -1.286412
v -0.412114 1.081452 -1.308229
v -0.410170 -0.004096 -1.276482
v -0.391237 1.081452 -1.291580
v -0.403260 -0.004096 -1.262134
v -0.379652 1.081452 -1.267522
v -0.403260 -0.004096 -1.246208
v -0.379652 1.081452 -1.240820
v -0.410170 -0.004096 -1.231860
v -0.391237 1.081452 -1.216762
v -0.422621 -0.004096 -1.221930
v -0.412114 1.081452 -1.200113
v -0.438147 -0.004096 -1.218386
v -0.438147 1.081452 -1.194171
v -0.453674 -0.004096 -1.221930
v -0.464180 1.081452 -1.200113
v -0.466125 -0.004096 -1.231860
v -0.485057 1.081452 -1.216762
v -0.473035 -0.004096 -1.246208
v -0.496643 1.081452 -1.240820
v -0.473035 -0.004096 -1.262134
v -0.496643 1.081452 -1.267522
v -0.466125 -0.004096 -1.276482
v -0.485057 1.081452 -1.291580
v -0.453674 -0.004096 -1.286412
v -0.464180 1.081452 -1.308229
vn 0.2225 -0.0217 -0.9747
vn 0.6234 -0.0217 -0.7816
vn 0.9008 -0.0217 -0.4338
vn 0.9998 -0.0217 -0.0000
vn 0.9008 -0.0217 0.4338
vn 0.6234 -0.0217 0.7816
vn 0.2225 -0.0217 0.9747
vn -0.2225 -0.0217 0.9747
vn -0.6234 -0.0217 0.7816
vn -0.9008 -0.0217 0.4338
vn -0.9998 -0.0217 -0.0000
vn -0.9008 -0.0217 -0.4338
vn -0.0000 1.0000 -0.0000
vn -0.6234 -0.0217 -0.7816
vn -0.2225 -0.0217 -0.9747
vn -0.0000 -1.0000 -0.0000
vn -0.8515 -0.5234 -0.0316
vn -0.9879 0.1527 -0.0289
vn -0.9588 0.1219 -0.2567
vn -0.8427 -0.4771 -0.2493
vn 0.0415 -0.6085 -0.7924
vn 0.0410 0.1891 -0.9811
vn 0.3866 0.1445 -0.9109
vn 0.3542 -0.5401 -0.7634
vn 0.8548 -0.5183 0.0246
vn 0.9878 0.1525 0.0310
vn 0.9571 0.1215 0.2630
vn 0.8464 -0.4732 0.2444
vn -0.0471 -0.6092 0.7916
vn -0.0393 0.1896 0.9811
vn -0.3794 0.1461 0.9136
vn -0.3535 -0.5414 0.7629
vn 0.0443 -0.9989 0.0125
vn 0.2603 -0.9654 0.0133
vn 0.2413 -0.9555 0.1697
vn 0.0438 -0.9813 0.1872
vn -0.0135 0.9996 0.0261
vn -0.2343 0.9718 0.0247
vn -0.2129 0.9596 0.1838
vn -0.0121 0.9790 0.2036
vn -0.0308 0.9995 -0.0058
vn -0.0320 0.9995 -0.0057
vn -0.2467 0.9691 -0.0050
vn -0.2481 0.9687 -0.0052
vn -0.2470 0.9690 0.0008
vn -0.0304 0.9995 0.0011
vn 0.0235 -0.9997 0.0059
vn 0.0236 -0.9997 0.0083
vn 0.2404 -0.9707 0.0051
vn 0.2403 -0.9707 0.0080
vn 0.2418 -0.9703 0.0054
vn 0.2418 -0.9703 0.0055
vn 0.0259 -0.9997 0.0050
vn 0.0258 -0.9997 0.0050
vn 0.8523 -0.5231 -0.0039
vn 0.8520 -0.5236 0.0042
vn 0.8520 -0.5236 0.0041
vn 0.9879 0.1548 -0.0011
vn 0.9879 0.1548 -0.0015
vn 0.9879 0.1548 -0.0013
vn 0.8522 -0.5232 0.0029
vn -0.8521 -0.5231 0.0199
vn -0.8524 -0.5228 0.0069
vn -0.9876 0.1561 0.0160
vn -0.9876 0.1561 0.0161
vn -0.9879 0.1552 0.0071
vn -0.9880 0.1547 0.0015
vn -0.8523 -0.5230 0.0012
vn -0.8514 -0.5242 0.0171
vn -0.8516 -0.5237 0.0237
vn -0.9874 0.1573 0.0159
vn -0.9874 0.1568 0.0197
vn -0.9874 0.1568 0.0198
vn -0.0267 0.9996 -0.0001
vn -0.0267 0.9996 -0.0002
vn -0.2436 0.9699 0.0009
vn -0.2409 0.9705 -0.0046
vn -0.2409 0.9705 -0.0047
vn -0.0234 0.9997 -0.0084
vn -0.0233 0.9997 -0.0085
vn 0.0311 -0.9995 -0.0003
vn 0.2459 -0.9693 0.0005
vn 0.2518 -0.9678 0.0009
vn 0.0380 -0.9993 -0.0004
vn 0.8528 -0.5222 -0.0004
vn 0.9879 0.1548 -0.0016
vn 0.9879 0.1549 -0.0021
vn 0.8536 -0.5209 -0.0003
vn -0.8515 -0.5243 0.0046
vn -0.8515 -0.5244 0.0087
vn -0.9875 0.1577 0.0062
vn -0.9875 0.1576 0.0096
vn -0.0205 0.9997 -0.0095
vn -0.0205 0.9997 -0.0094
vn -0.2396 0.9709 -0.0048
vn -0.2388 0.9711 -0.0010
vn -0.2388 0.9711 -0.0009
vn -0.0178 0.9998 -0.0042
vn 0.0430 -0.9991 -0.0010
vn 0.2574 -0.9663 -0.0004
vn 0.2597 -0.9657 -0.0033
vn 0.0438 -0.9990 -0.0028
vn 0.8544 -0.5196 -0.0006
vn 0.9879 0.1551 -0.0012
vn 0.9879 0.1551 -0.0002
vn 0.8549 -0.5187 -0.0022
vn -0.8427 -0.4790 0.2458
vn -0.9575 0.1245 0.2601
vn -0.9874 0.1556 0.0295
vn -0.8509 -0.5247 0.0259
vn -0.0159 0.9999 0.0008
vn -0.2374 0.9714 0.0021
vn -0.2374 0.9714 0.0022
vn -0.2366 0.9716 0.0033
vn -0.0152 0.9999 0.0029
vn 0.0434 -0.9990 -0.0060
vn 0.2599 -0.9656 -0.0058
vn 0.2600 -0.9656 -0.0067
vn 0.0437 -0.9990 -0.0075
vn 0.8553 -0.5182 -0.0033
vn 0.9879 0.1549 0.0006
vn 0.9879 0.1548 0.0009
vn 0.8554 -0.5179 -0.0035
vn -0.0061 -1.0000 0.0049
vn -0.0052 -1.0000 0.0045
vn -0.0066 -1.0000 -0.0016
vn -0.0049 -1.0000 -0.0013
vn 0.0025 -1.0000 0.0017
vn -0.0057 -1.0000 0.0012
vn -0.0003 -1.0000 -0.0047
vn -0.0002 -1.0000 -0.0047
vn -0.0068 -1.0000 -0.0040
vn -0.0048 -1.0000 -0.0037
vn -0.0160 0.9999 0.0019
vn -0.0117 0.9999 0.0007
vn -0.0102 0.9999 0.0041
vn -0.0153 0.9999 0.0054
vn -0.0045 1.0000 -0.0013
vn -0.0028 1.0000 0.0025
vn -0.0023 1.0000 0.0046
vn -0.0096 0.9999 0.0058
vn -0.0149 0.9999 0.0071
vn -0.0051 -1.0000 0.0063
vn 0.0043 -1.0000 0.0001
vn 0.0010 -1.0000 0.0027
vn -0.0061 -1.0000 0.0076
vn 0.0100 -0.9999 -0.0025
vn 0.0083 -1.0000 0.0001
vn -0.0041 -1.0000 0.0081
vn 0.0042 -1.0000 0.0039
vn -0.0162 0.9999 0.0035
vn -0.0143 0.9999 0.0037
vn -0.0133 0.9999 0.0002
vn -0.0168 0.9999 0.0010
vn -0.0101 0.9999 0.0025
vn -0.0069 1.0000 -0.0015
vn 0.0084 -1.0000 -0.0022
vn 0.0108 -0.9999 -0.0020
vn 0.0096 -0.9999 -0.0045
vn 0.0057 -1.0000 -0.0028
vn 0.0117 -0.9999 -0.0011
vn 0.0126 -0.9999 -0.0057
vn 0.0033 -1.0000 0.0007
vn -0.0069 1.0000 -0.0021
vn -0.0086 1.0000 -0.0013
vn -0.0135 0.9999 0.0058
vn -0.0123 0.9999 0.0045
vn -0.0117 0.9999 0.0004
vn -0.0119 0.9999 0.0011
vn -0.0127 0.9999 0.0058
vn 0.0080 -0.9999 0.0070
vn 0.0094 -0.9999 0.0066
vn 0.0093 -0.9999 0.0061
vn 0.0086 -0.9999 0.0057
vn 0.0100 -0.9999 0.0049
vn 0.0091 -0.9999 0.0068
vn -0.0030 1.0000 -0.0076
vn -0.0084 1.0000 -0.0052
vn -0.0071 0.9999 -0.0075
vn -0.0036 1.0000 -0.0079
vn -0.0101 0.9999 -0.0050
vn -0.0093 0.9999 -0.0069
vn -0.0146 0.9994 0.0310
vn -0.0093 0.9995 0.0308
vn -0.0147 0.9994 0.0310
vn -0.0021 0.9995 0.0303
vn -0.0022 0.9995 0.0303
vn -0.0117 0.9781 0.2079
vn -0.0045 0.9782 0.2075
vn -0.0167 0.9780 0.2081
vn -0.0168 0.9780 0.2081
vn -0.0055 -0.9999 0.0142
vn -0.0074 -0.9999 0.0132
vn -0.0055 -0.9999 0.0141
vn -0.0009 -0.9999 0.0124
vn -0.0008 -0.9999 0.0124
vn -0.0081 -0.9826 0.1854
vn -0.0020 -0.9824 0.1870
vn -0.0103 -0.9824 0.1864
vn -0.0103 -0.9824 0.1863
vn -0.0024 -0.6111 0.7916
vn -0.0023 -0.6111 0.7916
vn -0.0073 -0.6108 0.7917
vn -0.0164 0.1919 0.9813
vn -0.0163 0.1919 0.9813
vn -0.0171 0.1920 0.9813
vn -0.0154 0.1921 0.9813
vn -0.0115 -0.6105 0.7919
vn -0.0040 -0.6122 -0.7907
vn -0.0039 -0.6114 -0.7913
vn -0.0175 0.1949 -0.9807
vn -0.0223 0.1942 -0.9807
vn -0.0231 0.1934 -0.9808
vn -0.0028 -0.6103 -0.7922
vn -0.0029 -0.6103 -0.7921
vn -0.0031 -0.6129 -0.7902
vn -0.0035 -0.6127 -0.7903
vn -0.0075 0.1955 -0.9807
vn -0.0110 0.1953 -0.9807
vn -0.0109 0.1953 -0.9807
vn -0.0133 -0.9998 0.0154
vn -0.0083 -0.9999 0.0150
vn -0.0082 -0.9999 0.0150
vn -0.0123 -0.9818 0.1897
vn -0.0140 -0.9814 0.1913
vn 0.0058 -1.0000 0.0063
vn 0.0065 -1.0000 0.0066
vn 0.0073 -1.0000 0.0057
vn 0.0066 -1.0000 0.0057
vn 0.0059 -1.0000 -0.0019
vn 0.0048 -1.0000 -0.0016
vn 0.0023 -1.0000 -0.0012
vn 0.0009 -1.0000 -0.0006
vn -0.0037 -1.0000 0.0064
vn -0.0043 -1.0000 0.0076
vn -0.0083 -0.9999 0.0083
vn -0.0092 -0.9999 0.0086
vn -0.0086 -1.0000 0.0039
vn -0.0118 -0.9999 0.0035
vn -0.0077 -1.0000 -0.0013
vn -0.0126 -0.9999 -0.0013
vn -0.0075 -1.0000 -0.0036
vn -0.0127 -0.9999 -0.0035
vn 0.0034 1.0000 -0.0030
vn 0.0042 1.0000 0.0013
vn 0.0092 1.0000 -0.0037
vn 0.0091 1.0000 0.0009
vn 0.0090 1.0000 0.0033
vn 0.0044 1.0000 0.0038
vn -0.0074 1.0000 0.0015
vn 0.0009 1.0000 -0.0038
vn -0.0013 1.0000 -0.0019
vn -0.0014 1.0000 -0.0018
vn 0.0072 1.0000 -0.0061
vn -0.0110 0.9999 0.0021
vn -0.0098 0.9999 0.0045
vn -0.0086 1.0000 0.0023
vn -0.0058 1.0000 0.0028
vn -0.0095 0.9999 -0.0067
vn -0.0095 0.9999 -0.0062
vn -0.0081 0.9999 -0.0071
vn -0.0087 0.9999 -0.0058
vn 0.0047 0.9996 0.0295
vn 0.0093 0.9995 0.0285
vn 0.0029 0.9784 0.2069
vn 0.0083 0.9785 0.2063
vn 0.0028 0.9784 0.2069
vn -0.0134 -0.6101 0.7922
vn -0.0113 0.1921 0.9813
vn -0.0059 0.1922 0.9813
vn -0.0126 -0.6096 0.7926
vn 0.0042 -0.6113 0.7914
vn 0.0022 -0.6112 0.7915
vn 0.0021 -0.6112 0.7915
vn -0.0127 0.1918 0.9814
vn -0.0140 0.1918 0.9813
vn -0.0141 0.1918 0.9813
vn -0.0184 0.9994 0.0307
vn -0.0176 0.9994 0.0309
vn -0.0194 0.9779 0.2082
vn -0.0201 0.9779 0.2081
vn 0.0014 1.0000 -0.0065
vn 0.0001 1.0000 -0.0068
vn -0.0005 1.0000 -0.0082
vn 0.0009 1.0000 -0.0083
vn -0.0052 1.0000 -0.0029
vn -0.0021 1.0000 -0.0042
vn -0.0021 1.0000 -0.0041
vn -0.0098 0.9999 0.0027
vn -0.0082 1.0000 0.0018
vn -0.0154 0.9999 0.0027
vn -0.0143 0.9999 0.0021
vn -0.0175 0.9998 0.0013
vn -0.0172 0.9999 0.0013
vn -0.0174 0.9998 0.0022
vn -0.0175 0.9998 0.0023
vn -0.0173 0.9998 0.0060
vn -0.0177 0.9998 0.0061
vn -0.0173 0.9998 0.0078
vn -0.0178 0.9998 0.0079
vn 0.0117 -0.9999 -0.0008
vn 0.0102 -0.9999 -0.0042
vn 0.0160 -0.9999 -0.0020
vn 0.0152 -0.9999 -0.0055
vn 0.0148 -0.9999 -0.0071
vn 0.0096 -0.9999 -0.0059
vn 0.0143 -0.9999 -0.0036
vn 0.0133 -0.9999 -0.0002
vn 0.0161 -0.9999 -0.0035
vn 0.0168 -0.9999 -0.0011
vn 0.0101 -0.9999 0.0004
vn 0.0134 -0.9999 -0.0057
vn 0.0069 -1.0000 0.0021
vn 0.0122 -0.9999 -0.0044
vn 0.0063 -0.9999 0.0087
vn 0.0070 -0.9999 0.0074
vn 0.0030 -1.0000 0.0076
vn 0.0036 -1.0000 0.0078
vn 0.0087 -0.9999 0.0119
vn 0.0140 -0.9998 0.0117
vn 0.0141 -0.9998 0.0117
vn 0.0055 -0.9822 0.1877
vn 0.0113 -0.9822 0.1873
vn 0.0114 -0.9822 0.1873
vn 0.0056 -0.9822 0.1876
vn -0.0006 -0.6092 -0.7930
vn -0.0189 0.1926 -0.9811
vn -0.0190 0.1926 -0.9811
vn -0.0135 0.1920 -0.9813
vn 0.0010 -0.6084 -0.7936
vn 0.2300 0.9732 0.0026
vn 0.2308 0.9730 0.0054
vn 0.0099 0.9999 0.0025
vn 0.0103 0.9999 0.0058
vn 0.0101 0.9999 0.0074
vn 0.2311 0.9729 0.0065
vn 0.2370 0.9715 -0.0016
vn 0.2314 0.9728 -0.0002
vn 0.0152 0.9999 0.0005
vn 0.0104 0.9999 0.0008
vn 0.2471 0.9690 -0.0057
vn 0.2431 0.9700 -0.0011
vn 0.0274 0.9996 -0.0051
vn 0.0221 0.9998 0.0003
vn 0.0220 0.9998 0.0003
vn 0.2483 0.9687 -0.0054
vn 0.2484 0.9686 -0.0081
vn 0.0298 0.9995 -0.0060
vn 0.0296 0.9995 -0.0084
vn 0.2297 0.9728 0.0287
vn 0.0085 0.9995 0.0298
vn 0.0070 0.9782 0.2073
vn 0.2083 0.9595 0.1895
vn 0.3638 -0.5405 0.7586
vn 0.3843 0.1444 0.9118
vn 0.0365 0.1890 0.9813
vn 0.0486 -0.6114 0.7899
vn 0.0174 -0.9998 -0.0024
vn 0.0173 -0.9998 -0.0061
vn 0.0176 -0.9998 -0.0025
vn 0.0176 -0.9998 -0.0062
vn 0.0177 -0.9998 -0.0079
vn 0.0172 -0.9998 -0.0078
vn 0.0154 -0.9999 -0.0026
vn 0.0175 -0.9998 -0.0013
vn 0.0142 -0.9999 -0.0020
vn 0.0172 -0.9999 -0.0014
vn 0.0036 -1.0000 0.0035
vn 0.0097 -0.9999 -0.0026
vn 0.0021 -1.0000 0.0041
vn 0.0081 -1.0000 -0.0017
vn -0.0001 -1.0000 0.0067
vn 0.0005 -1.0000 0.0081
vn -0.0014 -1.0000 0.0064
vn -0.0009 -1.0000 0.0082
vn 0.0171 -0.9998 0.0119
vn 0.0180 -0.9998 0.0121
vn 0.0151 -0.9822 0.1873
vn 0.0165 -0.9822 0.1873
vn 0.0011 -0.6082 -0.7938
vn -0.0096 0.1919 -0.9814
vn -0.0097 0.1919 -0.9814
vn -0.0080 0.1919 -0.9814
vn 0.0009 -0.6082 -0.7938
vn -0.2456 -0.9693 0.0091
vn -0.2456 -0.9693 0.0090
vn -0.2467 -0.9691 0.0025
vn -0.0350 -0.9994 0.0048
vn -0.0370 -0.9993 -0.0005
vn -0.0377 -0.9993 -0.0027
vn -0.2475 -0.9689 -0.0003
vn -0.2455 -0.9693 0.0133
vn -0.2455 -0.9693 0.0134
vn -0.2455 -0.9693 0.0152
vn -0.2455 -0.9693 0.0153
vn -0.0297 -0.9995 0.0092
vn -0.0297 -0.9995 0.0093
vn -0.0324 -0.9994 0.0103
vn -0.0323 -0.9994 0.0104
vn -0.2418 -0.9703 -0.0000
vn -0.2443 -0.9697 0.0028
vn -0.0229 -0.9997 -0.0009
vn -0.0265 -0.9996 0.0006
vn -0.0265 -0.9996 0.0005
vn -0.2419 -0.9703 0.0053
vn -0.2407 -0.9706 0.0056
vn -0.0224 -0.9997 0.0057
vn -0.0213 -0.9998 0.0057
vn -0.2483 -0.9685 0.0166
vn -0.0386 -0.9991 0.0160
vn -0.0389 -0.9807 0.1915
vn -0.2295 -0.9577 0.1734
vn -0.3454 -0.5211 -0.7805
vn -0.3998 0.1489 -0.9044
vn -0.0451 0.1956 -0.9796
vn -0.0585 -0.5915 -0.8042
vn 0.0117 0.9999 -0.0038
vn 0.0118 0.9999 0.0010
vn 0.0120 0.9999 -0.0039
vn 0.0127 0.9999 0.0010
vn 0.0128 0.9999 0.0032
vn 0.0118 0.9999 0.0032
vn 0.0031 1.0000 -0.0054
vn 0.0037 1.0000 -0.0066
vn 0.0094 0.9999 -0.0080
vn 0.0043 1.0000 -0.0078
vn 0.0093 0.9999 -0.0089
vn -0.0060 1.0000 0.0020
vn -0.0024 1.0000 0.0012
vn -0.0049 1.0000 0.0017
vn -0.0010 1.0000 0.0006
vn -0.0066 1.0000 -0.0067
vn -0.0074 1.0000 -0.0057
vn -0.0059 1.0000 -0.0064
vn -0.0067 1.0000 -0.0057
vn 0.0121 0.9995 0.0277
vn 0.0132 0.9995 0.0273
vn 0.0121 0.9786 0.2055
vn 0.0137 0.9786 0.2051
vn -0.0105 -0.6093 0.7929
vn -0.0004 0.1922 0.9814
vn 0.0023 0.1922 0.9814
vn -0.0094 -0.6091 0.7930
vn -0.0102 0.9999 0.0047
vn -0.0053 1.0000 0.0032
vn -0.0052 1.0000 -0.0010
vn -0.0083 1.0000 -0.0006
vn -0.0035 1.0000 0.0028
vn -0.0042 1.0000 -0.0009
vn -0.2432 -0.9700 -0.0031
vn -0.2430 -0.9700 0.0004
vn -0.0245 -0.9997 -0.0029
vn -0.0239 -0.9997 0.0005
vn 0.0134 -0.9998 -0.0141
vn 0.0089 -0.9998 -0.0154
vn 0.0060 -0.9999 -0.0132
vn 0.0100 -0.9999 -0.0111
vn 0.0067 -0.9999 -0.0159
vn 0.0041 -0.9999 -0.0140
vn 0.0023 -0.9999 -0.0110
vn 0.0040 -0.9999 -0.0099
vn 0.0077 -0.9999 -0.0072
vn 0.2435 0.9698 0.0155
vn 0.2445 0.9696 0.0146
vn 0.2445 0.9695 0.0145
vn 0.0231 0.9996 0.0165
vn 0.0249 0.9996 0.0151
vn 0.0263 0.9996 0.0124
vn 0.2453 0.9694 0.0124
vn 0.0182 -0.9998 -0.0097
vn 0.0172 -0.9998 -0.0122
vn 0.0134 -0.9999 -0.0081
vn 0.0143 -0.9999 -0.0046
vn 0.0109 -0.9999 -0.0037
vn -0.0067 0.9998 0.0160
vn -0.0089 0.9998 0.0155
vn -0.0060 0.9999 0.0133
vn -0.0041 0.9999 0.0141
vn -0.0135 0.9998 0.0142
vn -0.0101 0.9999 0.0111
vn -0.0077 0.9999 0.0072
vn -0.0040 0.9999 0.0099
vn -0.0022 0.9999 0.0109
vn -0.0183 0.9998 0.0098
vn -0.0156 0.9999 0.0071
vn -0.0122 0.9999 0.0014
vn -0.0141 0.9999 0.0028
vn 0.0034 -1.0000 -0.0028
vn 0.0053 -1.0000 -0.0032
vn 0.0051 -1.0000 0.0010
vn 0.0041 -1.0000 0.0009
vn 0.0101 -0.9999 -0.0046
vn 0.0082 -1.0000 0.0005
vn -0.0173 0.9998 0.0123
vn -0.0135 0.9999 0.0081
vn -0.0148 0.9999 0.0064
vn -0.0097 0.9999 0.0057
vn 0.0154 -0.9999 -0.0070
vn 0.0139 -0.9999 -0.0062
vn 0.0103 -0.9999 0.0034
vn 0.8529 -0.5220 -0.0118
vn 0.8526 -0.5224 -0.0114
vn 0.9879 0.1548 -0.0009
vn 0.9879 0.1548 -0.0010
vn 0.0302 -0.9994 -0.0166
vn 0.0283 -0.9995 -0.0152
vn 0.2455 -0.9692 -0.0171
vn 0.2444 -0.9695 -0.0162
vn 0.2435 -0.9698 -0.0139
vn 0.0270 -0.9996 -0.0126
vn -0.0287 0.9996 0.0029
vn -0.0293 0.9996 -0.0006
vn -0.2452 0.9695 0.0028
vn -0.2455 0.9694 -0.0004
vn -0.8522 -0.5232 0.0035
vn -0.9880 0.1547 -0.0001
vn -0.9880 0.1548 -0.0002
vn -0.8523 -0.5230 0.0032
vn -0.0283 0.9996 0.0052
vn -0.0284 0.9996 0.0047
vn -0.2450 0.9695 0.0050
vn -0.2451 0.9695 0.0045
vn 0.0312 -0.9995 -0.0111
vn 0.0309 -0.9994 -0.0132
vn 0.2459 -0.9692 -0.0115
vn 0.2458 -0.9692 -0.0136
vn 0.8530 -0.5219 -0.0080
vn 0.8530 -0.5219 -0.0094
vn 0.9879 0.1548 -0.0006
vn 0.9879 0.1548 -0.0007
vn 0.0129 -0.9999 -0.0064
vn 0.0183 -0.9998 -0.0073
vn 0.0176 -0.9998 -0.0076
vn 0.0121 -0.9999 -0.0061
vn 0.0208 -0.9997 -0.0083
vn 0.0202 -0.9998 -0.0091
vn -0.0155 0.9998 0.0098
vn -0.0197 0.9998 0.0092
vn -0.0191 0.9998 0.0106
vn -0.0150 0.9998 0.0116
vn -0.0209 0.9997 0.0083
vn -0.0203 0.9998 0.0092
vn 0.0036 -1.0000 -0.0053
vn 0.0067 -1.0000 -0.0056
vn 0.0062 -1.0000 -0.0051
vn 0.0035 -1.0000 -0.0047
vn -0.0184 0.9998 0.0074
vn -0.0177 0.9998 0.0076
vn -0.0130 0.9999 0.0064
vn -0.0123 0.9999 0.0062
vn -0.0086 0.9999 0.0107
vn -0.0107 0.9999 0.0104
vn -0.0103 0.9999 0.0124
vn -0.0080 0.9999 0.0127
vn 0.0195 -0.9998 -0.0091
vn 0.0190 -0.9998 -0.0105
vn 0.0154 -0.9998 -0.0097
vn 0.0149 -0.9998 -0.0115
vn 0.2433 0.9699 0.0105
vn 0.2434 0.9699 0.0124
vn 0.0220 0.9997 0.0111
vn 0.0223 0.9997 0.0132
vn 0.0106 -0.9999 -0.0103
vn 0.0102 -0.9999 -0.0123
vn 0.0085 -0.9999 -0.0106
vn 0.0080 -0.9999 -0.0126
vn -0.2434 -0.9699 -0.0055
vn -0.2433 -0.9699 -0.0049
vn -0.0249 -0.9997 -0.0053
vn -0.0247 -0.9997 -0.0047
vn -0.0068 1.0000 0.0056
vn -0.0063 1.0000 0.0051
vn -0.0037 1.0000 0.0053
vn -0.0036 1.0000 0.0047
vn -0.8524 -0.5229 0.0002
vn -0.9879 0.1548 -0.0000
vn -0.8524 -0.5229 -0.0020
vn -0.0163 0.9816 -0.1900
vn -0.0091 0.9819 -0.1893
vn -0.0090 0.9819 -0.1893
vn -0.0162 0.9817 -0.1900
vn -0.0054 0.9820 -0.1890
vn -0.0074 0.9999 -0.0151
vn -0.0042 0.9999 -0.0152
vn -0.0139 0.9998 -0.0150
vn -0.0138 0.9998 -0.0150
vn -0.2236 -0.9576 -0.1818
vn -0.0257 -0.9796 -0.1992
vn -0.0249 -0.9993 -0.0264
vn -0.2430 -0.9697 -0.0264
vn 0.0131 -0.9799 -0.1989
vn 0.0098 -0.9800 -0.1990
vn 0.0132 -0.9799 -0.1989
vn 0.0081 -0.9800 -0.1990
vn 0.0110 -0.9996 -0.0269
vn 0.0090 -0.9996 -0.0271
vn 0.0111 -0.9996 -0.0269
vn 0.0154 -0.9995 -0.0267
vn 0.0155 -0.9995 -0.0267
vn 0.2224 0.9587 -0.1774
vn 0.0203 0.9805 -0.1955
vn 0.0212 0.9997 -0.0147
vn 0.2426 0.9700 -0.0147
vn 0.0164 -0.9798 -0.1993
vn 0.0158 -0.9799 -0.1990
vn 0.0194 -0.9995 -0.0267
vn 0.0206 -0.9994 -0.0269
vn -0.0107 0.9805 -0.1961
vn -0.0129 0.9805 -0.1962
vn -0.0177 0.9805 -0.1959
vn -0.0115 0.9998 -0.0155
vn -0.0161 0.9997 -0.0157
vn -0.0094 0.9998 -0.0153
vn -0.0247 0.9809 -0.1928
vn -0.0222 0.9813 -0.1912
vn -0.0193 0.9997 -0.0150
vn -0.0192 0.9997 -0.0150
vn -0.0217 0.9996 -0.0152
vn 0.0023 -0.9799 -0.1997
vn 0.0049 -0.9799 -0.1996
vn 0.0048 -0.9799 -0.1996
vn 0.0099 -0.9798 -0.1996
vn 0.0098 -0.9798 -0.1996
vn 0.0068 -0.9996 -0.0267
vn 0.0130 -0.9996 -0.0269
vn 0.0129 -0.9996 -0.0269
vn 0.0037 -0.9996 -0.0266
vn -0.0225 0.9806 -0.1946
vn -0.0226 0.9806 -0.1946
vn -0.0203 0.9997 -0.0155
vn 0.0142 -0.9798 -0.1995
vn 0.0141 -0.9798 -0.1995
vn 0.0182 -0.9995 -0.0269
vn 0.0181 -0.9995 -0.0269
vn 0.8427 -0.4763 -0.2510
vn 0.9577 0.1217 -0.2608
vn 0.9878 0.1527 -0.0295
vn 0.8521 -0.5224 -0.0326
vn 0.0308 -0.9796 -0.1987
vn 0.2259 -0.9571 -0.1812
vn 0.2455 -0.9690 -0.0272
vn 0.0312 -0.9991 -0.0272
vn -0.0283 0.9817 -0.1882
vn -0.2253 0.9592 -0.1708
vn -0.2444 0.9696 -0.0149
vn -0.0278 0.9995 -0.0149
vn -0.8524 -0.5228 -0.0032
vn -0.9879 0.1548 -0.0001
vn -0.8524 -0.5228 -0.0036
vn 0.6233 -0.0217 -0.7817
vn 0.2224 -0.0217 0.9747
vn -0.2224 -0.0217 0.9747
vn -0.6233 -0.0217 -0.7817
vn -0.9007 -0.0217 -0.4338
vt 1.000000 0.500000
vt 1.000000 1.000000
vt 0.928571 1.000000
vt 0.928571 0.500000
vt 0.857143 1.000000
vt 0.857143 0.500000
vt 0.785714 1.000000
vt 0.785714 0.500000
vt 0.714286 1.000000
vt 0.714286 0.500000
vt 0.642857 1.000000
vt 0.642857 0.500000
vt 0.571428 1.000000
vt 0.571428 0.500000
vt 0.500000 1.000000
vt 0.500000 0.500000
vt 0.428571 1.000000
vt 0.428571 0.500000
vt 0.357143 1.000000
vt 0.357143 0.500000
vt 0.285714 1.000000
vt 0.285714 0.500000
vt 0.214286 1.000000
vt 0.214286 0.500000
vt 0.142857 1.000000
vt 0.142857 0.500000
vt 0.354132 0.466233
vt 0.250000 0.490000
vt 0.145868 0.466233
vt 0.062360 0.399638
vt 0.016017 0.303405
vt 0.016017 0.196595
vt 0.062360 0.100362
vt 0.145868 0.033767
vt 0.250000 0.010000
vt 0.354132 0.033767
vt 0.437640 0.100362
vt 0.483983 0.196595
vt 0.483983 0.303405
vt 0.437640 0.399638
vt 0.071428 1.000000
vt 0.071428 0.500000
vt -0.000000 1.000000
vt -0.000000 0.500000
vt 0.750000 0.490000
vt 0.854132 0.466233
vt 0.937640 0.399638
vt 0.983983 0.303405
vt 0.983983 0.196595
vt 0.937640 0.100362
vt 0.854132 0.033767
vt 0.750000 0.010000
vt 0.645868 0.033767
vt 0.562360 0.100362
vt 0.516017 0.196595
vt 0.516017 0.303405
vt 0.562360 0.399638
vt 0.645868 0.466233
vt 0.375000 0.234375
vt 0.500000 0.234375
vt 0.500000 0.242405
vt 0.375000 0.242188
vt 0.625000 0.234375
vt 0.625000 0.242188
vt 0.625000 0.250000
vt 0.500000 0.252170
vt 0.375000 0.250000
vt 0.375000 0.468750
vt 0.500000 0.468750
vt 0.500000 0.484158
vt 0.375000 0.484375
vt 0.625000 0.468750
vt 0.625000 0.484375
vt 0.625000 0.500000
vt 0.500000 0.497830
vt 0.375000 0.500000
vt 0.411458 0.734374
vt 0.500000 0.734374
vt 0.500000 0.742404
vt 0.408420 0.742241
vt 0.588542 0.734374
vt 0.591580 0.742241
vt 0.625000 0.750000
vt 0.500000 0.752170
vt 0.375000 0.750000
vt 0.375000 0.968750
vt 0.500000 0.968750
vt 0.500000 0.984375
vt 0.375000 0.984375
vt 0.625000 0.968750
vt 0.625000 0.984375
vt 0.625000 1.000000
vt 0.375000 1.000000
vt 0.343750 0.734374
vt 0.363932 0.734374
vt 0.363173 0.742187
vt 0.343750 0.742187
vt 0.359375 0.750000
vt 0.343750 0.750000
vt 0.843750 0.734374
vt 0.859375 0.734374
vt 0.859375 0.742187
vt 0.843750 0.742187
vt 0.875000 0.734374
vt 0.875000 0.742187
vt 0.875000 0.750000
vt 0.859375 0.750000
vt 0.843750 0.750000
vt 0.843750 0.567708
vt 0.859375 0.567274
vt 0.859375 0.594293
vt 0.843750 0.594401
vt 0.875000 0.562500
vt 0.875000 0.593750
vt 0.875000 0.625000
vt 0.859375 0.625000
vt 0.843750 0.625000
vt 0.343750 0.567708
vt 0.363932 0.567708
vt 0.363932 0.594401
vt 0.343750 0.594401
vt 0.411458 0.567708
vt 0.411458 0.594401
vt 0.411458 0.625000
vt 0.363932 0.625000
vt 0.343750 0.625000
vt 0.500000 0.567708
vt 0.500000 0.594401
vt 0.588542 0.567708
vt 0.588542 0.594401
vt 0.588542 0.625000
vt 0.500000 0.625000
vt 0.375000 0.062500
vt 0.500000 0.066841
vt 0.500000 0.094184
vt 0.375000 0.093750
vt 0.625000 0.062500
vt 0.625000 0.093750
vt 0.625000 0.125000
vt 0.500000 0.125000
vt 0.375000 0.125000
vt 0.375000 0.031252
vt 0.500000 0.033422
vt 0.500000 0.047527
vt 0.375000 0.046876
vt 0.625000 0.031252
vt 0.625000 0.046876
vt 0.859375 0.655707
vt 0.843750 0.655599
vt 0.875000 0.656250
vt 0.875000 0.687500
vt 0.859375 0.682725
vt 0.843750 0.682291
vt 0.363932 0.655599
vt 0.343750 0.655599
vt 0.411458 0.655599
vt 0.411458 0.682291
vt 0.363932 0.682291
vt 0.343750 0.682291
vt 0.500000 0.655599
vt 0.588542 0.655599
vt 0.588542 0.682291
vt 0.500000 0.682291
vt 0.375000 0.015626
vt 0.500000 0.015626
vt 0.500000 0.023656
vt 0.375000 0.023439
vt 0.625000 0.015626
vt 0.625000 0.023439
vt 0.859375 0.702310
vt 0.843750 0.702147
vt 0.875000 0.703124
vt 0.875000 0.718748
vt 0.859375 0.716361
vt 0.843750 0.716144
vt 0.363932 0.702148
vt 0.343750 0.702147
vt 0.411458 0.702147
vt 0.411458 0.716144
vt 0.363932 0.716144
vt 0.343750 0.716144
vt 0.500000 0.702148
vt 0.588542 0.702147
vt 0.588542 0.716144
vt 0.500000 0.716144
vt 0.375000 0.000000
vt 0.500000 0.000000
vt 0.500000 0.007813
vt 0.375000 0.007813
vt 0.625000 0.000000
vt 0.625000 0.007813
vt 0.859375 0.726290
vt 0.843750 0.726235
vt 0.875000 0.726561
vt 0.363932 0.726235
vt 0.343750 0.726236
vt 0.411458 0.726236
vt 0.500000 0.726235
vt 0.588542 0.726236
vt 0.192708 0.716144
vt 0.219401 0.716144
vt 0.219401 0.726235
vt 0.192708 0.726236
vt 0.250000 0.716144
vt 0.250000 0.726236
vt 0.250000 0.734374
vt 0.219401 0.734374
vt 0.192708 0.734374
vt 0.692708 0.716144
vt 0.719401 0.716144
vt 0.719401 0.726235
vt 0.692708 0.726236
vt 0.750000 0.716144
vt 0.750000 0.726236
vt 0.750000 0.734374
vt 0.719401 0.734374
vt 0.692708 0.734374
vt 0.192708 0.682291
vt 0.219401 0.682291
vt 0.219401 0.702148
vt 0.192708 0.702147
vt 0.250000 0.682291
vt 0.250000 0.702147
vt 0.692708 0.682291
vt 0.719401 0.682291
vt 0.719401 0.702148
vt 0.692708 0.702147
vt 0.750000 0.682291
vt 0.750000 0.702147
vt 0.192708 0.625000
vt 0.219401 0.625000
vt 0.219401 0.655599
vt 0.192708 0.655599
vt 0.250000 0.625000
vt 0.250000 0.655599
vt 0.692708 0.625000
vt 0.719401 0.625000
vt 0.719401 0.655599
vt 0.692708 0.655599
vt 0.750000 0.625000
vt 0.750000 0.655599
vt 0.192708 0.567708
vt 0.219401 0.567708
vt 0.219401 0.594401
vt 0.192708 0.594401
vt 0.250000 0.567708
vt 0.250000 0.594401
vt 0.692708 0.567708
vt 0.719401 0.567708
vt 0.719401 0.594401
vt 0.692708 0.594401
vt 0.750000 0.567708
vt 0.750000 0.594401
vt 0.719293 0.742187
vt 0.692274 0.742187
vt 0.750000 0.742187
vt 0.750000 0.750000
vt 0.718750 0.750000
vt 0.687500 0.750000
vt 0.219293 0.742187
vt 0.192274 0.742187
vt 0.250000 0.742187
vt 0.250000 0.750000
vt 0.218750 0.750000
vt 0.187500 0.750000
vt 0.375000 0.812500
vt 0.500000 0.816840
vt 0.500000 0.844184
vt 0.375000 0.843750
vt 0.625000 0.812500
vt 0.625000 0.843750
vt 0.625000 0.875000
vt 0.500000 0.875000
vt 0.375000 0.875000
vt 0.375000 0.312500
vt 0.500000 0.316840
vt 0.500000 0.344184
vt 0.375000 0.343750
vt 0.625000 0.312500
vt 0.625000 0.343750
vt 0.625000 0.375000
vt 0.500000 0.375000
vt 0.375000 0.375000
vt 0.375000 0.281250
vt 0.500000 0.281250
vt 0.500000 0.297309
vt 0.375000 0.296875
vt 0.625000 0.281250
vt 0.625000 0.296875
vt 0.156250 0.734374
vt 0.172526 0.734374
vt 0.172418 0.742187
vt 0.156250 0.742187
vt 0.171875 0.750000
vt 0.156250 0.750000
vt 0.156250 0.567708
vt 0.172526 0.567708
vt 0.172526 0.594401
vt 0.156250 0.594401
vt 0.172526 0.625000
vt 0.156250 0.625000
vt 0.172526 0.655599
vt 0.156250 0.655599
vt 0.172526 0.682291
vt 0.156250 0.682291
vt 0.172526 0.702148
vt 0.156250 0.702147
vt 0.172526 0.716144
vt 0.156250 0.716144
vt 0.172526 0.726235
vt 0.156250 0.726236
vt 0.780599 0.716144
vt 0.780599 0.726235
vt 0.807292 0.716144
vt 0.807292 0.726236
vt 0.807292 0.734374
vt 0.780599 0.734374
vt 0.780599 0.682291
vt 0.780599 0.702148
vt 0.807292 0.682291
vt 0.807292 0.702147
vt 0.780599 0.625000
vt 0.780599 0.655599
vt 0.807292 0.625000
vt 0.807292 0.655599
vt 0.780599 0.567708
vt 0.780599 0.594401
vt 0.807292 0.567708
vt 0.807292 0.594401
vt 0.780707 0.742187
vt 0.807726 0.742187
vt 0.812500 0.750000
vt 0.781250 0.750000
vt 0.500000 0.905816
vt 0.375000 0.906250
vt 0.625000 0.906250
vt 0.625000 0.937500
vt 0.500000 0.933160
vt 0.375000 0.937500
vt 0.375000 0.781250
vt 0.500000 0.781250
vt 0.500000 0.797309
vt 0.375000 0.796875
vt 0.625000 0.781250
vt 0.625000 0.796875
vt 0.656250 0.734374
vt 0.672526 0.734374
vt 0.672418 0.742187
vt 0.656250 0.742187
vt 0.671875 0.750000
vt 0.656250 0.750000
vt 0.656250 0.567708
vt 0.672526 0.567708
vt 0.672526 0.594401
vt 0.656250 0.594401
vt 0.672526 0.625000
vt 0.656250 0.625000
vt 0.672526 0.655599
vt 0.656250 0.655599
vt 0.672526 0.682291
vt 0.656250 0.682291
vt 0.672526 0.702148
vt 0.656250 0.702147
vt 0.672526 0.716144
vt 0.656250 0.716144
vt 0.672526 0.726235
vt 0.656250 0.726236
vt 0.280599 0.716144
vt 0.280599 0.726235
vt 0.307292 0.716144
vt 0.307292 0.726236
vt 0.307292 0.734374
vt 0.280599 0.734374
vt 0.280599 0.682291
vt 0.280599 0.702148
vt 0.307292 0.682291
vt 0.307292 0.702147
vt 0.280599 0.625000
vt 0.280599 0.655599
vt 0.307292 0.625000
vt 0.307292 0.655599
vt 0.280599 0.567708
vt 0.280599 0.594401
vt 0.307292 0.567708
vt 0.307292 0.594401
vt 0.280707 0.742187
vt 0.307726 0.742187
vt 0.312500 0.750000
vt 0.281250 0.750000
vt 0.500000 0.405816
vt 0.375000 0.406250
vt 0.625000 0.406250
vt 0.625000 0.437500
vt 0.500000 0.433160
vt 0.375000 0.437500
vt 0.636068 0.716144
vt 0.636068 0.726235
vt 0.636068 0.734374
vt 0.636068 0.682291
vt 0.636068 0.702148
vt 0.636068 0.625000
vt 0.636068 0.655599
vt 0.636068 0.567708
vt 0.636068 0.594401
vt 0.636827 0.742187
vt 0.640625 0.750000
vt 0.500000 0.765842
vt 0.375000 0.765625
vt 0.625000 0.765625
vt 0.327474 0.716144
vt 0.327474 0.726235
vt 0.327474 0.734374
vt 0.327474 0.682291
vt 0.327474 0.702148
vt 0.327474 0.625000
vt 0.327474 0.655599
vt 0.327474 0.567708
vt 0.327474 0.594401
vt 0.327582 0.742187
vt 0.328125 0.750000
vt 0.500000 0.452691
vt 0.375000 0.453125
vt 0.625000 0.453125
vt 0.125000 0.718748
vt 0.140625 0.716361
vt 0.140625 0.726290
vt 0.125000 0.726561
vt 0.140625 0.734374
vt 0.125000 0.734374
vt 0.125000 0.687500
vt 0.140625 0.682725
vt 0.140625 0.702310
vt 0.125000 0.703124
vt 0.125000 0.625000
vt 0.140625 0.625000
vt 0.140625 0.655707
vt 0.125000 0.656250
vt 0.125000 0.562500
vt 0.140625 0.567274
vt 0.140625 0.594293
vt 0.125000 0.593750
vt 0.140625 0.742187
vt 0.125000 0.742187
vt 0.140625 0.750000
vt 0.125000 0.750000
vt 0.500000 0.265842
vt 0.375000 0.265625
vt 0.625000 0.265625
vt 0.827474 0.716144
vt 0.827474 0.726235
vt 0.827474 0.734374
vt 0.827474 0.682291
vt 0.827474 0.702148
vt 0.827474 0.625000
vt 0.827474 0.655599
vt 0.827474 0.567708
vt 0.827474 0.594401
vt 0.827582 0.742187
vt 0.828125 0.750000
vt 0.500000 0.952691
vt 0.375000 0.953125
vt 0.625000 0.953125
vt 0.807292 0.533854
vt 0.827474 0.533854
vt 0.827474 0.547852
vt 0.807292 0.547852
vt 0.843750 0.533854
vt 0.843750 0.547852
vt 0.125000 0.531250
vt 0.140625 0.533637
vt 0.140625 0.547689
vt 0.125000 0.546875
vt 0.156250 0.533854
vt 0.156250 0.547852
vt 0.307292 0.533854
vt 0.327474 0.533854
vt 0.327474 0.547852
vt 0.307292 0.547852
vt 0.343750 0.533854
vt 0.343750 0.547852
vt 0.588542 0.533854
vt 0.636068 0.533854
vt 0.636068 0.547852
vt 0.588542 0.547852
vt 0.656250 0.533854
vt 0.656250 0.547852
vt 0.250000 0.533854
vt 0.280599 0.533854
vt 0.280599 0.547852
vt 0.250000 0.547852
vt 0.672526 0.533854
vt 0.672526 0.547852
vt 0.692708 0.533854
vt 0.692708 0.547852
vt 0.750000 0.533854
vt 0.780599 0.533854
vt 0.780599 0.547852
vt 0.750000 0.547852
vt 0.172526 0.533854
vt 0.172526 0.547852
vt 0.192708 0.533854
vt 0.192708 0.547852
vt 0.719401 0.533854
vt 0.719401 0.547852
vt 0.219401 0.533854
vt 0.219401 0.547852
vt 0.411458 0.533854
vt 0.500000 0.533854
vt 0.500000 0.547852
vt 0.411458 0.547852
vt 0.363932 0.533854
vt 0.363932 0.547852
vt 0.859375 0.533637
vt 0.859375 0.547689
vt 0.875000 0.531250
vt 0.875000 0.546875
vt 0.500000 0.155816
vt 0.375000 0.156250
vt 0.625000 0.156250
vt 0.625000 0.187500
vt 0.500000 0.183160
vt 0.375000 0.187500
vt 0.843750 0.515625
vt 0.859375 0.515625
vt 0.859375 0.523709
vt 0.843750 0.523763
vt 0.875000 0.515625
vt 0.875000 0.523438
vt 0.343750 0.515625
vt 0.363932 0.515625
vt 0.363932 0.523763
vt 0.343750 0.523763
vt 0.411458 0.515625
vt 0.411458 0.523763
vt 0.500000 0.515625
vt 0.500000 0.523763
vt 0.588542 0.515625
vt 0.588542 0.523763
vt 0.192708 0.515625
vt 0.219401 0.515625
vt 0.219401 0.523763
vt 0.192708 0.523763
vt 0.250000 0.515625
vt 0.250000 0.523763
vt 0.692708 0.515625
vt 0.719401 0.515625
vt 0.719401 0.523763
vt 0.692708 0.523763
vt 0.750000 0.515625
vt 0.750000 0.523763
vt 0.156250 0.515625
vt 0.172526 0.515625
vt 0.172526 0.523763
vt 0.156250 0.523763
vt 0.780599 0.515625
vt 0.780599 0.523763
vt 0.807292 0.515625
vt 0.807292 0.523763
vt 0.656250 0.515625
vt 0.672526 0.515625
vt 0.672526 0.523763
vt 0.656250 0.523763
vt 0.280599 0.515625
vt 0.280599 0.523763
vt 0.307292 0.515625
vt 0.307292 0.523763
vt 0.636068 0.515625
vt 0.636068 0.523763
vt 0.327474 0.515625
vt 0.327474 0.523763
vt 0.125000 0.515625
vt 0.140625 0.515625
vt 0.140625 0.523709
vt 0.125000 0.523438
vt 0.827474 0.515625
vt 0.827474 0.523763
vt 0.500000 0.202474
vt 0.375000 0.203125
vt 0.625000 0.203125
vt 0.625000 0.218750
vt 0.500000 0.216580
vt 0.375000 0.218750
vt 0.812500 0.500000
vt 0.828125 0.500000
vt 0.827583 0.507812
vt 0.807726 0.507812
vt 0.843750 0.500000
vt 0.843750 0.507812
vt 0.125000 0.500000
vt 0.140625 0.500000
vt 0.140625 0.507812
vt 0.125000 0.507813
vt 0.156250 0.500000
vt 0.156250 0.507812
vt 0.312500 0.500000
vt 0.328125 0.500000
vt 0.327582 0.507812
vt 0.307726 0.507812
vt 0.343750 0.500000
vt 0.343750 0.507812
vt 0.640625 0.500000
vt 0.636827 0.507812
vt 0.591580 0.507758
vt 0.656250 0.500000
vt 0.656250 0.507812
vt 0.250000 0.500000
vt 0.281250 0.500000
vt 0.280707 0.507812
vt 0.250000 0.507812
vt 0.671875 0.500000
vt 0.672418 0.507812
vt 0.687500 0.500000
vt 0.692274 0.507812
vt 0.750000 0.500000
vt 0.781250 0.500000
vt 0.780708 0.507812
vt 0.750000 0.507812
vt 0.171875 0.500000
vt 0.172418 0.507812
vt 0.187500 0.500000
vt 0.192274 0.507812
vt 0.718750 0.500000
vt 0.719293 0.507812
vt 0.218750 0.500000
vt 0.219293 0.507812
vt 0.500000 0.507596
vt 0.408420 0.507758
vt 0.359375 0.500000
vt 0.363173 0.507812
vt 0.859375 0.500000
vt 0.859375 0.507812
vt 0.875000 0.500000
vt 0.875000 0.507813
vt 0.500000 0.226346
vt 0.375000 0.226563
vt 0.625000 0.226563
s 1
usemtl Material.003
f 1/1/1 2/2/1 4/3/1 3/4/1
f 3/4/2 4/3/2 6/5/2 5/6/2
f 5/6/3 6/5/3 8/7/3 7/8/3
f 7/8/4 8/7/4 10/9/4 9/10/4
f 9/10/5 10/9/5 12/11/5 11/12/5
f 11/12/6 12/11/6 14/13/6 13/14/6
f 13/14/7 14/13/7 16/15/7 15/16/7
f 15/16/8 16/15/8 18/17/8 17/18/8
f 17/18/9 18/17/9 20/19/9 19/20/9
f 19/20/10 20/19/10 22/21/10 21/22/10
f 21/22/11 22/21/11 24/23/11 23/24/11
f 23/24/12 24/23/12 26/25/12 25/26/12
f 4/27/13 2/28/13 28/29/13 26/30/13 24/31/13 22/32/13 20/33/13 18/34/13 16/35/13 14/36/13 12/37/13 10/38/13 8/39/13 6/40/13
f 25/26/14 26/25/14 28/41/14 27/42/14
f 27/42/15 28/41/15 2/43/15 1/44/15
f 1/45/16 3/46/16 5/47/16 7/48/16 9/49/16 11/50/16 13/51/16 15/52/16 17/53/16 19/54/16 21/55/16 23/56/16 25/57/16 27/58/16
usemtl Material.001
f 143/59/17 402/60/17 403/61/17 377/62/17
f 402/60/18 141/63/18 157/64/18 403/61/18
f 403/61/19 157/64/19 32/65/19 158/66/19
f 377/62/20 403/61/20 158/66/20 31/67/20
f 95/68/21 294/69/21 404/70/21 277/71/21
f 294/69/22 89/72/22 160/73/22 404/70/22
f 404/70/23 160/73/23 36/74/23 161/75/23
f 277/71/24 404/70/24 161/75/24 35/76/24
f 52/77/25 198/78/25 405/79/25 194/80/25
f 198/78/26 50/81/26 163/82/26 405/79/26
f 405/79/27 163/82/27 34/83/27 164/84/27
f 194/80/28 405/79/28 164/84/28 33/85/28
f 108/86/29 318/87/29 406/88/29 302/89/29
f 318/87/30 102/90/30 166/91/30 406/88/30
f 406/88/31 166/91/31 30/92/31 156/15/31
f 302/89/32 406/88/32 156/15/32 29/93/32
f 100/94/33 282/95/33 407/96/33 293/97/33
f 282/95/34 52/77/34 194/80/34 407/96/34
f 407/96/35 194/80/35 33/85/35 165/98/35
f 293/97/36 407/96/36 165/98/36 90/99/36
f 112/100/37 306/101/37 408/102/37 317/103/37
f 306/101/38 51/104/38 193/105/38 408/102/38
f 408/102/39 193/105/39 30/106/39 166/107/39
f 317/103/40 408/102/40 166/107/40 102/108/40
f 126/109/41 345/110/41 409/111/42 316/112/42
f 345/110/43 113/113/43 319/114/44 409/111/44
f 409/111/44 319/114/44 38/115/45 303/116/45
f 316/112/42 409/111/42 303/116/46 109/117/46
f 124/118/47 344/119/47 410/120/48 292/121/48
f 344/119/49 114/122/49 320/123/50 410/120/50
f 410/120/50 320/123/50 39/124/51 279/125/52
f 292/121/48 410/120/48 279/125/53 97/126/54
f 114/122/55 343/127/55 411/128/56 320/123/57
f 343/127/58 116/129/58 170/130/59 411/128/59
f 411/128/59 170/130/59 40/131/60 173/132/60
f 320/123/57 411/128/56 173/132/61 39/124/61
f 41/133/62 179/134/62 412/135/63 175/136/63
f 179/134/64 43/137/65 168/138/66 412/135/66
f 412/135/66 168/138/66 38/139/67 174/140/67
f 175/136/63 412/135/63 174/140/68 37/141/68
f 45/142/69 187/143/69 413/144/70 183/145/70
f 187/143/71 47/146/71 177/147/72 413/144/73
f 413/144/73 177/147/72 43/137/65 179/134/64
f 183/145/70 413/144/70 179/134/62 41/133/62
f 109/117/46 303/116/46 414/148/74 315/149/75
f 303/116/45 38/115/45 168/150/76 414/148/76
f 414/148/76 168/150/76 43/151/77 304/152/78
f 315/149/75 414/148/74 304/152/79 110/153/80
f 97/126/54 279/125/53 415/154/81 291/155/81
f 279/125/52 39/124/51 169/156/82 415/154/82
f 415/154/82 169/156/82 44/157/83 280/158/83
f 291/155/81 415/154/81 280/158/84 98/159/84
f 39/124/61 173/132/61 416/160/85 169/156/85
f 173/132/60 40/131/60 176/161/86 416/160/86
f 416/160/86 176/161/86 42/162/87 182/163/87
f 169/156/85 416/160/85 182/163/88 44/157/88
f 49/164/89 195/165/89 417/166/90 191/167/90
f 195/165/91 51/168/91 185/169/92 417/166/92
f 417/166/92 185/169/92 47/146/71 187/143/71
f 191/167/90 417/166/90 187/143/69 45/142/69
f 110/153/80 304/152/79 418/170/93 314/171/94
f 304/152/78 43/151/77 177/172/95 418/170/95
f 418/170/95 177/172/95 47/173/96 305/174/97
f 314/171/94 418/170/93 305/174/98 111/175/98
f 98/159/84 280/158/84 419/176/99 290/177/99
f 280/158/83 44/157/83 178/178/100 419/176/100
f 419/176/100 178/178/100 48/179/101 281/180/101
f 290/177/99 419/176/99 281/180/102 99/181/102
f 44/157/88 182/163/88 420/182/103 178/178/103
f 182/163/87 42/162/87 184/183/104 420/182/104
f 420/182/104 184/183/104 46/184/105 190/185/105
f 178/178/103 420/182/103 190/185/106 48/179/106
f 29/186/107 156/187/107 421/188/107 155/189/107
f 156/187/108 30/190/108 193/191/108 421/188/108
f 421/188/109 193/191/109 51/168/109 195/165/109
f 155/189/110 421/188/110 195/165/110 49/164/110
f 111/175/98 305/174/98 422/192/111 313/193/111
f 305/174/97 47/173/96 185/194/112 422/192/113
f 422/192/113 185/194/112 51/104/114 306/101/114
f 313/193/111 422/192/111 306/101/115 112/100/115
f 99/181/102 281/180/102 423/195/116 289/196/116
f 281/180/101 48/179/101 186/197/117 423/195/117
f 423/195/117 186/197/117 52/77/118 282/95/118
f 289/196/116 423/195/116 282/95/119 100/94/119
f 48/179/106 190/185/106 424/198/120 186/197/120
f 190/185/105 46/184/105 192/199/121 424/198/121
f 424/198/121 192/199/121 50/81/122 198/78/122
f 186/197/120 424/198/120 198/78/123 52/77/123
f 69/200/124 227/201/125 425/202/126 240/203/127
f 227/201/125 62/204/128 211/205/129 425/202/126
f 425/202/126 211/205/130 64/206/131 228/207/132
f 240/203/127 425/202/126 228/207/132 70/208/133
f 81/209/134 251/210/135 426/211/136 264/212/137
f 251/210/135 61/213/138 212/214/139 426/211/136
f 426/211/136 212/214/139 63/215/140 252/216/141
f 264/212/137 426/211/136 252/216/141 82/217/142
f 68/218/143 226/219/144 427/220/145 239/221/146
f 226/219/144 60/222/147 213/223/148 427/220/145
f 427/220/149 213/223/150 62/204/128 227/201/125
f 239/221/146 427/220/149 227/201/125 69/200/124
f 80/224/151 250/225/152 428/226/153 263/227/154
f 250/225/152 59/228/155 214/229/156 428/226/153
f 428/226/153 214/229/156 61/213/138 251/210/135
f 263/227/154 428/226/153 251/210/135 81/209/134
f 67/230/157 225/231/158 429/232/159 238/233/160
f 225/231/158 58/234/161 215/235/162 429/232/159
f 429/232/159 215/235/162 60/222/147 226/219/144
f 238/233/160 429/232/159 226/219/144 68/218/163
f 79/236/164 249/237/165 430/238/166 262/239/167
f 249/237/168 57/240/169 216/241/170 430/238/166
f 430/238/166 216/241/170 59/228/155 250/225/152
f 262/239/167 430/238/166 250/225/152 80/224/151
f 119/242/171 342/243/172 431/244/173 237/245/174
f 342/243/172 117/246/175 217/247/176 431/244/173
f 431/244/173 217/247/176 58/234/161 225/231/158
f 237/245/174 431/244/173 225/231/158 67/230/157
f 121/248/177 341/249/178 432/250/179 261/251/180
f 341/249/178 118/252/181 218/253/182 432/250/179
f 432/250/179 218/253/182 57/240/169 249/237/168
f 261/251/180 432/250/179 249/237/165 79/236/164
f 82/217/183 252/216/184 433/254/184 260/255/185
f 252/216/184 63/215/186 219/256/187 433/254/184
f 433/254/188 219/256/189 56/257/189 202/258/188
f 260/255/190 433/254/188 202/258/188 84/259/191
f 70/208/192 228/207/193 434/260/193 236/261/194
f 228/207/193 64/206/195 220/262/196 434/260/193
f 434/260/197 220/262/198 55/263/198 201/264/197
f 236/261/199 434/260/197 201/264/197 72/265/200
f 78/266/201 259/267/202 435/268/203 248/269/203
f 259/267/204 84/270/205 202/271/206 435/268/206
f 435/268/206 202/271/206 56/272/207 221/273/207
f 248/269/203 435/268/203 221/273/208 55/274/208
f 65/275/209 235/276/209 436/277/210 223/278/210
f 235/276/211 71/279/211 200/280/212 436/277/212
f 436/277/212 200/280/212 54/281/213 222/282/213
f 223/278/210 436/277/210 222/282/214 53/283/215
f 101/284/216 312/285/216 437/286/217 295/287/217
f 312/285/218 107/288/218 229/289/219 437/286/220
f 437/286/220 229/289/219 71/279/211 235/276/211
f 295/287/217 437/286/217 235/276/209 65/275/209
f 106/290/221 300/291/222 438/292/223 311/293/221
f 300/291/222 70/208/192 236/261/194 438/292/223
f 438/292/224 236/261/199 72/265/200 230/294/224
f 311/293/225 438/292/224 230/294/224 108/295/225
f 125/296/226 340/297/227 439/298/228 310/299/229
f 340/297/227 119/242/171 237/245/174 439/298/228
f 439/298/228 237/245/174 67/230/157 297/300/230
f 310/299/229 439/298/228 297/300/230 103/301/231
f 103/301/231 297/300/230 440/302/232 309/303/233
f 297/300/230 67/230/157 238/233/160 440/302/232
f 440/302/232 238/233/160 68/218/163 298/304/234
f 309/303/233 440/302/232 298/304/234 104/305/235
f 104/305/235 298/304/234 441/306/236 308/307/237
f 298/304/234 68/218/143 239/221/146 441/306/236
f 441/306/236 239/221/146 69/200/124 299/308/238
f 308/307/237 441/306/236 299/308/238 105/309/239
f 105/309/239 299/308/238 442/310/240 307/311/241
f 299/308/238 69/200/124 240/203/127 442/310/240
f 442/310/240 240/203/127 70/208/133 300/291/242
f 307/311/241 442/310/240 300/291/242 106/290/243
f 61/213/138 207/312/244 443/313/245 212/214/139
f 207/312/244 75/314/246 241/315/247 443/313/245
f 443/313/245 241/315/247 76/316/248 209/317/249
f 212/214/139 443/313/245 209/317/249 63/215/140
f 59/228/155 205/318/250 444/319/251 214/229/156
f 205/318/252 74/320/253 242/321/254 444/319/251
f 444/319/251 242/321/254 75/314/246 207/312/244
f 214/229/156 444/319/251 207/312/244 61/213/138
f 57/240/169 203/322/255 445/323/256 216/241/170
f 203/322/255 73/324/257 243/325/258 445/323/256
f 445/323/256 243/325/258 74/320/253 205/318/252
f 216/241/170 445/323/256 205/318/250 59/228/155
f 118/252/181 339/326/259 446/327/260 218/253/182
f 339/326/259 120/328/261 244/329/262 446/327/260
f 446/327/260 244/329/262 73/324/257 203/322/255
f 218/253/182 446/327/260 203/322/255 57/240/169
f 63/215/186 209/317/263 447/330/263 219/256/187
f 209/317/263 76/316/264 245/331/264 447/330/263
f 447/330/265 245/331/266 66/332/266 224/333/267
f 219/256/189 447/330/265 224/333/267 56/257/189
f 55/274/208 221/273/208 448/334/268 201/335/268
f 221/273/207 56/272/207 224/336/269 448/334/269
f 448/334/269 224/336/269 66/337/270 246/338/270
f 201/335/268 448/334/268 246/338/271 72/339/271
f 90/340/272 288/341/272 449/342/273 272/343/274
f 288/341/275 96/344/275 254/345/276 449/342/277
f 449/342/277 254/345/276 84/270/205 259/267/204
f 272/343/274 449/342/273 259/267/202 78/266/201
f 94/346/278 276/347/279 450/348/279 287/349/278
f 276/347/279 82/217/183 260/255/185 450/348/279
f 450/348/280 260/255/190 84/259/191 254/350/280
f 287/349/281 450/348/280 254/350/280 96/351/281
f 123/352/282 338/353/283 451/354/284 286/355/285
f 338/353/283 121/248/177 261/251/180 451/354/284
f 451/354/284 261/251/180 79/236/164 273/356/286
f 286/355/285 451/354/284 273/356/287 91/357/288
f 91/357/288 273/356/287 452/358/289 285/359/290
f 273/356/286 79/236/164 262/239/167 452/358/289
f 452/358/289 262/239/167 80/224/151 274/360/291
f 285/359/290 452/358/289 274/360/291 92/361/292
f 92/361/292 274/360/291 453/362/293 284/363/294
f 274/360/291 80/224/151 263/227/154 453/362/293
f 453/362/293 263/227/154 81/209/134 275/364/295
f 284/363/294 453/362/293 275/364/295 93/365/296
f 93/365/296 275/364/295 454/366/297 283/367/298
f 275/364/295 81/209/134 264/212/137 454/366/297
f 454/366/297 264/212/137 82/217/142 276/347/299
f 283/367/298 454/366/297 276/347/299 94/346/300
f 62/204/128 208/368/301 455/369/302 211/205/129
f 208/368/301 87/370/303 265/371/304 455/369/302
f 455/369/302 265/371/304 88/372/305 210/373/306
f 211/205/130 455/369/302 210/373/306 64/206/131
f 60/222/147 206/374/307 456/375/308 213/223/148
f 206/374/307 86/376/309 266/377/310 456/375/308
f 456/375/308 266/377/310 87/370/303 208/368/301
f 213/223/150 456/375/308 208/368/301 62/204/128
f 58/234/161 204/378/311 457/379/312 215/235/162
f 204/378/311 85/380/313 267/381/314 457/379/312
f 457/379/312 267/381/314 86/376/309 206/374/307
f 215/235/162 457/379/312 206/374/307 60/222/147
f 117/246/175 337/382/315 458/383/316 217/247/176
f 337/382/315 122/384/317 268/385/318 458/383/316
f 458/383/316 268/385/318 85/380/313 204/378/311
f 217/247/176 458/383/316 204/378/311 58/234/161
f 64/206/195 210/373/319 459/386/319 220/262/196
f 210/373/319 88/372/320 269/387/321 459/386/319
f 459/386/322 269/387/323 78/388/324 248/389/325
f 220/262/198 459/386/322 248/389/325 55/263/198
f 53/283/215 222/282/214 460/390/326 199/391/326
f 222/282/213 54/281/213 247/392/327 460/390/328
f 460/390/328 247/392/327 77/393/329 270/394/329
f 199/391/326 460/390/326 270/394/330 83/395/330
f 46/184/331 188/396/331 461/397/332 192/199/332
f 188/396/333 93/365/333 283/367/334 461/397/334
f 461/397/334 283/367/334 94/346/335 196/398/335
f 192/199/332 461/397/332 196/398/336 50/81/336
f 42/162/337 180/399/337 462/400/338 184/183/338
f 180/399/339 92/361/339 284/363/340 462/400/340
f 462/400/340 284/363/340 93/365/333 188/396/333
f 184/183/338 462/400/338 188/396/331 46/184/331
f 40/131/341 171/401/341 463/402/342 176/161/342
f 171/401/343 91/357/343 285/359/344 463/402/345
f 463/402/345 285/359/344 92/361/339 180/399/339
f 176/161/342 463/402/342 180/399/337 42/162/337
f 116/129/346 336/403/346 464/404/347 170/130/347
f 336/403/348 123/352/348 286/355/349 464/404/349
f 464/404/349 286/355/349 91/357/343 171/401/343
f 170/130/347 464/404/347 171/401/341 40/131/341
f 50/81/350 196/398/350 465/405/350 163/82/350
f 196/398/351 94/346/351 287/349/351 465/405/351
f 465/405/352 287/349/352 96/351/352 278/406/352
f 163/82/353 465/405/353 278/406/353 34/83/353
f 33/85/354 164/84/354 466/407/354 165/408/354
f 164/84/355 34/83/355 278/409/355 466/407/355
f 466/407/356 278/409/356 96/344/356 288/341/356
f 165/408/357 466/407/357 288/341/357 90/340/357
f 87/370/303 257/410/358 467/411/359 265/371/304
f 257/410/358 99/181/360 289/196/361 467/411/359
f 467/411/359 289/196/361 100/94/362 258/412/363
f 265/371/304 467/411/359 258/412/363 88/372/305
f 86/376/309 256/413/364 468/414/365 266/377/310
f 256/413/364 98/159/366 290/177/367 468/414/365
f 468/414/365 290/177/367 99/181/360 257/410/358
f 266/377/310 468/414/365 257/410/358 87/370/303
f 85/380/313 255/415/368 469/416/369 267/381/314
f 255/415/368 97/126/370 291/155/371 469/416/369
f 469/416/369 291/155/371 98/159/366 256/413/364
f 267/381/314 469/416/369 256/413/364 86/376/309
f 122/384/317 335/417/372 470/418/373 268/385/318
f 335/417/372 124/118/374 292/121/375 470/418/373
f 470/418/373 292/121/375 97/126/370 255/415/368
f 268/385/318 470/418/373 255/415/368 85/380/313
f 88/372/320 258/412/376 471/419/376 269/387/321
f 258/412/376 100/94/377 293/97/377 471/419/376
f 471/419/378 293/97/379 90/99/379 272/420/378
f 269/387/323 471/419/378 272/420/378 78/388/324
f 83/395/330 270/394/330 472/421/380 253/422/380
f 270/394/329 77/393/329 271/423/381 472/421/382
f 472/421/382 271/423/381 89/72/383 294/69/383
f 253/422/380 472/421/380 294/69/384 95/68/384
f 45/424/385 189/425/386 473/426/387 191/427/387
f 189/425/388 105/309/388 307/311/389 473/426/389
f 473/426/389 307/311/389 106/290/390 197/428/390
f 191/427/387 473/426/387 197/428/391 49/429/391
f 41/430/392 181/431/393 474/432/394 183/433/395
f 181/431/396 104/305/397 308/307/398 474/432/399
f 474/432/399 308/307/398 105/309/388 189/425/388
f 183/433/395 474/432/394 189/425/386 45/424/385
f 37/434/400 172/435/400 475/436/401 175/437/401
f 172/435/402 103/301/402 309/303/403 475/436/404
f 475/436/404 309/303/403 104/305/397 181/431/396
f 175/437/401 475/436/401 181/431/393 41/430/392
f 115/438/405 334/439/405 476/440/406 167/441/406
f 334/439/407 125/296/407 310/299/408 476/440/408
f 476/440/408 310/299/408 103/301/402 172/435/402
f 167/441/406 476/440/406 172/435/400 37/434/400
f 49/429/409 197/428/409 477/442/409 155/443/409
f 197/428/410 106/290/410 311/293/410 477/442/410
f 477/442/411 311/293/411 108/295/411 302/444/411
f 155/443/412 477/442/412 302/444/412 29/445/412
f 31/67/413 158/66/413 478/446/413 159/447/413
f 158/66/414 32/65/414 301/448/414 478/446/414
f 478/446/415 301/448/415 107/288/415 312/285/415
f 159/447/416 478/446/416 312/285/416 101/284/416
f 75/314/246 233/449/417 479/450/418 241/315/247
f 233/449/417 111/175/419 313/193/420 479/450/418
f 479/450/418 313/193/420 112/100/421 234/451/422
f 241/315/247 479/450/418 234/451/422 76/316/248
f 74/320/423 232/452/424 480/453/425 242/321/254
f 232/452/424 110/153/426 314/171/427 480/453/425
f 480/453/425 314/171/427 111/175/419 233/449/417
f 242/321/254 480/453/425 233/449/417 75/314/246
f 73/324/257 231/454/428 481/455/429 243/325/258
f 231/454/428 109/117/430 315/149/431 481/455/429
f 481/455/429 315/149/431 110/153/426 232/452/424
f 243/325/258 481/455/429 232/452/424 74/320/423
f 120/328/261 333/456/432 482/457/433 244/329/262
f 333/456/432 126/109/434 316/112/435 482/457/433
f 482/457/433 316/112/435 109/117/430 231/454/428
f 244/329/262 482/457/433 231/454/428 73/324/257
f 76/316/264 234/451/436 483/458/436 245/331/264
f 234/451/436 112/100/437 317/103/437 483/458/436
f 483/458/438 317/103/439 102/108/439 296/459/438
f 245/331/266 483/458/438 296/459/438 66/332/266
f 72/339/271 246/338/271 484/460/440 230/461/440
f 246/338/270 66/337/270 296/462/441 484/460/441
f 484/460/441 296/462/441 102/90/442 318/87/442
f 230/461/440 484/460/440 318/87/443 108/86/443
f 134/463/444 373/464/445 485/465/446 326/466/447
f 373/464/445 140/467/448 332/468/449 485/465/446
f 485/465/446 332/468/449 126/109/434 333/456/432
f 326/466/447 485/465/446 333/456/432 120/328/261
f 129/469/450 372/470/450 486/471/451 321/472/451
f 372/470/452 139/473/452 331/474/453 486/471/453
f 486/471/453 331/474/453 125/296/407 334/439/407
f 321/472/451 486/471/451 334/439/405 115/438/405
f 136/475/454 371/476/455 487/477/456 328/478/457
f 371/476/455 138/479/458 330/480/459 487/477/456
f 487/477/456 330/480/459 124/118/460 335/417/461
f 328/478/457 487/477/456 335/417/461 122/384/462
f 130/481/463 370/482/463 488/483/464 322/484/465
f 370/482/466 137/485/466 329/486/467 488/483/467
f 488/483/467 329/486/467 123/352/468 336/403/468
f 322/484/465 488/483/464 336/403/469 116/129/469
f 131/487/470 369/488/471 489/489/472 323/490/473
f 369/488/471 136/475/454 328/478/457 489/489/472
f 489/489/472 328/478/457 122/384/462 337/382/474
f 323/490/473 489/489/472 337/382/474 117/246/175
f 137/485/475 368/491/476 490/492/477 329/486/478
f 368/491/476 135/493/479 327/494/480 490/492/477
f 490/492/477 327/494/480 121/248/481 338/353/482
f 329/486/478 490/492/477 338/353/482 123/352/483
f 132/495/484 367/496/485 491/497/486 324/498/487
f 367/496/485 134/463/444 326/466/447 491/497/486
f 491/497/486 326/466/447 120/328/261 339/326/259
f 324/498/487 491/497/486 339/326/259 118/252/181
f 139/473/488 366/499/489 492/500/490 331/474/491
f 366/499/489 133/501/492 325/502/493 492/500/490
f 492/500/490 325/502/493 119/242/171 340/297/227
f 331/474/491 492/500/490 340/297/227 125/296/226
f 135/493/479 365/503/494 493/504/495 327/494/480
f 365/503/494 132/495/484 324/498/496 493/504/495
f 493/504/495 324/498/496 118/252/181 341/249/178
f 327/494/480 493/504/495 341/249/497 121/248/481
f 133/501/492 364/505/498 494/506/499 325/502/493
f 364/505/498 131/487/470 323/490/473 494/506/499
f 494/506/500 323/490/473 117/246/175 342/243/172
f 325/502/493 494/506/500 342/243/172 119/242/171
f 128/507/501 363/508/501 495/509/502 348/510/502
f 363/508/503 130/481/503 322/484/504 495/509/504
f 495/509/504 322/484/504 116/129/58 343/127/58
f 348/510/502 495/509/502 343/127/55 114/122/55
f 138/479/505 362/511/505 496/512/506 330/480/506
f 362/511/507 128/507/507 348/510/508 496/512/508
f 496/512/508 348/510/508 114/122/509 344/119/509
f 330/480/506 496/512/506 344/119/510 124/118/510
f 140/467/511 361/513/511 497/514/512 332/468/512
f 361/513/513 127/515/513 347/516/514 497/514/514
f 497/514/514 347/516/514 113/113/43 345/110/43
f 332/468/512 497/514/512 345/110/41 126/109/41
f 37/141/68 174/140/68 498/517/515 167/518/515
f 174/140/67 38/139/67 319/519/516 498/517/516
f 498/517/516 319/519/516 113/520/517 346/521/517
f 167/518/515 498/517/515 346/521/518 115/522/518
f 154/523/519 401/524/519 499/525/520 360/526/520
f 401/524/521 141/527/521 375/528/522 499/525/522
f 499/525/522 375/528/522 127/515/513 361/513/513
f 360/526/520 499/525/520 361/513/511 140/467/511
f 152/529/523 400/530/523 500/531/524 358/532/524
f 400/530/525 142/533/525 376/534/526 500/531/526
f 500/531/526 376/534/526 128/507/507 362/511/507
f 358/532/524 500/531/524 362/511/505 138/479/505
f 142/533/527 399/535/527 501/536/528 376/534/528
f 399/535/529 144/537/529 350/538/530 501/536/530
f 501/536/530 350/538/530 130/481/503 363/508/503
f 376/534/528 501/536/528 363/508/501 128/507/501
f 147/539/531 398/540/532 502/541/533 353/542/534
f 398/540/532 145/543/535 351/544/536 502/541/533
f 502/541/533 351/544/536 131/487/470 364/505/498
f 353/542/534 502/541/533 364/505/498 133/501/492
f 149/545/537 397/546/538 503/547/539 355/548/540
f 397/546/538 146/549/541 352/550/542 503/547/539
f 503/547/539 352/550/542 132/495/484 365/503/494
f 355/548/540 503/547/539 365/503/494 135/493/479
f 153/551/543 396/552/544 504/553/545 359/554/546
f 396/552/544 147/539/531 353/542/534 504/553/545
f 504/553/545 353/542/534 133/501/492 366/499/489
f 359/554/546 504/553/545 366/499/489 139/473/488
f 146/549/541 395/555/547 505/556/548 352/550/542
f 395/555/547 148/557/549 354/558/550 505/556/548
f 505/556/548 354/558/550 134/463/444 367/496/485
f 352/550/542 505/556/548 367/496/485 132/495/484
f 151/559/551 394/560/552 506/561/553 357/562/554
f 394/560/552 149/545/537 355/548/540 506/561/553
f 506/561/553 355/548/540 135/493/479 368/491/476
f 357/562/554 506/561/553 368/491/476 137/485/475
f 145/543/535 393/563/555 507/564/556 351/544/536
f 393/563/555 150/565/557 356/566/558 507/564/556
f 507/564/556 356/566/558 136/475/454 369/488/471
f 351/544/536 507/564/556 369/488/471 131/487/470
f 144/537/559 392/567/559 508/568/560 350/538/560
f 392/567/561 151/559/561 357/562/562 508/568/562
f 508/568/562 357/562/562 137/485/466 370/482/466
f 350/538/560 508/568/560 370/482/463 130/481/463
f 150/565/557 391/569/563 509/570/564 356/566/558
f 391/569/563 152/529/565 358/532/566 509/570/564
f 509/570/564 358/532/566 138/479/458 371/476/455
f 356/566/558 509/570/564 371/476/455 136/475/454
f 143/571/567 390/572/567 510/573/568 349/574/568
f 390/572/569 153/551/569 359/554/570 510/573/570
f 510/573/570 359/554/570 139/473/452 372/470/452
f 349/574/568 510/573/568 372/470/450 129/469/450
f 148/557/549 389/575/571 511/576/572 354/558/550
f 389/575/571 154/523/573 360/526/574 511/576/572
f 511/576/572 360/526/574 140/467/448 373/464/445
f 354/558/550 511/576/572 373/464/445 134/463/444
f 115/522/518 346/521/518 512/577/575 321/578/575
f 346/521/517 113/520/517 347/579/576 512/577/576
f 512/577/576 347/579/576 127/580/576 374/581/576
f 321/578/575 512/577/575 374/581/577 129/582/577
f 71/583/578 229/584/579 513/585/580 382/586/581
f 229/584/579 107/587/582 388/588/582 513/585/580
f 513/585/583 388/588/584 154/523/584 389/575/583
f 382/586/585 513/585/583 389/575/583 148/557/586
f 31/589/587 159/590/587 514/591/587 377/592/587
f 159/590/588 101/593/588 387/594/588 514/591/588
f 514/591/589 387/594/589 153/551/589 390/572/589
f 377/592/590 514/591/590 390/572/590 143/571/590
f 83/595/591 253/596/592 515/597/592 384/598/593
f 253/596/592 95/599/594 386/600/594 515/597/592
f 515/597/595 386/600/596 152/529/596 391/569/597
f 384/598/598 515/597/595 391/569/597 150/565/599
f 36/74/600 160/601/600 516/602/600 378/603/600
f 160/601/601 89/604/601 385/605/601 516/602/601
f 516/602/602 385/605/602 151/559/602 392/567/602
f 378/603/603 516/602/603 392/567/603 144/537/603
f 53/606/604 199/607/605 517/608/605 379/609/604
f 199/607/605 83/595/591 384/598/593 517/608/605
f 517/608/606 384/598/598 150/565/599 393/563/606
f 379/609/607 517/608/606 393/563/606 145/543/607
f 89/604/608 271/610/609 518/611/609 385/605/608
f 271/610/609 77/612/610 383/613/610 518/611/609
f 518/611/611 383/613/612 149/545/612 394/560/611
f 385/605/613 518/611/611 394/560/611 151/559/613
f 54/614/614 200/615/615 519/616/615 380/617/614
f 200/615/615 71/583/578 382/586/581 519/616/615
f 519/616/616 382/586/585 148/557/586 395/555/617
f 380/617/618 519/616/616 395/555/617 146/549/618
f 101/593/619 295/618/620 520/619/621 387/594/619
f 295/618/620 65/620/622 381/621/623 520/619/621
f 520/619/624 381/621/625 147/539/626 396/552/624
f 387/594/627 520/619/624 396/552/624 153/551/627
f 77/612/610 247/622/628 521/623/629 383/613/610
f 247/622/628 54/614/614 380/617/614 521/623/629
f 521/623/630 380/617/618 146/549/618 397/546/630
f 383/613/612 521/623/630 397/546/630 149/545/612
f 65/620/622 223/624/631 522/625/632 381/621/623
f 223/624/631 53/606/604 379/609/604 522/625/632
f 522/625/633 379/609/607 145/543/607 398/540/634
f 381/621/625 522/625/633 398/540/634 147/539/626
f 35/76/635 161/75/635 523/626/635 162/627/635
f 161/75/636 36/74/636 378/603/636 523/626/636
f 523/626/637 378/603/637 144/537/637 399/535/637
f 162/627/638 523/626/638 399/535/638 142/533/638
f 95/599/639 277/628/639 524/629/639 386/600/639
f 277/628/640 35/76/640 162/627/640 524/629/640
f 524/629/641 162/627/641 142/533/641 400/530/641
f 386/600/642 524/629/642 400/530/642 152/529/642
f 107/587/643 301/630/643 525/631/643 388/588/643
f 301/630/644 32/632/644 157/633/644 525/631/644
f 525/631/645 157/633/645 141/527/645 401/524/645
f 388/588/646 525/631/646 401/524/646 154/523/646
f 129/582/577 374/581/577 526/634/647 349/635/647
f 374/581/576 127/580/576 375/636/648 526/634/648
f 526/634/648 375/636/648 141/63/648 402/60/648
f 349/635/647 526/634/647 402/60/649 143/59/649
usemtl Material.002
f 527/1/1 528/2/1 530/3/1 529/4/1
f 529/4/650 530/3/650 532/5/650 531/6/650
f 531/6/3 532/5/3 534/7/3 533/8/3
f 533/8/4 534/7/4 536/9/4 535/10/4
f 535/10/5 536/9/5 538/11/5 537/12/5
f 537/12/6 538/11/6 540/13/6 539/14/6
f 539/14/651 540/13/651 542/15/651 541/16/651
f 541/16/652 542/15/652 544/17/652 543/18/652
f 543/18/9 544/17/9 546/19/9 545/20/9
f 545/20/10 546/19/10 548/21/10 547/22/10
f 547/22/11 548/21/11 550/23/11 549/24/11
f 549/24/12 550/23/12 552/25/12 551/26/12
f 530/27/13 528/28/13 554/29/13 552/30/13 550/31/13 548/32/13 546/33/13 544/34/13 542/35/13 540/36/13 538/37/13 536/38/13 534/39/13 532/40/13
f 551/26/653 552/25/653 554/41/653 553/42/653
f 553/42/15 554/41/15 528/43/15 527/44/15
f 527/45/16 529/46/16 531/47/16 533/48/16 535/49/16 537/50/16 539/51/16 541/52/16 543/53/16 545/54/16 547/55/16 549/56/16 551/57/16 553/58/16
usemtl Material.004
f 555/1/1 556/2/1 558/3/1 557/4/1
f 557/4/650 558/3/650 560/5/650 559/6/650
f 559/6/3 560/5/3 562/7/3 561/8/3
f 561/8/4 562/7/4 564/9/4 563/10/4
f 563/10/5 564/9/5 566/11/5 565/12/5
f 565/12/6 566/11/6 568/13/6 567/14/6
f 567/14/651 568/13/651 570/15/651 569/16/651
f 569/16/652 570/15/652 572/17/652 571/18/652
f 571/18/9 572/17/9 574/19/9 573/20/9
f 573/20/10 574/19/10 576/21/10 575/22/10
f 575/22/11 576/21/11 578/23/11 577/24/11
f 577/24/12 578/23/12 580/25/12 579/26/12
f 558/27/13 556/28/13 582/29/13 580/30/13 578/31/13 576/32/13 574/33/13 572/34/13 570/35/13 568/36/13 566/37/13 564/38/13 562/39/13 560/40/13
f 579/26/653 580/25/653 582/41/653 581/42/653
f 581/42/15 582/41/15 556/43/15 555/44/15
f 555/45/16 557/46/16 559/47/16 561/48/16 563/49/16 565/50/16 567/51/16 569/52/16 571/53/16 573/54/16 575/55/16 577/56/16 579/57/16 581/58/16
usemtl Material.005
f 583/1/1 584/2/1 586/3/1 585/4/1
f 585/4/2 586/3/2 588/5/2 587/6/2
f 587/6/3 588/5/3 590/7/3 589/8/3
f 589/8/4 590/7/4 592/9/4 591/10/4
f 591/10/5 592/9/5 594/11/5 593/12/5
f 593/12/6 594/11/6 596/13/6 595/14/6
f 595/14/7 596/13/7 598/15/7 597/16/7
f 597/16/8 598/15/8 600/17/8 599/18/8
f 599/18/9 600/17/9 602/19/9 601/20/9
f 601/20/10 602/19/10 604/21/10 603/22/10
f 603/22/11 604/21/11 606/23/11 605/24/11
f 605/24/654 606/23/654 608/25/654 607/26/654
f 586/27/13 584/28/13 610/29/13 608/30/13 606/31/13 604/32/13 602/33/13 600/34/13 598/35/13 596/36/13 594/37/13 592/38/13 590/39/13 588/40/13
f 607/26/14 608/25/14 610/41/14 609/42/14
f 609/42/15 610/41/15 584/43/15 583/44/15
f 583/45/16 585/46/16 587/47/16 589/48/16 591/49/16 593/50/16 595/51/16 597/52/16 599/53/16 601/54/16 603/55/16 605/56/16 607/57/16 609/58/16
