# Blender 5.1.1
# www.blender.org
mtllib стол.mtl
o Cube.002
v -0.546949 1.075688 1.446394
v -0.546793 1.210736 1.446347
v -0.562824 1.069343 -1.447448
v -0.562824 1.204282 -1.447448
v 0.563590 1.077946 1.456612
v 0.563613 1.212921 1.456621
v 0.559867 1.083742 -1.461229
v 0.559851 1.218758 -1.461279
v -0.575075 1.063669 -0.000099
v -0.575077 1.213908 -0.000106
v 0.574680 1.071763 -0.000930
v 0.574676 1.222081 -0.000944
v -0.570252 1.064270 0.686970
v 0.575588 1.222916 0.688325
v -0.570153 1.214531 0.686956
v 0.575582 1.072618 0.688320
v -0.561469 1.068546 1.089157
v 0.576085 1.223215 1.096433
v -0.561280 1.218892 1.089111
v 0.576071 1.072936 1.096419
v -0.559257 1.068710 1.306217
v 0.576191 1.221971 1.315869
v -0.559047 1.219087 1.306158
v 0.576162 1.071669 1.315857
v -0.001136 1.068250 -1.470817
v -0.001146 1.218529 -1.470851
v 0.011133 1.062816 1.465603
v 0.011322 1.213112 1.465549
v -0.000482 1.234098 -0.001642
v -0.000471 1.053164 -0.001604
v 0.003018 1.229895 0.687282
v 0.002904 1.049015 0.687304
v 0.010088 1.230373 1.091621
v 0.009835 1.049470 1.091676
v 0.011811 1.229931 1.309461
v 0.011523 1.048998 1.309536
v -0.275402 1.063181 -1.465482
v -0.258797 1.214619 1.462093
v -0.275286 1.049929 -0.001037
v -0.269985 1.047948 0.686792
v -0.263091 1.051129 1.091300
v -0.260780 1.050917 1.308447
v -0.275405 1.213430 -1.465494
v -0.259036 1.064257 1.462166
v -0.275293 1.230795 -0.001063
v -0.269828 1.228811 0.686758
v -0.260580 1.231299 1.089041
v -0.258217 1.231161 1.306159
v 0.272884 1.223874 -1.475264
v 0.279788 1.065051 1.469839
v 0.274493 1.237074 -0.001617
v 0.275845 1.233914 0.688057
v 0.279294 1.233462 1.094895
v 0.280232 1.232275 1.313559
v 0.272899 1.073567 -1.475215
v 0.279903 1.215335 1.469817
v 0.274504 1.056110 -0.001581
v 0.275808 1.053030 0.688055
v 0.279143 1.052553 1.094914
v 0.280054 1.051351 1.313590
v 0.447446 1.225952 -1.476611
v 0.451903 1.068046 1.471727
v 0.449584 1.237677 -0.001269
v 0.450567 1.236991 0.688250
v 0.451704 1.236465 1.096206
v 0.452162 1.235197 1.315377
v 0.447466 1.075628 -1.476550
v 0.451965 1.218329 1.471727
v 0.449592 1.056723 -0.001242
v 0.450555 1.056091 0.688244
v 0.451629 1.055555 1.096200
v 0.452063 1.054257 1.315378
v -0.450289 1.061904 -1.463696
v -0.433348 1.216917 1.461525
v -0.450153 1.048866 -0.000445
v -0.444754 1.048576 0.686844
v -0.435467 1.052410 1.088784
v -0.433114 1.052156 1.305749
v -0.450289 1.212136 -1.463696
v -0.433579 1.066537 1.461594
v -0.450158 1.229704 -0.000462
v -0.444595 1.229437 0.686815
v -0.435157 1.233378 1.088713
v -0.432761 1.233198 1.305650
v -0.575606 1.210288 -0.676891
v 0.574564 1.065949 -0.688818
v -0.575606 1.060056 -0.676891
v 0.574556 1.216226 -0.688841
v -0.000395 1.048630 -0.684369
v -0.000403 1.229507 -0.684391
v -0.275539 1.046309 -0.679677
v -0.275543 1.227162 -0.679689
v 0.274574 1.231617 -0.688354
v 0.274586 1.050721 -0.688319
v 0.449531 1.231827 -0.688901
v 0.449543 1.050934 -0.688865
v -0.450591 1.045124 -0.677534
v -0.450593 1.225958 -0.677539
v -0.575654 1.210005 -1.082298
v 0.573147 1.072392 -1.099454
v -0.575654 1.059774 -1.082298
v 0.573132 1.222691 -1.099498
v -0.000902 1.050137 -1.091770
v -0.000913 1.231009 -1.091812
v -0.275552 1.045662 -1.085222
v -0.275555 1.226492 -1.085232
v 0.273494 1.235993 -1.097857
v 0.273512 1.055090 -1.097796
v 0.448198 1.237674 -1.099298
v 0.448218 1.056760 -1.099234
v -0.450617 1.044695 -1.082938
v -0.450617 1.225511 -1.082938
v -0.575472 1.211069 -1.304241
v 0.572514 1.075399 -1.320152
v -0.575472 1.060837 -1.304241
v 0.572495 1.225721 -1.320211
v -0.001138 1.052180 -1.313041
v -0.001152 1.233066 -1.313094
v -0.275508 1.046993 -1.306834
v -0.275513 1.227834 -1.306852
v 0.272989 1.238615 -1.318595
v 0.273012 1.057690 -1.318522
v 0.447581 1.240603 -1.319945
v 0.447608 1.059658 -1.319861
v -0.450444 1.045704 -1.304720
v -0.450444 1.226521 -1.304720
v -0.557157 1.069678 1.393716
v -0.555275 1.098679 1.456686
v -0.573239 1.210291 -1.393657
v -0.571032 1.092339 -1.457893
v -0.520560 1.063113 -1.460716
v 0.517621 1.225022 -1.474180
v 0.568074 1.106732 -1.471534
v 0.570252 1.077281 -1.408342
v 0.574002 1.219952 1.403809
v 0.571774 1.100943 1.466900
v 0.521542 1.070705 1.469448
v -0.504128 1.216618 1.459071
v -0.575362 1.062482 -0.362283
v -0.574240 1.212572 0.367305
v 0.574945 1.071966 0.366908
v 0.574697 1.217895 -0.368008
v 0.521510 1.235667 -0.001086
v -0.521980 1.050470 -0.000229
v 0.593442 1.102312 -0.000888
v -0.593816 1.094203 -0.000062
v -0.574260 1.062353 0.367305
v 0.574945 1.222296 0.366902
v -0.564695 1.217542 0.922934
v 0.575943 1.073152 0.927732
v -0.589065 1.094913 0.686983
v 0.522457 1.235910 0.688304
v -0.516867 1.050736 0.686916
v 0.594336 1.103340 0.688327
v -0.564851 1.067235 0.922967
v 0.575954 1.223421 0.927744
v -0.559647 1.219213 1.209123
v 0.576146 1.072319 1.217950
v -0.580353 1.099210 1.089218
v 0.523072 1.235721 1.096407
v -0.507812 1.054978 1.088954
v 0.594834 1.103862 1.096415
v -0.559851 1.068844 1.209176
v 0.576170 1.222618 1.217963
v -0.556955 1.217432 1.393657
v 0.573973 1.072287 1.403797
v -0.578161 1.099429 1.306295
v 0.523335 1.234515 1.315757
v -0.505532 1.054938 1.305963
v 0.594883 1.102606 1.315875
v 0.145220 1.071315 -1.473581
v -0.147564 1.215518 -1.467807
v -0.132705 1.063193 1.463499
v 0.154690 1.213850 1.467898
v -0.147267 1.232168 -0.001388
v 0.146363 1.054972 -0.001683
v -0.142526 1.228943 0.686911
v 0.148466 1.050874 0.687755
v -0.134047 1.230394 1.090006
v 0.153594 1.050704 1.093479
v -0.131937 1.230203 1.307430
v 0.154868 1.049824 1.311772
v 0.011083 1.049451 1.212193
v 0.011360 1.230374 1.212125
v 0.007187 1.049024 0.924686
v 0.007390 1.229905 0.924648
v 0.000126 1.050812 0.366466
v 0.000139 1.231680 0.366450
v -0.000520 1.051701 -0.367420
v -0.000530 1.232601 -0.367450
v 0.011718 1.227203 1.399158
v 0.011442 1.050103 1.399234
v 0.011060 1.093189 1.489018
v -0.001130 1.098911 -1.494442
v -0.147558 1.065255 -1.467783
v -0.132486 1.213521 1.463434
v -0.147258 1.051272 -0.001356
v -0.142668 1.048071 0.686941
v -0.136538 1.050250 1.092260
v -0.134471 1.050005 1.309709
v -0.372170 1.212442 -1.464250
v -0.355340 1.065401 1.461641
v -0.372092 1.230111 -0.000732
v -0.366428 1.229105 0.686760
v -0.356945 1.232408 1.088715
v -0.354508 1.232193 1.305676
v -0.275384 1.093885 -1.489260
v -0.260843 1.052188 1.398011
v -0.275490 1.049374 -0.364437
v -0.274387 1.047617 0.366848
v -0.264359 1.049453 0.922888
v -0.261416 1.051262 1.211368
v -0.258872 1.231475 1.209092
v -0.264106 1.230339 0.922837
v -0.274361 1.228447 0.366837
v -0.275497 1.230244 -0.364458
v -0.258290 1.228606 1.395720
v -0.259135 1.094696 1.485577
v 0.145207 1.221609 -1.473624
v 0.154538 1.063560 1.467936
v 0.146350 1.235938 -0.001724
v 0.148542 1.231761 0.687745
v 0.153796 1.231608 1.093442
v 0.155100 1.230745 1.311718
v 0.369498 1.074881 -1.476067
v 0.374945 1.216886 1.471012
v 0.371420 1.056593 -0.001415
v 0.372477 1.054856 0.688170
v 0.374425 1.054208 1.095754
v 0.375071 1.052890 1.314714
v 0.279744 1.095395 1.493265
v 0.280153 1.229478 1.403406
v 0.274518 1.234015 -0.368557
v 0.274855 1.235618 0.366450
v 0.277836 1.233469 0.926985
v 0.279996 1.232986 1.215923
v 0.279825 1.052061 1.215950
v 0.277725 1.052583 0.926992
v 0.274858 1.054689 0.366467
v 0.274528 1.053095 -0.368528
v 0.279982 1.052395 1.403437
v 0.272893 1.104180 -1.498671
v 0.369480 1.225198 -1.476122
v 0.374860 1.066606 1.471022
v 0.371411 1.237553 -0.001445
v 0.372495 1.235744 0.688177
v 0.374535 1.235121 1.095749
v 0.375205 1.233823 1.314700
v 0.517641 1.077314 -1.474118
v 0.521582 1.218365 1.469454
v 0.521516 1.058545 -0.001064
v 0.522448 1.058827 0.688298
v 0.523030 1.058648 1.096393
v 0.523272 1.057405 1.315746
v 0.452045 1.235958 1.217561
v 0.451118 1.236507 0.927736
v 0.449902 1.237266 0.366688
v 0.449603 1.233827 -0.368286
v 0.452106 1.232458 1.405306
v 0.451880 1.098387 1.495162
v 0.451952 1.055020 1.217560
v 0.451075 1.055636 0.927722
v 0.449903 1.056310 0.366700
v 0.449612 1.052907 -0.368261
v 0.452012 1.055370 1.405307
v 0.447458 1.106248 -1.500011
v -0.372169 1.062203 -1.464246
v -0.355097 1.215781 1.461568
v -0.372086 1.049266 -0.000711
v -0.366589 1.048247 0.686792
v -0.357260 1.051447 1.088788
v -0.354876 1.051152 1.305779
v -0.520560 1.210725 -1.460716
v -0.504335 1.068867 1.459133
v -0.521984 1.227477 -0.000242
v -0.516719 1.227772 0.686892
v -0.507529 1.232131 1.088887
v -0.505213 1.232142 1.305874
v -0.433763 1.052498 1.208742
v -0.439020 1.051343 0.922702
v -0.449239 1.046990 0.367148
v -0.450424 1.047945 -0.362870
v -0.433179 1.053569 1.395265
v -0.450266 1.092622 -1.487532
v -0.433426 1.233512 1.208655
v -0.438767 1.232261 0.922649
v -0.449210 1.227794 0.367143
v -0.450429 1.228799 -0.362884
v -0.432836 1.230786 1.395164
v -0.433685 1.097031 1.485006
v -0.575365 1.212731 -0.362290
v 0.574702 1.067599 -0.367994
v -0.575707 1.059466 -0.913402
v 0.573785 1.219592 -0.929522
v -0.000608 1.048521 -0.922403
v -0.000617 1.229386 -0.922434
v -0.275537 1.045171 -0.916393
v -0.275537 1.225988 -0.916394
v 0.274029 1.233408 -0.928083
v 0.274043 1.052518 -0.928035
v 0.448832 1.234667 -0.929377
v 0.448847 1.053774 -0.929329
v -0.450666 1.044412 -0.914118
v -0.450666 1.225228 -0.914119
v -0.372451 1.226424 -0.678348
v -0.522476 1.046766 -0.677066
v 0.371433 1.050964 -0.688809
v 0.521413 1.229773 -0.688888
v 0.146488 1.049914 -0.686806
v 0.371421 1.231860 -0.688846
v -0.147354 1.228254 -0.681811
v -0.372448 1.045581 -0.678339
v 0.146477 1.230806 -0.686837
v -0.147349 1.047391 -0.681797
v 0.593317 1.096498 -0.688811
v 0.521425 1.052710 -0.688854
v -0.522477 1.223767 -0.677068
v -0.594358 1.090627 -0.676854
v -0.575707 1.209697 -0.913402
v 0.573795 1.069311 -0.929489
v -0.575564 1.060298 -1.204966
v 0.572732 1.224595 -1.221825
v -0.001065 1.051361 -1.214244
v -0.001077 1.232242 -1.214294
v -0.275542 1.046365 -1.207745
v -0.275546 1.227203 -1.207761
v 0.273172 1.237650 -1.220187
v 0.273192 1.056733 -1.220118
v 0.447809 1.239521 -1.221588
v 0.447833 1.058589 -1.221513
v -0.450532 1.045190 -1.205520
v -0.450532 1.226006 -1.205520
v -0.522519 1.223446 -1.082475
v 0.520037 1.058937 -1.099406
v 0.591889 1.103014 -1.099478
v -0.147532 1.047430 -1.088018
v 0.145646 1.233868 -1.095426
v -0.372447 1.044959 -1.083732
v -0.147538 1.228280 -1.088044
v 0.370186 1.237127 -1.098933
v 0.145660 1.052977 -1.095371
v 0.520017 1.236027 -1.099469
v 0.370206 1.056216 -1.098871
v -0.522519 1.046452 -1.082475
v -0.372447 1.225775 -1.083732
v -0.594406 1.090346 -1.082258
v -0.575564 1.210530 -1.204966
v 0.572749 1.074283 -1.221773
v -0.573239 1.062679 -1.393656
v 0.570232 1.224988 -1.408403
v -0.001153 1.054625 -1.403830
v -0.001167 1.231687 -1.403881
v -0.275453 1.049448 -1.398072
v -0.275458 1.226466 -1.398091
v 0.272899 1.237181 -1.408809
v 0.272921 1.060081 -1.408739
v 0.447465 1.239243 -1.410146
v 0.447493 1.062118 -1.410061
v -0.450355 1.048136 -1.396125
v -0.450355 1.225129 -1.396125
v -0.372308 1.226832 -1.305397
v -0.522339 1.047500 -1.304373
v 0.369630 1.058961 -1.319410
v 0.519382 1.239041 -1.320172
v 0.145279 1.055345 -1.316377
v 0.369604 1.239898 -1.319488
v -0.147627 1.229970 -1.309536
v -0.372306 1.046007 -1.305391
v 0.145261 1.236253 -1.316443
v -0.147618 1.049108 -1.309501
v 0.591253 1.106033 -1.320184
v 0.519410 1.061919 -1.320088
v -0.522339 1.224493 -1.304373
v -0.594223 1.091412 -1.304212
v -0.591237 1.091952 -1.394663
v 0.518442 1.106631 -1.496642
v 0.591935 1.101898 1.404831
v -0.505251 1.098082 1.481608
v 0.522830 1.058519 1.405196
v -0.504888 1.229889 1.394890
v -0.522268 1.226409 -0.362483
v 0.521537 1.054509 -0.368110
v 0.593464 1.098099 -0.367959
v -0.593012 1.092959 0.367321
v -0.583708 1.097898 0.923009
v -0.521086 1.225897 0.367247
v 0.521802 1.058507 0.366819
v 0.593702 1.102598 0.366936
v -0.578749 1.099522 1.209250
v -0.511061 1.230758 0.922779
v 0.522812 1.058897 0.927754
v 0.594700 1.104022 0.927725
v -0.575306 1.099105 1.394804
v -0.505844 1.232366 1.208860
v 0.523209 1.058094 1.217866
v 0.594883 1.103245 1.217961
v -0.135025 1.050390 1.212518
v 0.154766 1.231294 1.214221
v -0.137505 1.048604 0.923533
v 0.151733 1.231482 0.925970
v -0.146471 1.048865 0.366641
v 0.146784 1.233874 0.366383
v -0.147391 1.050498 -0.365873
v 0.146365 1.233617 -0.368447
v 0.155011 1.227970 1.401496
v -0.134546 1.051190 1.399332
v 0.154480 1.093917 1.491356
v -0.147545 1.095942 -1.491498
v -0.372148 1.092916 -1.488061
v -0.354935 1.052498 1.395307
v -0.372332 1.048546 -0.363480
v -0.371156 1.047093 0.367016
v -0.360824 1.050549 0.922690
v -0.355538 1.051510 1.208758
v -0.132505 1.230569 1.210249
v -0.137268 1.229484 0.923486
v -0.146451 1.229713 0.366627
v -0.147400 1.231379 -0.365899
v -0.132024 1.227560 1.397052
v -0.132794 1.093598 1.486910
v 0.374826 1.096943 1.494452
v 0.375137 1.231036 1.404595
v 0.371432 1.234012 -0.368428
v 0.371752 1.236676 0.366567
v 0.373558 1.235133 0.927516
v 0.375037 1.234604 1.216961
v 0.154543 1.050377 1.214268
v 0.151575 1.050596 0.925993
v 0.146782 1.052973 0.366402
v 0.146376 1.052702 -0.368416
v 0.154788 1.050882 1.401550
v 0.145219 1.101946 -1.497103
v 0.523266 1.235199 1.217877
v 0.522830 1.235935 0.927773
v 0.521802 1.235640 0.366810
v 0.521529 1.231598 -0.368132
v 0.522889 1.231918 1.405205
v 0.522327 1.099769 1.491947
v 0.374909 1.053671 1.216972
v 0.373484 1.054251 0.927511
v 0.371753 1.055730 0.366582
v 0.371441 1.053091 -0.368401
v 0.375008 1.053953 1.404609
v 0.369491 1.105498 -1.499525
v -0.506150 1.055177 1.208940
v -0.511295 1.053659 0.922829
v -0.521115 1.048919 0.367249
v -0.522264 1.049386 -0.362472
v -0.505193 1.056372 1.394979
v -0.521348 1.096008 -1.483608
v -0.355192 1.232516 1.208669
v -0.360568 1.231449 0.922637
v -0.371128 1.227907 0.367009
v -0.372339 1.229407 -0.363498
v -0.354573 1.229720 1.395199
v -0.355444 1.095869 1.485052
v -0.372492 1.225515 -0.914980
v -0.522570 1.046152 -0.913605
v 0.370801 1.053387 -0.929035
v 0.520667 1.232939 -0.929500
v 0.146088 1.050829 -0.925770
v 0.370785 1.234280 -0.929083
v -0.147385 1.227220 -0.918935
v -0.372492 1.044698 -0.914980
v 0.146076 1.231711 -0.925813
v -0.147380 1.046379 -0.918919
v 0.592540 1.099923 -0.929507
v 0.520682 1.055875 -0.929454
v -0.522570 1.223145 -0.913605
v -0.594104 1.092986 -0.362235
v -0.522430 1.223961 -1.205119
v 0.519642 1.060814 -1.221716
v 0.591489 1.104912 -1.221802
v -0.147603 1.048385 -1.210531
v 0.145394 1.235346 -1.217842
v -0.372376 1.045463 -1.206242
v -0.147611 1.229243 -1.210563
v 0.369818 1.238883 -1.221174
v 0.145410 1.054445 -1.217779
v 0.519618 1.237922 -1.221791
v 0.369841 1.057957 -1.221103
v -0.522430 1.046968 -1.205119
v -0.372377 1.226285 -1.206246
v -0.594459 1.090035 -0.913355
v -0.372232 1.225450 -1.396741
v -0.521842 1.049875 -1.395314
v 0.369523 1.061382 -1.409584
v 0.518856 1.237776 -1.409882
v 0.145224 1.057765 -1.406871
v 0.369497 1.238496 -1.409662
v -0.147604 1.228604 -1.400585
v -0.372230 1.048447 -1.396734
v 0.145206 1.234849 -1.406934
v -0.147595 1.051566 -1.400551
v 0.588238 1.106613 -1.409391
v 0.518884 1.064330 -1.409795
v -0.521842 1.223187 -1.395314
v -0.594316 1.090872 -1.204932
vn -0.8515 -0.5234 -0.0316
vn -0.9879 0.1527 -0.0289
vn -0.9588 0.1219 -0.2567
vn -0.8427 -0.4771 -0.2493
vn 0.0415 -0.6085 -0.7924
vn 0.0410 0.1891 -0.9811
vn 0.3866 0.1445 -0.9109
vn 0.3542 -0.5401 -0.7634
vn 0.8548 -0.5183 0.0246
vn 0.9878 0.1525 0.0310
vn 0.9571 0.1215 0.2630
vn 0.8464 -0.4732 0.2444
vn -0.0471 -0.6092 0.7916
vn -0.0393 0.1896 0.9811
vn -0.3794 0.1461 0.9136
vn -0.3535 -0.5414 0.7628
vn 0.0443 -0.9989 0.0125
vn 0.2603 -0.9654 0.0133
vn 0.2413 -0.9555 0.1697
vn 0.0438 -0.9813 0.1872
vn -0.0135 0.9996 0.0261
vn -0.2343 0.9718 0.0247
vn -0.2129 0.9596 0.1838
vn -0.0121 0.9790 0.2036
vn -0.0319 0.9995 -0.0087
vn -0.2477 0.9688 -0.0077
vn -0.2485 0.9686 -0.0028
vn -0.0321 0.9995 -0.0027
vn 0.0235 -0.9997 0.0059
vn 0.2404 -0.9707 0.0051
vn 0.2401 -0.9707 0.0109
vn 0.0238 -0.9997 0.0107
vn 0.8520 -0.5236 0.0023
vn 0.9879 0.1548 -0.0012
vn 0.9879 0.1548 -0.0017
vn 0.8519 -0.5236 0.0060
vn -0.8524 -0.5228 0.0138
vn -0.9878 0.1556 0.0115
vn -0.9879 0.1549 0.0027
vn -0.8525 -0.5228 0.0001
vn -0.8514 -0.5240 0.0214
vn -0.9874 0.1571 0.0189
vn -0.9875 0.1565 0.0206
vn -0.8517 -0.5234 0.0260
vn -0.0287 0.9996 0.0048
vn -0.2454 0.9694 0.0044
vn -0.2419 0.9703 -0.0026
vn -0.0247 0.9997 -0.0052
vn 0.0279 -0.9996 -0.0006
vn 0.2434 -0.9699 -0.0000
vn 0.2484 -0.9687 0.0010
vn 0.0343 -0.9994 0.0001
vn 0.8525 -0.5228 -0.0003
vn 0.9879 0.1548 -0.0008
vn 0.9879 0.1549 -0.0023
vn 0.8532 -0.5216 -0.0006
vn -0.8515 -0.5243 0.0046
vn -0.9875 0.1577 0.0062
vn -0.9874 0.1575 0.0129
vn -0.8514 -0.5244 0.0128
vn -0.0219 0.9997 -0.0118
vn -0.2399 0.9708 -0.0067
vn -0.2392 0.9710 -0.0030
vn -0.0190 0.9998 -0.0071
vn 0.0417 -0.9991 -0.0009
vn 0.2552 -0.9669 0.0008
vn 0.2596 -0.9657 -0.0016
vn 0.0443 -0.9990 -0.0011
vn 0.8541 -0.5202 -0.0000
vn 0.9879 0.1550 -0.0019
vn 0.9879 0.1551 -0.0006
vn 0.8548 -0.5190 -0.0012
vn -0.8427 -0.4790 0.2458
vn -0.9575 0.1245 0.2601
vn -0.9874 0.1556 0.0295
vn -0.8509 -0.5247 0.0259
vn -0.0165 0.9999 -0.0013
vn -0.2383 0.9712 0.0010
vn -0.2366 0.9716 0.0032
vn -0.0152 0.9999 0.0029
vn 0.0432 -0.9991 -0.0046
vn 0.2598 -0.9656 -0.0049
vn 0.2600 -0.9656 -0.0067
vn 0.0437 -0.9990 -0.0074
vn 0.8551 -0.5184 -0.0031
vn 0.9879 0.1550 0.0002
vn 0.9879 0.1548 0.0009
vn 0.8554 -0.5179 -0.0035
vn -0.0069 -1.0000 0.0012
vn -0.0059 -1.0000 0.0006
vn -0.0067 -1.0000 -0.0043
vn -0.0070 -1.0000 -0.0037
vn -0.0142 0.9999 0.0034
vn -0.0075 1.0000 0.0014
vn -0.0061 1.0000 0.0051
vn -0.0130 0.9999 0.0065
vn -0.0029 -1.0000 0.0044
vn 0.0047 -1.0000 0.0011
vn -0.0012 -1.0000 0.0062
vn -0.0069 -0.9999 0.0099
vn -0.0163 0.9999 0.0017
vn -0.0119 0.9999 0.0008
vn -0.0097 1.0000 -0.0016
vn -0.0153 0.9999 -0.0002
vn 0.0101 -0.9999 -0.0064
vn 0.0131 -0.9999 -0.0065
vn 0.0099 -0.9999 -0.0041
vn 0.0054 -1.0000 -0.0008
vn -0.0112 0.9999 0.0048
vn -0.0137 0.9999 0.0061
vn -0.0139 0.9999 0.0062
vn -0.0153 0.9999 0.0060
vn 0.0087 -0.9999 0.0098
vn 0.0084 -0.9999 0.0098
vn 0.0106 -0.9999 0.0031
vn 0.0096 -1.0000 0.0018
vn -0.0048 1.0000 -0.0082
vn -0.0080 0.9999 -0.0093
vn -0.0097 0.9999 -0.0052
vn -0.0060 1.0000 -0.0073
vn -0.0126 0.9994 0.0310
vn -0.0060 0.9995 0.0306
vn -0.0085 0.9781 0.2078
vn -0.0149 0.9780 0.2081
vn -0.0077 -0.9999 0.0137
vn -0.0072 -0.9999 0.0128
vn -0.0063 -0.9825 0.1861
vn -0.0100 -0.9828 0.1846
vn -0.0048 -0.6110 0.7916
vn -0.0173 0.1919 0.9813
vn -0.0170 0.1920 0.9812
vn -0.0098 -0.6107 0.7918
vn -0.0042 -0.6119 -0.7909
vn -0.0206 0.1946 -0.9807
vn -0.0240 0.1939 -0.9807
vn -0.0037 -0.6109 -0.7917
vn -0.0031 -0.6129 -0.7901
vn -0.0075 0.1955 -0.9807
vn -0.0144 0.1952 -0.9807
vn -0.0038 -0.6125 -0.7904
vn -0.0133 -0.9998 0.0154
vn -0.0033 -0.9999 0.0146
vn -0.0107 -0.9821 0.1881
vn -0.0139 -0.9814 0.1913
vn 0.0069 -0.9999 0.0092
vn 0.0081 -0.9999 0.0096
vn 0.0077 -1.0000 0.0018
vn 0.0064 -1.0000 0.0023
vn 0.0032 -1.0000 -0.0055
vn 0.0061 -1.0000 -0.0061
vn 0.0012 -1.0000 0.0023
vn -0.0014 -1.0000 0.0043
vn -0.0072 -0.9999 0.0109
vn -0.0072 -0.9999 0.0082
vn -0.0075 -0.9999 0.0078
vn -0.0112 -0.9999 0.0062
vn -0.0125 -0.9999 0.0008
vn -0.0030 -1.0000 0.0009
vn -0.0025 -1.0000 -0.0036
vn -0.0127 -0.9999 -0.0035
vn 0.0008 1.0000 -0.0007
vn 0.0072 1.0000 -0.0016
vn 0.0073 1.0000 0.0035
vn 0.0016 1.0000 0.0041
vn -0.0047 1.0000 -0.0011
vn 0.0029 1.0000 -0.0044
vn 0.0070 1.0000 -0.0058
vn -0.0013 1.0000 -0.0041
vn -0.0133 0.9999 0.0066
vn -0.0103 0.9999 0.0066
vn -0.0055 1.0000 0.0007
vn -0.0100 0.9999 0.0041
vn -0.0086 0.9999 -0.0098
vn -0.0088 0.9999 -0.0098
vn -0.0098 1.0000 -0.0018
vn -0.0108 0.9999 -0.0031
vn 0.0018 0.9995 0.0299
vn 0.0076 0.9996 0.0290
vn 0.0061 0.9784 0.2066
vn -0.0004 0.9783 0.2073
vn -0.0133 -0.6103 0.7921
vn -0.0139 0.1921 0.9813
vn -0.0087 0.1922 0.9813
vn -0.0136 -0.6098 0.7924
vn 0.0042 -0.6113 0.7914
vn -0.0127 0.1918 0.9814
vn -0.0154 0.1918 0.9813
vn 0.0001 -0.6112 0.7915
vn -0.0184 0.9994 0.0307
vn -0.0167 0.9994 0.0310
vn -0.0186 0.9779 0.2082
vn -0.0201 0.9779 0.2081
vn 0.0014 1.0000 -0.0065
vn -0.0013 1.0000 -0.0071
vn -0.0024 1.0000 -0.0090
vn 0.0004 0.9999 -0.0101
vn -0.0046 1.0000 0.0018
vn -0.0079 1.0000 0.0032
vn -0.0149 0.9999 0.0041
vn -0.0118 0.9999 0.0019
vn -0.0168 0.9999 0.0023
vn -0.0182 0.9998 0.0023
vn -0.0174 0.9998 0.0002
vn -0.0176 0.9998 0.0002
vn -0.0175 0.9998 0.0043
vn -0.0173 0.9998 0.0042
vn -0.0168 0.9998 0.0077
vn -0.0178 0.9998 0.0079
vn 0.0075 -1.0000 -0.0015
vn 0.0141 -0.9999 -0.0035
vn 0.0129 -0.9999 -0.0065
vn 0.0062 -1.0000 -0.0052
vn 0.0118 -0.9999 -0.0007
vn 0.0163 -0.9999 -0.0017
vn 0.0152 -0.9999 0.0001
vn 0.0097 -1.0000 0.0015
vn 0.0135 -0.9999 -0.0059
vn 0.0111 -0.9999 -0.0047
vn 0.0152 -0.9999 -0.0059
vn 0.0138 -0.9999 -0.0062
vn 0.0079 -0.9999 0.0092
vn 0.0047 -1.0000 0.0081
vn 0.0060 -1.0000 0.0072
vn 0.0096 -0.9999 0.0051
vn 0.0054 -0.9999 0.0121
vn 0.0120 -0.9999 0.0117
vn 0.0089 -0.9822 0.1874
vn 0.0022 -0.9822 0.1879
vn -0.0020 -0.6097 -0.7926
vn -0.0222 0.1930 -0.9810
vn -0.0157 0.1922 -0.9812
vn 0.0007 -0.6086 -0.7935
vn 0.2305 0.9731 0.0042
vn 0.0105 0.9999 0.0042
vn 0.0101 0.9999 0.0074
vn 0.2311 0.9729 0.0065
vn 0.2334 0.9724 -0.0014
vn 0.0115 0.9999 0.0009
vn 0.0092 1.0000 0.0007
vn 0.2294 0.9733 0.0010
vn 0.2456 0.9694 -0.0004
vn 0.0253 0.9997 0.0006
vn 0.0188 0.9998 -0.0000
vn 0.2406 0.9706 -0.0018
vn 0.2483 0.9687 -0.0054
vn 0.0298 0.9995 -0.0060
vn 0.0295 0.9995 -0.0108
vn 0.2486 0.9685 -0.0109
vn 0.2297 0.9728 0.0287
vn 0.0085 0.9995 0.0298
vn 0.0070 0.9782 0.2073
vn 0.2083 0.9595 0.1895
vn 0.3638 -0.5405 0.7586
vn 0.3843 0.1444 0.9118
vn 0.0365 0.1890 0.9813
vn 0.0486 -0.6114 0.7898
vn 0.0172 -0.9998 -0.0043
vn 0.0175 -0.9998 -0.0045
vn 0.0177 -0.9998 -0.0079
vn 0.0166 -0.9998 -0.0077
vn 0.0182 -0.9998 -0.0023
vn 0.0168 -0.9999 -0.0023
vn 0.0176 -0.9998 -0.0004
vn 0.0174 -0.9998 -0.0003
vn 0.0079 -1.0000 -0.0031
vn 0.0045 -1.0000 -0.0017
vn 0.0116 -0.9999 -0.0017
vn 0.0148 -0.9999 -0.0040
vn 0.0013 -1.0000 0.0070
vn -0.0014 -1.0000 0.0064
vn -0.0004 -1.0000 0.0100
vn 0.0025 -1.0000 0.0089
vn 0.0162 -0.9998 0.0117
vn 0.0180 -0.9998 0.0121
vn 0.0165 -0.9822 0.1873
vn 0.0138 -0.9822 0.1872
vn 0.0013 -0.6082 -0.7938
vn -0.0113 0.1919 -0.9814
vn -0.0080 0.1919 -0.9814
vn 0.0009 -0.6082 -0.7938
vn -0.2459 -0.9693 0.0054
vn -0.0362 -0.9993 0.0017
vn -0.0377 -0.9993 -0.0027
vn -0.2475 -0.9689 -0.0003
vn -0.2457 -0.9692 0.0178
vn -0.0310 -0.9994 0.0128
vn -0.0337 -0.9994 0.0079
vn -0.2454 -0.9693 0.0127
vn -0.2432 -0.9700 -0.0032
vn -0.0246 -0.9997 -0.0046
vn -0.0284 -0.9996 0.0057
vn -0.2454 -0.9694 0.0088
vn -0.2410 -0.9705 0.0080
vn -0.0214 -0.9997 0.0087
vn -0.0212 -0.9998 0.0028
vn -0.2404 -0.9707 0.0032
vn -0.2483 -0.9685 0.0166
vn -0.0386 -0.9991 0.0160
vn -0.0389 -0.9807 0.1915
vn -0.2295 -0.9577 0.1734
vn -0.3454 -0.5211 -0.7805
vn -0.3998 0.1489 -0.9044
vn -0.0451 0.1956 -0.9796
vn -0.0585 -0.5915 -0.8042
vn 0.0112 0.9999 -0.0013
vn 0.0126 0.9999 -0.0012
vn 0.0128 0.9999 0.0032
vn 0.0108 0.9999 0.0032
vn 0.0073 0.9999 -0.0084
vn 0.0073 0.9999 -0.0111
vn 0.0114 0.9999 -0.0065
vn 0.0115 0.9999 -0.0060
vn -0.0063 1.0000 0.0062
vn -0.0033 1.0000 0.0056
vn 0.0014 1.0000 -0.0045
vn -0.0013 1.0000 -0.0024
vn -0.0082 0.9999 -0.0096
vn -0.0070 0.9999 -0.0092
vn -0.0065 1.0000 -0.0022
vn -0.0079 1.0000 -0.0017
vn 0.0110 0.9995 0.0281
vn 0.0132 0.9995 0.0273
vn 0.0137 0.9786 0.2051
vn 0.0104 0.9785 0.2059
vn -0.0116 -0.6095 0.7927
vn -0.0030 0.1922 0.9814
vn 0.0023 0.1922 0.9814
vn -0.0094 -0.6091 0.7930
vn -0.0061 1.0000 0.0023
vn -0.0035 1.0000 0.0016
vn -0.0049 1.0000 -0.0035
vn -0.0063 1.0000 -0.0044
vn -0.2431 -0.9700 -0.0018
vn -0.0243 -0.9997 -0.0017
vn -0.0235 -0.9997 0.0028
vn -0.2428 -0.9701 0.0026
vn 0.0101 -0.9998 -0.0159
vn 0.0059 -0.9998 -0.0171
vn 0.0023 -0.9999 -0.0110
vn 0.0057 -0.9999 -0.0088
vn 0.2436 0.9697 0.0167
vn 0.0235 0.9996 0.0178
vn 0.0263 0.9996 0.0124
vn 0.2453 0.9694 0.0124
vn 0.0173 -0.9998 -0.0111
vn 0.0146 -0.9998 -0.0139
vn 0.0097 -0.9999 -0.0057
vn 0.0122 -0.9999 -0.0017
vn -0.0059 0.9998 0.0173
vn -0.0102 0.9998 0.0160
vn -0.0057 0.9999 0.0088
vn -0.0022 0.9999 0.0109
vn -0.0165 0.9998 0.0079
vn -0.0117 0.9999 0.0046
vn -0.0091 0.9999 -0.0047
vn -0.0117 0.9999 -0.0024
vn 0.0035 -1.0000 -0.0016
vn 0.0060 -1.0000 -0.0022
vn 0.0063 -1.0000 0.0043
vn 0.0048 -1.0000 0.0034
vn -0.0147 0.9998 0.0140
vn -0.0174 0.9998 0.0112
vn -0.0123 0.9999 0.0017
vn -0.0097 0.9999 0.0057
vn 0.0115 -0.9999 -0.0046
vn 0.0163 -0.9998 -0.0079
vn 0.0116 -0.9999 0.0024
vn 0.0090 -0.9999 0.0045
vn 0.8528 -0.5221 -0.0127
vn 0.9879 0.1548 -0.0010
vn 0.8525 -0.5227 -0.0101
vn 0.0297 -0.9994 -0.0179
vn 0.2454 -0.9693 -0.0185
vn 0.2435 -0.9698 -0.0139
vn 0.0270 -0.9996 -0.0126
vn -0.0288 0.9996 0.0017
vn -0.2453 0.9695 0.0017
vn -0.2456 0.9694 -0.0024
vn -0.0297 0.9996 -0.0028
vn -0.8521 -0.5233 0.0024
vn -0.9880 0.1546 0.0003
vn -0.9880 0.1547 -0.0004
vn -0.8522 -0.5232 0.0047
vn -0.0283 0.9996 0.0052
vn -0.2450 0.9695 0.0050
vn -0.2451 0.9695 0.0039
vn -0.0285 0.9996 0.0041
vn 0.0312 -0.9995 -0.0111
vn 0.2459 -0.9692 -0.0115
vn 0.2457 -0.9692 -0.0157
vn 0.0306 -0.9994 -0.0152
vn 0.8530 -0.5219 -0.0080
vn 0.9879 0.1548 -0.0006
vn 0.8529 -0.5220 -0.0109
vn 0.0160 -0.9998 -0.0068
vn 0.0204 -0.9998 -0.0078
vn 0.0192 -0.9998 -0.0089
vn 0.0146 -0.9999 -0.0068
vn -0.0181 0.9998 0.0095
vn -0.0213 0.9997 0.0088
vn -0.0201 0.9997 0.0111
vn -0.0171 0.9998 0.0128
vn 0.0036 -1.0000 -0.0053
vn 0.0097 -0.9999 -0.0059
vn 0.0082 -1.0000 -0.0049
vn 0.0034 -1.0000 -0.0041
vn -0.0206 0.9998 0.0078
vn -0.0162 0.9998 0.0069
vn -0.0148 0.9999 0.0068
vn -0.0193 0.9998 0.0090
vn -0.0086 0.9999 0.0107
vn -0.0129 0.9999 0.0101
vn -0.0121 0.9998 0.0140
vn -0.0075 0.9999 0.0148
vn 0.0211 -0.9997 -0.0087
vn 0.0180 -0.9998 -0.0095
vn 0.0170 -0.9998 -0.0127
vn 0.0199 -0.9997 -0.0110
vn 0.2433 0.9699 0.0105
vn 0.0220 0.9997 0.0111
vn 0.0226 0.9996 0.0152
vn 0.2434 0.9698 0.0143
vn 0.0128 -0.9999 -0.0100
vn 0.0085 -0.9999 -0.0106
vn 0.0075 -0.9999 -0.0146
vn 0.0120 -0.9998 -0.0139
vn -0.2434 -0.9699 -0.0055
vn -0.0249 -0.9997 -0.0053
vn -0.0246 -0.9997 -0.0041
vn -0.2433 -0.9699 -0.0043
vn -0.0098 0.9999 0.0059
vn -0.0037 1.0000 0.0053
vn -0.0034 1.0000 0.0041
vn -0.0084 1.0000 0.0050
vn -0.8524 -0.5229 0.0017
vn -0.9879 0.1548 -0.0000
vn -0.8524 -0.5229 -0.0012
vn -0.0127 0.9818 -0.1895
vn -0.0054 0.9820 -0.1890
vn -0.0042 0.9999 -0.0152
vn -0.0106 0.9998 -0.0151
vn -0.2236 -0.9576 -0.1818
vn -0.0257 -0.9796 -0.1992
vn -0.0249 -0.9993 -0.0264
vn -0.2429 -0.9697 -0.0263
vn 0.0115 -0.9800 -0.1989
vn 0.0081 -0.9800 -0.1991
vn 0.0090 -0.9996 -0.0271
vn 0.0131 -0.9996 -0.0267
vn 0.2224 0.9587 -0.1774
vn 0.0203 0.9805 -0.1955
vn 0.0211 0.9997 -0.0147
vn 0.2426 0.9700 -0.0147
vn 0.0168 -0.9798 -0.1992
vn 0.0148 -0.9799 -0.1989
vn 0.0178 -0.9995 -0.0266
vn 0.0209 -0.9994 -0.0268
vn -0.0107 0.9805 -0.1961
vn -0.0151 0.9804 -0.1963
vn -0.0136 0.9998 -0.0157
vn -0.0094 0.9998 -0.0153
vn -0.0246 0.9811 -0.1919
vn -0.0198 0.9815 -0.1905
vn -0.0170 0.9997 -0.0150
vn -0.0214 0.9997 -0.0151
vn 0.0023 -0.9799 -0.1997
vn 0.0074 -0.9798 -0.1996
vn 0.0099 -0.9996 -0.0268
vn 0.0037 -0.9996 -0.0266
vn -0.0203 0.9805 -0.1955
vn -0.0248 0.9807 -0.1937
vn -0.0220 0.9996 -0.0153
vn -0.0186 0.9997 -0.0157
vn 0.0123 -0.9798 -0.1996
vn 0.0160 -0.9798 -0.1994
vn 0.0203 -0.9994 -0.0269
vn 0.0160 -0.9995 -0.0269
vn 0.8427 -0.4763 -0.2510
vn 0.9577 0.1217 -0.2608
vn 0.9878 0.1527 -0.0295
vn 0.8521 -0.5224 -0.0326
vn 0.0308 -0.9796 -0.1987
vn 0.2259 -0.9571 -0.1812
vn 0.2455 -0.9690 -0.0272
vn 0.0312 -0.9991 -0.0272
vn -0.0283 0.9817 -0.1882
vn -0.2253 0.9592 -0.1707
vn -0.2444 0.9696 -0.0149
vn -0.0278 0.9995 -0.0149
vn -0.8524 -0.5228 -0.0029
vn -0.9879 0.1548 -0.0001
vn -0.8524 -0.5228 -0.0036
vt 0.375000 0.234375
vt 0.500000 0.234375
vt 0.500000 0.242405
vt 0.375000 0.242188
vt 0.625000 0.234375
vt 0.625000 0.242188
vt 0.625000 0.250000
vt 0.500000 0.252170
vt 0.375000 0.250000
vt 0.375000 0.468750
vt 0.500000 0.468750
vt 0.500000 0.484158
vt 0.375000 0.484375
vt 0.625000 0.468750
vt 0.625000 0.484375
vt 0.625000 0.500000
vt 0.500000 0.497830
vt 0.375000 0.500000
vt 0.411458 0.734374
vt 0.500000 0.734374
vt 0.500000 0.742404
vt 0.408420 0.742241
vt 0.588542 0.734374
vt 0.591580 0.742241
vt 0.625000 0.750000
vt 0.500000 0.752170
vt 0.375000 0.750000
vt 0.375000 0.968750
vt 0.500000 0.968750
vt 0.500000 0.984375
vt 0.375000 0.984375
vt 0.625000 0.968750
vt 0.625000 0.984375
vt 0.625000 1.000000
vt 0.500000 1.000000
vt 0.375000 1.000000
vt 0.343750 0.734374
vt 0.363932 0.734374
vt 0.363173 0.742187
vt 0.343750 0.742187
vt 0.359375 0.750000
vt 0.343750 0.750000
vt 0.843750 0.734374
vt 0.859375 0.734374
vt 0.859375 0.742187
vt 0.843750 0.742187
vt 0.875000 0.734374
vt 0.875000 0.742187
vt 0.875000 0.750000
vt 0.859375 0.750000
vt 0.843750 0.750000
vt 0.843750 0.567708
vt 0.859375 0.567274
vt 0.859375 0.594293
vt 0.843750 0.594401
vt 0.875000 0.562500
vt 0.875000 0.593750
vt 0.875000 0.625000
vt 0.859375 0.625000
vt 0.843750 0.625000
vt 0.343750 0.567708
vt 0.363932 0.567708
vt 0.363932 0.594401
vt 0.343750 0.594401
vt 0.411458 0.567708
vt 0.411458 0.594401
vt 0.411458 0.625000
vt 0.363932 0.625000
vt 0.343750 0.625000
vt 0.500000 0.567708
vt 0.500000 0.594401
vt 0.588542 0.567708
vt 0.588542 0.594401
vt 0.588542 0.625000
vt 0.500000 0.625000
vt 0.375000 0.062500
vt 0.500000 0.066841
vt 0.500000 0.094184
vt 0.375000 0.093750
vt 0.625000 0.062500
vt 0.625000 0.093750
vt 0.625000 0.125000
vt 0.500000 0.125000
vt 0.375000 0.125000
vt 0.375000 0.031252
vt 0.500000 0.033422
vt 0.500000 0.047527
vt 0.375000 0.046876
vt 0.625000 0.031252
vt 0.625000 0.046876
vt 0.859375 0.655707
vt 0.843750 0.655599
vt 0.875000 0.656250
vt 0.875000 0.687500
vt 0.859375 0.682725
vt 0.843750 0.682291
vt 0.363932 0.655599
vt 0.343750 0.655599
vt 0.411458 0.655599
vt 0.411458 0.682291
vt 0.363932 0.682291
vt 0.343750 0.682291
vt 0.500000 0.655599
vt 0.588542 0.655599
vt 0.588542 0.682291
vt 0.500000 0.682291
vt 0.375000 0.015626
vt 0.500000 0.015626
vt 0.500000 0.023656
vt 0.375000 0.023439
vt 0.625000 0.015626
vt 0.625000 0.023439
vt 0.859375 0.702310
vt 0.843750 0.702147
vt 0.875000 0.703124
vt 0.875000 0.718748
vt 0.859375 0.716361
vt 0.843750 0.716144
vt 0.363932 0.702148
vt 0.343750 0.702147
vt 0.411458 0.702147
vt 0.411458 0.716144
vt 0.363932 0.716144
vt 0.343750 0.716144
vt 0.500000 0.702148
vt 0.588542 0.702147
vt 0.588542 0.716144
vt 0.500000 0.716144
vt 0.375000 0.000000
vt 0.500000 0.000000
vt 0.500000 0.007813
vt 0.375000 0.007813
vt 0.625000 0.000000
vt 0.625000 0.007813
vt 0.859375 0.726290
vt 0.843750 0.726235
vt 0.875000 0.726561
vt 0.363932 0.726235
vt 0.343750 0.726236
vt 0.411458 0.726236
vt 0.500000 0.726235
vt 0.588542 0.726236
vt 0.192708 0.716144
vt 0.219401 0.716144
vt 0.219401 0.726235
vt 0.192708 0.726236
vt 0.250000 0.716144
vt 0.250000 0.726236
vt 0.250000 0.734374
vt 0.219401 0.734374
vt 0.192708 0.734374
vt 0.692708 0.716144
vt 0.719401 0.716144
vt 0.719401 0.726235
vt 0.692708 0.726236
vt 0.750000 0.716144
vt 0.750000 0.726236
vt 0.750000 0.734374
vt 0.719401 0.734374
vt 0.692708 0.734374
vt 0.192708 0.682291
vt 0.219401 0.682291
vt 0.219401 0.702148
vt 0.192708 0.702147
vt 0.250000 0.682291
vt 0.250000 0.702147
vt 0.692708 0.682291
vt 0.719401 0.682291
vt 0.719401 0.702148
vt 0.692708 0.702147
vt 0.750000 0.682291
vt 0.750000 0.702147
vt 0.192708 0.625000
vt 0.219401 0.625000
vt 0.219401 0.655599
vt 0.192708 0.655599
vt 0.250000 0.625000
vt 0.250000 0.655599
vt 0.692708 0.625000
vt 0.719401 0.625000
vt 0.719401 0.655599
vt 0.692708 0.655599
vt 0.750000 0.625000
vt 0.750000 0.655599
vt 0.192708 0.567708
vt 0.219401 0.567708
vt 0.219401 0.594401
vt 0.192708 0.594401
vt 0.250000 0.567708
vt 0.250000 0.594401
vt 0.692708 0.567708
vt 0.719401 0.567708
vt 0.719401 0.594401
vt 0.692708 0.594401
vt 0.750000 0.567708
vt 0.750000 0.594401
vt 0.719293 0.742187
vt 0.692274 0.742187
vt 0.750000 0.742187
vt 0.750000 0.750000
vt 0.718750 0.750000
vt 0.687500 0.750000
vt 0.219293 0.742187
vt 0.192274 0.742187
vt 0.250000 0.742187
vt 0.250000 0.750000
vt 0.218750 0.750000
vt 0.187500 0.750000
vt 0.375000 0.812500
vt 0.500000 0.816840
vt 0.500000 0.844184
vt 0.375000 0.843750
vt 0.625000 0.812500
vt 0.625000 0.843750
vt 0.625000 0.875000
vt 0.500000 0.875000
vt 0.375000 0.875000
vt 0.375000 0.312500
vt 0.500000 0.316840
vt 0.500000 0.344184
vt 0.375000 0.343750
vt 0.625000 0.312500
vt 0.625000 0.343750
vt 0.625000 0.375000
vt 0.500000 0.375000
vt 0.375000 0.375000
vt 0.375000 0.281250
vt 0.500000 0.281250
vt 0.500000 0.297309
vt 0.375000 0.296875
vt 0.625000 0.281250
vt 0.625000 0.296875
vt 0.156250 0.734374
vt 0.172526 0.734374
vt 0.172418 0.742187
vt 0.156250 0.742187
vt 0.171875 0.750000
vt 0.156250 0.750000
vt 0.156250 0.567708
vt 0.172526 0.567708
vt 0.172526 0.594401
vt 0.156250 0.594401
vt 0.172526 0.625000
vt 0.156250 0.625000
vt 0.172526 0.655599
vt 0.156250 0.655599
vt 0.172526 0.682291
vt 0.156250 0.682291
vt 0.172526 0.702148
vt 0.156250 0.702147
vt 0.172526 0.716144
vt 0.156250 0.716144
vt 0.172526 0.726235
vt 0.156250 0.726236
vt 0.780599 0.716144
vt 0.780599 0.726235
vt 0.807292 0.716144
vt 0.807292 0.726236
vt 0.807292 0.734374
vt 0.780599 0.734374
vt 0.780599 0.682291
vt 0.780599 0.702148
vt 0.807292 0.682291
vt 0.807292 0.702147
vt 0.780599 0.625000
vt 0.780599 0.655599
vt 0.807292 0.625000
vt 0.807292 0.655599
vt 0.780599 0.567708
vt 0.780599 0.594401
vt 0.807292 0.567708
vt 0.807292 0.594401
vt 0.780707 0.742187
vt 0.807726 0.742187
vt 0.812500 0.750000
vt 0.781250 0.750000
vt 0.500000 0.905816
vt 0.375000 0.906250
vt 0.625000 0.906250
vt 0.625000 0.937500
vt 0.500000 0.933160
vt 0.375000 0.937500
vt 0.375000 0.781250
vt 0.500000 0.781250
vt 0.500000 0.797309
vt 0.375000 0.796875
vt 0.625000 0.781250
vt 0.625000 0.796875
vt 0.656250 0.734374
vt 0.672526 0.734374
vt 0.672418 0.742187
vt 0.656250 0.742187
vt 0.671875 0.750000
vt 0.656250 0.750000
vt 0.656250 0.567708
vt 0.672526 0.567708
vt 0.672526 0.594401
vt 0.656250 0.594401
vt 0.672526 0.625000
vt 0.656250 0.625000
vt 0.672526 0.655599
vt 0.656250 0.655599
vt 0.672526 0.682291
vt 0.656250 0.682291
vt 0.672526 0.702148
vt 0.656250 0.702147
vt 0.672526 0.716144
vt 0.656250 0.716144
vt 0.672526 0.726235
vt 0.656250 0.726236
vt 0.280599 0.716144
vt 0.280599 0.726235
vt 0.307292 0.716144
vt 0.307292 0.726236
vt 0.307292 0.734374
vt 0.280599 0.734374
vt 0.280599 0.682291
vt 0.280599 0.702148
vt 0.307292 0.682291
vt 0.307292 0.702147
vt 0.280599 0.625000
vt 0.280599 0.655599
vt 0.307292 0.625000
vt 0.307292 0.655599
vt 0.280599 0.567708
vt 0.280599 0.594401
vt 0.307292 0.567708
vt 0.307292 0.594401
vt 0.280707 0.742187
vt 0.307726 0.742187
vt 0.312500 0.750000
vt 0.281250 0.750000
vt 0.500000 0.405816
vt 0.375000 0.406250
vt 0.625000 0.406250
vt 0.625000 0.437500
vt 0.500000 0.433160
vt 0.375000 0.437500
vt 0.636068 0.716144
vt 0.636068 0.726235
vt 0.636068 0.734374
vt 0.636068 0.682291
vt 0.636068 0.702148
vt 0.636068 0.625000
vt 0.636068 0.655599
vt 0.636068 0.567708
vt 0.636068 0.594401
vt 0.636827 0.742187
vt 0.640625 0.750000
vt 0.500000 0.765842
vt 0.375000 0.765625
vt 0.625000 0.765625
vt 0.327474 0.716144
vt 0.327474 0.726235
vt 0.327474 0.734374
vt 0.327474 0.682291
vt 0.327474 0.702148
vt 0.327474 0.625000
vt 0.327474 0.655599
vt 0.327474 0.567708
vt 0.327474 0.594401
vt 0.327582 0.742187
vt 0.328125 0.750000
vt 0.500000 0.452691
vt 0.375000 0.453125
vt 0.625000 0.453125
vt 0.125000 0.718748
vt 0.140625 0.716361
vt 0.140625 0.726290
vt 0.125000 0.726561
vt 0.140625 0.734374
vt 0.125000 0.734374
vt 0.125000 0.687500
vt 0.140625 0.682725
vt 0.140625 0.702310
vt 0.125000 0.703124
vt 0.125000 0.625000
vt 0.140625 0.625000
vt 0.140625 0.655707
vt 0.125000 0.656250
vt 0.125000 0.562500
vt 0.140625 0.567274
vt 0.140625 0.594293
vt 0.125000 0.593750
vt 0.140625 0.742187
vt 0.125000 0.742187
vt 0.140625 0.750000
vt 0.125000 0.750000
vt 0.500000 0.265842
vt 0.375000 0.265625
vt 0.625000 0.265625
vt 0.827474 0.716144
vt 0.827474 0.726235
vt 0.827474 0.734374
vt 0.827474 0.682291
vt 0.827474 0.702148
vt 0.827474 0.625000
vt 0.827474 0.655599
vt 0.827474 0.567708
vt 0.827474 0.594401
vt 0.827582 0.742187
vt 0.828125 0.750000
vt 0.500000 0.952691
vt 0.375000 0.953125
vt 0.625000 0.953125
vt 0.807292 0.533854
vt 0.827474 0.533854
vt 0.827474 0.547852
vt 0.807292 0.547852
vt 0.843750 0.533854
vt 0.843750 0.547852
vt 0.125000 0.531250
vt 0.140625 0.533637
vt 0.140625 0.547689
vt 0.125000 0.546875
vt 0.156250 0.533854
vt 0.156250 0.547852
vt 0.307292 0.533854
vt 0.327474 0.533854
vt 0.327474 0.547852
vt 0.307292 0.547852
vt 0.343750 0.533854
vt 0.343750 0.547852
vt 0.588542 0.533854
vt 0.636068 0.533854
vt 0.636068 0.547852
vt 0.588542 0.547852
vt 0.656250 0.533854
vt 0.656250 0.547852
vt 0.250000 0.533854
vt 0.280599 0.533854
vt 0.280599 0.547852
vt 0.250000 0.547852
vt 0.672526 0.533854
vt 0.672526 0.547852
vt 0.692708 0.533854
vt 0.692708 0.547852
vt 0.750000 0.533854
vt 0.780599 0.533854
vt 0.780599 0.547852
vt 0.750000 0.547852
vt 0.172526 0.533854
vt 0.172526 0.547852
vt 0.192708 0.533854
vt 0.192708 0.547852
vt 0.719401 0.533854
vt 0.719401 0.547852
vt 0.219401 0.533854
vt 0.219401 0.547852
vt 0.411458 0.533854
vt 0.500000 0.533854
vt 0.500000 0.547852
vt 0.411458 0.547852
vt 0.363932 0.533854
vt 0.363932 0.547852
vt 0.859375 0.533637
vt 0.859375 0.547689
vt 0.875000 0.531250
vt 0.875000 0.546875
vt 0.500000 0.155816
vt 0.375000 0.156250
vt 0.625000 0.156250
vt 0.625000 0.187500
vt 0.500000 0.183160
vt 0.375000 0.187500
vt 0.843750 0.515625
vt 0.859375 0.515625
vt 0.859375 0.523709
vt 0.843750 0.523763
vt 0.875000 0.515625
vt 0.875000 0.523438
vt 0.343750 0.515625
vt 0.363932 0.515625
vt 0.363932 0.523763
vt 0.343750 0.523763
vt 0.411458 0.515625
vt 0.411458 0.523763
vt 0.500000 0.515625
vt 0.500000 0.523763
vt 0.588542 0.515625
vt 0.588542 0.523763
vt 0.192708 0.515625
vt 0.219401 0.515625
vt 0.219401 0.523763
vt 0.192708 0.523763
vt 0.250000 0.515625
vt 0.250000 0.523763
vt 0.692708 0.515625
vt 0.719401 0.515625
vt 0.719401 0.523763
vt 0.692708 0.523763
vt 0.750000 0.515625
vt 0.750000 0.523763
vt 0.156250 0.515625
vt 0.172526 0.515625
vt 0.172526 0.523763
vt 0.156250 0.523763
vt 0.780599 0.515625
vt 0.780599 0.523763
vt 0.807292 0.515625
vt 0.807292 0.523763
vt 0.656250 0.515625
vt 0.672526 0.515625
vt 0.672526 0.523763
vt 0.656250 0.523763
vt 0.280599 0.515625
vt 0.280599 0.523763
vt 0.307292 0.515625
vt 0.307292 0.523763
vt 0.636068 0.515625
vt 0.636068 0.523763
vt 0.327474 0.515625
vt 0.327474 0.523763
vt 0.125000 0.515625
vt 0.140625 0.515625
vt 0.140625 0.523709
vt 0.125000 0.523438
vt 0.827474 0.515625
vt 0.827474 0.523763
vt 0.500000 0.202474
vt 0.375000 0.203125
vt 0.625000 0.203125
vt 0.625000 0.218750
vt 0.500000 0.216580
vt 0.375000 0.218750
vt 0.812500 0.500000
vt 0.828125 0.500000
vt 0.827583 0.507812
vt 0.807726 0.507812
vt 0.843750 0.500000
vt 0.843750 0.507812
vt 0.125000 0.500000
vt 0.140625 0.500000
vt 0.140625 0.507812
vt 0.125000 0.507813
vt 0.156250 0.500000
vt 0.156250 0.507812
vt 0.312500 0.500000
vt 0.328125 0.500000
vt 0.327582 0.507812
vt 0.307726 0.507812
vt 0.343750 0.500000
vt 0.343750 0.507812
vt 0.640625 0.500000
vt 0.636827 0.507812
vt 0.591580 0.507758
vt 0.656250 0.500000
vt 0.656250 0.507812
vt 0.250000 0.500000
vt 0.281250 0.500000
vt 0.280707 0.507812
vt 0.250000 0.507812
vt 0.671875 0.500000
vt 0.672418 0.507812
vt 0.687500 0.500000
vt 0.692274 0.507812
vt 0.750000 0.500000
vt 0.781250 0.500000
vt 0.780708 0.507812
vt 0.750000 0.507812
vt 0.171875 0.500000
vt 0.172418 0.507812
vt 0.187500 0.500000
vt 0.192274 0.507812
vt 0.718750 0.500000
vt 0.719293 0.507812
vt 0.218750 0.500000
vt 0.219293 0.507812
vt 0.500000 0.507596
vt 0.408420 0.507758
vt 0.359375 0.500000
vt 0.363173 0.507812
vt 0.859375 0.500000
vt 0.859375 0.507812
vt 0.875000 0.500000
vt 0.875000 0.507813
vt 0.500000 0.226346
vt 0.375000 0.226563
vt 0.625000 0.226563
s 0
usemtl Material.001
f 115/1/1 374/2/1 375/3/1 349/4/1
f 374/2/2 113/5/2 129/6/2 375/3/2
f 375/3/3 129/6/3 4/7/3 130/8/3
f 349/4/4 375/3/4 130/8/4 3/9/4
f 67/10/5 266/11/5 376/12/5 249/13/5
f 266/11/6 61/14/6 132/15/6 376/12/6
f 376/12/7 132/15/7 8/16/7 133/17/7
f 249/13/8 376/12/8 133/17/8 7/18/8
f 24/19/9 170/20/9 377/21/9 166/22/9
f 170/20/10 22/23/10 135/24/10 377/21/10
f 377/21/11 135/24/11 6/25/11 136/26/11
f 166/22/12 377/21/12 136/26/12 5/27/12
f 80/28/13 290/29/13 378/30/13 274/31/13
f 290/29/14 74/32/14 138/33/14 378/30/14
f 378/30/15 138/33/15 2/34/15 128/35/15
f 274/31/16 378/30/16 128/35/16 1/36/16
f 72/37/17 254/38/17 379/39/17 265/40/17
f 254/38/18 24/19/18 166/22/18 379/39/18
f 379/39/19 166/22/19 5/27/19 137/41/19
f 265/40/20 379/39/20 137/41/20 62/42/20
f 84/43/21 278/44/21 380/45/21 289/46/21
f 278/44/22 23/47/22 165/48/22 380/45/22
f 380/45/23 165/48/23 2/49/23 138/50/23
f 289/46/24 380/45/24 138/50/24 74/51/24
f 98/52/25 317/53/25 381/54/25 288/55/25
f 317/53/26 85/56/26 291/57/26 381/54/26
f 381/54/27 291/57/27 10/58/27 275/59/27
f 288/55/28 381/54/28 275/59/28 81/60/28
f 96/61/29 316/62/29 382/63/29 264/64/29
f 316/62/30 86/65/30 292/66/30 382/63/30
f 382/63/31 292/66/31 11/67/31 251/68/31
f 264/64/32 382/63/32 251/68/32 69/69/32
f 86/65/33 315/70/33 383/71/33 292/66/33
f 315/70/34 88/72/34 142/73/34 383/71/34
f 383/71/35 142/73/35 12/74/35 145/75/35
f 292/66/36 383/71/36 145/75/36 11/67/36
f 13/76/37 151/77/37 384/78/37 147/79/37
f 151/77/38 15/80/38 140/81/38 384/78/38
f 384/78/39 140/81/39 10/82/39 146/83/39
f 147/79/40 384/78/40 146/83/40 9/84/40
f 17/85/41 159/86/41 385/87/41 155/88/41
f 159/86/42 19/89/42 149/90/42 385/87/42
f 385/87/43 149/90/43 15/80/43 151/77/43
f 155/88/44 385/87/44 151/77/44 13/76/44
f 81/60/45 275/59/45 386/91/45 287/92/45
f 275/59/46 10/58/46 140/93/46 386/91/46
f 386/91/47 140/93/47 15/94/47 276/95/47
f 287/92/48 386/91/48 276/95/48 82/96/48
f 69/69/49 251/68/49 387/97/49 263/98/49
f 251/68/50 11/67/50 141/99/50 387/97/50
f 387/97/51 141/99/51 16/100/51 252/101/51
f 263/98/52 387/97/52 252/101/52 70/102/52
f 11/67/53 145/75/53 388/103/53 141/99/53
f 145/75/54 12/74/54 148/104/54 388/103/54
f 388/103/55 148/104/55 14/105/55 154/106/55
f 141/99/56 388/103/56 154/106/56 16/100/56
f 21/107/57 167/108/57 389/109/57 163/110/57
f 167/108/58 23/111/58 157/112/58 389/109/58
f 389/109/59 157/112/59 19/89/59 159/86/59
f 163/110/60 389/109/60 159/86/60 17/85/60
f 82/96/61 276/95/61 390/113/61 286/114/61
f 276/95/62 15/94/62 149/115/62 390/113/62
f 390/113/63 149/115/63 19/116/63 277/117/63
f 286/114/64 390/113/64 277/117/64 83/118/64
f 70/102/65 252/101/65 391/119/65 262/120/65
f 252/101/66 16/100/66 150/121/66 391/119/66
f 391/119/67 150/121/67 20/122/67 253/123/67
f 262/120/68 391/119/68 253/123/68 71/124/68
f 16/100/69 154/106/69 392/125/69 150/121/69
f 154/106/70 14/105/70 156/126/70 392/125/70
f 392/125/71 156/126/71 18/127/71 162/128/71
f 150/121/72 392/125/72 162/128/72 20/122/72
f 1/129/73 128/130/73 393/131/73 127/132/73
f 128/130/74 2/133/74 165/134/74 393/131/74
f 393/131/75 165/134/75 23/111/75 167/108/75
f 127/132/76 393/131/76 167/108/76 21/107/76
f 83/118/77 277/117/77 394/135/77 285/136/77
f 277/117/78 19/116/78 157/137/78 394/135/78
f 394/135/79 157/137/79 23/47/79 278/44/79
f 285/136/80 394/135/80 278/44/80 84/43/80
f 71/124/81 253/123/81 395/138/81 261/139/81
f 253/123/82 20/122/82 158/140/82 395/138/82
f 395/138/83 158/140/83 24/19/83 254/38/83
f 261/139/84 395/138/84 254/38/84 72/37/84
f 20/122/85 162/128/85 396/141/85 158/140/85
f 162/128/86 18/127/86 164/142/86 396/141/86
f 396/141/87 164/142/87 22/23/87 170/20/87
f 158/140/88 396/141/88 170/20/88 24/19/88
f 41/143/89 199/144/89 397/145/89 212/146/89
f 199/144/90 34/147/90 183/148/90 397/145/90
f 397/145/91 183/148/91 36/149/91 200/150/91
f 212/146/92 397/145/92 200/150/92 42/151/92
f 53/152/93 223/153/93 398/154/93 236/155/93
f 223/153/94 33/156/94 184/157/94 398/154/94
f 398/154/95 184/157/95 35/158/95 224/159/95
f 236/155/96 398/154/96 224/159/96 54/160/96
f 40/161/97 198/162/97 399/163/97 211/164/97
f 198/162/98 32/165/98 185/166/98 399/163/98
f 399/163/99 185/166/99 34/147/99 199/144/99
f 211/164/100 399/163/100 199/144/100 41/143/100
f 52/167/101 222/168/101 400/169/101 235/170/101
f 222/168/102 31/171/102 186/172/102 400/169/102
f 400/169/103 186/172/103 33/156/103 223/153/103
f 235/170/104 400/169/104 223/153/104 53/152/104
f 39/173/105 197/174/105 401/175/105 210/176/105
f 197/174/106 30/177/106 187/178/106 401/175/106
f 401/175/107 187/178/107 32/165/107 198/162/107
f 210/176/108 401/175/108 198/162/108 40/161/108
f 51/179/109 221/180/109 402/181/109 234/182/109
f 221/180/110 29/183/110 188/184/110 402/181/110
f 402/181/111 188/184/111 31/171/111 222/168/111
f 234/182/112 402/181/112 222/168/112 52/167/112
f 91/185/113 314/186/113 403/187/113 209/188/113
f 314/186/114 89/189/114 189/190/114 403/187/114
f 403/187/115 189/190/115 30/177/115 197/174/115
f 209/188/116 403/187/116 197/174/116 39/173/116
f 93/191/117 313/192/117 404/193/117 233/194/117
f 313/192/118 90/195/118 190/196/118 404/193/118
f 404/193/119 190/196/119 29/183/119 221/180/119
f 233/194/120 404/193/120 221/180/120 51/179/120
f 54/160/121 224/159/121 405/197/121 232/198/121
f 224/159/122 35/158/122 191/199/122 405/197/122
f 405/197/123 191/199/123 28/200/123 174/201/123
f 232/198/124 405/197/124 174/201/124 56/202/124
f 42/151/125 200/150/125 406/203/125 208/204/125
f 200/150/126 36/149/126 192/205/126 406/203/126
f 406/203/127 192/205/127 27/206/127 173/207/127
f 208/204/128 406/203/128 173/207/128 44/208/128
f 50/209/129 231/210/129 407/211/129 220/212/129
f 231/210/130 56/213/130 174/214/130 407/211/130
f 407/211/131 174/214/131 28/215/131 193/216/131
f 220/212/132 407/211/132 193/216/132 27/217/132
f 37/218/133 207/219/133 408/220/133 195/221/133
f 207/219/134 43/222/134 172/223/134 408/220/134
f 408/220/135 172/223/135 26/224/135 194/225/135
f 195/221/136 408/220/136 194/225/136 25/226/136
f 73/227/137 284/228/137 409/229/137 267/230/137
f 284/228/138 79/231/138 201/232/138 409/229/138
f 409/229/139 201/232/139 43/222/139 207/219/139
f 267/230/140 409/229/140 207/219/140 37/218/140
f 78/233/141 272/234/141 410/235/141 283/236/141
f 272/234/142 42/151/142 208/204/142 410/235/142
f 410/235/143 208/204/143 44/208/143 202/237/143
f 283/236/144 410/235/144 202/237/144 80/238/144
f 97/239/145 312/240/145 411/241/145 282/242/145
f 312/240/146 91/185/146 209/188/146 411/241/146
f 411/241/147 209/188/147 39/173/147 269/243/147
f 282/242/148 411/241/148 269/243/148 75/244/148
f 75/244/149 269/243/149 412/245/149 281/246/149
f 269/243/150 39/173/150 210/176/150 412/245/150
f 412/245/151 210/176/151 40/161/151 270/247/151
f 281/246/152 412/245/152 270/247/152 76/248/152
f 76/248/153 270/247/153 413/249/153 280/250/153
f 270/247/154 40/161/154 211/164/154 413/249/154
f 413/249/155 211/164/155 41/143/155 271/251/155
f 280/250/156 413/249/156 271/251/156 77/252/156
f 77/252/157 271/251/157 414/253/157 279/254/157
f 271/251/158 41/143/158 212/146/158 414/253/158
f 414/253/159 212/146/159 42/151/159 272/234/159
f 279/254/160 414/253/160 272/234/160 78/233/160
f 33/156/161 179/255/161 415/256/161 184/157/161
f 179/255/162 47/257/162 213/258/162 415/256/162
f 415/256/163 213/258/163 48/259/163 181/260/163
f 184/157/164 415/256/164 181/260/164 35/158/164
f 31/171/165 177/261/165 416/262/165 186/172/165
f 177/261/166 46/263/166 214/264/166 416/262/166
f 416/262/167 214/264/167 47/257/167 179/255/167
f 186/172/168 416/262/168 179/255/168 33/156/168
f 29/183/169 175/265/169 417/266/169 188/184/169
f 175/265/170 45/267/170 215/268/170 417/266/170
f 417/266/171 215/268/171 46/263/171 177/261/171
f 188/184/172 417/266/172 177/261/172 31/171/172
f 90/195/173 311/269/173 418/270/173 190/196/173
f 311/269/174 92/271/174 216/272/174 418/270/174
f 418/270/175 216/272/175 45/267/175 175/265/175
f 190/196/176 418/270/176 175/265/176 29/183/176
f 35/158/177 181/260/177 419/273/177 191/199/177
f 181/260/178 48/259/178 217/274/178 419/273/178
f 419/273/179 217/274/179 38/275/179 196/276/179
f 191/199/180 419/273/180 196/276/180 28/200/180
f 27/217/181 193/216/181 420/277/181 173/278/181
f 193/216/182 28/215/182 196/279/182 420/277/182
f 420/277/183 196/279/183 38/280/183 218/281/183
f 173/278/184 420/277/184 218/281/184 44/282/184
f 62/283/185 260/284/185 421/285/185 244/286/185
f 260/284/186 68/287/186 226/288/186 421/285/186
f 421/285/187 226/288/187 56/213/187 231/210/187
f 244/286/188 421/285/188 231/210/188 50/209/188
f 66/289/189 248/290/189 422/291/189 259/292/189
f 248/290/190 54/160/190 232/198/190 422/291/190
f 422/291/191 232/198/191 56/202/191 226/293/191
f 259/292/192 422/291/192 226/293/192 68/294/192
f 95/295/193 310/296/193 423/297/193 258/298/193
f 310/296/194 93/191/194 233/194/194 423/297/194
f 423/297/195 233/194/195 51/179/195 245/299/195
f 258/298/196 423/297/196 245/299/196 63/300/196
f 63/300/197 245/299/197 424/301/197 257/302/197
f 245/299/198 51/179/198 234/182/198 424/301/198
f 424/301/199 234/182/199 52/167/199 246/303/199
f 257/302/200 424/301/200 246/303/200 64/304/200
f 64/304/201 246/303/201 425/305/201 256/306/201
f 246/303/202 52/167/202 235/170/202 425/305/202
f 425/305/203 235/170/203 53/152/203 247/307/203
f 256/306/204 425/305/204 247/307/204 65/308/204
f 65/308/205 247/307/205 426/309/205 255/310/205
f 247/307/206 53/152/206 236/155/206 426/309/206
f 426/309/207 236/155/207 54/160/207 248/290/207
f 255/310/208 426/309/208 248/290/208 66/289/208
f 34/147/209 180/311/209 427/312/209 183/148/209
f 180/311/210 59/313/210 237/314/210 427/312/210
f 427/312/211 237/314/211 60/315/211 182/316/211
f 183/148/212 427/312/212 182/316/212 36/149/212
f 32/165/213 178/317/213 428/318/213 185/166/213
f 178/317/214 58/319/214 238/320/214 428/318/214
f 428/318/215 238/320/215 59/313/215 180/311/215
f 185/166/216 428/318/216 180/311/216 34/147/216
f 30/177/217 176/321/217 429/322/217 187/178/217
f 176/321/218 57/323/218 239/324/218 429/322/218
f 429/322/219 239/324/219 58/319/219 178/317/219
f 187/178/220 429/322/220 178/317/220 32/165/220
f 89/189/221 309/325/221 430/326/221 189/190/221
f 309/325/222 94/327/222 240/328/222 430/326/222
f 430/326/223 240/328/223 57/323/223 176/321/223
f 189/190/224 430/326/224 176/321/224 30/177/224
f 36/149/225 182/316/225 431/329/225 192/205/225
f 182/316/226 60/315/226 241/330/226 431/329/226
f 431/329/227 241/330/227 50/331/227 220/332/227
f 192/205/228 431/329/228 220/332/228 27/206/228
f 25/226/229 194/225/229 432/333/229 171/334/229
f 194/225/230 26/224/230 219/335/230 432/333/230
f 432/333/231 219/335/231 49/336/231 242/337/231
f 171/334/232 432/333/232 242/337/232 55/338/232
f 18/127/233 160/339/233 433/340/233 164/142/233
f 160/339/234 65/308/234 255/310/234 433/340/234
f 433/340/235 255/310/235 66/289/235 168/341/235
f 164/142/236 433/340/236 168/341/236 22/23/236
f 14/105/237 152/342/237 434/343/237 156/126/237
f 152/342/238 64/304/238 256/306/238 434/343/238
f 434/343/239 256/306/239 65/308/239 160/339/239
f 156/126/240 434/343/240 160/339/240 18/127/240
f 12/74/241 143/344/241 435/345/241 148/104/241
f 143/344/242 63/300/242 257/302/242 435/345/242
f 435/345/243 257/302/243 64/304/243 152/342/243
f 148/104/244 435/345/244 152/342/244 14/105/244
f 88/72/245 308/346/245 436/347/245 142/73/245
f 308/346/246 95/295/246 258/298/246 436/347/246
f 436/347/247 258/298/247 63/300/247 143/344/247
f 142/73/248 436/347/248 143/344/248 12/74/248
f 22/23/249 168/341/249 437/348/249 135/24/249
f 168/341/250 66/289/250 259/292/250 437/348/250
f 437/348/251 259/292/251 68/294/251 250/349/251
f 135/24/252 437/348/252 250/349/252 6/25/252
f 5/27/253 136/26/253 438/350/253 137/351/253
f 136/26/254 6/25/254 250/352/254 438/350/254
f 438/350/255 250/352/255 68/287/255 260/284/255
f 137/351/256 438/350/256 260/284/256 62/283/256
f 59/313/257 229/353/257 439/354/257 237/314/257
f 229/353/258 71/124/258 261/139/258 439/354/258
f 439/354/259 261/139/259 72/37/259 230/355/259
f 237/314/260 439/354/260 230/355/260 60/315/260
f 58/319/261 228/356/261 440/357/261 238/320/261
f 228/356/262 70/102/262 262/120/262 440/357/262
f 440/357/263 262/120/263 71/124/263 229/353/263
f 238/320/264 440/357/264 229/353/264 59/313/264
f 57/323/265 227/358/265 441/359/265 239/324/265
f 227/358/266 69/69/266 263/98/266 441/359/266
f 441/359/267 263/98/267 70/102/267 228/356/267
f 239/324/268 441/359/268 228/356/268 58/319/268
f 94/327/269 307/360/269 442/361/269 240/328/269
f 307/360/270 96/61/270 264/64/270 442/361/270
f 442/361/271 264/64/271 69/69/271 227/358/271
f 240/328/272 442/361/272 227/358/272 57/323/272
f 60/315/273 230/355/273 443/362/273 241/330/273
f 230/355/274 72/37/274 265/40/274 443/362/274
f 443/362/275 265/40/275 62/42/275 244/363/275
f 241/330/276 443/362/276 244/363/276 50/331/276
f 55/338/277 242/337/277 444/364/277 225/365/277
f 242/337/278 49/336/278 243/366/278 444/364/278
f 444/364/279 243/366/279 61/14/279 266/11/279
f 225/365/280 444/364/280 266/11/280 67/10/280
f 17/367/281 161/368/281 445/369/281 163/370/281
f 161/368/282 77/252/282 279/254/282 445/369/282
f 445/369/283 279/254/283 78/233/283 169/371/283
f 163/370/284 445/369/284 169/371/284 21/372/284
f 13/373/285 153/374/285 446/375/285 155/376/285
f 153/374/286 76/248/286 280/250/286 446/375/286
f 446/375/287 280/250/287 77/252/287 161/368/287
f 155/376/288 446/375/288 161/368/288 17/367/288
f 9/377/289 144/378/289 447/379/289 147/380/289
f 144/378/290 75/244/290 281/246/290 447/379/290
f 447/379/291 281/246/291 76/248/291 153/374/291
f 147/380/292 447/379/292 153/374/292 13/373/292
f 87/381/293 306/382/293 448/383/293 139/384/293
f 306/382/294 97/239/294 282/242/294 448/383/294
f 448/383/295 282/242/295 75/244/295 144/378/295
f 139/384/296 448/383/296 144/378/296 9/377/296
f 21/372/297 169/371/297 449/385/297 127/386/297
f 169/371/298 78/233/298 283/236/298 449/385/298
f 449/385/299 283/236/299 80/238/299 274/387/299
f 127/386/300 449/385/300 274/387/300 1/388/300
f 3/9/301 130/8/301 450/389/301 131/390/301
f 130/8/302 4/7/302 273/391/302 450/389/302
f 450/389/303 273/391/303 79/231/303 284/228/303
f 131/390/304 450/389/304 284/228/304 73/227/304
f 47/257/305 205/392/305 451/393/305 213/258/305
f 205/392/306 83/118/306 285/136/306 451/393/306
f 451/393/307 285/136/307 84/43/307 206/394/307
f 213/258/308 451/393/308 206/394/308 48/259/308
f 46/263/309 204/395/309 452/396/309 214/264/309
f 204/395/310 82/96/310 286/114/310 452/396/310
f 452/396/311 286/114/311 83/118/311 205/392/311
f 214/264/312 452/396/312 205/392/312 47/257/312
f 45/267/313 203/397/313 453/398/313 215/268/313
f 203/397/314 81/60/314 287/92/314 453/398/314
f 453/398/315 287/92/315 82/96/315 204/395/315
f 215/268/316 453/398/316 204/395/316 46/263/316
f 92/271/317 305/399/317 454/400/317 216/272/317
f 305/399/318 98/52/318 288/55/318 454/400/318
f 454/400/319 288/55/319 81/60/319 203/397/319
f 216/272/320 454/400/320 203/397/320 45/267/320
f 48/259/321 206/394/321 455/401/321 217/274/321
f 206/394/322 84/43/322 289/46/322 455/401/322
f 455/401/323 289/46/323 74/51/323 268/402/323
f 217/274/324 455/401/324 268/402/324 38/275/324
f 44/282/325 218/281/325 456/403/325 202/404/325
f 218/281/326 38/280/326 268/405/326 456/403/326
f 456/403/327 268/405/327 74/32/327 290/29/327
f 202/404/328 456/403/328 290/29/328 80/28/328
f 106/406/329 345/407/329 457/408/329 298/409/329
f 345/407/330 112/410/330 304/411/330 457/408/330
f 457/408/331 304/411/331 98/52/331 305/399/331
f 298/409/332 457/408/332 305/399/332 92/271/332
f 101/412/333 344/413/333 458/414/333 293/415/333
f 344/413/334 111/416/334 303/417/334 458/414/334
f 458/414/335 303/417/335 97/239/335 306/382/335
f 293/415/336 458/414/336 306/382/336 87/381/336
f 108/418/337 343/419/337 459/420/337 300/421/337
f 343/419/338 110/422/338 302/423/338 459/420/338
f 459/420/339 302/423/339 96/61/339 307/360/339
f 300/421/340 459/420/340 307/360/340 94/327/340
f 102/424/341 342/425/341 460/426/341 294/427/341
f 342/425/342 109/428/342 301/429/342 460/426/342
f 460/426/343 301/429/343 95/295/343 308/346/343
f 294/427/344 460/426/344 308/346/344 88/72/344
f 103/430/345 341/431/345 461/432/345 295/433/345
f 341/431/346 108/418/346 300/421/346 461/432/346
f 461/432/347 300/421/347 94/327/347 309/325/347
f 295/433/348 461/432/348 309/325/348 89/189/348
f 109/428/349 340/434/349 462/435/349 301/429/349
f 340/434/350 107/436/350 299/437/350 462/435/350
f 462/435/351 299/437/351 93/191/351 310/296/351
f 301/429/352 462/435/352 310/296/352 95/295/352
f 104/438/353 339/439/353 463/440/353 296/441/353
f 339/439/354 106/406/354 298/409/354 463/440/354
f 463/440/355 298/409/355 92/271/355 311/269/355
f 296/441/356 463/440/356 311/269/356 90/195/356
f 111/416/357 338/442/357 464/443/357 303/417/357
f 338/442/358 105/444/358 297/445/358 464/443/358
f 464/443/359 297/445/359 91/185/359 312/240/359
f 303/417/360 464/443/360 312/240/360 97/239/360
f 107/436/361 337/446/361 465/447/361 299/437/361
f 337/446/362 104/438/362 296/441/362 465/447/362
f 465/447/363 296/441/363 90/195/363 313/192/363
f 299/437/364 465/447/364 313/192/364 93/191/364
f 105/444/365 336/448/365 466/449/365 297/445/365
f 336/448/366 103/430/366 295/433/366 466/449/366
f 466/449/367 295/433/367 89/189/367 314/186/367
f 297/445/368 466/449/368 314/186/368 91/185/368
f 100/450/369 335/451/369 467/452/369 320/453/369
f 335/451/370 102/424/370 294/427/370 467/452/370
f 467/452/370 294/427/370 88/72/370 315/70/370
f 320/453/371 467/452/371 315/70/371 86/65/371
f 110/422/372 334/454/372 468/455/372 302/423/372
f 334/454/373 100/450/373 320/453/373 468/455/373
f 468/455/374 320/453/374 86/65/374 316/62/374
f 302/423/375 468/455/375 316/62/375 96/61/375
f 112/410/376 333/456/376 469/457/376 304/411/376
f 333/456/377 99/458/377 319/459/377 469/457/377
f 469/457/378 319/459/378 85/56/378 317/53/378
f 304/411/379 469/457/379 317/53/379 98/52/379
f 9/84/380 146/83/380 470/460/380 139/461/380
f 146/83/381 10/82/381 291/462/381 470/460/381
f 470/460/382 291/462/382 85/463/382 318/464/382
f 139/461/383 470/460/383 318/464/383 87/465/383
f 126/466/384 373/467/384 471/468/384 332/469/384
f 373/467/385 113/470/385 347/471/385 471/468/385
f 471/468/386 347/471/386 99/458/386 333/456/386
f 332/469/387 471/468/387 333/456/387 112/410/387
f 124/472/388 372/473/388 472/474/388 330/475/388
f 372/473/389 114/476/389 348/477/389 472/474/389
f 472/474/390 348/477/390 100/450/390 334/454/390
f 330/475/391 472/474/391 334/454/391 110/422/391
f 114/476/392 371/478/392 473/479/392 348/477/392
f 371/478/393 116/480/393 322/481/393 473/479/393
f 473/479/54 322/481/54 102/424/54 335/451/54
f 348/477/394 473/479/394 335/451/394 100/450/394
f 119/482/395 370/483/395 474/484/395 325/485/395
f 370/483/396 117/486/396 323/487/396 474/484/396
f 474/484/397 323/487/397 103/430/397 336/448/397
f 325/485/398 474/484/398 336/448/398 105/444/398
f 121/488/399 369/489/399 475/490/399 327/491/399
f 369/489/400 118/492/400 324/493/400 475/490/400
f 475/490/401 324/493/401 104/438/401 337/446/401
f 327/491/402 475/490/402 337/446/402 107/436/402
f 125/494/403 368/495/403 476/496/403 331/497/403
f 368/495/404 119/482/404 325/485/404 476/496/404
f 476/496/405 325/485/405 105/444/405 338/442/405
f 331/497/406 476/496/406 338/442/406 111/416/406
f 118/492/407 367/498/407 477/499/407 324/493/407
f 367/498/408 120/500/408 326/501/408 477/499/408
f 477/499/409 326/501/409 106/406/409 339/439/409
f 324/493/410 477/499/410 339/439/410 104/438/410
f 123/502/411 366/503/411 478/504/411 329/505/411
f 366/503/412 121/488/412 327/491/412 478/504/412
f 478/504/413 327/491/413 107/436/413 340/434/413
f 329/505/414 478/504/414 340/434/414 109/428/414
f 117/486/415 365/506/415 479/507/415 323/487/415
f 365/506/416 122/508/416 328/509/416 479/507/416
f 479/507/417 328/509/417 108/418/417 341/431/417
f 323/487/418 479/507/418 341/431/418 103/430/418
f 116/480/419 364/510/419 480/511/419 322/481/419
f 364/510/420 123/502/420 329/505/420 480/511/420
f 480/511/421 329/505/421 109/428/421 342/425/421
f 322/481/422 480/511/422 342/425/422 102/424/422
f 122/508/423 363/512/423 481/513/423 328/509/423
f 363/512/424 124/472/424 330/475/424 481/513/424
f 481/513/425 330/475/425 110/422/425 343/419/425
f 328/509/426 481/513/426 343/419/426 108/418/426
f 115/514/427 362/515/427 482/516/427 321/517/427
f 362/515/428 125/494/428 331/497/428 482/516/428
f 482/516/429 331/497/429 111/416/429 344/413/429
f 321/517/430 482/516/430 344/413/430 101/412/430
f 120/500/431 361/518/431 483/519/431 326/501/431
f 361/518/432 126/466/432 332/469/432 483/519/432
f 483/519/433 332/469/433 112/410/433 345/407/433
f 326/501/434 483/519/434 345/407/434 106/406/434
f 87/465/435 318/464/435 484/520/435 293/521/435
f 318/464/436 85/463/436 319/522/436 484/520/436
f 484/520/436 319/522/436 99/523/436 346/524/436
f 293/521/437 484/520/437 346/524/437 101/525/437
f 43/526/438 201/527/438 485/528/438 354/529/438
f 201/527/439 79/530/439 360/531/439 485/528/439
f 485/528/440 360/531/440 126/466/440 361/518/440
f 354/529/441 485/528/441 361/518/441 120/500/441
f 3/532/442 131/533/442 486/534/442 349/535/442
f 131/533/443 73/536/443 359/537/443 486/534/443
f 486/534/444 359/537/444 125/494/444 362/515/444
f 349/535/445 486/534/445 362/515/445 115/514/445
f 55/538/446 225/539/446 487/540/446 356/541/446
f 225/539/447 67/542/447 358/543/447 487/540/447
f 487/540/448 358/543/448 124/472/448 363/512/448
f 356/541/449 487/540/449 363/512/449 122/508/449
f 8/16/450 132/544/450 488/545/450 350/546/450
f 132/544/451 61/547/451 357/548/451 488/545/451
f 488/545/452 357/548/452 123/502/452 364/510/452
f 350/546/453 488/545/453 364/510/453 116/480/453
f 25/549/454 171/550/454 489/551/454 351/552/454
f 171/550/455 55/538/455 356/541/455 489/551/455
f 489/551/456 356/541/456 122/508/456 365/506/456
f 351/552/457 489/551/457 365/506/457 117/486/457
f 61/547/458 243/553/458 490/554/458 357/548/458
f 243/553/459 49/555/459 355/556/459 490/554/459
f 490/554/460 355/556/460 121/488/460 366/503/460
f 357/548/461 490/554/461 366/503/461 123/502/461
f 26/557/462 172/558/462 491/559/462 352/560/462
f 172/558/463 43/526/463 354/529/463 491/559/463
f 491/559/464 354/529/464 120/500/464 367/498/464
f 352/560/465 491/559/465 367/498/465 118/492/465
f 73/536/466 267/561/466 492/562/466 359/537/466
f 267/561/467 37/563/467 353/564/467 492/562/467
f 492/562/468 353/564/468 119/482/468 368/495/468
f 359/537/469 492/562/469 368/495/469 125/494/469
f 49/555/470 219/565/470 493/566/470 355/556/470
f 219/565/471 26/557/471 352/560/471 493/566/471
f 493/566/472 352/560/472 118/492/472 369/489/472
f 355/556/473 493/566/473 369/489/473 121/488/473
f 37/563/474 195/567/474 494/568/474 353/564/474
f 195/567/475 25/549/475 351/552/475 494/568/475
f 494/568/476 351/552/476 117/486/476 370/483/476
f 353/564/477 494/568/477 370/483/477 119/482/477
f 7/18/478 133/17/478 495/569/478 134/570/478
f 133/17/479 8/16/479 350/546/479 495/569/479
f 495/569/480 350/546/480 116/480/480 371/478/480
f 134/570/481 495/569/481 371/478/481 114/476/481
f 67/542/482 249/571/482 496/572/482 358/543/482
f 249/571/483 7/18/483 134/570/483 496/572/483
f 496/572/484 134/570/484 114/476/484 372/473/484
f 358/543/485 496/572/485 372/473/485 124/472/485
f 79/530/486 273/573/486 497/574/486 360/531/486
f 273/573/487 4/575/487 129/576/487 497/574/487
f 497/574/488 129/576/488 113/470/488 373/467/488
f 360/531/489 497/574/489 373/467/489 126/466/489
f 101/525/490 346/524/490 498/577/490 321/578/490
f 346/524/491 99/523/491 347/579/491 498/577/491
f 498/577/491 347/579/491 113/5/491 374/2/491
f 321/578/492 498/577/492 374/2/492 115/1/492
o Cylinder
v 0.448915 -0.004096 1.240939
v 0.448915 1.081452 1.216724
v 0.464441 -0.004096 1.244483
v 0.474948 1.081452 1.222666
v 0.476892 -0.004096 1.254412
v 0.495825 1.081452 1.239314
v 0.483802 -0.004096 1.268761
v 0.507410 1.081452 1.263372
v 0.483802 -0.004096 1.284687
v 0.507410 1.081452 1.290075
v 0.476892 -0.004096 1.299035
v 0.495825 1.081452 1.314133
v 0.464441 -0.004096 1.308965
v 0.474948 1.081452 1.330782
v 0.448915 -0.004096 1.312508
v 0.448915 1.081452 1.336724
v 0.433388 -0.004096 1.308965
v 0.422882 1.081452 1.330782
v 0.420937 -0.004096 1.299035
v 0.402005 1.081452 1.314133
v 0.414027 -0.004096 1.284687
v 0.390419 1.081452 1.290075
v 0.414027 -0.004096 1.268761
v 0.390419 1.081452 1.263372
v 0.420937 -0.004096 1.254412
v 0.402005 1.081452 1.239314
v 0.433388 -0.004096 1.244483
v 0.422882 1.081452 1.222666
vn 0.2225 -0.0217 -0.9747
vn 0.6233 -0.0217 -0.7816
vn 0.9008 -0.0217 -0.4338
vn 0.9998 -0.0217 -0.0000
vn 0.9008 -0.0217 0.4338
vn 0.6233 -0.0217 0.7816
vn 0.2225 -0.0217 0.9747
vn -0.2225 -0.0217 0.9747
vn -0.6233 -0.0217 0.7816
vn -0.9008 -0.0217 0.4338
vn -0.9998 -0.0217 -0.0000
vn -0.9008 -0.0217 -0.4338
vn -0.0000 1.0000 -0.0000
vn -0.6233 -0.0217 -0.7816
vn -0.2225 -0.0217 -0.9747
vn -0.0000 -1.0000 -0.0000
vt 1.000000 0.500000
vt 1.000000 1.000000
vt 0.928571 1.000000
vt 0.928571 0.500000
vt 0.857143 1.000000
vt 0.857143 0.500000
vt 0.785714 1.000000
vt 0.785714 0.500000
vt 0.714286 1.000000
vt 0.714286 0.500000
vt 0.642857 1.000000
vt 0.642857 0.500000
vt 0.571428 1.000000
vt 0.571428 0.500000
vt 0.500000 1.000000
vt 0.500000 0.500000
vt 0.428571 1.000000
vt 0.428571 0.500000
vt 0.357143 1.000000
vt 0.357143 0.500000
vt 0.285714 1.000000
vt 0.285714 0.500000
vt 0.214286 1.000000
vt 0.214286 0.500000
vt 0.142857 1.000000
vt 0.142857 0.500000
vt 0.354132 0.466233
vt 0.250000 0.490000
vt 0.145868 0.466233
vt 0.062360 0.399638
vt 0.016017 0.303405
vt 0.016017 0.196595
vt 0.062360 0.100362
vt 0.145868 0.033767
vt 0.250000 0.010000
vt 0.354132 0.033767
vt 0.437640 0.100362
vt 0.483983 0.196595
vt 0.483983 0.303405
vt 0.437640 0.399638
vt 0.071428 1.000000
vt 0.071428 0.500000
vt -0.000000 1.000000
vt -0.000000 0.500000
vt 0.750000 0.490000
vt 0.854132 0.466233
vt 0.937640 0.399638
vt 0.983983 0.303405
vt 0.983983 0.196595
vt 0.937640 0.100362
vt 0.854132 0.033767
vt 0.750000 0.010000
vt 0.645868 0.033767
vt 0.562360 0.100362
vt 0.516017 0.196595
vt 0.516017 0.303405
vt 0.562360 0.399638
vt 0.645868 0.466233
s 0
usemtl Material.002
f 499/580/493 500/581/493 502/582/493 501/583/493
f 501/583/494 502/582/494 504/584/494 503/585/494
f 503/585/495 504/584/495 506/586/495 505/587/495
f 505/587/496 506/586/496 508/588/496 507/589/496
f 507/589/497 508/588/497 510/590/497 509/591/497
f 509/591/498 510/590/498 512/592/498 511/593/498
f 511/593/499 512/592/499 514/594/499 513/595/499
f 513/595/500 514/594/500 516/596/500 515/597/500
f 515/597/501 516/596/501 518/598/501 517/599/501
f 517/599/502 518/598/502 520/600/502 519/601/502
f 519/601/503 520/600/503 522/602/503 521/603/503
f 521/603/504 522/602/504 524/604/504 523/605/504
f 502/606/505 500/607/505 526/608/505 524/609/505 522/610/505 520/611/505 518/612/505 516/613/505 514/614/505 512/615/505 510/616/505 508/617/505 506/618/505 504/619/505
f 523/605/506 524/604/506 526/620/506 525/621/506
f 525/621/507 526/620/507 500/622/507 499/623/507
f 499/624/508 501/625/508 503/626/508 505/627/508 507/628/508 509/629/508 511/630/508 513/631/508 515/632/508 517/633/508 519/634/508 521/635/508 523/636/508 525/637/508
o Cylinder.004
v -0.438147 -0.004096 1.240939
v -0.438147 1.081452 1.216724
v -0.422621 -0.004096 1.244483
v -0.412114 1.081452 1.222666
v -0.410170 -0.004096 1.254412
v -0.391237 1.081452 1.239314
v -0.403260 -0.004096 1.268761
v -0.379652 1.081452 1.263372
v -0.403260 -0.004096 1.284687
v -0.379652 1.081452 1.290075
v -0.410170 -0.004096 1.299035
v -0.391237 1.081452 1.314133
v -0.422621 -0.004096 1.308965
v -0.412114 1.081452 1.330782
v -0.438147 -0.004096 1.312508
v -0.438147 1.081452 1.336724
v -0.453674 -0.004096 1.308965
v -0.464180 1.081452 1.330782
v -0.466125 -0.004096 1.299035
v -0.485057 1.081452 1.314133
v -0.473035 -0.004096 1.284687
v -0.496643 1.081452 1.290075
v -0.473035 -0.004096 1.268761
v -0.496643 1.081452 1.263372
v -0.466125 -0.004096 1.254412
v -0.485057 1.081452 1.239314
v -0.453674 -0.004096 1.244483
v -0.464180 1.081452 1.222666
vn 0.2225 -0.0217 -0.9747
vn 0.6233 -0.0217 -0.7816
vn 0.9008 -0.0217 -0.4338
vn 0.9998 -0.0217 -0.0000
vn 0.9008 -0.0217 0.4338
vn 0.6233 -0.0217 0.7816
vn 0.2225 -0.0217 0.9747
vn -0.2225 -0.0217 0.9747
vn -0.6233 -0.0217 0.7816
vn -0.9008 -0.0217 0.4338
vn -0.9998 -0.0217 -0.0000
vn -0.9008 -0.0217 -0.4338
vn -0.0000 1.0000 -0.0000
vn -0.6233 -0.0217 -0.7816
vn -0.2225 -0.0217 -0.9747
vn -0.0000 -1.0000 -0.0000
vt 1.000000 0.500000
vt 1.000000 1.000000
vt 0.928571 1.000000
vt 0.928571 0.500000
vt 0.857143 1.000000
vt 0.857143 0.500000
vt 0.785714 1.000000
vt 0.785714 0.500000
vt 0.714286 1.000000
vt 0.714286 0.500000
vt 0.642857 1.000000
vt 0.642857 0.500000
vt 0.571428 1.000000
vt 0.571428 0.500000
vt 0.500000 1.000000
vt 0.500000 0.500000
vt 0.428571 1.000000
vt 0.428571 0.500000
vt 0.357143 1.000000
vt 0.357143 0.500000
vt 0.285714 1.000000
vt 0.285714 0.500000
vt 0.214286 1.000000
vt 0.214286 0.500000
vt 0.142857 1.000000
vt 0.142857 0.500000
vt 0.354132 0.466233
vt 0.250000 0.490000
vt 0.145868 0.466233
vt 0.062360 0.399638
vt 0.016017 0.303405
vt 0.016017 0.196595
vt 0.062360 0.100362
vt 0.145868 0.033767
vt 0.250000 0.010000
vt 0.354132 0.033767
vt 0.437640 0.100362
vt 0.483983 0.196595
vt 0.483983 0.303405
vt 0.437640 0.399638
vt 0.071428 1.000000
vt 0.071428 0.500000
vt -0.000000 1.000000
vt -0.000000 0.500000
vt 0.750000 0.490000
vt 0.854132 0.466233
vt 0.937640 0.399638
vt 0.983983 0.303405
vt 0.983983 0.196595
vt 0.937640 0.100362
vt 0.854132 0.033767
vt 0.750000 0.010000
vt 0.645868 0.033767
vt 0.562360 0.100362
vt 0.516017 0.196595
vt 0.516017 0.303405
vt 0.562360 0.399638
vt 0.645868 0.466233
s 0
usemtl Material.004
f 527/638/509 528/639/509 530/640/509 529/641/509
f 529/641/510 530/640/510 532/642/510 531/643/510
f 531/643/511 532/642/511 534/644/511 533/645/511
f 533/645/512 534/644/512 536/646/512 535/647/512
f 535/647/513 536/646/513 538/648/513 537/649/513
f 537/649/514 538/648/514 540/650/514 539/651/514
f 539/651/515 540/650/515 542/652/515 541/653/515
f 541/653/516 542/652/516 544/654/516 543/655/516
f 543/655/517 544/654/517 546/656/517 545/657/517
f 545/657/518 546/656/518 548/658/518 547/659/518
f 547/659/519 548/658/519 550/660/519 549/661/519
f 549/661/520 550/660/520 552/662/520 551/663/520
f 530/664/521 528/665/521 554/666/521 552/667/521 550/668/521 548/669/521 546/670/521 544/671/521 542/672/521 540/673/521 538/674/521 536/675/521 534/676/521 532/677/521
f 551/663/522 552/662/522 554/678/522 553/679/522
f 553/679/523 554/678/523 528/680/523 527/681/523
f 527/682/524 529/683/524 531/684/524 533/685/524 535/686/524 537/687/524 539/688/524 541/689/524 543/690/524 545/691/524 547/692/524 549/693/524 551/694/524 553/695/524
o Cylinder.005
v -0.438147 -0.004096 -1.289956
v -0.438147 1.081452 -1.314171
v -0.422621 -0.004096 -1.286412
v -0.412114 1.081452 -1.308229
v -0.410170 -0.004096 -1.276482
v -0.391237 1.081452 -1.291580
v -0.403260 -0.004096 -1.262134
v -0.379652 1.081452 -1.267522
v -0.403260 -0.004096 -1.246208
v -0.379652 1.081452 -1.240820
v -0.410170 -0.004096 -1.231860
v -0.391237 1.081452 -1.216762
v -0.422621 -0.004096 -1.221930
v -0.412114 1.081452 -1.200113
v -0.438147 -0.004096 -1.218386
v -0.438147 1.081452 -1.194171
v -0.453674 -0.004096 -1.221930
v -0.464180 1.081452 -1.200113
v -0.466125 -0.004096 -1.231860
v -0.485057 1.081452 -1.216762
v -0.473035 -0.004096 -1.246208
v -0.496643 1.081452 -1.240820
v -0.473035 -0.004096 -1.262134
v -0.496643 1.081452 -1.267522
v -0.466125 -0.004096 -1.276482
v -0.485057 1.081452 -1.291580
v -0.453674 -0.004096 -1.286412
v -0.464180 1.081452 -1.308229
vn 0.2225 -0.0217 -0.9747
vn 0.6233 -0.0217 -0.7816
vn 0.9008 -0.0217 -0.4338
vn 0.9998 -0.0217 -0.0000
vn 0.9008 -0.0217 0.4338
vn 0.6233 -0.0217 0.7816
vn 0.2225 -0.0217 0.9747
vn -0.2225 -0.0217 0.9747
vn -0.6233 -0.0217 0.7816
vn -0.9008 -0.0217 0.4338
vn -0.9998 -0.0217 -0.0000
vn -0.9008 -0.0217 -0.4338
vn -0.0000 1.0000 -0.0000
vn -0.6233 -0.0217 -0.7816
vn -0.2225 -0.0217 -0.9747
vn -0.0000 -1.0000 -0.0000
vt 1.000000 0.500000
vt 1.000000 1.000000
vt 0.928571 1.000000
vt 0.928571 0.500000
vt 0.857143 1.000000
vt 0.857143 0.500000
vt 0.785714 1.000000
vt 0.785714 0.500000
vt 0.714286 1.000000
vt 0.714286 0.500000
vt 0.642857 1.000000
vt 0.642857 0.500000
vt 0.571428 1.000000
vt 0.571428 0.500000
vt 0.500000 1.000000
vt 0.500000 0.500000
vt 0.428571 1.000000
vt 0.428571 0.500000
vt 0.357143 1.000000
vt 0.357143 0.500000
vt 0.285714 1.000000
vt 0.285714 0.500000
vt 0.214286 1.000000
vt 0.214286 0.500000
vt 0.142857 1.000000
vt 0.142857 0.500000
vt 0.354132 0.466233
vt 0.250000 0.490000
vt 0.145868 0.466233
vt 0.062360 0.399638
vt 0.016017 0.303405
vt 0.016017 0.196595
vt 0.062360 0.100362
vt 0.145868 0.033767
vt 0.250000 0.010000
vt 0.354132 0.033767
vt 0.437640 0.100362
vt 0.483983 0.196595
vt 0.483983 0.303405
vt 0.437640 0.399638
vt 0.071428 1.000000
vt 0.071428 0.500000
vt -0.000000 1.000000
vt -0.000000 0.500000
vt 0.750000 0.490000
vt 0.854132 0.466233
vt 0.937640 0.399638
vt 0.983983 0.303405
vt 0.983983 0.196595
vt 0.937640 0.100362
vt 0.854132 0.033767
vt 0.750000 0.010000
vt 0.645868 0.033767
vt 0.562360 0.100362
vt 0.516017 0.196595
vt 0.516017 0.303405
vt 0.562360 0.399638
vt 0.645868 0.466233
s 0
usemtl Material.005
f 555/696/525 556/697/525 558/698/525 557/699/525
f 557/699/526 558/698/526 560/700/526 559/701/526
f 559/701/527 560/700/527 562/702/527 561/703/527
f 561/703/528 562/702/528 564/704/528 563/705/528
f 563/705/529 564/704/529 566/706/529 565/707/529
f 565/707/530 566/706/530 568/708/530 567/709/530
f 567/709/531 568/708/531 570/710/531 569/711/531
f 569/711/532 570/710/532 572/712/532 571/713/532
f 571/713/533 572/712/533 574/714/533 573/715/533
f 573/715/534 574/714/534 576/716/534 575/717/534
f 575/717/535 576/716/535 578/718/535 577/719/535
f 577/719/536 578/718/536 580/720/536 579/721/536
f 558/722/537 556/723/537 582/724/537 580/725/537 578/726/537 576/727/537 574/728/537 572/729/537 570/730/537 568/731/537 566/732/537 564/733/537 562/734/537 560/735/537
f 579/721/538 580/720/538 582/736/538 581/737/538
f 581/737/539 582/736/539 556/738/539 555/739/539
f 555/740/540 557/741/540 559/742/540 561/743/540 563/744/540 565/745/540 567/746/540 569/747/540 571/748/540 573/749/540 575/750/540 577/751/540 579/752/540 581/753/540
o Cylinder.006
v 0.448915 -0.004096 -1.289956
v 0.448915 1.081452 -1.314171
v 0.464441 -0.004096 -1.286412
v 0.474948 1.081452 -1.308229
v 0.476892 -0.004096 -1.276482
v 0.495825 1.081452 -1.291580
v 0.483802 -0.004096 -1.262134
v 0.507410 1.081452 -1.267522
v 0.483802 -0.004096 -1.246208
v 0.507410 1.081452 -1.240820
v 0.476892 -0.004096 -1.231860
v 0.495825 1.081452 -1.216762
v 0.464441 -0.004096 -1.221930
v 0.474948 1.081452 -1.200113
v 0.448915 -0.004096 -1.218386
v 0.448915 1.081452 -1.194171
v 0.433388 -0.004096 -1.221930
v 0.422882 1.081452 -1.200113
v 0.420937 -0.004096 -1.231860
v 0.402005 1.081452 -1.216762
v 0.414027 -0.004096 -1.246208
v 0.390419 1.081452 -1.240820
v 0.414027 -0.004096 -1.262134
v 0.390419 1.081452 -1.267522
v 0.420937 -0.004096 -1.276482
v 0.402005 1.081452 -1.291580
v 0.433388 -0.004096 -1.286412
v 0.422882 1.081452 -1.308229
vn 0.2225 -0.0217 -0.9747
vn 0.6233 -0.0217 -0.7816
vn 0.9008 -0.0217 -0.4338
vn 0.9998 -0.0217 -0.0000
vn 0.9008 -0.0217 0.4338
vn 0.6233 -0.0217 0.7816
vn 0.2225 -0.0217 0.9747
vn -0.2225 -0.0217 0.9747
vn -0.6233 -0.0217 0.7816
vn -0.9008 -0.0217 0.4338
vn -0.9998 -0.0217 -0.0000
vn -0.9008 -0.0217 -0.4338
vn -0.0000 1.0000 -0.0000
vn -0.6233 -0.0217 -0.7816
vn -0.2225 -0.0217 -0.9747
vn -0.0000 -1.0000 -0.0000
vt 1.000000 0.500000
vt 1.000000 1.000000
vt 0.928571 1.000000
vt 0.928571 0.500000
vt 0.857143 1.000000
vt 0.857143 0.500000
vt 0.785714 1.000000
vt 0.785714 0.500000
vt 0.714286 1.000000
vt 0.714286 0.500000
vt 0.642857 1.000000
vt 0.642857 0.500000
vt 0.571428 1.000000
vt 0.571428 0.500000
vt 0.500000 1.000000
vt 0.500000 0.500000
vt 0.428571 1.000000
vt 0.428571 0.500000
vt 0.357143 1.000000
vt 0.357143 0.500000
vt 0.285714 1.000000
vt 0.285714 0.500000
vt 0.214286 1.000000
vt 0.214286 0.500000
vt 0.142857 1.000000
vt 0.142857 0.500000
vt 0.354132 0.466233
vt 0.250000 0.490000
vt 0.145868 0.466233
vt 0.062360 0.399638
vt 0.016017 0.303405
vt 0.016017 0.196595
vt 0.062360 0.100362
vt 0.145868 0.033767
vt 0.250000 0.010000
vt 0.354132 0.033767
vt 0.437640 0.100362
vt 0.483983 0.196595
vt 0.483983 0.303405
vt 0.437640 0.399638
vt 0.071428 1.000000
vt 0.071428 0.500000
vt -0.000000 1.000000
vt -0.000000 0.500000
vt 0.750000 0.490000
vt 0.854132 0.466233
vt 0.937640 0.399638
vt 0.983983 0.303405
vt 0.983983 0.196595
vt 0.937640 0.100362
vt 0.854132 0.033767
vt 0.750000 0.010000
vt 0.645868 0.033767
vt 0.562360 0.100362
vt 0.516017 0.196595
vt 0.516017 0.303405
vt 0.562360 0.399638
vt 0.645868 0.466233
s 0
usemtl Material.003
f 583/754/541 584/755/541 586/756/541 585/757/541
f 585/757/542 586/756/542 588/758/542 587/759/542
f 587/759/543 588/758/543 590/760/543 589/761/543
f 589/761/544 590/760/544 592/762/544 591/763/544
f 591/763/545 592/762/545 594/764/545 593/765/545
f 593/765/546 594/764/546 596/766/546 595/767/546
f 595/767/547 596/766/547 598/768/547 597/769/547
f 597/769/548 598/768/548 600/770/548 599/771/548
f 599/771/549 600/770/549 602/772/549 601/773/549
f 601/773/550 602/772/550 604/774/550 603/775/550
f 603/775/551 604/774/551 606/776/551 605/777/551
f 605/777/552 606/776/552 608/778/552 607/779/552
f 586/780/553 584/781/553 610/782/553 608/783/553 606/784/553 604/785/553 602/786/553 600/787/553 598/788/553 596/789/553 594/790/553 592/791/553 590/792/553 588/793/553
f 607/779/554 608/778/554 610/794/554 609/795/554
f 609/795/555 610/794/555 584/796/555 583/797/555
f 583/798/556 585/799/556 587/800/556 589/801/556 591/802/556 593/803/556 595/804/556 597/805/556 599/806/556 601/807/556 603/808/556 605/809/556 607/810/556 609/811/556
