# Blender 5.2.0 LTS
# www.blender.org
mtllib Противник.mtl
o Cylinder
v 0.000000 -0.020500 -0.014000
v 0.000000 0.020500 0.000000
v 0.012124 -0.020500 0.007000
v -0.012124 -0.020500 0.007000
v 0.000000 -0.014780 -0.014000
v 0.012124 -0.014780 0.007000
v -0.012124 -0.014780 0.007000
v 0.000000 -0.010029 -0.004763
v 0.004125 -0.010029 0.002382
v -0.004125 -0.010029 0.002382
v 0.000000 0.008236 -0.014000
v 0.012124 0.008236 0.007000
v -0.012124 0.008236 0.007000
vn 0.7521 0.4957 -0.4342
vn -0.0000 0.4957 0.8685
vn -0.7521 0.4957 -0.4342
vn -0.0000 -1.0000 -0.0000
vn -0.8660 -0.0000 -0.5000
vn -0.0000 -0.0000 1.0000
vn 0.8660 -0.0000 -0.5000
vn -0.6210 0.6970 -0.3585
vn -0.0000 0.6970 0.7171
vn 0.6210 0.6970 -0.3585
vn -0.8396 -0.2451 -0.4847
vn -0.0000 -0.2451 0.9695
vn 0.8396 -0.2451 -0.4847
vt 1.000000 0.850439
vt 0.666667 1.000000
vt 0.666667 0.850439
vt 0.333333 1.000000
vt 0.333333 0.850439
vt -0.000000 1.000000
vt -0.000000 0.850439
vt 0.750000 0.490000
vt 0.957846 0.130000
vt 0.542154 0.130000
vt 0.333333 0.500000
vt 0.333333 0.569751
vt -0.000000 0.569751
vt -0.000000 0.500000
vt 0.666667 0.500000
vt 0.666667 0.569751
vt 1.000000 0.500000
vt 1.000000 0.569751
vt 0.333333 0.627694
vt -0.000000 0.627693
vt 0.666667 0.627693
vt 1.000000 0.627693
s 0
usemtl Material.003
f 11/1/1 2/2/1 12/3/1
f 12/3/2 2/4/2 13/5/2
f 13/5/3 2/6/3 11/7/3
f 1/8/4 3/9/4 4/10/4
f 4/11/5 7/12/5 5/13/5 1/14/5
f 3/15/6 6/16/6 7/12/6 4/11/6
f 1/17/7 5/18/7 6/16/7 3/15/7
f 7/12/8 10/19/8 8/20/8 5/13/8
f 6/16/9 9/21/9 10/19/9 7/12/9
f 5/18/10 8/22/10 9/21/10 6/16/10
f 10/19/11 13/5/11 11/7/11 8/20/11
f 9/21/12 12/3/12 13/5/12 10/19/12
f 8/22/13 11/1/13 12/3/13 9/21/13
