# Blender 5.2.0 LTS
# www.blender.org
mtllib room.mtl
o floor
v -5.000000 0.000000 5.000000
v 5.000000 0.000000 5.000000
v -5.000000 0.000000 -5.000000
v 5.000000 0.000000 -5.000000
vn -0.0000 1.0000 -0.0000
vt 0.000000 0.000000
vt 1.000000 0.000000
vt 1.000000 1.000000
vt 0.000000 1.000000
s 0
usemtl Material.001
f 1/1/1 2/2/1 4/3/1 3/4/1
o Cube.002
v -0.046073 1.717510 -0.596866
v -0.046073 1.827510 -0.596866
v -0.046073 1.717510 -0.706866
v -0.046073 1.827510 -0.706866
v 0.063927 1.717510 -0.596866
v 0.063927 1.827510 -0.596866
v 0.063927 1.717510 -0.706866
v 0.063927 1.827510 -0.706866
vn -1.0000 -0.0000 -0.0000
vn -0.0000 -0.0000 -1.0000
vn 1.0000 -0.0000 -0.0000
vn -0.0000 -0.0000 1.0000
vn -0.0000 -1.0000 -0.0000
vn -0.0000 1.0000 -0.0000
vt 0.375000 0.000000
vt 0.625000 0.000000
vt 0.625000 0.250000
vt 0.375000 0.250000
vt 0.625000 0.500000
vt 0.375000 0.500000
vt 0.625000 0.750000
vt 0.375000 0.750000
vt 0.625000 1.000000
vt 0.375000 1.000000
vt 0.125000 0.500000
vt 0.125000 0.750000
vt 0.875000 0.500000
vt 0.875000 0.750000
s 0
f 5/5/2 6/6/2 8/7/2 7/8/2
f 7/8/3 8/7/3 12/9/3 11/10/3
f 11/10/4 12/9/4 10/11/4 9/12/4
f 9/12/5 10/11/5 6/13/5 5/14/5
f 7/15/6 11/10/6 9/12/6 5/16/6
f 12/9/7 8/17/7 6/18/7 10/11/7
o Cube.003
v -0.046073 1.717510 2.055000
v -0.046073 1.827510 2.055000
v -0.046073 1.717510 1.945000
v -0.046073 1.827510 1.945000
v 0.063927 1.717510 2.055000
v 0.063927 1.827510 2.055000
v 0.063927 1.717510 1.945000
v 0.063927 1.827510 1.945000
vn -1.0000 -0.0000 -0.0000
vn -0.0000 -0.0000 -1.0000
vn 1.0000 -0.0000 -0.0000
vn -0.0000 -0.0000 1.0000
vn -0.0000 -1.0000 -0.0000
vn -0.0000 1.0000 -0.0000
vt 0.375000 0.000000
vt 0.625000 0.000000
vt 0.625000 0.250000
vt 0.375000 0.250000
vt 0.625000 0.500000
vt 0.375000 0.500000
vt 0.625000 0.750000
vt 0.375000 0.750000
vt 0.625000 1.000000
vt 0.375000 1.000000
vt 0.125000 0.500000
vt 0.125000 0.750000
vt 0.875000 0.500000
vt 0.875000 0.750000
s 0
f 13/19/8 14/20/8 16/21/8 15/22/8
f 15/22/9 16/21/9 20/23/9 19/24/9
f 19/24/10 20/23/10 18/25/10 17/26/10
f 17/26/11 18/25/11 14/27/11 13/28/11
f 15/29/12 19/24/12 17/26/12 13/30/12
f 20/23/13 16/31/13 14/32/13 18/25/13
o Cube.004
v 2.445000 1.717510 2.055000
v 2.445000 1.827510 2.055000
v 2.445000 1.717510 1.945000
v 2.445000 1.827510 1.945000
v 2.555000 1.717510 2.055000
v 2.555000 1.827510 2.055000
v 2.555000 1.717510 1.945000
v 2.555000 1.827510 1.945000
vn -1.0000 -0.0000 -0.0000
vn -0.0000 -0.0000 -1.0000
vn 1.0000 -0.0000 -0.0000
vn -0.0000 -0.0000 1.0000
vn -0.0000 -1.0000 -0.0000
vn -0.0000 1.0000 -0.0000
vt 0.375000 0.000000
vt 0.625000 0.000000
vt 0.625000 0.250000
vt 0.375000 0.250000
vt 0.625000 0.500000
vt 0.375000 0.500000
vt 0.625000 0.750000
vt 0.375000 0.750000
vt 0.625000 1.000000
vt 0.375000 1.000000
vt 0.125000 0.500000
vt 0.125000 0.750000
vt 0.875000 0.500000
vt 0.875000 0.750000
s 0
f 21/33/14 22/34/14 24/35/14 23/36/14
f 23/36/15 24/35/15 28/37/15 27/38/15
f 27/38/16 28/37/16 26/39/16 25/40/16
f 25/40/17 26/39/17 22/41/17 21/42/17
f 23/43/18 27/38/18 25/40/18 21/44/18
f 28/37/19 24/45/19 22/46/19 26/39/19
o Cube.005
v -2.555000 1.717510 -2.445000
v -2.555000 1.827510 -2.445000
v -2.555000 1.717510 -2.555000
v -2.555000 1.827510 -2.555000
v -2.445000 1.717510 -2.445000
v -2.445000 1.827510 -2.445000
v -2.445000 1.717510 -2.555000
v -2.445000 1.827510 -2.555000
vn -1.0000 -0.0000 -0.0000
vn -0.0000 -0.0000 -1.0000
vn 1.0000 -0.0000 -0.0000
vn -0.0000 -0.0000 1.0000
vn -0.0000 -1.0000 -0.0000
vn -0.0000 1.0000 -0.0000
vt 0.375000 0.000000
vt 0.625000 0.000000
vt 0.625000 0.250000
vt 0.375000 0.250000
vt 0.625000 0.500000
vt 0.375000 0.500000
vt 0.625000 0.750000
vt 0.375000 0.750000
vt 0.625000 1.000000
vt 0.375000 1.000000
vt 0.125000 0.500000
vt 0.125000 0.750000
vt 0.875000 0.500000
vt 0.875000 0.750000
s 0
f 29/47/20 30/48/20 32/49/20 31/50/20
f 31/50/21 32/49/21 36/51/21 35/52/21
f 35/52/22 36/51/22 34/53/22 33/54/22
f 33/54/23 34/53/23 30/55/23 29/56/23
f 31/57/24 35/52/24 33/54/24 29/58/24
f 36/51/25 32/59/25 30/60/25 34/53/25
o Cube.006
v -2.555000 1.717510 2.055000
v -2.555000 1.827510 2.055000
v -2.555000 1.717510 1.945000
v -2.555000 1.827510 1.945000
v -2.445000 1.717510 2.055000
v -2.445000 1.827510 2.055000
v -2.445000 1.717510 1.945000
v -2.445000 1.827510 1.945000
vn -1.0000 -0.0000 -0.0000
vn -0.0000 -0.0000 -1.0000
vn 1.0000 -0.0000 -0.0000
vn -0.0000 -0.0000 1.0000
vn -0.0000 -1.0000 -0.0000
vn -0.0000 1.0000 -0.0000
vt 0.375000 0.000000
vt 0.625000 0.000000
vt 0.625000 0.250000
vt 0.375000 0.250000
vt 0.625000 0.500000
vt 0.375000 0.500000
vt 0.625000 0.750000
vt 0.375000 0.750000
vt 0.625000 1.000000
vt 0.375000 1.000000
vt 0.125000 0.500000
vt 0.125000 0.750000
vt 0.875000 0.500000
vt 0.875000 0.750000
s 0
f 37/61/26 38/62/26 40/63/26 39/64/26
f 39/64/27 40/63/27 44/65/27 43/66/27
f 43/66/28 44/65/28 42/67/28 41/68/28
f 41/68/29 42/67/29 38/69/29 37/70/29
f 39/71/30 43/66/30 41/68/30 37/72/30
f 44/65/31 40/73/31 38/74/31 42/67/31
o Cube.007
v 2.445000 1.717510 -2.445000
v 2.445000 1.827510 -2.445000
v 2.445000 1.717510 -2.555000
v 2.445000 1.827510 -2.555000
v 2.555000 1.717510 -2.445000
v 2.555000 1.827510 -2.445000
v 2.555000 1.717510 -2.555000
v 2.555000 1.827510 -2.555000
vn -1.0000 -0.0000 -0.0000
vn -0.0000 -0.0000 -1.0000
vn 1.0000 -0.0000 -0.0000
vn -0.0000 -0.0000 1.0000
vn -0.0000 -1.0000 -0.0000
vn -0.0000 1.0000 -0.0000
vt 0.375000 0.000000
vt 0.625000 0.000000
vt 0.625000 0.250000
vt 0.375000 0.250000
vt 0.625000 0.500000
vt 0.375000 0.500000
vt 0.625000 0.750000
vt 0.375000 0.750000
vt 0.625000 1.000000
vt 0.375000 1.000000
vt 0.125000 0.500000
vt 0.125000 0.750000
vt 0.875000 0.500000
vt 0.875000 0.750000
s 0
f 45/75/32 46/76/32 48/77/32 47/78/32
f 47/78/33 48/77/33 52/79/33 51/80/33
f 51/80/34 52/79/34 50/81/34 49/82/34
f 49/82/35 50/81/35 46/83/35 45/84/35
f 47/85/36 51/80/36 49/82/36 45/86/36
f 52/79/37 48/87/37 46/88/37 50/81/37
o wall.003
v -4.988230 0.000000 5.000000
v -4.988231 0.000000 -5.000000
v -4.988230 2.500000 5.000000
v -4.988230 2.500000 -5.000000
v -4.988230 0.000000 -2.110830
v -4.988230 2.500000 -2.110830
v -4.988230 0.016090 -3.016450
v -4.988230 2.500000 -3.016450
v -4.988230 2.093352 5.000000
v -4.988230 2.093352 -5.000000
v -4.988230 2.100000 -2.110830
v -4.988230 2.100000 -3.016450
v -5.108230 0.000000 5.000000
v -5.108231 0.000000 -5.000000
v -5.108230 2.500000 5.000000
v -5.108231 2.500000 -5.000000
v -5.108230 0.000000 -2.110830
v -5.108230 2.500000 -2.110830
v -5.108231 0.016090 -3.016450
v -5.108230 2.500000 -3.016450
v -5.108230 2.093352 5.000000
v -5.108231 2.093352 -5.000000
v -5.108230 2.100000 -2.110830
v -5.108230 2.100000 -3.016450
v -4.988231 0.000000 -5.000000
v 5.011770 0.000000 -5.000000
v -4.988230 2.500000 -5.000000
v 5.011770 2.500000 -5.000000
v -4.988230 2.500000 5.000000
v 5.011770 2.500000 5.000000
v -4.988231 0.000000 5.000000
v 5.011770 0.000000 5.000000
v 5.131626 0.000000 5.000000
v 5.131626 0.000000 -5.000000
v 5.131626 2.500000 5.000000
v 5.131626 2.500000 -5.000000
v 5.131626 0.808972 5.000000
v 5.131626 0.808972 -5.000000
v 5.131626 0.000000 4.544147
v 5.131626 2.500000 4.544147
v 5.131626 0.808972 4.544147
v 5.131626 0.000000 1.864008
v 5.131626 2.500000 1.864008
v 5.131626 0.808972 1.864008
v 5.131626 1.961963 -5.000000
v 5.131626 1.961963 5.000000
v 5.131626 1.961963 4.544147
v 5.131626 1.961963 1.864008
v 5.011626 0.000000 5.000000
v 5.011626 0.000000 -5.000000
v 5.011626 2.500000 5.000000
v 5.011626 2.500000 -5.000000
v 5.011626 0.808972 5.000000
v 5.011626 0.808972 -5.000000
v 5.011626 0.000000 4.544147
v 5.011626 2.500000 4.544147
v 5.011626 0.808972 4.544147
v 5.011626 0.000000 1.864008
v 5.011626 2.500000 1.864008
v 5.011626 0.808972 1.864008
v 5.011626 1.961963 -5.000000
v 5.011626 1.961963 5.000000
v 5.011626 1.961963 4.544147
v 5.011626 1.961963 1.864008
vn 1.0000 -0.0000 -0.0000
vn -1.0000 -0.0000 -0.0000
vn -0.0000 -0.0000 1.0000
vn -0.0000 -1.0000 0.0081
vn -0.0000 -0.0000 -1.0000
vn -0.0000 1.0000 -0.0000
vn -0.0000 -1.0000 -0.0000
vt 0.710000 0.049589
vt 0.709335 0.000000
vt 0.750000 0.000000
vt 0.750000 0.049589
vt 0.709335 0.250000
vt 0.710000 0.072229
vt 0.750000 0.072229
vt 0.750000 0.250000
vt 0.500000 0.250000
vt 0.500000 0.072229
vt 0.501609 0.049589
vt 0.500000 0.000000
vt 0.710000 0.450411
vt 0.750000 0.450411
vt 0.750000 0.500000
vt 0.709335 0.500000
vt 0.709335 0.250000
vt 0.750000 0.250000
vt 0.750000 0.427771
vt 0.710000 0.427771
vt 0.500000 0.250000
vt 0.500000 0.427771
vt 0.501609 0.450411
vt 0.500000 0.500000
vt 0.750000 0.500000
vt 0.750000 0.290665
vt 0.762000 0.290665
vt 0.762000 0.500000
vt 0.786000 0.750764
vt 0.786000 0.800360
vt 0.774000 0.800360
vt 0.774000 0.750764
vt 0.750000 0.750000
vt 0.750000 0.709335
vt 0.762000 0.709335
vt 0.762000 0.750000
vt 0.762000 0.000000
vt 0.762000 0.177771
vt 0.750000 0.177771
vt 0.750000 0.000000
vt 0.786000 0.208391
vt 0.786000 0.386160
vt 0.774000 0.386160
vt 0.774000 0.208391
vt 0.762000 0.200411
vt 0.750000 0.200411
vt 0.762000 0.250000
vt 0.750000 0.250000
vt 0.750000 0.250000
vt 0.762000 0.250000
vt 0.774000 0.749997
vt 0.774000 0.959997
vt 0.762000 0.959997
vt 0.762000 0.749997
vt 0.774000 0.000000
vt 0.786000 0.000000
vt 0.786000 0.208391
vt 0.774000 0.823000
vt 0.786000 0.823000
vt 0.250000 1.000000
vt 0.250000 -0.000000
vt 0.500000 -0.000000
vt 0.500000 1.000000
vt -0.000000 1.000000
vt 0.000000 0.000000
vt 0.250000 0.000000
vt 0.250000 1.000000
vt 0.696196 0.671600
vt 0.696196 0.500000
vt 0.750000 0.500000
vt 0.750000 0.671600
vt 0.500000 0.671600
vt 0.580897 0.500000
vt 0.580897 0.671600
vt 0.500000 0.750000
vt 0.500000 0.738604
vt 0.580897 0.738604
vt 0.580897 0.750000
vt 0.696196 0.750000
vt 0.696196 0.738604
vt 0.750000 0.738604
vt 0.750000 0.750000
vt 0.774000 0.386160
vt 0.786000 0.386160
vt 0.786000 0.501459
vt 0.774000 0.501459
vt 0.696196 0.828400
vt 0.750000 0.828400
vt 0.750000 1.000000
vt 0.696196 1.000000
vt 0.500000 0.828400
vt 0.580897 0.828400
vt 0.580897 1.000000
vt 0.500000 1.000000
vt 0.500000 0.750000
vt 0.580897 0.750000
vt 0.580897 0.761396
vt 0.500000 0.761396
vt 0.696196 0.750000
vt 0.750000 0.750000
vt 0.750000 0.761396
vt 0.696196 0.761396
vt 0.774000 0.683761
vt 0.774000 0.616758
vt 0.786000 0.616758
vt 0.786000 0.683761
vt 0.750000 1.000000
vt 0.750000 0.919103
vt 0.762000 0.919103
vt 0.762000 1.000000
vt 0.762000 0.749997
vt 0.762000 0.578399
vt 0.774000 0.578399
vt 0.774000 0.749997
vt 0.762000 0.250000
vt 0.762000 0.196196
vt 0.774000 0.196196
vt 0.774000 0.250000
vt 0.762000 0.500000
vt 0.762000 0.488604
vt 0.774000 0.488604
vt 0.774000 0.500000
vt 0.750000 0.803804
vt 0.762000 0.803804
vt 0.762000 0.080897
vt 0.762000 -0.000000
vt 0.774000 -0.000000
vt 0.774000 0.080897
vt 0.762000 0.511396
vt 0.774000 0.511396
vt 0.762000 0.421600
vt 0.774000 0.421600
vt 0.762000 0.250000
vt 0.774000 0.250000
vt 0.750000 0.750000
vt 0.762000 0.750000
vt 0.774000 0.616758
vt 0.774000 0.501459
vt 0.786000 0.501459
vt 0.786000 0.616758
vt 0.786000 0.750764
vt 0.774000 0.750764
s 0
usemtl Material.003
f 64/89/38 62/90/38 56/91/38 60/92/38
f 61/93/38 63/94/38 58/95/38 55/96/38
f 63/94/38 64/89/38 60/92/38 58/95/38
f 53/97/38 57/98/38 63/94/38 61/93/38
f 59/99/38 54/100/38 62/90/38 64/89/38
f 76/101/39 72/102/39 68/103/39 74/104/39
f 73/105/39 67/106/39 70/107/39 75/108/39
f 75/108/39 70/107/39 72/102/39 76/101/39
f 65/109/39 73/105/39 75/108/39 69/110/39
f 71/111/39 76/101/39 74/104/39 66/112/39
f 53/113/40 61/114/40 73/115/40 65/116/40
f 54/117/41 59/118/41 71/119/41 66/120/41
f 56/121/42 62/122/42 74/123/42 68/124/42
f 55/125/43 58/126/43 70/127/43 67/128/43
f 57/129/44 53/130/44 65/131/44 69/132/44
f 58/126/43 60/133/43 72/134/43 70/127/43
f 60/133/43 56/135/43 68/136/43 72/134/43
f 61/114/40 55/137/40 67/138/40 73/115/40
f 62/122/42 54/113/42 66/116/42 74/123/42
f 63/139/42 57/140/42 69/141/42 75/142/42
f 59/132/40 64/143/40 76/144/40 71/145/40
f 64/146/44 63/119/44 75/118/44 76/147/44
f 100/171/40 116/172/40 112/173/40 96/174/40
f 116/175/39 111/176/39 104/177/39 113/178/39
f 110/179/39 112/180/39 106/181/39 102/182/39
f 101/183/39 105/184/39 109/185/39 107/186/39
f 114/187/39 103/188/39 108/189/39 115/190/39
f 107/186/39 109/185/39 112/180/39 110/179/39
f 115/190/39 108/189/39 111/176/39 116/175/39
f 93/191/43 96/192/43 112/193/43 109/194/43
f 105/184/39 114/187/39 115/190/39 109/185/39
f 112/180/39 116/175/39 113/178/39 106/181/39
f 99/225/42 93/226/42 109/227/42 115/228/42
f 99/191/44 115/194/44 116/229/44 100/230/44
usemtl Material.004
f 77/148/40 78/149/40 80/150/40 79/151/40
f 81/152/42 82/153/42 84/154/42 83/155/42
f 100/156/38 97/157/38 88/158/38 95/159/38
f 94/160/38 86/112/38 90/161/38 96/162/38
f 85/163/38 91/164/38 93/165/38 89/166/38
f 98/167/38 99/168/38 92/169/38 87/170/38
f 91/164/38 94/160/38 96/162/38 93/165/38
f 99/168/38 100/156/38 95/159/38 92/169/38
f 89/166/38 93/165/38 99/168/38 98/167/38
f 96/162/38 90/161/38 97/157/38 100/156/38
f 85/195/40 89/196/40 105/197/40 101/198/40
f 86/199/44 94/200/44 110/201/44 102/202/44
f 88/203/42 97/204/42 113/205/42 104/206/42
f 87/207/43 92/208/43 108/209/43 103/210/43
f 89/196/40 98/211/40 114/212/40 105/197/40
f 90/213/42 86/214/42 102/215/42 106/216/42
f 91/217/44 85/207/44 101/210/44 107/218/44
f 92/208/43 95/219/43 111/220/43 108/209/43
f 94/200/44 91/217/44 107/218/44 110/201/44
f 95/219/43 88/221/43 104/222/43 111/220/43
f 97/204/42 90/213/42 106/216/42 113/205/42
f 98/211/40 87/223/40 103/224/40 114/212/40
o ceiling
v 5.057443 0.808652 4.543906
v 5.057443 1.962096 4.544682
v 5.057443 0.808404 1.864040
v 5.057443 1.963808 1.862168
vn -1.0000 -0.0000 -0.0000
vt 0.000000 0.000000
vt 1.000000 0.000000
vt 1.000000 1.000000
vt 0.000000 1.000000
s 0
usemtl Material
f 117/231/45 118/232/45 120/233/45 119/234/45
o window
v -5.000000 2.500000 -5.000000
v 5.000000 2.500000 -5.000000
v -5.000000 2.500000 5.000000
v 5.000000 2.500000 5.000000
vn -0.0000 -1.0000 -0.0000
vt 0.000000 0.000000
vt 1.000000 0.000000
vt 1.000000 1.000000
vt 0.000000 1.000000
s 0
usemtl Material.002
f 121/235/46 122/236/46 124/237/46 123/238/46
o Plane
v -4.534369 2.098990 -2.241441
v -4.538606 0.010090 -2.248780
v -4.986865 2.100008 -3.025185
v -4.983598 0.020197 -3.019528
v -4.577671 2.098990 -2.216441
v -4.581907 0.010090 -2.223780
v -5.030166 2.100008 -3.000185
v -5.026899 0.020197 -2.994528
vn 0.8660 -0.0000 -0.5000
vn -0.8660 -0.0000 0.5000
vn 0.0006 1.0000 0.0010
vn 0.5000 -0.0041 0.8660
vn -0.0057 -0.9999 -0.0098
vn -0.5000 -0.0031 -0.8660
vt 0.000000 0.000000
vt 1.000000 0.000000
vt 1.000000 1.000000
vt 0.000000 1.000000
s 0
f 125/239/47 126/240/47 128/241/47 127/242/47
f 129/239/48 131/242/48 132/241/48 130/240/48
f 125/239/49 127/242/49 131/242/49 129/239/49
f 126/240/50 125/239/50 129/239/50 130/240/50
f 128/241/51 126/240/51 130/240/51 132/241/51
f 127/242/52 128/241/52 132/241/52 131/242/52
