# Blender 5.2.0 LTS
# www.blender.org
mtllib chair.mtl
o Cube
v 0.359977 0.782825 0.368360
v 0.359977 0.818732 0.368360
v 0.292269 0.778891 -0.000000
v 0.360861 0.822666 0.006502
v 0.372415 0.800779 0.366913
v 0.000000 0.778891 0.357940
v 0.000000 0.822666 0.357940
v 0.378125 0.800779 -0.000000
v 0.000000 0.800779 0.369216
v 0.000000 0.770635 -0.000000
v 0.000000 0.825988 -0.000000
v -0.359977 0.782825 0.368360
v -0.359977 0.818732 0.368360
v -0.292269 0.778891 -0.000000
v -0.368293 0.820453 -0.000807
v -0.372415 0.800779 0.366913
v -0.378125 0.800779 -0.000000
v 0.359977 0.782825 -0.368360
v 0.359977 0.818732 -0.368360
v 0.372415 0.800779 -0.366913
v 0.000000 0.778891 -0.357940
v 0.000000 0.822666 -0.357940
v 0.000000 0.800779 -0.369216
v -0.359977 0.782825 -0.368360
v -0.359977 0.818732 -0.368360
v -0.372415 0.800779 -0.366913
v 0.335404 1.647273 0.271836
v 0.299497 1.647273 0.271836
v 0.345598 1.608641 -0.000000
v 0.301823 1.677233 0.006502
v 0.317451 1.659711 0.270388
v 0.345598 1.472279 0.357940
v 0.301823 1.472279 0.357940
v 0.323711 1.694497 -0.000000
v 0.323711 1.472279 0.369216
v 0.353855 1.472279 -0.000000
v 0.298501 1.472279 -0.000000
v 0.341664 1.112302 0.368360
v 0.305757 1.112302 0.368360
v 0.345598 1.180010 -0.000000
v 0.304037 1.103986 -0.000807
v 0.323711 1.099864 0.366913
v 0.323711 1.094154 -0.000000
v 0.339129 1.632455 -0.268020
v 0.303222 1.632455 -0.268020
v 0.321175 1.644893 -0.266572
v 0.345598 1.472279 -0.357940
v 0.301823 1.472279 -0.357940
v 0.323711 1.472279 -0.369216
v 0.341664 1.112302 -0.368360
v 0.305757 1.112302 -0.368360
v 0.323711 1.099864 -0.366913
v -0.297831 0.000496 0.275882
v -0.297831 0.811981 0.255468
v -0.281405 0.000496 0.283793
v -0.265444 0.811981 0.271064
v -0.277348 0.000496 0.301567
v -0.257445 0.811981 0.306111
v -0.288715 0.000496 0.315822
v -0.279858 0.811981 0.334215
v -0.306947 0.000496 0.315822
v -0.315805 0.811981 0.334215
v -0.318314 0.000496 0.301567
v -0.338218 0.811981 0.306111
v -0.314258 0.000496 0.283793
v -0.330218 0.811981 0.271064
v 0.295577 0.000496 0.271240
v 0.325959 1.132850 0.281082
v 0.312004 0.000496 0.279150
v 0.334691 1.132850 0.285287
v 0.316061 0.000496 0.296925
v 0.336847 1.132850 0.294735
v 0.304693 0.000496 0.311180
v 0.330805 1.132850 0.302312
v 0.286461 0.000496 0.311180
v 0.321113 1.132850 0.302312
v 0.275094 0.000496 0.296925
v 0.315071 1.132850 0.294735
v 0.279151 0.000496 0.279150
v 0.317227 1.132850 0.285287
v 0.295577 0.806765 0.256704
v 0.323368 0.806765 0.270088
v 0.330232 0.806765 0.300160
v 0.311000 0.806765 0.324276
v 0.280154 0.806765 0.324276
v 0.260923 0.806765 0.300160
v 0.267787 0.806765 0.270088
v 0.318382 0.000496 -0.313855
v 0.328834 1.134673 -0.302560
v 0.334809 0.000496 -0.305944
v 0.339178 1.134524 -0.297572
v 0.338865 0.000496 -0.288169
v 0.341727 1.134495 -0.286373
v 0.327498 0.000496 -0.273915
v 0.334563 1.134610 -0.277398
v 0.309266 0.000496 -0.273915
v 0.323080 1.134781 -0.277404
v 0.297899 0.000496 -0.288169
v 0.315925 1.134880 -0.286387
v 0.301956 0.000496 -0.305944
v 0.318486 1.134832 -0.297583
v 0.318382 0.798492 -0.327976
v 0.345849 0.798492 -0.314748
v 0.352633 0.798492 -0.285026
v 0.333625 0.798492 -0.261191
v 0.303139 0.798492 -0.261191
v 0.284131 0.798492 -0.285026
v 0.290915 0.798492 -0.314748
v -0.300234 0.000496 -0.323844
v -0.300234 0.811980 -0.344258
v -0.283808 0.000496 -0.315933
v -0.267847 0.811980 -0.328662
v -0.279751 0.000496 -0.298158
v -0.259848 0.811980 -0.293616
v -0.291118 0.000496 -0.283904
v -0.282261 0.811980 -0.265511
v -0.309350 0.000496 -0.283904
v -0.318208 0.811980 -0.265511
v -0.320717 0.000496 -0.298158
v -0.340621 0.811980 -0.293616
v -0.316661 0.000496 -0.315933
v -0.332621 0.811980 -0.328662
vn 0.8024 0.5967 0.0074
vn 0.8013 0.5982 -0.0072
vn 0.8027 0.5963 0.0105
vn 0.3752 -0.9266 -0.0267
vn -0.0095 -0.2367 0.9715
vn -0.0095 0.2367 0.9715
vn 0.0184 -0.9998 -0.0000
vn 0.0184 -0.9997 0.0151
vn 0.0099 1.0000 0.0002
vn 0.0093 0.9999 0.0097
vn 0.0098 0.9999 0.0101
vn -0.8611 0.5082 -0.0165
vn -0.8606 0.5090 0.0176
vn -0.8608 0.5087 0.0166
vn -0.3752 -0.9266 -0.0267
vn 0.0095 -0.2367 0.9715
vn 0.0095 0.2367 0.9715
vn -0.0184 -0.9998 -0.0000
vn -0.0184 -0.9997 0.0151
vn -0.0129 0.9999 -0.0000
vn -0.0129 0.9999 0.0071
vn 0.8010 0.5985 -0.0103
vn 0.3752 -0.9266 0.0267
vn -0.0095 -0.2367 -0.9715
vn -0.0095 0.2367 -0.9715
vn 0.0184 -0.9997 -0.0151
vn 0.0100 0.9999 -0.0099
vn -0.8609 0.5085 -0.0176
vn -0.3752 -0.9266 0.0267
vn 0.0095 -0.2367 -0.9715
vn 0.0095 0.2367 -0.9715
vn -0.0184 -0.9997 -0.0151
vn -0.0129 0.9999 -0.0071
vn -0.5998 0.7984 -0.0537
vn -0.5950 0.8037 0.0038
vn -0.5840 0.8070 0.0882
vn 0.9263 0.3758 0.0254
vn 0.3421 0.4394 0.8306
vn -0.3390 0.4212 0.8412
vn 0.9981 0.0611 0.0019
vn 0.9981 0.0612 0.0023
vn 0.9975 0.0661 0.0252
vn -1.0000 0.0088 -0.0032
vn -0.9999 0.0088 0.0063
vn -1.0000 0.0030 0.0017
vn -0.5082 -0.8611 -0.0165
vn -0.5090 -0.8606 0.0176
vn -0.5087 -0.8608 0.0166
vn 0.9266 -0.3752 -0.0267
vn 0.2367 0.0095 0.9715
vn -0.2367 0.0095 0.9715
vn 0.9998 -0.0184 -0.0000
vn 0.9997 -0.0184 0.0151
vn -0.9999 -0.0129 -0.0000
vn -0.9999 -0.0129 0.0071
vn -0.6032 0.7860 -0.1358
vn 0.9261 0.3759 -0.0337
vn 0.3479 0.4766 -0.8073
vn -0.3468 0.4689 -0.8124
vn 0.9982 0.0560 -0.0214
vn -0.9998 0.0152 -0.0085
vn -0.5085 -0.8609 -0.0176
vn 0.9266 -0.3752 0.0267
vn 0.2367 0.0095 -0.9715
vn -0.2367 0.0095 -0.9715
vn 0.9997 -0.0184 -0.0151
vn -0.9999 -0.0129 -0.0071
vn 0.4338 -0.0227 -0.9007
vn 0.9747 -0.0227 -0.2225
vn 0.7816 -0.0227 0.6233
vn -0.0000 -0.0227 0.9997
vn -0.7816 -0.0227 0.6233
vn -0.0000 1.0000 -0.0000
vn -0.9747 -0.0227 -0.2225
vn -0.4338 -0.0227 -0.9007
vn -0.0000 -1.0000 -0.0000
vn 0.4339 0.0046 -0.9010
vn 0.4337 0.0269 -0.9006
vn 0.4339 0.0057 -0.9010
vn 0.9747 -0.0198 -0.2225
vn 0.9747 -0.0235 -0.2225
vn 0.9747 -0.0199 -0.2225
vn 0.7818 -0.0108 0.6235
vn 0.7818 -0.0055 0.6235
vn 0.7818 -0.0110 0.6235
vn -0.0000 0.0264 0.9997
vn -0.0000 0.0672 0.9977
vn -0.0000 0.0239 0.9997
vn -0.7803 0.0623 0.6223
vn -0.7743 0.1388 0.6174
vn -0.7805 0.0594 0.6224
vn -0.9726 0.0690 -0.2220
vn -0.9630 0.1562 -0.2198
vn -0.9725 0.0702 -0.2220
vn -0.4335 0.0433 -0.9001
vn -0.4314 0.1072 -0.8958
vn -0.4334 0.0467 -0.9000
vn -0.4338 -0.0162 -0.9008
vn -0.9748 -0.0162 -0.2225
vn -0.7817 -0.0162 0.6234
vn -0.0000 -0.0162 0.9999
vn 0.7817 -0.0162 0.6234
vn 0.9748 -0.0162 -0.2225
vn 0.4338 -0.0162 -0.9009
vn 0.4340 0.0187 -0.9007
vn 0.4336 0.0546 -0.8995
vn 0.4340 0.0195 -0.9007
vn 0.9749 0.0071 -0.2224
vn 0.9745 0.0307 -0.2222
vn 0.9749 0.0074 -0.2224
vn 0.7818 0.0059 0.6235
vn 0.7815 0.0279 0.6233
vn 0.7818 0.0057 0.6235
vn -0.0000 0.0162 0.9999
vn 0.0001 0.0482 0.9988
vn -0.0000 0.0156 0.9999
vn -0.7815 0.0303 0.6232
vn -0.7795 0.0762 0.6217
vn -0.7815 0.0294 0.6232
vn 0.0149 0.9999 -0.0009
vn -0.9742 0.0372 -0.2225
vn -0.9708 0.0909 -0.2218
vn -0.9742 0.0371 -0.2225
vn -0.4335 0.0320 -0.9006
vn -0.4321 0.0813 -0.8982
vn -0.4335 0.0328 -0.9006
vn -0.4338 -0.0159 -0.9008
vn -0.9748 -0.0159 -0.2225
vn -0.7817 -0.0159 0.6234
vn -0.0000 -0.0159 0.9999
vn 0.7817 -0.0159 0.6234
vn 0.9748 -0.0159 -0.2225
vn 0.4338 -0.0159 -0.9008
vt 0.500000 0.625000
vt 0.625000 0.625000
vt 0.625000 0.750000
vt 0.500000 0.750000
vt 0.375000 0.625000
vt 0.375000 0.750000
vt 0.500000 0.875000
vt 0.375000 0.875000
vt 0.625000 0.875000
vt 0.250000 0.625000
vt 0.250000 0.750000
vt 0.750000 0.625000
vt 0.750000 0.750000
vt 1.000000 0.500000
vt 1.000000 1.000000
vt 0.857143 1.000000
vt 0.857143 0.500000
vt 0.714286 1.000000
vt 0.714286 0.500000
vt 0.571429 1.000000
vt 0.571429 0.500000
vt 0.428571 1.000000
vt 0.428571 0.500000
vt 0.285714 1.000000
vt 0.285714 0.500000
vt 0.437640 0.399638
vt 0.250000 0.490000
vt 0.062360 0.399638
vt 0.016017 0.196595
vt 0.145868 0.033767
vt 0.354132 0.033767
vt 0.483983 0.196595
vt 0.142857 1.000000
vt 0.142857 0.500000
vt 0.000000 1.000000
vt 0.000000 0.500000
vt 0.750000 0.490000
vt 0.937640 0.399638
vt 0.983983 0.196595
vt 0.854132 0.033767
vt 0.645868 0.033767
vt 0.516017 0.196595
vt 0.562360 0.399638
vt 1.000000 0.856015
vt 0.857143 0.856015
vt 0.714286 0.856015
vt 0.571429 0.856015
vt 0.428571 0.856015
vt 0.285714 0.856015
vt 0.142857 0.856015
vt 0.000000 0.856015
vt 1.000000 0.845877
vt 0.857143 0.845876
vt 0.714286 0.845877
vt 0.571429 0.845877
vt 0.428571 0.845877
vt 0.285714 0.845877
vt 0.142857 0.845877
vt 0.000000 0.845877
s 1
usemtl Material.011
f 8/1/1 4/2/2 2/3/3 5/4/3
f 3/5/4 8/1/4 5/4/4 1/6/4
f 1/6/5 5/4/5 9/7/5 6/8/5
f 5/4/6 2/3/6 7/9/6 9/7/6
f 10/10/7 3/5/7 1/6/8 6/11/8
f 4/2/9 11/12/10 7/13/11 2/3/11
f 17/1/12 16/4/13 13/3/13 15/2/14
f 14/5/15 12/6/15 16/4/15 17/1/15
f 12/6/16 6/8/16 9/7/16 16/4/16
f 16/4/17 9/7/17 7/9/17 13/3/17
f 10/10/18 6/11/19 12/6/19 14/5/18
f 15/2/20 13/3/21 7/13/21 11/12/20
f 8/1/1 20/4/22 19/3/22 4/2/2
f 3/5/23 18/6/23 20/4/23 8/1/23
f 18/6/24 21/8/24 23/7/24 20/4/24
f 20/4/25 23/7/25 22/9/25 19/3/25
f 10/10/7 21/11/26 18/6/26 3/5/7
f 4/2/9 19/3/27 22/13/27 11/12/10
f 17/1/12 15/2/14 25/3/28 26/4/28
f 14/5/29 17/1/29 26/4/29 24/6/29
f 24/6/30 26/4/30 23/7/30 21/8/30
f 26/4/31 25/3/31 22/9/31 23/7/31
f 10/10/18 14/5/18 24/6/32 21/11/32
f 15/2/20 11/12/20 22/13/33 25/3/33
usemtl Material.012
f 34/1/34 30/2/35 28/3/36 31/4/36
f 29/5/37 34/1/37 31/4/37 27/6/37
f 27/6/38 31/4/38 35/7/38 32/8/38
f 31/4/39 28/3/39 33/9/39 35/7/39
f 36/10/40 29/5/41 27/6/42 32/11/42
f 30/2/43 37/12/44 33/13/45 28/3/45
f 43/1/46 42/4/47 39/3/47 41/2/48
f 40/5/49 38/6/49 42/4/49 43/1/49
f 38/6/50 32/8/50 35/7/50 42/4/50
f 42/4/51 35/7/51 33/9/51 39/3/51
f 36/10/52 32/11/53 38/6/53 40/5/52
f 41/2/54 39/3/55 33/13/55 37/12/54
f 34/1/34 46/4/56 45/3/56 30/2/35
f 29/5/57 44/6/57 46/4/57 34/1/57
f 44/6/58 47/8/58 49/7/58 46/4/58
f 46/4/59 49/7/59 48/9/59 45/3/59
f 36/10/40 47/11/60 44/6/60 29/5/41
f 30/2/43 45/3/61 48/13/61 37/12/44
f 43/1/46 41/2/48 51/3/62 52/4/62
f 40/5/63 43/1/63 52/4/63 50/6/63
f 50/6/64 52/4/64 49/7/64 47/8/64
f 52/4/65 51/3/65 48/9/65 49/7/65
f 36/10/52 40/5/52 50/6/66 47/11/66
f 41/2/54 37/12/54 48/13/67 51/3/67
usemtl Material.013
f 53/14/68 54/15/68 56/16/68 55/17/68
f 55/17/69 56/16/69 58/18/69 57/19/69
f 57/19/70 58/18/70 60/20/70 59/21/70
f 59/21/71 60/20/71 62/22/71 61/23/71
f 61/23/72 62/22/72 64/24/72 63/25/72
f 56/26/73 54/27/73 66/28/73 64/29/73 62/30/73 60/31/73 58/32/73
f 63/25/74 64/24/74 66/33/74 65/34/74
f 65/34/75 66/33/75 54/35/75 53/36/75
f 53/37/76 55/38/76 57/39/76 59/40/76 61/41/76 63/42/76 65/43/76
usemtl Material.014
f 81/44/77 68/15/78 70/16/78 82/45/79
f 82/45/80 70/16/81 72/18/81 83/46/82
f 83/46/83 72/18/84 74/20/84 84/47/85
f 84/47/86 74/20/87 76/22/87 85/48/88
f 85/48/89 76/22/90 78/24/90 86/49/91
f 70/26/73 68/27/73 80/28/73 78/29/73 76/30/73 74/31/73 72/32/73
f 86/49/92 78/24/93 80/33/93 87/50/94
f 87/50/95 80/33/96 68/35/96 81/51/97
f 67/37/76 69/38/76 71/39/76 73/40/76 75/41/76 77/42/76 79/43/76
f 79/34/98 87/50/95 81/51/97 67/36/98
f 77/25/99 86/49/92 87/50/94 79/34/99
f 75/23/100 85/48/89 86/49/91 77/25/100
f 73/21/101 84/47/86 85/48/88 75/23/101
f 71/19/102 83/46/83 84/47/85 73/21/102
f 69/17/103 82/45/80 83/46/82 71/19/103
f 67/14/104 81/44/77 82/45/79 69/17/104
usemtl Material.015
f 102/52/105 89/15/106 91/16/106 103/53/107
f 103/53/108 91/16/109 93/18/109 104/54/110
f 104/54/111 93/18/112 95/20/112 105/55/113
f 105/55/114 95/20/115 97/22/115 106/56/116
f 106/56/117 97/22/118 99/24/118 107/57/119
f 91/26/120 89/27/120 101/28/120 99/29/120 97/30/120 95/31/120 93/32/120
f 107/57/121 99/24/122 101/33/122 108/58/123
f 108/58/124 101/33/125 89/35/125 102/59/126
f 88/37/76 90/38/76 92/39/76 94/40/76 96/41/76 98/42/76 100/43/76
f 100/34/127 108/58/124 102/59/126 88/36/127
f 98/25/128 107/57/121 108/58/123 100/34/128
f 96/23/129 106/56/117 107/57/119 98/25/129
f 94/21/130 105/55/114 106/56/116 96/23/130
f 92/19/131 104/54/111 105/55/113 94/21/131
f 90/17/132 103/53/108 104/54/110 92/19/132
f 88/14/133 102/52/105 103/53/107 90/17/133
usemtl Material.016
f 109/14/68 110/15/68 112/16/68 111/17/68
f 111/17/69 112/16/69 114/18/69 113/19/69
f 113/19/70 114/18/70 116/20/70 115/21/70
f 115/21/71 116/20/71 118/22/71 117/23/71
f 117/23/72 118/22/72 120/24/72 119/25/72
f 112/26/73 110/27/73 122/28/73 120/29/73 118/30/73 116/31/73 114/32/73
f 119/25/74 120/24/74 122/33/74 121/34/74
f 121/34/75 122/33/75 110/35/75 109/36/75
f 109/37/76 111/38/76 113/39/76 115/40/76 117/41/76 119/42/76 121/43/76
