# Blender 5.2.0 LTS
# www.blender.org
mtllib Истиный стол.mtl
o Cube
v 0.359977 0.782825 0.368360
v 0.359977 0.818732 0.368360
v 0.292269 0.778891 -0.000000
v 0.360861 0.822666 0.006502
v 0.372415 0.800779 0.366913
v 0.000000 0.778891 0.357940
v 0.000000 0.822666 0.357940
v 0.378125 0.800779 -0.000000
v 0.000000 0.800779 0.369216
v 0.000000 0.770635 -0.000000
v 0.000000 0.825988 -0.000000
v -0.359977 0.782825 0.368360
v -0.359977 0.818732 0.368360
v -0.292269 0.778891 -0.000000
v -0.368293 0.820453 -0.000807
v -0.372415 0.800779 0.366913
v -0.378125 0.800779 -0.000000
v 0.359977 0.782825 -0.368360
v 0.359977 0.818732 -0.368360
v 0.372415 0.800779 -0.366913
v 0.000000 0.778891 -0.357940
v 0.000000 0.822666 -0.357940
v 0.000000 0.800779 -0.369216
v -0.359977 0.782825 -0.368360
v -0.359977 0.818732 -0.368360
v -0.372415 0.800779 -0.366913
vn 0.8024 0.5967 0.0074
vn 0.8013 0.5982 -0.0072
vn 0.8027 0.5963 0.0105
vn 0.3752 -0.9266 -0.0267
vn -0.0095 -0.2367 0.9715
vn -0.0095 0.2367 0.9715
vn 0.0184 -0.9998 -0.0000
vn 0.0184 -0.9997 0.0151
vn 0.0099 1.0000 0.0004
vn 0.0093 0.9999 0.0097
vn 0.0098 0.9999 0.0101
vn -0.8611 0.5082 -0.0165
vn -0.8606 0.5090 0.0176
vn -0.8608 0.5087 0.0166
vn -0.3752 -0.9266 -0.0267
vn 0.0095 -0.2367 0.9715
vn 0.0095 0.2367 0.9715
vn -0.0184 -0.9998 -0.0000
vn -0.0184 -0.9997 0.0151
vn -0.0129 0.9999 -0.0000
vn -0.0129 0.9999 0.0071
vn 0.8011 0.5985 -0.0103
vn 0.3752 -0.9266 0.0267
vn -0.0095 -0.2367 -0.9715
vn -0.0095 0.2367 -0.9715
vn 0.0184 -0.9997 -0.0151
vn 0.0100 0.9999 -0.0099
vn -0.8609 0.5085 -0.0176
vn -0.3752 -0.9266 0.0267
vn 0.0095 -0.2367 -0.9715
vn 0.0095 0.2367 -0.9715
vn -0.0184 -0.9997 -0.0151
vn -0.0129 0.9999 -0.0071
vt 0.500000 0.625000
vt 0.625000 0.625000
vt 0.625000 0.750000
vt 0.500000 0.750000
vt 0.375000 0.625000
vt 0.375000 0.750000
vt 0.500000 0.875000
vt 0.375000 0.875000
vt 0.625000 0.875000
vt 0.250000 0.625000
vt 0.250000 0.750000
vt 0.750000 0.625000
vt 0.750000 0.750000
s 1
usemtl Material.001
f 8/1/1 4/2/2 2/3/3 5/4/3
f 3/5/4 8/1/4 5/4/4 1/6/4
f 1/6/5 5/4/5 9/7/5 6/8/5
f 5/4/6 2/3/6 7/9/6 9/7/6
f 10/10/7 3/5/7 1/6/8 6/11/8
f 4/2/9 11/12/10 7/13/11 2/3/11
f 17/1/12 16/4/13 13/3/13 15/2/14
f 14/5/15 12/6/15 16/4/15 17/1/15
f 12/6/16 6/8/16 9/7/16 16/4/16
f 16/4/17 9/7/17 7/9/17 13/3/17
f 10/10/18 6/11/19 12/6/19 14/5/18
f 15/2/20 13/3/21 7/13/21 11/12/20
f 8/1/1 20/4/22 19/3/22 4/2/2
f 3/5/23 18/6/23 20/4/23 8/1/23
f 18/6/24 21/8/24 23/7/24 20/4/24
f 20/4/25 23/7/25 22/9/25 19/3/25
f 10/10/7 21/11/26 18/6/26 3/5/7
f 4/2/9 19/3/27 22/13/27 11/12/10
f 17/1/12 15/2/14 25/3/28 26/4/28
f 14/5/29 17/1/29 26/4/29 24/6/29
f 24/6/30 26/4/30 23/7/30 21/8/30
f 26/4/31 25/3/31 22/9/31 23/7/31
f 10/10/18 14/5/18 24/6/32 21/11/32
f 15/2/20 11/12/20 22/13/33 25/3/33
o Cylinder.001
v -0.297831 0.000496 0.275882
v -0.297831 0.811981 0.255468
v -0.281405 0.000496 0.283793
v -0.265444 0.811981 0.271064
v -0.277348 0.000496 0.301567
v -0.257445 0.811981 0.306111
v -0.288715 0.000496 0.315822
v -0.279858 0.811981 0.334215
v -0.306947 0.000496 0.315822
v -0.315805 0.811981 0.334215
v -0.318314 0.000496 0.301567
v -0.338218 0.811981 0.306111
v -0.314258 0.000496 0.283793
v -0.330218 0.811981 0.271064
vn 0.4338 -0.0227 -0.9007
vn 0.9747 -0.0227 -0.2225
vn 0.7816 -0.0227 0.6233
vn -0.0000 -0.0227 0.9997
vn -0.7816 -0.0227 0.6233
vn -0.0000 1.0000 -0.0000
vn -0.9747 -0.0227 -0.2225
vn -0.4338 -0.0227 -0.9007
vn -0.0000 -1.0000 -0.0000
vt 1.000000 0.500000
vt 1.000000 1.000000
vt 0.857143 1.000000
vt 0.857143 0.500000
vt 0.714286 1.000000
vt 0.714286 0.500000
vt 0.571429 1.000000
vt 0.571429 0.500000
vt 0.428571 1.000000
vt 0.428571 0.500000
vt 0.285714 1.000000
vt 0.285714 0.500000
vt 0.437640 0.399638
vt 0.250000 0.490000
vt 0.062360 0.399638
vt 0.016017 0.196595
vt 0.145868 0.033767
vt 0.354132 0.033767
vt 0.483983 0.196595
vt 0.142857 1.000000
vt 0.142857 0.500000
vt 0.000000 1.000000
vt 0.000000 0.500000
vt 0.750000 0.490000
vt 0.937640 0.399638
vt 0.983983 0.196595
vt 0.854132 0.033767
vt 0.645868 0.033767
vt 0.516017 0.196595
vt 0.562360 0.399638
s 1
usemtl Material.010
f 27/14/34 28/15/34 30/16/34 29/17/34
f 29/17/35 30/16/35 32/18/35 31/19/35
f 31/19/36 32/18/36 34/20/36 33/21/36
f 33/21/37 34/20/37 36/22/37 35/23/37
f 35/23/38 36/22/38 38/24/38 37/25/38
f 30/26/39 28/27/39 40/28/39 38/29/39 36/30/39 34/31/39 32/32/39
f 37/25/40 38/24/40 40/33/40 39/34/40
f 39/34/41 40/33/41 28/35/41 27/36/41
f 27/37/42 29/38/42 31/39/42 33/40/42 35/41/42 37/42/42 39/43/42
o Cylinder.002
v 0.295577 0.000496 0.271240
v 0.325959 1.132850 0.281082
v 0.312004 0.000496 0.279150
v 0.334691 1.132850 0.285287
v 0.316061 0.000496 0.296925
v 0.336847 1.132850 0.294735
v 0.304693 0.000496 0.311180
v 0.330805 1.132850 0.302312
v 0.286461 0.000496 0.311180
v 0.321113 1.132850 0.302312
v 0.275094 0.000496 0.296925
v 0.315071 1.132850 0.294735
v 0.279151 0.000496 0.279150
v 0.317227 1.132850 0.285287
v 0.295577 0.806765 0.256704
v 0.323368 0.806765 0.270088
v 0.330232 0.806765 0.300160
v 0.311000 0.806765 0.324276
v 0.280154 0.806765 0.324276
v 0.260923 0.806765 0.300160
v 0.267787 0.806765 0.270088
vn 0.4339 0.0046 -0.9010
vn 0.4337 0.0269 -0.9006
vn 0.4339 0.0057 -0.9010
vn 0.9747 -0.0198 -0.2225
vn 0.9747 -0.0235 -0.2225
vn 0.9747 -0.0199 -0.2225
vn 0.7818 -0.0108 0.6235
vn 0.7818 -0.0055 0.6235
vn 0.7818 -0.0110 0.6235
vn -0.0000 0.0264 0.9997
vn -0.0000 0.0672 0.9977
vn -0.0000 0.0239 0.9997
vn -0.7803 0.0623 0.6223
vn -0.7743 0.1388 0.6175
vn -0.7805 0.0594 0.6224
vn -0.0000 1.0000 -0.0000
vn -0.9726 0.0690 -0.2220
vn -0.9630 0.1562 -0.2198
vn -0.9725 0.0702 -0.2220
vn -0.4335 0.0433 -0.9001
vn -0.4314 0.1072 -0.8958
vn -0.4334 0.0467 -0.9000
vn -0.0000 -1.0000 -0.0000
vn -0.4338 -0.0162 -0.9009
vn -0.9748 -0.0162 -0.2225
vn -0.7817 -0.0162 0.6234
vn -0.0000 -0.0162 0.9999
vn 0.7817 -0.0162 0.6234
vn 0.9748 -0.0162 -0.2225
vn 0.4338 -0.0162 -0.9009
vt 1.000000 0.856015
vt 1.000000 1.000000
vt 0.857143 1.000000
vt 0.857143 0.856015
vt 0.714286 1.000000
vt 0.714286 0.856015
vt 0.571429 1.000000
vt 0.571429 0.856015
vt 0.428571 1.000000
vt 0.428571 0.856015
vt 0.285714 1.000000
vt 0.285714 0.856015
vt 0.437640 0.399638
vt 0.250000 0.490000
vt 0.062360 0.399638
vt 0.016017 0.196595
vt 0.145868 0.033767
vt 0.354132 0.033767
vt 0.483983 0.196595
vt 0.142857 1.000000
vt 0.142857 0.856015
vt 0.000000 1.000000
vt 0.000000 0.856015
vt 0.750000 0.490000
vt 0.937640 0.399638
vt 0.983983 0.196595
vt 0.854132 0.033767
vt 0.645868 0.033767
vt 0.516017 0.196595
vt 0.562360 0.399638
vt 0.142857 0.500000
vt 0.000000 0.500000
vt 0.285714 0.500000
vt 0.428571 0.500000
vt 0.571429 0.500000
vt 0.714286 0.500000
vt 0.857143 0.500000
vt 1.000000 0.500000
s 1
usemtl Material.007
f 55/44/43 42/45/44 44/46/44 56/47/45
f 56/47/46 44/46/47 46/48/47 57/49/48
f 57/49/49 46/48/50 48/50/50 58/51/51
f 58/51/52 48/50/53 50/52/53 59/53/54
f 59/53/55 50/52/56 52/54/56 60/55/57
f 44/56/58 42/57/58 54/58/58 52/59/58 50/60/58 48/61/58 46/62/58
f 60/55/59 52/54/60 54/63/60 61/64/61
f 61/64/62 54/63/63 42/65/63 55/66/64
f 41/67/65 43/68/65 45/69/65 47/70/65 49/71/65 51/72/65 53/73/65
f 53/74/66 61/64/62 55/66/64 41/75/66
f 51/76/67 60/55/59 61/64/61 53/74/67
f 49/77/68 59/53/55 60/55/57 51/76/68
f 47/78/69 58/51/52 59/53/54 49/77/69
f 45/79/70 57/49/49 58/51/51 47/78/70
f 43/80/71 56/47/46 57/49/48 45/79/71
f 41/81/72 55/44/43 56/47/45 43/80/72
o Cylinder.003
v 0.318382 0.000496 -0.313855
v 0.328834 1.134673 -0.302560
v 0.334809 0.000496 -0.305944
v 0.339178 1.134524 -0.297572
v 0.338865 0.000496 -0.288169
v 0.341727 1.134495 -0.286373
v 0.327498 0.000496 -0.273915
v 0.334563 1.134610 -0.277398
v 0.309266 0.000496 -0.273915
v 0.323080 1.134781 -0.277404
v 0.297899 0.000496 -0.288169
v 0.315925 1.134880 -0.286387
v 0.301956 0.000496 -0.305944
v 0.318486 1.134832 -0.297583
v 0.318382 0.798492 -0.327976
v 0.345849 0.798492 -0.314748
v 0.352633 0.798492 -0.285026
v 0.333625 0.798492 -0.261191
v 0.303139 0.798492 -0.261191
v 0.284131 0.798492 -0.285026
v 0.290915 0.798492 -0.314748
vn 0.4340 0.0187 -0.9007
vn 0.4335 0.0546 -0.8995
vn 0.4340 0.0195 -0.9007
vn 0.9749 0.0071 -0.2224
vn 0.9745 0.0307 -0.2222
vn 0.9749 0.0074 -0.2224
vn 0.7818 0.0059 0.6235
vn 0.7815 0.0279 0.6233
vn 0.7818 0.0057 0.6235
vn -0.0000 0.0162 0.9999
vn 0.0001 0.0482 0.9988
vn -0.0000 0.0156 0.9999
vn -0.7815 0.0303 0.6232
vn -0.7795 0.0762 0.6217
vn -0.7815 0.0294 0.6232
vn 0.0149 0.9999 -0.0009
vn -0.9742 0.0372 -0.2225
vn -0.9708 0.0909 -0.2218
vn -0.9742 0.0371 -0.2225
vn -0.4335 0.0320 -0.9006
vn -0.4320 0.0813 -0.8982
vn -0.4335 0.0328 -0.9006
vn -0.0000 -1.0000 -0.0000
vn -0.4338 -0.0159 -0.9009
vn -0.9748 -0.0159 -0.2225
vn -0.7817 -0.0159 0.6234
vn -0.0000 -0.0159 0.9999
vn 0.7817 -0.0159 0.6234
vn 0.9748 -0.0159 -0.2225
vn 0.4338 -0.0159 -0.9009
vt 1.000000 0.845877
vt 1.000000 1.000000
vt 0.857143 1.000000
vt 0.857143 0.845876
vt 0.714286 1.000000
vt 0.714286 0.845877
vt 0.571429 1.000000
vt 0.571429 0.845877
vt 0.428571 1.000000
vt 0.428571 0.845877
vt 0.285714 1.000000
vt 0.285714 0.845877
vt 0.437640 0.399638
vt 0.250000 0.490000
vt 0.062360 0.399638
vt 0.016017 0.196595
vt 0.145868 0.033767
vt 0.354132 0.033767
vt 0.483983 0.196595
vt 0.142857 1.000000
vt 0.142857 0.845877
vt 0.000000 1.000000
vt 0.000000 0.845877
vt 0.750000 0.490000
vt 0.937640 0.399638
vt 0.983983 0.196595
vt 0.854132 0.033767
vt 0.645868 0.033767
vt 0.516017 0.196595
vt 0.562360 0.399638
vt 0.142857 0.500000
vt 0.000000 0.500000
vt 0.285714 0.500000
vt 0.428571 0.500000
vt 0.571429 0.500000
vt 0.714286 0.500000
vt 0.857143 0.500000
vt 1.000000 0.500000
s 1
usemtl Material.008
f 76/82/73 63/83/74 65/84/74 77/85/75
f 77/85/76 65/84/77 67/86/77 78/87/78
f 78/87/79 67/86/80 69/88/80 79/89/81
f 79/89/82 69/88/83 71/90/83 80/91/84
f 80/91/85 71/90/86 73/92/86 81/93/87
f 65/94/88 63/95/88 75/96/88 73/97/88 71/98/88 69/99/88 67/100/88
f 81/93/89 73/92/90 75/101/90 82/102/91
f 82/102/92 75/101/93 63/103/93 76/104/94
f 62/105/95 64/106/95 66/107/95 68/108/95 70/109/95 72/110/95 74/111/95
f 74/112/96 82/102/92 76/104/94 62/113/96
f 72/114/97 81/93/89 82/102/91 74/112/97
f 70/115/98 80/91/85 81/93/87 72/114/98
f 68/116/99 79/89/82 80/91/84 70/115/99
f 66/117/100 78/87/79 79/89/81 68/116/100
f 64/118/101 77/85/76 78/87/78 66/117/101
f 62/119/102 76/82/73 77/85/75 64/118/102
o Cylinder.004
v -0.300234 0.000496 -0.323844
v -0.300234 0.811980 -0.344258
v -0.283808 0.000496 -0.315933
v -0.267847 0.811980 -0.328662
v -0.279751 0.000496 -0.298158
v -0.259848 0.811980 -0.293616
v -0.291118 0.000496 -0.283904
v -0.282261 0.811980 -0.265511
v -0.309350 0.000496 -0.283904
v -0.318208 0.811980 -0.265511
v -0.320717 0.000496 -0.298158
v -0.340621 0.811980 -0.293616
v -0.316661 0.000496 -0.315933
v -0.332621 0.811980 -0.328662
vn 0.4338 -0.0227 -0.9007
vn 0.9747 -0.0227 -0.2225
vn 0.7816 -0.0227 0.6233
vn -0.0000 -0.0227 0.9997
vn -0.7816 -0.0227 0.6233
vn -0.0000 1.0000 -0.0000
vn -0.9747 -0.0227 -0.2225
vn -0.4338 -0.0227 -0.9007
vn -0.0000 -1.0000 -0.0000
vt 1.000000 0.500000
vt 1.000000 1.000000
vt 0.857143 1.000000
vt 0.857143 0.500000
vt 0.714286 1.000000
vt 0.714286 0.500000
vt 0.571429 1.000000
vt 0.571429 0.500000
vt 0.428571 1.000000
vt 0.428571 0.500000
vt 0.285714 1.000000
vt 0.285714 0.500000
vt 0.437640 0.399638
vt 0.250000 0.490000
vt 0.062360 0.399638
vt 0.016017 0.196595
vt 0.145868 0.033767
vt 0.354132 0.033767
vt 0.483983 0.196595
vt 0.142857 1.000000
vt 0.142857 0.500000
vt 0.000000 1.000000
vt 0.000000 0.500000
vt 0.750000 0.490000
vt 0.937640 0.399638
vt 0.983983 0.196595
vt 0.854132 0.033767
vt 0.645868 0.033767
vt 0.516017 0.196595
vt 0.562360 0.399638
s 1
usemtl Material.009
f 83/120/103 84/121/103 86/122/103 85/123/103
f 85/123/104 86/122/104 88/124/104 87/125/104
f 87/125/105 88/124/105 90/126/105 89/127/105
f 89/127/106 90/126/106 92/128/106 91/129/106
f 91/129/107 92/128/107 94/130/107 93/131/107
f 86/132/108 84/133/108 96/134/108 94/135/108 92/136/108 90/137/108 88/138/108
f 93/131/109 94/130/109 96/139/109 95/140/109
f 95/140/110 96/139/110 84/141/110 83/142/110
f 83/143/111 85/144/111 87/145/111 89/146/111 91/147/111 93/148/111 95/149/111
o Cube.001
v 0.335404 1.647273 0.271836
v 0.299497 1.647273 0.271836
v 0.345598 1.608641 0.000000
v 0.301823 1.677233 0.006502
v 0.317451 1.659711 0.270388
v 0.345598 1.472279 0.357940
v 0.301823 1.472279 0.357940
v 0.323711 1.694497 0.000000
v 0.323711 1.472279 0.369216
v 0.353855 1.472279 0.000000
v 0.298501 1.472279 0.000000
v 0.341664 1.112302 0.368360
v 0.305757 1.112302 0.368360
v 0.345598 1.180010 0.000000
v 0.304037 1.103986 -0.000807
v 0.323711 1.099864 0.366913
v 0.323711 1.094154 0.000000
v 0.339129 1.632455 -0.268020
v 0.303222 1.632455 -0.268020
v 0.321175 1.644893 -0.266572
v 0.345598 1.472279 -0.357940
v 0.301823 1.472279 -0.357940
v 0.323711 1.472279 -0.369216
v 0.341664 1.112302 -0.368360
v 0.305757 1.112302 -0.368360
v 0.323711 1.099864 -0.366913
vn -0.5998 0.7984 -0.0537
vn -0.5950 0.8037 0.0038
vn -0.5840 0.8070 0.0882
vn 0.9263 0.3758 0.0254
vn 0.3421 0.4394 0.8306
vn -0.3390 0.4212 0.8412
vn 0.9981 0.0611 0.0019
vn 0.9981 0.0611 0.0021
vn 0.9975 0.0661 0.0252
vn -1.0000 0.0087 -0.0031
vn -0.9999 0.0088 0.0063
vn -1.0000 0.0030 0.0017
vn -0.5082 -0.8611 -0.0165
vn -0.5090 -0.8606 0.0176
vn -0.5087 -0.8608 0.0166
vn 0.9266 -0.3752 -0.0267
vn 0.2367 0.0095 0.9715
vn -0.2367 0.0095 0.9715
vn 0.9998 -0.0184 -0.0000
vn 0.9997 -0.0184 0.0151
vn -0.9999 -0.0129 -0.0000
vn -0.9999 -0.0129 0.0071
vn -0.6032 0.7860 -0.1358
vn 0.9261 0.3759 -0.0337
vn 0.3480 0.4766 -0.8073
vn -0.3468 0.4689 -0.8123
vn 0.9982 0.0560 -0.0214
vn -0.9998 0.0152 -0.0085
vn -0.5085 -0.8609 -0.0176
vn 0.9266 -0.3752 0.0267
vn 0.2367 0.0095 -0.9715
vn -0.2367 0.0095 -0.9715
vn 0.9997 -0.0184 -0.0151
vn -0.9999 -0.0129 -0.0071
vt 0.500000 0.625000
vt 0.625000 0.625000
vt 0.625000 0.750000
vt 0.500000 0.750000
vt 0.375000 0.625000
vt 0.375000 0.750000
vt 0.500000 0.875000
vt 0.375000 0.875000
vt 0.625000 0.875000
vt 0.250000 0.625000
vt 0.250000 0.750000
vt 0.750000 0.625000
vt 0.750000 0.750000
s 1
usemtl Material.002
f 104/150/112 100/151/113 98/152/114 101/153/114
f 99/154/115 104/150/115 101/153/115 97/155/115
f 97/155/116 101/153/116 105/156/116 102/157/116
f 101/153/117 98/152/117 103/158/117 105/156/117
f 106/159/118 99/154/119 97/155/120 102/160/120
f 100/151/121 107/161/122 103/162/123 98/152/123
f 113/150/124 112/153/125 109/152/125 111/151/126
f 110/154/127 108/155/127 112/153/127 113/150/127
f 108/155/128 102/157/128 105/156/128 112/153/128
f 112/153/129 105/156/129 103/158/129 109/152/129
f 106/159/130 102/160/131 108/155/131 110/154/130
f 111/151/132 109/152/133 103/162/133 107/161/132
f 104/150/112 116/153/134 115/152/134 100/151/113
f 99/154/135 114/155/135 116/153/135 104/150/135
f 114/155/136 117/157/136 119/156/136 116/153/136
f 116/153/137 119/156/137 118/158/137 115/152/137
f 106/159/118 117/160/138 114/155/138 99/154/119
f 100/151/121 115/152/139 118/162/139 107/161/122
f 113/150/124 111/151/126 121/152/140 122/153/140
f 110/154/141 113/150/141 122/153/141 120/155/141
f 120/155/142 122/153/142 119/156/142 117/157/142
f 122/153/143 121/152/143 118/158/143 119/156/143
f 106/159/130 110/154/130 120/155/144 117/160/144
f 111/151/132 107/161/132 118/162/145 121/152/145
