# Blender 5.2.0 LTS
# www.blender.org
mtllib Игрок.mtl
o Cylinder
v 0.000000 -0.020500 -0.014000
v -0.011194 0.010738 0.007892
v 0.012124 -0.020500 0.007000
v -0.012124 -0.020500 0.007000
v 0.000000 -0.014780 -0.014000
v 0.012124 -0.014780 0.007000
v -0.012124 -0.014780 0.007000
v 0.000000 -0.010029 -0.004763
v 0.004125 -0.010029 0.002382
v -0.004125 -0.010029 0.002382
v 0.000000 0.008236 -0.003155
v 0.002733 0.008236 0.001578
v -0.002733 0.008236 0.001578
v -0.000794 0.011784 -0.012184
v 0.014326 0.016933 0.005534
v -0.001121 0.019913 -0.002669
v 0.003784 0.019042 -0.000236
v -0.006656 0.018702 -0.000239
vn -0.8009 0.2561 -0.5414
vn 0.6303 -0.6973 -0.3413
vn 0.1913 -0.6920 0.6961
vn -0.0000 -1.0000 -0.0000
vn -0.8660 -0.0000 -0.5000
vn -0.0000 -0.0000 1.0000
vn 0.8660 -0.0000 -0.5000
vn -0.6210 0.6970 -0.3585
vn -0.0000 0.6970 0.7171
vn 0.6210 0.6970 -0.3585
vn -0.8652 0.0440 -0.4995
vn -0.0000 0.0440 0.9990
vn 0.8652 0.0440 -0.4995
vn -0.4657 -0.8389 -0.2819
vn -0.0301 0.9203 0.3900
vn -0.1024 0.7840 0.6123
vn 0.4413 0.6819 -0.5833
vt -0.000000 0.850439
vt 0.333333 0.850439
vt 0.666667 0.850439
vt 1.000000 0.850439
vt 0.750000 0.490000
vt 0.957846 0.130000
vt 0.542154 0.130000
vt 0.333333 0.500000
vt 0.333333 0.569751
vt -0.000000 0.569751
vt -0.000000 0.500000
vt 0.666667 0.500000
vt 0.666667 0.569751
vt 1.000000 0.500000
vt 1.000000 0.569751
vt 0.333333 0.627694
vt -0.000000 0.627693
vt 0.666667 0.627693
vt 1.000000 0.627693
s 0
usemtl Material.003
f 14/1/1 2/2/1 18/2/1 16/1/1
f 12/3/2 11/4/2 14/4/2 15/3/2
f 13/2/3 12/3/3 15/3/3 2/2/3
f 1/5/4 3/6/4 4/7/4
f 4/8/5 7/9/5 5/10/5 1/11/5
f 3/12/6 6/13/6 7/9/6 4/8/6
f 1/14/7 5/15/7 6/13/7 3/12/7
f 7/9/8 10/16/8 8/17/8 5/10/8
f 6/13/9 9/18/9 10/16/9 7/9/9
f 5/15/10 8/19/10 9/18/10 6/13/10
f 10/16/11 13/2/11 11/1/11 8/17/11
f 9/18/12 12/3/12 13/2/12 10/16/12
f 8/19/13 11/4/13 12/3/13 9/18/13
f 11/1/14 13/2/14 2/2/14 14/1/14
f 18/2/15 17/3/15 16/4/15
f 2/2/16 15/3/16 17/3/16 18/2/16
f 15/3/17 14/4/17 16/4/17 17/3/17
