# Blender 5.1.2
# www.blender.org
mtllib Action.mtl
o карта
v -0.500000 -0.000000 -0.177615
v 0.000000 -0.000000 -0.177615
v -0.500000 0.000000 0.000000
v -0.472368 0.030884 -0.167800
v -0.500000 0.030884 -0.167800
v -0.472368 0.030884 -0.177615
v -0.500000 0.030884 -0.177615
v 0.000000 0.030884 -0.167800
v 0.000000 0.030884 -0.177615
v -0.500000 0.030884 -0.000000
v -0.472368 0.030884 -0.000000
v 0.000000 0.013245 -0.167800
v -0.472368 0.013245 -0.167800
v -0.472368 0.013245 -0.000000
v -0.236184 0.013245 -0.167800
v -0.472368 0.013245 -0.083900
v -0.354276 0.013245 -0.167800
v -0.118092 0.013245 -0.167800
v -0.413322 0.013245 -0.167800
v -0.295230 0.013245 -0.167800
v -0.177138 0.013245 -0.167800
v -0.059046 0.013245 -0.167800
v -0.472368 0.013245 -0.041950
v -0.472368 0.013245 -0.125850
v -0.472368 0.013245 -0.146825
v -0.472368 0.013245 -0.104875
v -0.472368 0.013245 -0.062925
v -0.472368 0.013245 -0.020975
v -0.442845 0.013245 -0.167800
v -0.383799 0.013245 -0.167800
v -0.324753 0.013245 -0.167800
v -0.265707 0.013245 -0.167800
v -0.206661 0.013245 -0.167800
v -0.147615 0.013245 -0.167800
v -0.088569 0.013245 -0.167800
v -0.029523 0.013245 -0.167800
v -0.472368 0.013245 -0.157312
v -0.472368 0.013245 -0.136337
v -0.472368 0.013245 -0.115362
v -0.472368 0.013245 -0.094387
v -0.472368 0.013245 -0.073412
v -0.472368 0.013245 -0.052437
v -0.472368 0.013245 -0.031462
v -0.472368 0.013245 -0.010487
v 0.500000 -0.000000 -0.177615
v 0.500000 0.000000 0.000000
v 0.472368 0.030884 -0.167800
v 0.500000 0.030884 -0.167800
v 0.472368 0.030884 -0.177615
v 0.500000 0.030884 -0.177615
v 0.500000 0.030884 -0.000000
v 0.472368 0.030884 -0.000000
v 0.472368 0.013245 -0.167800
v 0.472368 0.013245 -0.000000
v 0.236184 0.013245 -0.167800
v 0.472368 0.013245 -0.083900
v 0.354276 0.013245 -0.167800
v 0.118092 0.013245 -0.167800
v 0.413322 0.013245 -0.167800
v 0.295230 0.013245 -0.167800
v 0.177138 0.013245 -0.167800
v 0.059046 0.013245 -0.167800
v 0.472368 0.013245 -0.041950
v 0.472368 0.013245 -0.125850
v 0.472368 0.013245 -0.146825
v 0.472368 0.013245 -0.104875
v 0.472368 0.013245 -0.062925
v 0.472368 0.013245 -0.020975
v 0.442845 0.013245 -0.167800
v 0.383799 0.013245 -0.167800
v 0.324753 0.013245 -0.167800
v 0.265707 0.013245 -0.167800
v 0.206661 0.013245 -0.167800
v 0.147615 0.013245 -0.167800
v 0.088569 0.013245 -0.167800
v 0.029523 0.013245 -0.167800
v 0.472368 0.013245 -0.157312
v 0.472368 0.013245 -0.136337
v 0.472368 0.013245 -0.115362
v 0.472368 0.013245 -0.094387
v 0.472368 0.013245 -0.073412
v 0.472368 0.013245 -0.052437
v 0.472368 0.013245 -0.031462
v 0.472368 0.013245 -0.010487
v -0.500000 0.000000 0.177615
v 0.000000 0.000000 0.177615
v -0.472368 0.030884 0.167800
v -0.472368 0.030884 0.177615
v -0.500000 0.030884 0.177615
v 0.000000 0.030884 0.167800
v 0.000000 0.030884 0.177615
v 0.000000 0.013245 0.167800
v -0.472368 0.013245 0.167800
v -0.236184 0.013245 0.167800
v -0.472368 0.013245 0.083900
v -0.354276 0.013245 0.167800
v -0.118092 0.013245 0.167800
v -0.413322 0.013245 0.167800
v -0.295230 0.013245 0.167800
v -0.177138 0.013245 0.167800
v -0.059046 0.013245 0.167800
v -0.472368 0.013245 0.041950
v -0.472368 0.013245 0.125850
v -0.472368 0.013245 0.146825
v -0.472368 0.013245 0.104875
v -0.472368 0.013245 0.062925
v -0.472368 0.013245 0.020975
v -0.442845 0.013245 0.167800
v -0.383799 0.013245 0.167800
v -0.324753 0.013245 0.167800
v -0.265707 0.013245 0.167800
v -0.206661 0.013245 0.167800
v -0.147615 0.013245 0.167800
v -0.088569 0.013245 0.167800
v -0.029523 0.013245 0.167800
v -0.472368 0.013245 0.157312
v -0.472368 0.013245 0.136337
v -0.472368 0.013245 0.115362
v -0.472368 0.013245 0.094387
v -0.472368 0.013245 0.073412
v -0.472368 0.013245 0.052437
v -0.472368 0.013245 0.031462
v -0.472368 0.013245 0.010487
v 0.500000 0.000000 0.177615
v 0.472368 0.030884 0.167800
v 0.500000 0.030884 0.167800
v 0.472368 0.030884 0.177615
v 0.500000 0.030884 0.177615
v 0.472368 0.013245 0.167800
v 0.236184 0.013245 0.167800
v 0.472368 0.013245 0.083900
v 0.354276 0.013245 0.167800
v 0.118092 0.013245 0.167800
v 0.413322 0.013245 0.167800
v 0.295230 0.013245 0.167800
v 0.177138 0.013245 0.167800
v 0.059046 0.013245 0.167800
v 0.472368 0.013245 0.041950
v 0.472368 0.013245 0.125850
v 0.472368 0.013245 0.146825
v 0.472368 0.013245 0.104875
v 0.472368 0.013245 0.062925
v 0.472368 0.013245 0.020975
v 0.442845 0.013245 0.167800
v 0.383799 0.013245 0.167800
v 0.324753 0.013245 0.167800
v 0.265707 0.013245 0.167800
v 0.206661 0.013245 0.167800
v 0.147615 0.013245 0.167800
v 0.088569 0.013245 0.167800
v 0.029523 0.013245 0.167800
v 0.472368 0.013245 0.157312
v 0.472368 0.013245 0.136337
v 0.472368 0.013245 0.115362
v 0.472368 0.013245 0.094387
v 0.472368 0.013245 0.073412
v 0.472368 0.013245 0.052437
v 0.472368 0.013245 0.031462
v 0.472368 0.013245 0.010487
v -0.147615 0.031281 -0.167800
v -0.118092 0.031281 -0.167800
v -0.147615 0.031281 0.167800
v -0.118092 0.031281 0.167800
v 0.324753 0.030566 -0.167800
v 0.295230 0.030566 -0.167800
v 0.324753 0.030566 0.167800
v 0.295230 0.030566 0.167800
vn -0.0000 1.0000 -0.0000
vn -0.0000 -0.0000 -1.0000
vn -1.0000 -0.0000 -0.0000
vn -0.0000 -0.0000 1.0000
vn 1.0000 -0.0000 -0.0000
vn -0.0000 -1.0000 -0.0000
vn -0.0000 -0.0000 -0.0000
vn -0.7071 0.7071 -0.0000
vn 0.7071 0.7071 -0.0000
vn -0.7824 -0.0000 0.6227
vn -0.6858 -0.0000 0.7278
vt 0.486184 0.999163
vt 0.486184 0.985347
vt 0.500000 0.985347
vt 0.500000 0.999163
vt 0.486184 0.749163
vt 0.500000 0.749163
vt 0.557298 0.737870
vt 0.557297 0.987870
vt 0.541855 0.987870
vt 0.541855 0.974055
vt 0.541855 0.737870
vt 0.572740 0.487870
vt 0.572740 0.737870
vt 0.557298 0.501686
vt 0.557298 0.487870
vt 0.250000 0.985347
vt 0.250000 0.999163
vt 0.486184 0.499163
vt 0.500000 0.499163
vt 0.500000 0.512979
vt 0.486184 0.512979
vt 0.541855 0.501686
vt 0.541855 0.487870
vt 0.612444 0.930716
vt 0.612444 0.945477
vt 0.612444 0.960239
vt 0.603624 0.960239
vt 0.603624 0.724055
vt 0.603624 0.487870
vt 0.612444 0.487870
vt 0.612444 0.502632
vt 0.612444 0.517393
vt 0.612444 0.532155
vt 0.612444 0.546916
vt 0.612444 0.561678
vt 0.612444 0.576439
vt 0.612444 0.591201
vt 0.612444 0.605962
vt 0.612444 0.620724
vt 0.612444 0.635485
vt 0.612444 0.650247
vt 0.612444 0.665008
vt 0.612444 0.679770
vt 0.612444 0.694532
vt 0.612444 0.709293
vt 0.612444 0.724055
vt 0.612444 0.738816
vt 0.612444 0.753578
vt 0.612444 0.768339
vt 0.612444 0.783101
vt 0.612444 0.797862
vt 0.612444 0.812624
vt 0.612444 0.827385
vt 0.612444 0.842147
vt 0.612444 0.856908
vt 0.612444 0.871670
vt 0.612444 0.886431
vt 0.612444 0.901193
vt 0.612444 0.915954
vt 0.572740 0.974055
vt 0.588182 0.737870
vt 0.588182 0.987870
vt 0.572740 0.987870
vt 0.250000 0.512979
vt 0.250000 0.499163
vt 0.000000 0.749163
vt 0.013816 0.749163
vt 0.013816 0.985347
vt 0.000000 0.985347
vt 0.588182 0.501686
vt 0.588182 0.487870
vt 0.603624 0.737870
vt 0.557298 0.987870
vt 0.621264 0.517393
vt 0.621264 0.532155
vt 0.621264 0.546916
vt 0.621264 0.561678
vt 0.621264 0.576439
vt 0.621264 0.591201
vt 0.621264 0.605962
vt 0.621264 0.620724
vt 0.621264 0.635485
vt 0.621264 0.650247
vt 0.621264 0.665008
vt 0.621264 0.679770
vt 0.621264 0.694532
vt 0.621264 0.709293
vt 0.621264 0.724055
vt 0.621264 0.738816
vt 0.621264 0.753578
vt 0.621264 0.768339
vt 0.621264 0.783101
vt 0.621264 0.797862
vt 0.621264 0.812624
vt 0.621264 0.827385
vt 0.621264 0.842147
vt 0.621264 0.856908
vt 0.621264 0.871670
vt 0.621264 0.886431
vt 0.621264 0.901193
vt 0.621264 0.915954
vt 0.621264 0.930716
vt 0.621264 0.945477
vt 0.621264 0.960239
vt 0.621264 0.487870
vt 0.621264 0.502632
vt 0.000000 0.999163
vt 0.013816 0.499163
vt 0.013816 0.512979
vt 0.000000 0.512979
vt 0.000000 0.499163
vt 0.603624 0.987870
vt 0.588182 0.974055
vt 0.630084 0.487870
vt 0.630084 0.502632
vt 0.630084 0.517393
vt 0.630084 0.532155
vt 0.630084 0.546916
vt 0.630084 0.561678
vt 0.630084 0.576439
vt 0.630084 0.591201
vt 0.630084 0.605962
vt 0.630084 0.620724
vt 0.630084 0.635485
vt 0.630084 0.650247
vt 0.630084 0.665008
vt 0.630084 0.679770
vt 0.630084 0.694532
vt 0.630084 0.709293
vt 0.630084 0.724055
vt 0.630084 0.738816
vt 0.630084 0.753578
vt 0.630084 0.768339
vt 0.630084 0.783101
vt 0.630084 0.797862
vt 0.630084 0.812624
vt 0.630084 0.827385
vt 0.630084 0.842147
vt 0.630084 0.856908
vt 0.630084 0.871670
vt 0.630084 0.886431
vt 0.630084 0.901193
vt 0.630084 0.915954
vt 0.630084 0.930716
vt 0.630084 0.945477
vt 0.630084 0.960239
vt 0.572740 0.501686
vt 0.638904 0.487870
vt 0.638904 0.502632
vt 0.638904 0.517393
vt 0.638904 0.532155
vt 0.638904 0.546916
vt 0.638904 0.561678
vt 0.638904 0.576439
vt 0.638904 0.591201
vt 0.638904 0.605962
vt 0.638904 0.620724
vt 0.638904 0.635485
vt 0.638904 0.650247
vt 0.638904 0.665008
vt 0.638904 0.679770
vt 0.638904 0.694532
vt 0.638904 0.709293
vt 0.638904 0.724055
vt 0.638904 0.738816
vt 0.638904 0.753578
vt 0.638904 0.768339
vt 0.638904 0.783101
vt 0.638904 0.797862
vt 0.638904 0.812624
vt 0.638904 0.827385
vt 0.638904 0.842147
vt 0.638904 0.856908
vt 0.638904 0.871670
vt 0.638904 0.886431
vt 0.638904 0.901193
vt 0.638904 0.915954
vt 0.638904 0.930716
vt 0.638904 0.945477
vt 0.638904 0.960239
vt 0.456992 0.750000
vt 0.456992 0.956992
vt 0.250000 0.956992
vt 0.043008 0.956992
vt 0.043008 0.750000
vt 0.043008 0.543008
vt 0.250000 0.543008
vt 0.456992 0.543008
vt 0.474661 0.245485
vt 0.474661 0.259369
vt 0.474661 0.273253
vt 0.474661 0.287136
vt 0.474661 0.301020
vt 0.474661 0.314903
vt 0.474661 0.328787
vt 0.474661 0.342671
vt 0.474661 0.356554
vt 0.474661 0.370438
vt 0.474661 0.384322
vt 0.474661 0.398205
vt 0.474661 0.412089
vt 0.474661 0.425972
vt 0.474661 0.439856
vt 0.474661 0.453740
vt 0.474661 0.467623
vt 0.460777 0.467623
vt 0.446894 0.467623
vt 0.433010 0.467623
vt 0.419126 0.467623
vt 0.405243 0.467623
vt 0.391359 0.467623
vt 0.377476 0.467623
vt 0.363592 0.467623
vt 0.349708 0.467623
vt 0.335825 0.467623
vt 0.321941 0.467623
vt 0.308057 0.467623
vt 0.294174 0.467623
vt 0.280290 0.467623
vt 0.266407 0.467623
vt 0.252523 0.467623
vt 0.238639 0.467623
vt 0.224756 0.467623
vt 0.210872 0.467623
vt 0.196989 0.467623
vt 0.183105 0.467623
vt 0.169221 0.467623
vt 0.155338 0.467623
vt 0.141454 0.467623
vt 0.127570 0.467623
vt 0.113687 0.467623
vt 0.099803 0.467623
vt 0.085920 0.467623
vt 0.072036 0.467623
vt 0.058152 0.467623
vt 0.044269 0.467623
vt 0.030385 0.467623
vt 0.030385 0.453740
vt 0.030385 0.439856
vt 0.030385 0.425972
vt 0.030385 0.412089
vt 0.030385 0.398205
vt 0.030385 0.384322
vt 0.030385 0.370438
vt 0.030385 0.356554
vt 0.030385 0.342671
vt 0.030385 0.328787
vt 0.030385 0.314903
vt 0.030385 0.301020
vt 0.030385 0.287136
vt 0.030385 0.273253
vt 0.030385 0.259369
vt 0.030385 0.245485
vt 0.030385 0.231602
vt 0.030385 0.217718
vt 0.030385 0.203834
vt 0.030385 0.189951
vt 0.030385 0.176067
vt 0.030385 0.162184
vt 0.030385 0.148300
vt 0.030385 0.134416
vt 0.030385 0.120533
vt 0.030385 0.106649
vt 0.030385 0.092766
vt 0.030385 0.078882
vt 0.030385 0.064998
vt 0.030385 0.051115
vt 0.030385 0.037231
vt 0.030385 0.023347
vt 0.044269 0.023347
vt 0.058152 0.023347
vt 0.072036 0.023347
vt 0.085920 0.023347
vt 0.099803 0.023347
vt 0.113687 0.023347
vt 0.127571 0.023347
vt 0.141454 0.023347
vt 0.155338 0.023347
vt 0.169221 0.023347
vt 0.183105 0.023347
vt 0.196989 0.023347
vt 0.210872 0.023347
vt 0.224756 0.023347
vt 0.238639 0.023347
vt 0.252523 0.023347
vt 0.266407 0.023347
vt 0.280290 0.023347
vt 0.294174 0.023347
vt 0.308057 0.023347
vt 0.321941 0.023347
vt 0.335825 0.023347
vt 0.349708 0.023347
vt 0.363592 0.023347
vt 0.377476 0.023347
vt 0.391359 0.023347
vt 0.405243 0.023348
vt 0.419126 0.023348
vt 0.433010 0.023348
vt 0.446894 0.023348
vt 0.460777 0.023348
vt 0.474661 0.023348
vt 0.474661 0.037231
vt 0.474661 0.051115
vt 0.474661 0.064998
vt 0.474661 0.078882
vt 0.474661 0.092766
vt 0.474661 0.106649
vt 0.474661 0.120533
vt 0.474661 0.134416
vt 0.474661 0.148300
vt 0.474661 0.162184
vt 0.474661 0.176067
vt 0.474661 0.189951
vt 0.474661 0.203835
vt 0.474661 0.217718
vt 0.474661 0.231602
vt 0.000000 0.000000
s 1
usemtl Material.002
f 5/1/1 4/2/1 6/3/1 7/4/1
f 8/5/1 9/6/1 6/3/1 4/2/1
f 2/7/2 1/8/2 7/9/2 6/10/2 9/11/2
f 1/12/3 3/13/3 10/7/3 5/14/3 7/15/3
f 11/16/1 4/2/1 5/1/1 10/17/1
f 48/18/1 50/19/1 49/20/1 47/21/1
f 9/6/1 8/5/1 47/21/1 49/20/1
f 9/11/2 49/22/2 50/23/2 45/15/2 2/7/2
f 59/24/4 69/25/4 53/26/4 47/27/4 8/28/4 4/29/4 13/30/4 29/31/4 19/32/4 30/33/4 17/34/4 31/35/4 20/36/4 32/37/4 15/38/4 33/39/4 21/40/4 34/41/4 18/42/4 35/43/4 22/44/4 36/45/4 12/46/4 76/47/4 62/48/4 75/49/4 58/50/4 74/51/4 61/52/4 73/53/4 55/54/4 72/55/4 60/56/4 71/57/4 57/58/4 70/59/4
f 48/60/5 51/13/5 46/61/5 45/62/5 50/63/5
f 48/18/1 47/21/1 52/64/1 51/65/1
f 91/66/1 90/67/1 87/68/1 88/69/1
f 91/61/4 88/70/4 89/71/4 85/29/4 86/72/4
f 89/73/3 10/7/3 3/13/3 85/63/3
f 104/74/5 117/75/5 103/76/5 118/77/5 105/78/5 119/79/5 95/80/5 120/81/5 106/82/5 121/83/5 102/84/5 122/85/5 107/86/5 123/87/5 14/88/5 44/89/5 28/90/5 43/91/5 23/92/5 42/93/5 27/94/5 41/95/5 16/96/5 40/97/5 26/98/5 39/99/5 24/100/5 38/101/5 25/102/5 37/103/5 13/104/5 4/26/5 11/46/5 87/30/5 93/105/5 116/106/5
f 89/107/1 88/69/1 87/68/1 11/16/1 10/17/1
f 126/108/1 125/109/1 127/110/1 128/111/1
f 90/67/1 91/66/1 127/110/1 125/109/1
f 86/72/4 124/112/4 128/62/4 127/113/4 91/61/4
f 90/88/2 125/105/2 129/114/2 144/115/2 134/116/2 145/117/2 132/118/2 146/119/2 135/120/2 147/121/2 130/122/2 148/123/2 136/124/2 149/125/2 133/126/2 150/127/2 137/128/2 151/129/2 92/130/2 115/131/2 101/132/2 114/133/2 97/134/2 113/135/2 100/136/2 112/137/2 94/138/2 111/139/2 99/140/2 110/141/2 96/142/2 109/143/2 98/144/2 108/145/2 93/146/2 87/104/2
f 124/71/5 46/61/5 51/13/5 126/147/5 128/12/5
f 52/130/3 47/114/3 53/148/3 77/149/3 65/150/3 78/151/3 64/152/3 79/153/3 66/154/3 80/155/3 56/156/3 81/157/3 67/158/3 82/159/3 63/160/3 83/161/3 68/162/3 84/163/3 54/164/3 159/165/3 143/166/3 158/167/3 138/168/3 157/169/3 142/170/3 156/171/3 131/172/3 155/173/3 141/174/3 154/175/3 139/176/3 153/177/3 140/178/3 152/179/3 129/180/3 125/146/3
f 52/64/1 125/109/1 126/108/1 51/65/1
f 2/181/6 45/182/6 46/183/6 124/184/6 86/185/6 85/186/6 3/187/6 1/188/6
f 12/189/1 36/190/1 22/191/1 35/192/1 18/193/1 34/194/1 21/195/1 33/196/1 15/197/1 32/198/1 20/199/1 31/200/1 17/201/1 30/202/1 19/203/1 29/204/1 13/205/1 37/206/1 25/207/1 38/208/1 24/209/1 39/210/1 26/211/1 40/212/1 16/213/1 41/214/1 27/215/1 42/216/1 23/217/1 43/218/1 28/219/1 44/220/1 14/221/1 123/222/1 107/223/1 122/224/1 102/225/1 121/226/1 106/227/1 120/228/1 95/229/1 119/230/1 105/231/1 118/232/1 103/233/1 117/234/1 104/235/1 116/236/1 93/237/1 108/238/1 98/239/1 109/240/1 96/241/1 110/242/1 99/243/1 111/244/1 94/245/1 112/246/1 100/247/1 113/248/1 97/249/1 114/250/1 101/251/1 115/252/1 92/253/1 151/254/1 137/255/1 150/256/1 133/257/1 149/258/1 136/259/1 148/260/1 130/261/1 147/262/1 135/263/1 146/264/1 132/265/1 145/266/1 134/267/1 144/268/1 129/269/1 152/270/1 140/271/1 153/272/1 139/273/1 154/274/1 141/275/1 155/276/1 131/277/1 156/278/1 142/279/1 157/280/1 138/281/1 158/282/1 143/283/1 159/284/1 54/285/1 84/286/1 68/287/1 83/288/1 63/289/1 82/290/1 67/291/1 81/292/1 56/293/1 80/294/1 66/295/1 79/296/1 64/297/1 78/298/1 65/299/1 77/300/1 53/301/1 69/302/1 59/303/1 70/304/1 57/305/1 71/306/1 60/307/1 72/308/1 55/309/1 73/310/1 61/311/1 74/312/1 58/313/1 75/314/1 62/315/1 76/316/1
f 34/194/7 18/193/7 160/193/7 161/194/7
f 160/42/8 162/134/8 163/135/9 161/41/9
f 160/42/8 34/317/3 113/317/3 162/134/8
f 18/317/5 161/41/9 163/135/9 97/317/5
f 97/249/10 113/248/10 163/248/10 162/249/10
f 165/57/8 60/317/3 135/317/3 167/119/8
f 164/56/9 165/57/8 167/119/8 166/120/9
f 60/307/7 71/306/7 165/306/7 164/307/7
f 146/264/11 135/263/11 166/263/11 167/264/11
f 71/317/5 164/56/9 166/120/9 146/317/5
o Куб.008
v -0.402813 0.025123 -0.151533
v -0.397254 0.014483 -0.157093
v -0.402813 0.025123 -0.099799
v -0.397254 0.014483 -0.094239
v -0.454547 0.025123 -0.151533
v -0.460107 0.014483 -0.157093
v -0.454547 0.025123 -0.099799
v -0.460107 0.014483 -0.094239
v -0.397254 0.025123 -0.094239
v -0.397254 0.025123 -0.157093
v -0.460107 0.025123 -0.094239
v -0.460107 0.025123 -0.157093
v -0.402813 0.021493 -0.099799
v -0.402813 0.021493 -0.151533
v -0.454547 0.021493 -0.099799
v -0.454547 0.021493 -0.151533
vn 1.0000 -0.0000 -0.0000
vn -0.0000 -0.0000 1.0000
vn -1.0000 -0.0000 -0.0000
vn -0.0000 -0.0000 -1.0000
vn -0.0000 -1.0000 -0.0000
vn -0.0000 1.0000 -0.0000
vt 0.375000 0.000000
vt 0.625000 0.000000
vt 0.625000 0.250000
vt 0.375000 0.250000
vt 0.625000 0.500000
vt 0.375000 0.500000
vt 0.625000 0.750000
vt 0.375000 0.750000
vt 0.625000 1.000000
vt 0.375000 1.000000
vt 0.352886 0.522114
vt 0.352886 0.727886
vt 0.875000 0.500000
vt 0.875000 0.750000
vt 0.147114 0.522114
vt 0.147114 0.727886
vt 0.125000 0.750000
vt 0.125000 0.500000
s 0
usemtl Material
f 177/318/12 176/321/12 171/320/12 169/319/12
f 176/321/13 178/323/13 175/322/13 171/320/13
f 178/323/14 179/325/14 173/324/14 175/322/14
f 179/325/15 177/327/15 169/326/15 173/324/15
f 174/328/12 182/328/12 183/329/12 172/329/12
f 175/322/16 173/324/16 169/331/16 171/330/16
f 170/332/17 176/335/17 177/334/17 168/333/17
f 174/328/17 178/323/17 176/335/17 170/332/17
f 172/329/17 179/325/17 178/323/17 174/328/17
f 168/333/17 177/334/17 179/325/17 172/329/17
f 180/332/17 181/333/17 183/329/17 182/328/17
f 168/333/14 181/333/14 180/332/14 170/332/14
f 172/329/13 183/329/13 181/333/13 168/333/13
f 170/332/15 180/332/15 182/328/15 174/328/15
o Куб.007
v -0.165926 0.023708 -0.128950
v -0.161845 0.015898 -0.133031
v -0.165926 0.023708 -0.090979
v -0.161845 0.015898 -0.086898
v -0.203897 0.023708 -0.128950
v -0.207978 0.015898 -0.133031
v -0.203897 0.023708 -0.090979
v -0.207978 0.015898 -0.086898
v -0.161845 0.023708 -0.086898
v -0.161845 0.023708 -0.133031
v -0.207978 0.023708 -0.086898
v -0.207978 0.023708 -0.133031
v -0.165926 0.021044 -0.090979
v -0.165926 0.021044 -0.128950
v -0.203897 0.021044 -0.090979
v -0.203897 0.021044 -0.128950
vn 1.0000 -0.0000 -0.0000
vn -0.0000 -0.0000 1.0000
vn -1.0000 -0.0000 -0.0000
vn -0.0000 -0.0000 -1.0000
vn -0.0000 -1.0000 -0.0000
vn -0.0000 1.0000 -0.0000
vt 0.375000 0.000000
vt 0.625000 0.000000
vt 0.625000 0.250000
vt 0.375000 0.250000
vt 0.625000 0.500000
vt 0.375000 0.500000
vt 0.625000 0.750000
vt 0.375000 0.750000
vt 0.625000 1.000000
vt 0.375000 1.000000
vt 0.352886 0.522114
vt 0.352886 0.727886
vt 0.875000 0.500000
vt 0.875000 0.750000
vt 0.147114 0.522114
vt 0.147114 0.727886
vt 0.125000 0.750000
vt 0.125000 0.500000
s 0
f 193/336/18 192/339/18 187/338/18 185/337/18
f 192/339/19 194/341/19 191/340/19 187/338/19
f 194/341/20 195/343/20 189/342/20 191/340/20
f 195/343/21 193/345/21 185/344/21 189/342/21
f 190/346/18 198/346/18 199/347/18 188/347/18
f 191/340/22 189/342/22 185/349/22 187/348/22
f 186/350/23 192/353/23 193/352/23 184/351/23
f 190/346/23 194/341/23 192/353/23 186/350/23
f 188/347/23 195/343/23 194/341/23 190/346/23
f 184/351/23 193/352/23 195/343/23 188/347/23
f 196/350/23 197/351/23 199/347/23 198/346/23
f 184/351/20 197/351/20 196/350/20 186/350/20
f 188/347/19 199/347/19 197/351/19 184/351/19
f 186/350/21 196/350/21 198/346/21 190/346/21
o Куб.009
v -0.165926 0.023708 -0.070059
v -0.161845 0.015898 -0.074140
v -0.165926 0.023708 -0.032088
v -0.161845 0.015898 -0.028007
v -0.203897 0.023708 -0.070059
v -0.207978 0.015898 -0.074140
v -0.203897 0.023708 -0.032088
v -0.207978 0.015898 -0.028007
v -0.161845 0.023708 -0.028007
v -0.161845 0.023708 -0.074140
v -0.207978 0.023708 -0.028007
v -0.207978 0.023708 -0.074140
v -0.165926 0.021044 -0.032088
v -0.165926 0.021044 -0.070059
v -0.203897 0.021044 -0.032088
v -0.203897 0.021044 -0.070059
vn 1.0000 -0.0000 -0.0000
vn -0.0000 -0.0000 1.0000
vn -1.0000 -0.0000 -0.0000
vn -0.0000 -0.0000 -1.0000
vn -0.0000 -1.0000 -0.0000
vn -0.0000 1.0000 -0.0000
vt 0.375000 0.000000
vt 0.625000 0.000000
vt 0.625000 0.250000
vt 0.375000 0.250000
vt 0.625000 0.500000
vt 0.375000 0.500000
vt 0.625000 0.750000
vt 0.375000 0.750000
vt 0.625000 1.000000
vt 0.375000 1.000000
vt 0.352886 0.522114
vt 0.352886 0.727886
vt 0.875000 0.500000
vt 0.875000 0.750000
vt 0.147114 0.522114
vt 0.147114 0.727886
vt 0.125000 0.750000
vt 0.125000 0.500000
s 0
f 209/354/24 208/357/24 203/356/24 201/355/24
f 208/357/25 210/359/25 207/358/25 203/356/25
f 210/359/26 211/361/26 205/360/26 207/358/26
f 211/361/27 209/363/27 201/362/27 205/360/27
f 206/364/24 214/364/24 215/365/24 204/365/24
f 207/358/28 205/360/28 201/367/28 203/366/28
f 202/368/29 208/371/29 209/370/29 200/369/29
f 206/364/29 210/359/29 208/371/29 202/368/29
f 204/365/29 211/361/29 210/359/29 206/364/29
f 200/369/29 209/370/29 211/361/29 204/365/29
f 212/368/29 213/369/29 215/365/29 214/364/29
f 200/369/26 213/369/26 212/368/26 202/368/26
f 204/365/25 215/365/25 213/369/25 200/369/25
f 202/368/27 212/368/27 214/364/27 206/364/27
o Куб.010
v -0.165926 0.023708 -0.010271
v -0.161845 0.015898 -0.014352
v -0.165926 0.023708 0.027700
v -0.161845 0.015898 0.031781
v -0.203897 0.023708 -0.010271
v -0.207978 0.015898 -0.014352
v -0.203897 0.023708 0.027700
v -0.207978 0.015898 0.031781
v -0.161845 0.023708 0.031781
v -0.161845 0.023708 -0.014352
v -0.207978 0.023708 0.031781
v -0.207978 0.023708 -0.014352
v -0.165926 0.021044 0.027700
v -0.165926 0.021044 -0.010271
v -0.203897 0.021044 0.027700
v -0.203897 0.021044 -0.010271
vn 1.0000 -0.0000 -0.0000
vn -0.0000 -0.0000 1.0000
vn -1.0000 -0.0000 -0.0000
vn -0.0000 -0.0000 -1.0000
vn -0.0000 -1.0000 -0.0000
vn -0.0000 1.0000 -0.0000
vt 0.375000 0.000000
vt 0.625000 0.000000
vt 0.625000 0.250000
vt 0.375000 0.250000
vt 0.625000 0.500000
vt 0.375000 0.500000
vt 0.625000 0.750000
vt 0.375000 0.750000
vt 0.625000 1.000000
vt 0.375000 1.000000
vt 0.352886 0.522114
vt 0.352886 0.727886
vt 0.875000 0.500000
vt 0.875000 0.750000
vt 0.147114 0.522114
vt 0.147114 0.727886
vt 0.125000 0.750000
vt 0.125000 0.500000
s 0
f 225/372/30 224/375/30 219/374/30 217/373/30
f 224/375/31 226/377/31 223/376/31 219/374/31
f 226/377/32 227/379/32 221/378/32 223/376/32
f 227/379/33 225/381/33 217/380/33 221/378/33
f 222/382/30 230/382/30 231/383/30 220/383/30
f 223/376/34 221/378/34 217/385/34 219/384/34
f 218/386/35 224/389/35 225/388/35 216/387/35
f 222/382/35 226/377/35 224/389/35 218/386/35
f 220/383/35 227/379/35 226/377/35 222/382/35
f 216/387/35 225/388/35 227/379/35 220/383/35
f 228/386/35 229/387/35 231/383/35 230/382/35
f 216/387/32 229/387/32 228/386/32 218/386/32
f 220/383/31 231/383/31 229/387/31 216/387/31
f 218/386/33 228/386/33 230/382/33 222/382/33
o Куб.011
v -0.165926 0.023708 0.051496
v -0.161845 0.015898 0.047415
v -0.165926 0.023708 0.089467
v -0.161845 0.015898 0.093548
v -0.203897 0.023708 0.051496
v -0.207978 0.015898 0.047415
v -0.203897 0.023708 0.089467
v -0.207978 0.015898 0.093548
v -0.161845 0.023708 0.093548
v -0.161845 0.023708 0.047415
v -0.207978 0.023708 0.093548
v -0.207978 0.023708 0.047415
v -0.165926 0.021044 0.089467
v -0.165926 0.021044 0.051496
v -0.203897 0.021044 0.089467
v -0.203897 0.021044 0.051496
vn 1.0000 -0.0000 -0.0000
vn -0.0000 -0.0000 1.0000
vn -1.0000 -0.0000 -0.0000
vn -0.0000 -0.0000 -1.0000
vn -0.0000 -1.0000 -0.0000
vn -0.0000 1.0000 -0.0000
vt 0.375000 0.000000
vt 0.625000 0.000000
vt 0.625000 0.250000
vt 0.375000 0.250000
vt 0.625000 0.500000
vt 0.375000 0.500000
vt 0.625000 0.750000
vt 0.375000 0.750000
vt 0.625000 1.000000
vt 0.375000 1.000000
vt 0.352886 0.522114
vt 0.352886 0.727886
vt 0.875000 0.500000
vt 0.875000 0.750000
vt 0.147114 0.522114
vt 0.147114 0.727886
vt 0.125000 0.750000
vt 0.125000 0.500000
s 0
f 241/390/36 240/393/36 235/392/36 233/391/36
f 240/393/37 242/395/37 239/394/37 235/392/37
f 242/395/38 243/397/38 237/396/38 239/394/38
f 243/397/39 241/399/39 233/398/39 237/396/39
f 238/400/36 246/400/36 247/401/36 236/401/36
f 239/394/40 237/396/40 233/403/40 235/402/40
f 234/404/41 240/407/41 241/406/41 232/405/41
f 238/400/41 242/395/41 240/407/41 234/404/41
f 236/401/41 243/397/41 242/395/41 238/400/41
f 232/405/41 241/406/41 243/397/41 236/401/41
f 244/404/41 245/405/41 247/401/41 246/400/41
f 232/405/38 245/405/38 244/404/38 234/404/38
f 236/401/37 247/401/37 245/405/37 232/405/37
f 234/404/39 244/404/39 246/400/39 238/400/39
o Куб.001
v -0.298840 0.023708 -0.117390
v -0.293890 0.015898 -0.122341
v -0.298840 0.023708 -0.071329
v -0.293890 0.015898 -0.066378
v -0.344902 0.023708 -0.117390
v -0.349852 0.015898 -0.122341
v -0.344902 0.023708 -0.071329
v -0.349852 0.015898 -0.066378
v -0.293890 0.023708 -0.066378
v -0.293890 0.023708 -0.122341
v -0.349852 0.023708 -0.066378
v -0.349852 0.023708 -0.122341
v -0.298840 0.021044 -0.071329
v -0.298840 0.021044 -0.117390
v -0.344902 0.021044 -0.071329
v -0.344902 0.021044 -0.117390
v -0.298840 0.023708 -0.046447
v -0.293890 0.015898 -0.051398
v -0.298840 0.023708 -0.000385
v -0.293890 0.015898 0.004565
v -0.344902 0.023708 -0.046447
v -0.349852 0.015898 -0.051398
v -0.344902 0.023708 -0.000385
v -0.349852 0.015898 0.004565
v -0.293890 0.023708 0.004565
v -0.293890 0.023708 -0.051398
v -0.349852 0.023708 0.004565
v -0.349852 0.023708 -0.051398
v -0.298840 0.021044 -0.000385
v -0.298840 0.021044 -0.046447
v -0.344902 0.021044 -0.000385
v -0.344902 0.021044 -0.046447
v -0.303930 0.023708 0.018400
v -0.300037 0.015898 0.014508
v -0.303930 0.023708 0.054621
v -0.300037 0.015898 0.058513
v -0.340150 0.023708 0.018400
v -0.344043 0.015898 0.014508
v -0.340150 0.023708 0.054621
v -0.344043 0.015898 0.058513
v -0.300037 0.023708 0.058513
v -0.300037 0.023708 0.014508
v -0.344043 0.023708 0.058513
v -0.344043 0.023708 0.014508
v -0.303930 0.021044 0.054621
v -0.303930 0.021044 0.018400
v -0.340150 0.021044 0.054621
v -0.340150 0.021044 0.018400
v -0.250274 0.023708 0.003115
v -0.246382 0.015898 -0.000777
v -0.250274 0.023708 0.039336
v -0.246382 0.015898 0.043229
v -0.286495 0.023708 0.003115
v -0.290388 0.015898 -0.000777
v -0.286495 0.023708 0.039336
v -0.290388 0.015898 0.043229
v -0.246382 0.023708 0.043229
v -0.246382 0.023708 -0.000777
v -0.290388 0.023708 0.043229
v -0.290388 0.023708 -0.000777
v -0.250274 0.021044 0.039336
v -0.250274 0.021044 0.003115
v -0.286495 0.021044 0.039336
v -0.286495 0.021044 0.003115
v -0.356958 0.023708 0.003197
v -0.353065 0.015898 -0.000696
v -0.356958 0.023708 0.039417
v -0.353065 0.015898 0.043310
v -0.393178 0.023708 0.003197
v -0.397071 0.015898 -0.000696
v -0.393178 0.023708 0.039417
v -0.397071 0.015898 0.043310
v -0.353065 0.023708 0.043310
v -0.353065 0.023708 -0.000696
v -0.397071 0.023708 0.043310
v -0.397071 0.023708 -0.000696
v -0.356958 0.021044 0.039417
v -0.356958 0.021044 0.003197
v -0.393178 0.021044 0.039417
v -0.393178 0.021044 0.003197
v -0.357176 0.023708 -0.046393
v -0.353283 0.015898 -0.050286
v -0.357176 0.023708 -0.010173
v -0.353283 0.015898 -0.006280
v -0.393397 0.023708 -0.046393
v -0.397289 0.015898 -0.050286
v -0.393397 0.023708 -0.010173
v -0.397289 0.015898 -0.006280
v -0.353283 0.023708 -0.006280
v -0.353283 0.023708 -0.050286
v -0.397289 0.023708 -0.006280
v -0.397289 0.023708 -0.050286
v -0.357176 0.021044 -0.010173
v -0.357176 0.021044 -0.046393
v -0.393397 0.021044 -0.010173
v -0.393397 0.021044 -0.046393
v -0.250389 0.023708 -0.046393
v -0.246496 0.015898 -0.050286
v -0.250389 0.023708 -0.010173
v -0.246496 0.015898 -0.006280
v -0.286609 0.023708 -0.046393
v -0.290502 0.015898 -0.050286
v -0.286609 0.023708 -0.010173
v -0.290502 0.015898 -0.006280
v -0.246496 0.023708 -0.006280
v -0.246496 0.023708 -0.050286
v -0.290502 0.023708 -0.006280
v -0.290502 0.023708 -0.050286
v -0.250389 0.021044 -0.010173
v -0.250389 0.021044 -0.046393
v -0.286609 0.021044 -0.010173
v -0.286609 0.021044 -0.046393
v -0.300963 0.023708 -0.059226
v -0.300963 0.015898 -0.059226
v -0.342779 0.015898 -0.059226
v -0.342779 0.023708 -0.059226
v -0.293890 0.023708 -0.002953
v -0.293890 0.015898 -0.002953
v -0.349852 0.023708 -0.002953
v -0.349852 0.015898 -0.002953
v -0.298840 0.023708 -0.006573
v -0.344902 0.023708 -0.006573
v -0.298840 0.021044 -0.006573
v -0.344902 0.021044 -0.006573
v -0.321886 0.023708 -0.066378
v -0.321886 0.015898 -0.066378
v -0.321886 0.023708 -0.122341
v -0.321886 0.015898 -0.122341
v -0.321884 0.023708 -0.071329
v -0.321884 0.023708 -0.117390
v -0.321884 0.021044 -0.071329
v -0.321884 0.021044 -0.117390
v -0.321886 0.023708 0.004565
v -0.321886 0.015898 0.004565
v -0.321886 0.023708 -0.051398
v -0.321886 0.015898 -0.051398
v -0.321884 0.023708 -0.000385
v -0.321884 0.023708 -0.046447
v -0.321884 0.021044 -0.000385
v -0.321884 0.021044 -0.046447
v -0.322052 0.023708 0.058513
v -0.322052 0.015898 0.058513
v -0.322052 0.023708 0.014508
v -0.322052 0.015898 0.014508
v -0.322050 0.023708 0.054621
v -0.322050 0.023708 0.018400
v -0.322050 0.021044 0.054621
v -0.322050 0.021044 0.018400
v -0.321883 0.023708 -0.059226
v -0.321883 0.015898 -0.059226
v -0.321884 0.021044 -0.006573
v -0.321886 0.015898 -0.002953
v -0.300037 0.023708 0.036510
v -0.300037 0.015898 0.036510
v -0.344043 0.023708 0.036510
v -0.344043 0.015898 0.036510
v -0.303930 0.023708 0.036510
v -0.340150 0.023708 0.036510
v -0.303930 0.021044 0.036510
v -0.340150 0.021044 0.036510
v -0.322050 0.021044 0.036510
v -0.322052 0.015898 0.036510
v -0.280763 0.015898 0.055784
v -0.280763 0.015898 0.077787
v -0.280763 0.023708 0.077787
v -0.302778 0.023708 0.077787
v -0.302778 0.015898 0.077787
v -0.280763 0.023708 0.055784
v -0.340106 0.015898 0.076568
v -0.362097 0.015898 0.076568
v -0.362097 0.023708 0.076568
v -0.362097 0.023708 0.054565
v -0.340106 0.023708 0.076568
v -0.362097 0.015898 0.054565
v -0.280763 0.015898 0.110261
v -0.280763 0.023708 0.110261
v -0.302778 0.023708 0.110261
v -0.302778 0.015898 0.110261
v -0.340106 0.015898 0.109042
v -0.362097 0.015898 0.109042
v -0.362097 0.023708 0.109042
v -0.340106 0.023708 0.109042
vn 1.0000 -0.0000 -0.0000
vn -0.7110 -0.0000 0.7031
vn -1.0000 -0.0000 -0.0000
vn -0.0000 -0.0000 -1.0000
vn -0.0000 -1.0000 -0.0000
vn -0.0000 1.0000 -0.0000
vn -0.0000 -0.0000 1.0000
vn -0.8634 -0.0000 0.5045
vn -0.7071 -0.0000 -0.7071
vn -0.9998 -0.0000 0.0208
vn -0.9992 -0.0000 0.0391
vn -0.6961 -0.0000 0.7179
vn -0.7420 -0.0000 -0.6704
vn 0.7420 -0.0000 -0.6704
vn 0.7110 -0.0000 0.7031
vn 0.7007 -0.0000 0.7135
vn -0.3082 -0.0000 -0.9513
vn 0.3117 -0.0000 -0.9502
vn 0.9992 -0.0000 -0.0391
vn 0.9998 -0.0000 -0.0208
vn 0.8506 -0.0000 0.5259
vn -0.7071 -0.0000 0.7071
vn 0.7071 -0.0000 -0.7071
vn 0.7071 -0.0000 0.7071
vt 0.375000 0.000000
vt 0.625000 0.000000
vt 0.625000 0.250000
vt 0.375000 0.250000
vt 0.375000 0.750000
vt 0.625000 0.750000
vt 0.625000 0.500000
vt 0.375000 0.500000
vt 0.375000 0.874932
vt 0.625000 0.874932
vt 0.625000 1.000000
vt 0.375000 1.000000
vt 0.352886 0.522114
vt 0.352886 0.727886
vt 0.749932 0.500000
vt 0.875000 0.500000
vt 0.875000 0.750000
vt 0.749932 0.750000
vt 0.147114 0.522114
vt 0.147114 0.727886
vt 0.125000 0.750000
vt 0.125000 0.500000
vt 0.250056 0.522114
vt 0.250068 0.500000
vt 0.250056 0.727886
vt 0.250068 0.750000
vt 0.250056 0.727886
vt 0.375000 0.216414
vt 0.625000 0.216414
vt 0.375000 0.533586
vt 0.749932 0.750000
vt 0.749932 0.750000
vt 0.352886 0.549758
vt 0.352886 0.549758
vt 0.749932 0.533586
vt 0.875000 0.533586
vt 0.147114 0.549758
vt 0.125000 0.533586
vt 0.250068 0.500000
vt 0.250056 0.549758
vt 0.147114 0.549758
vt 0.125000 0.625000
vt 0.625000 0.625000
vt 0.375000 0.625000
vt 0.352886 0.625000
vt 0.749932 0.625000
vt 0.875000 0.625000
vt 0.147114 0.625000
vt 0.250068 0.500000
vt 0.250056 0.727886
vt 0.250056 0.625000
vt 0.625000 0.533586
vt 0.250068 0.750000
vt 0.625000 0.125000
vt 0.375000 0.125000
vt 0.625000 0.375068
vt 0.375000 0.375068
s 0
usemtl Материал
f 257/408/42 256/411/42 251/410/42 249/409/42
f 363/412/43 258/415/43 255/414/43 362/413/43
f 258/415/44 259/412/44 253/413/44 255/414/44
f 374/416/45 257/419/45 249/418/45 375/417/45
f 254/420/42 262/420/42 263/421/42 252/421/42
f 373/422/46 375/425/46 249/424/46 251/423/46
f 250/426/47 256/429/47 257/428/47 248/427/47
f 376/430/47 372/431/47 256/429/47 250/426/47
f 252/421/47 259/412/47 258/415/47 254/420/47
f 377/432/47 374/433/47 259/412/47 252/421/47
f 378/430/47 379/434/47 263/421/47 262/420/47
f 248/427/44 261/427/44 260/426/44 250/426/44
f 377/432/48 379/434/48 261/427/48 248/427/48
f 376/430/45 378/430/45 262/420/45 254/420/45
f 364/435/42 272/411/42 267/410/42 365/436/42
f 291/412/49 274/415/49 271/414/49 285/413/49
f 336/429/47 366/437/47 275/412/47 337/428/47
f 383/438/46 397/439/46 361/424/46 265/424/46
f 369/440/42 371/441/42 279/421/42 268/421/42
f 399/442/46 383/438/46 265/424/46 365/443/46
f 368/444/47 364/445/47 273/428/47 264/427/47
f 384/430/47 380/446/47 272/429/47 266/426/47
f 369/440/47 366/437/47 274/415/47 270/420/47
f 385/434/47 382/433/47 275/412/47 268/421/47
f 398/447/47 387/434/47 279/421/47 371/441/47
f 368/444/44 370/448/44 276/426/44 266/426/44
f 385/434/48 387/434/48 277/427/48 264/427/48
f 384/430/45 386/430/45 278/420/45 270/420/45
f 288/429/47 412/429/47 415/449/47 400/449/47
f 403/450/50 421/450/50 419/451/50 402/451/50
f 402/451/44 291/412/44 285/413/44 403/450/44
f 390/433/47 380/446/47 274/415/47 291/412/47
f 405/452/42 407/452/42 295/421/42 284/421/42
f 409/453/46 391/438/46 281/424/46 401/454/46
f 404/455/47 400/449/47 289/428/47 280/427/47
f 392/430/47 388/456/47 288/429/47 282/426/47
f 405/452/47 402/451/47 290/415/47 286/420/47
f 393/457/47 390/433/47 291/412/47 284/421/47
f 408/458/47 395/434/47 295/421/47 407/452/47
f 404/455/44 406/455/44 292/426/44 282/426/44
f 393/457/48 395/434/48 293/427/48 280/427/48
f 392/430/45 394/430/45 294/420/45 286/420/45
f 305/408/42 304/411/42 299/410/42 297/409/42
f 304/411/48 306/415/48 303/414/48 299/410/48
f 306/415/44 307/412/44 301/413/44 303/414/44
f 351/414/51 301/413/51 307/412/51 354/415/51
f 302/420/42 310/420/42 311/421/42 300/421/42
f 303/414/46 301/413/46 297/424/46 299/423/46
f 298/426/47 304/429/47 305/428/47 296/427/47
f 302/420/47 306/415/47 304/429/47 298/426/47
f 300/421/47 307/412/47 306/415/47 302/420/47
f 296/427/47 305/428/47 307/412/47 300/421/47
f 308/426/47 309/427/47 311/421/47 310/420/47
f 296/427/44 309/427/44 308/426/44 298/426/44
f 300/421/48 311/421/48 309/427/48 296/427/48
f 298/426/45 308/426/45 310/420/45 302/420/45
f 321/408/42 320/411/42 315/410/42 313/409/42
f 320/411/48 322/415/48 319/414/48 315/410/48
f 322/415/44 323/412/44 317/413/44 319/414/44
f 335/414/52 317/413/52 323/412/52 338/415/52
f 318/420/42 326/420/42 327/421/42 316/421/42
f 319/414/46 317/413/46 313/424/46 315/423/46
f 314/426/47 320/429/47 321/428/47 312/427/47
f 318/420/47 322/415/47 320/429/47 314/426/47
f 316/421/47 323/412/47 322/415/47 318/420/47
f 312/427/47 321/428/47 323/412/47 316/421/47
f 324/426/47 325/427/47 327/421/47 326/420/47
f 312/427/44 325/427/44 324/426/44 314/426/44
f 316/421/48 327/421/48 325/427/48 312/427/48
f 314/426/45 324/426/45 326/420/45 318/420/45
f 331/410/53 367/459/53 366/437/53 336/411/53
f 331/423/46 313/424/46 317/413/46 335/414/46
f 338/415/44 339/412/44 333/413/44 335/414/44
f 339/412/45 337/419/45 329/418/45 333/413/45
f 334/420/42 342/420/42 343/421/42 332/421/42
f 335/414/46 333/413/46 329/424/46 331/423/46
f 330/426/47 336/429/47 337/428/47 328/427/47
f 334/420/47 338/415/47 336/429/47 330/426/47
f 332/421/47 339/412/47 338/415/47 334/420/47
f 328/427/47 337/428/47 339/412/47 332/421/47
f 340/426/47 341/427/47 343/421/47 342/420/47
f 328/427/44 341/427/44 340/426/44 330/426/44
f 332/421/48 343/421/48 341/427/48 328/427/48
f 330/426/45 340/426/45 342/420/45 334/420/45
f 353/408/42 352/411/42 347/410/42 345/409/42
f 347/423/46 297/424/46 301/413/46 351/414/46
f 351/414/46 365/443/46 265/424/46 349/413/46
f 355/412/45 353/419/45 345/418/45 349/413/45
f 350/420/42 358/420/42 359/421/42 348/421/42
f 351/414/46 349/413/46 345/424/46 347/423/46
f 346/426/47 352/429/47 353/428/47 344/427/47
f 350/420/47 354/415/47 352/429/47 346/426/47
f 348/421/47 355/412/47 354/415/47 350/420/47
f 344/427/47 353/428/47 355/412/47 348/421/47
f 356/426/47 357/427/47 359/421/47 358/420/47
f 344/427/44 357/427/44 356/426/44 346/426/44
f 348/421/48 359/421/48 357/427/48 344/427/48
f 346/426/45 356/426/45 358/420/45 350/420/45
f 396/460/47 372/431/47 258/415/47 363/412/47
f 275/412/54 363/412/54 362/413/54 269/413/54
f 265/409/55 361/409/55 360/408/55 273/408/55
f 382/433/47 396/460/47 363/412/47 275/412/47
f 397/439/46 373/422/46 251/423/46 361/424/46
f 361/409/56 251/410/56 256/411/56 360/408/56
f 264/427/44 277/427/44 370/448/44 368/444/44
f 386/430/47 398/447/47 371/441/47 278/420/47
f 268/421/47 275/412/47 366/437/47 369/440/47
f 266/426/47 272/429/47 364/445/47 368/444/47
f 381/422/46 399/442/46 365/443/46 267/423/46
f 270/420/42 278/420/42 371/441/42 369/440/42
f 274/415/44 366/437/44 367/459/44 271/414/44
f 354/415/57 364/435/57 365/436/57 351/414/57
f 337/419/58 275/412/58 269/413/58 329/418/58
f 329/424/46 269/413/46 367/459/46 331/423/46
f 349/413/59 265/409/59 273/408/59 355/412/59
f 355/412/47 273/428/47 364/445/47 354/415/47
f 338/415/47 323/412/47 321/428/47 336/429/47
f 336/411/60 321/408/60 313/409/60 331/410/60
f 354/415/47 307/412/47 305/428/47 352/429/47
f 352/411/61 305/408/61 297/409/61 347/410/61
f 391/438/46 381/422/46 267/423/46 281/424/46
f 281/409/62 267/410/62 272/411/62 289/408/62
f 285/413/46 271/414/46 381/422/46 391/438/46
f 271/414/46 367/459/46 399/442/46 381/422/46
f 276/426/47 370/448/47 398/447/47 386/430/47
f 362/413/46 255/414/46 373/422/46 397/439/46
f 273/428/47 360/428/47 396/460/47 382/433/47
f 360/428/47 256/429/47 372/431/47 396/460/47
f 282/426/45 292/426/45 394/430/45 392/430/45
f 284/421/48 295/421/48 395/434/48 393/457/48
f 406/455/47 293/427/47 395/434/47 408/458/47
f 280/427/47 289/428/47 390/433/47 393/457/47
f 286/420/47 290/415/47 388/456/47 392/430/47
f 403/450/46 285/413/46 391/438/46 409/453/46
f 289/428/47 272/429/47 380/446/47 390/433/47
f 388/456/47 413/456/47 412/429/47 288/429/47
f 266/426/45 276/426/45 386/430/45 384/430/45
f 268/421/48 279/421/48 387/434/48 385/434/48
f 370/448/47 277/427/47 387/434/47 398/447/47
f 264/427/47 273/428/47 382/433/47 385/434/47
f 270/420/47 274/415/47 380/446/47 384/430/47
f 367/459/46 269/413/46 383/438/46 399/442/46
f 269/413/46 362/413/46 397/439/46 383/438/46
f 250/426/45 260/426/45 378/430/45 376/430/45
f 252/421/48 263/421/48 379/434/48 377/432/48
f 260/426/47 261/427/47 379/434/47 378/430/47
f 248/427/47 257/428/47 374/433/47 377/432/47
f 254/420/47 258/415/47 372/431/47 376/430/47
f 255/414/46 253/413/46 375/425/46 373/422/46
f 259/412/45 374/416/45 375/417/45 253/413/45
f 287/414/46 403/450/46 409/453/46 389/422/46
f 292/426/47 406/455/47 408/458/47 394/430/47
f 280/427/44 293/427/44 406/455/44 404/455/44
f 394/430/47 408/458/47 407/452/47 294/420/47
f 284/421/47 291/412/47 402/451/47 405/452/47
f 282/426/47 288/429/47 400/449/47 404/455/47
f 389/422/46 409/453/46 401/454/46 283/423/46
f 286/420/42 294/420/42 407/452/42 405/452/42
f 290/415/47 418/415/47 420/456/47 388/456/47
f 289/408/42 400/462/42 401/461/42 281/409/42
f 415/462/42 412/411/42 411/410/42 410/461/42
f 414/463/44 425/463/44 424/464/44 413/464/44
f 401/454/46 410/454/46 411/423/46 283/423/46
f 389/463/63 414/463/63 413/464/63 388/464/63
f 283/423/46 411/423/46 414/422/46 389/422/46
f 400/462/64 415/462/64 410/461/64 401/461/64
f 418/415/47 428/415/47 429/456/47 420/456/47
f 418/415/44 419/451/44 421/450/44 417/414/44
f 388/464/65 420/464/65 416/463/65 389/463/65
f 402/451/47 419/451/47 418/415/47 290/415/47
f 287/414/46 417/414/46 421/450/46 403/450/46
f 389/422/46 416/422/46 417/414/46 287/414/46
f 423/411/48 424/464/48 425/463/48 422/410/48
f 429/464/48 428/415/48 427/414/48 426/463/48
f 417/414/44 427/414/44 428/415/44 418/415/44
f 413/456/47 424/456/47 423/429/47 412/429/47
f 420/464/42 429/464/42 426/463/42 416/463/42
f 411/423/46 422/423/46 425/422/46 414/422/46
f 416/422/46 426/422/46 427/414/46 417/414/46
f 412/411/42 423/411/42 422/410/42 411/410/42
