# Blender 5.2.0 LTS
# www.blender.org
mtllib screen.mtl
o Cube
v 0.148845 -0.115000 0.008715
v 0.150114 0.115000 0.007319
v 0.144893 -0.115000 -0.007135
v 0.000000 -0.115000 -0.007500
v 0.000000 0.115000 -0.007500
v 0.000000 -0.115000 0.007500
v 0.000000 0.115000 0.007500
v 0.262596 -0.115000 -0.086487
v 0.262596 0.115000 -0.086487
v 0.252954 -0.115000 -0.097978
v 0.252954 0.115000 -0.097978
v 0.144650 0.115000 -0.007146
v -0.148845 -0.115000 0.008715
v -0.150114 0.115000 0.007319
v -0.144893 -0.115000 -0.007135
v -0.262596 -0.115000 -0.086487
v -0.262596 0.115000 -0.086487
v -0.252954 -0.115000 -0.097978
v -0.252954 0.115000 -0.097978
v -0.144650 0.115000 -0.007146
vn 0.0025 -0.0000 -1.0000
vn 0.9550 -0.0030 -0.2966
vn -0.0000 -1.0000 -0.0000
vn -0.0000 1.0000 -0.0000
vn -0.0035 0.0030 1.0000
vn -0.6430 -0.0004 -0.7658
vn 0.7660 -0.0000 -0.6428
vn 0.6411 0.0006 0.7674
vn -0.0025 -0.0000 -1.0000
vn -0.9550 -0.0030 -0.2966
vn 0.0035 0.0030 1.0000
vn 0.6430 -0.0004 -0.7658
vn -0.7660 -0.0000 -0.6428
vn -0.6411 0.0006 0.7674
vt 0.375000 0.375000
vt 0.625000 0.375000
vt 0.625000 0.500000
vt 0.375000 0.500000
vt 0.625000 0.750000
vt 0.375000 0.750000
vt 0.250000 0.500000
vt 0.250000 0.750000
vt 0.750000 0.500000
vt 0.750000 0.750000
vt 0.625000 0.875000
vt 0.375000 0.875000
s 0
usemtl Material.003
f 4/1/1 5/2/1 12/3/1 3/4/1
f 3/4/2 12/3/2 2/5/2 1/6/2
f 4/7/3 3/4/3 1/6/3 6/8/3
f 12/3/4 5/9/4 7/10/4 2/5/4
f 1/6/5 2/5/5 7/11/5 6/12/5
f 3/1/6 12/2/6 11/3/6 10/4/6
f 10/4/7 11/3/7 9/5/7 8/6/7
f 3/7/3 10/4/3 8/6/3 1/8/3
f 11/3/4 12/9/4 2/10/4 9/5/4
f 8/6/8 9/5/8 2/11/8 1/12/8
f 4/1/9 15/4/9 20/3/9 5/2/9
f 15/4/10 13/6/10 14/5/10 20/3/10
f 4/7/3 6/8/3 13/6/3 15/4/3
f 20/3/4 14/5/4 7/10/4 5/9/4
f 13/6/11 6/12/11 7/11/11 14/5/11
f 15/1/12 18/4/12 19/3/12 20/2/12
f 18/4/13 16/6/13 17/5/13 19/3/13
f 15/7/3 13/8/3 16/6/3 18/4/3
f 19/3/4 17/5/4 14/10/4 20/9/4
f 16/6/14 13/12/14 14/11/14 17/5/14
