# Blender 5.2.0 LTS
# www.blender.org
mtllib book.mtl
o Plane
v -0.049436 0.088100 0.162028
v -0.054243 0.088429 0.060434
v -0.054031 0.088429 0.162028
v -0.049456 0.085132 0.158524
v -0.049436 -0.088100 0.162028
v -0.054314 -0.088429 0.060354
v -0.054031 -0.088429 0.162028
v -0.049456 -0.085132 0.158524
v -0.054031 -0.088429 0.162028
v -0.049456 -0.085132 0.158524
v -0.054456 0.088429 0.000000
v -0.049929 0.088429 0.000000
v -0.054456 -0.088429 -0.000000
v -0.049929 -0.088429 -0.000000
v -0.049777 0.085427 0.005167
v -0.049788 0.085644 0.000000
v -0.022711 0.085132 0.158524
v -0.049777 -0.085427 -0.000000
v -0.049777 -0.085427 0.005167
v -0.022711 -0.085132 0.158524
v -0.035262 -0.085409 0.004696
v -0.035262 0.085409 0.004696
v -0.049436 0.088100 -0.162028
v -0.054243 0.088429 -0.060434
v -0.054031 0.088429 -0.162028
v -0.049456 0.085132 -0.158524
v -0.049436 -0.088100 -0.162028
v -0.054314 -0.088429 -0.060354
v -0.054031 -0.088429 -0.162028
v -0.049456 -0.085132 -0.158524
v -0.054031 -0.088429 -0.162028
v -0.049456 -0.085132 -0.158524
v -0.049777 0.085427 -0.005167
v -0.022711 0.085132 -0.158524
v -0.049777 -0.085427 -0.005167
v -0.022711 -0.085132 -0.158524
v -0.035262 -0.085409 -0.004696
v -0.035262 0.085409 -0.004696
vn -0.0000 -0.0000 1.0000
vn 1.0000 -0.0000 -0.0057
vn 1.0000 -0.0000 -0.0000
vn 0.0360 -0.9994 0.0009
vn 0.9998 -0.0220 -0.0025
vn -1.0000 0.0002 0.0024
vn 0.0362 0.9993 0.0009
vn 0.0005 -1.0000 0.0018
vn -1.0000 0.0002 -0.0000
vn 0.0090 1.0000 -0.0000
vn 0.0005 1.0000 0.0018
vn 0.0012 -1.0000 -0.0000
vn 0.9967 -0.0000 -0.0813
vn -0.0000 -0.0000 -1.0000
vn 1.0000 -0.0000 0.0057
vn 0.9998 0.0219 -0.0025
vn 0.0360 -0.9994 -0.0009
vn 0.9998 -0.0220 0.0025
vn -1.0000 0.0002 -0.0024
vn 0.0362 0.9993 -0.0009
vn 0.0005 -1.0000 -0.0018
vn 0.0005 1.0000 -0.0018
vn 0.9967 -0.0000 0.0813
vn 0.9998 0.0219 0.0025
vt 0.857746 0.826307
vt 0.857746 0.000000
vt 0.892451 0.001537
vt 0.892451 0.824770
vt 0.668165 0.824770
vt 0.666737 0.810901
vt 0.666737 0.015405
vt 0.668165 0.001537
vt 0.927157 -0.000000
vt 0.930986 -0.000000
vt 0.930986 0.798090
vt 0.927157 0.798090
vt 0.334371 0.802211
vt 0.348975 0.801610
vt 0.348929 0.821899
vt 0.309722 0.824030
vt 0.309769 0.803423
vt 0.604222 0.812282
vt 0.602116 0.826307
vt 0.602116 0.812282
vt 0.445383 0.000000
vt 0.445415 0.826307
vt 0.403969 0.826306
vt 0.403969 -0.000000
vt 0.348919 0.826341
vt 0.348873 0.846629
vt 0.334253 0.845644
vt 0.309675 0.844637
vt 0.309580 0.886144
vt 0.374640 0.886179
vt 0.430821 0.923525
vt 0.310941 0.923252
vt 0.470018 0.000001
vt 0.494653 0.000000
vt 0.494621 0.826307
vt 0.470018 0.826308
vt 0.430736 0.960630
vt 0.430089 0.958076
vt 0.430730 0.963130
vt 0.365672 0.962868
vt 0.365677 0.960595
vt 0.000000 0.795496
vt 0.000000 0.000000
vt 0.201985 -0.000000
vt 0.201985 0.795496
vt 0.429199 1.000231
vt 0.309321 0.999958
vt 0.374645 0.883906
vt 0.397300 0.797402
vt 0.309586 0.883644
vt 0.762955 0.798090
vt 0.668165 0.796793
vt 0.668165 0.001297
vt 0.762955 0.000000
vt 0.927157 0.826307
vt 0.892452 0.824770
vt 0.892452 0.001537
vt 0.927157 0.000000
vt 0.536067 0.824770
vt 0.536067 0.001537
vt 0.537495 0.015405
vt 0.537495 0.810901
vt 0.604222 0.014024
vt 0.602116 0.013014
vt 0.602116 0.000000
vt 0.363576 0.802277
vt 0.388173 0.803602
vt 0.388126 0.824208
vt 0.600010 0.812282
vt 0.536067 -0.000000
vt 0.536067 0.826306
vt 0.388079 0.844816
vt 0.363497 0.845711
vt 0.311116 0.846543
vt 0.430996 0.846816
vt 0.403969 0.795496
vt 0.201985 0.795496
vt 0.201985 -0.000000
vt 0.403969 0.000000
vt 0.309496 0.923249
vt 0.429374 0.923522
vt 0.762955 0.798090
vt 0.762955 0.000000
vt 0.857746 0.001297
vt 0.857746 0.796793
vt 0.600010 0.014024
s 0
usemtl leather
f 3/1/1 7/2/1 5/3/1 1/4/1
f 5/5/2 8/6/2 4/7/2 1/8/2
f 6/13/4 13/14/4 14/15/4 5/16/4 7/17/4
f 19/18/5 8/6/5 5/5/5 14/19/5 18/20/5
f 2/21/6 6/22/6 7/23/6 3/24/6
f 12/25/7 11/26/7 2/27/7 3/28/7 1/16/7
f 11/33/9 24/34/9 28/35/9 13/36/9 6/22/9 2/21/9
f 25/55/14 23/56/14 27/57/14 29/58/14
f 27/59/15 23/60/15 26/61/15 30/62/15
f 15/63/16 16/64/16 12/65/16 1/8/16 4/7/16
f 28/66/17 29/67/17 27/68/17 14/15/17 13/14/17
f 35/69/18 18/20/18 14/19/18 27/59/18 30/62/18
f 24/34/19 25/70/19 29/71/19 28/35/19
f 12/25/20 23/68/20 25/72/20 24/73/20 11/26/20
f 12/65/24 16/64/24 33/86/24 26/61/24 23/60/24
usemtl paper
f 19/29/8 21/30/8 20/31/8 8/32/8
f 33/37/10 16/38/10 15/39/10 22/40/10 38/41/10
f 4/42/1 8/43/1 20/44/1 17/45/1
f 15/39/11 4/46/11 17/47/11 22/40/11
f 37/48/12 21/30/12 19/29/12 18/49/12 35/50/12
f 35/50/21 30/74/21 36/75/21 37/48/21
f 26/76/14 34/77/14 36/78/14 30/79/14
f 33/37/22 38/41/22 34/80/22 26/81/22
usemtl title_paper
f 21/9/3 37/10/3 38/11/3 22/12/3
f 22/51/13 17/52/13 20/53/13 21/54/13
f 38/82/23 37/83/23 36/84/23 34/85/23
l 9 6
l 31 28
